solid patch0
   facet normal -1.000000e+000 0.000000e+000 0.000000e+000
      outer loop
         vertex 0.000000e+000 2.403534e-001 2.364475e-001
         vertex 0.000000e+000 2.415275e-001 2.352734e-001
         vertex 0.000000e+000 0.000000e+000 0.000000e+000
      endloop
   endfacet
   facet normal -1.000000e+000 0.000000e+000 0.000000e+000
      outer loop
         vertex 0.000000e+000 2.382697e-001 2.409160e-001
         vertex 0.000000e+000 2.386994e-001 2.393123e-001
         vertex 0.000000e+000 0.000000e+000 2.540000e-001
      endloop
   endfacet
   facet normal -1.000000e+000 0.000000e+000 0.000000e+000
      outer loop
         vertex 0.000000e+000 0.000000e+000 2.540000e-001
         vertex 0.000000e+000 2.386994e-001 2.393123e-001
         vertex 0.000000e+000 0.000000e+000 0.000000e+000
      endloop
   endfacet
   facet normal -1.000000e+000 0.000000e+000 0.000000e+000
      outer loop
         vertex 0.000000e+000 0.000000e+000 0.000000e+000
         vertex 0.000000e+000 2.386994e-001 2.393123e-001
         vertex 0.000000e+000 2.394011e-001 2.378075e-001
      endloop
   endfacet
   facet normal -1.000000e+000 0.000000e+000 0.000000e+000
      outer loop
         vertex 0.000000e+000 0.000000e+000 0.000000e+000
         vertex 0.000000e+000 2.394011e-001 2.378075e-001
         vertex 0.000000e+000 2.403534e-001 2.364475e-001
      endloop
   endfacet
   facet normal -1.000000e+000 0.000000e+000 0.000000e+000
      outer loop
         vertex 0.000000e+000 2.415275e-001 2.352734e-001
         vertex 0.000000e+000 2.428875e-001 2.343211e-001
         vertex 0.000000e+000 0.000000e+000 0.000000e+000
      endloop
   endfacet
   facet normal -1.000000e+000 0.000000e+000 0.000000e+000
      outer loop
         vertex 0.000000e+000 0.000000e+000 0.000000e+000
         vertex 0.000000e+000 2.428875e-001 2.343211e-001
         vertex 0.000000e+000 2.443923e-001 2.336194e-001
      endloop
   endfacet
   facet normal -1.000000e+000 0.000000e+000 0.000000e+000
      outer loop
         vertex 0.000000e+000 0.000000e+000 0.000000e+000
         vertex 0.000000e+000 2.443923e-001 2.336194e-001
         vertex 0.000000e+000 2.794000e-001 0.000000e+000
      endloop
   endfacet
   facet normal -1.000000e+000 0.000000e+000 0.000000e+000
      outer loop
         vertex 0.000000e+000 2.794000e-001 0.000000e+000
         vertex 0.000000e+000 2.443923e-001 2.336194e-001
         vertex 0.000000e+000 2.459960e-001 2.331897e-001
      endloop
   endfacet
   facet normal -1.000000e+000 0.000000e+000 0.000000e+000
      outer loop
         vertex 0.000000e+000 2.794000e-001 0.000000e+000
         vertex 0.000000e+000 2.459960e-001 2.331897e-001
         vertex 0.000000e+000 2.476500e-001 2.330450e-001
      endloop
   endfacet
   facet normal -1.000000e+000 0.000000e+000 0.000000e+000
      outer loop
         vertex 0.000000e+000 2.571750e-001 2.425700e-001
         vertex 0.000000e+000 2.794000e-001 2.540000e-001
         vertex 0.000000e+000 2.570303e-001 2.409160e-001
      endloop
   endfacet
   facet normal -1.000000e+000 0.000000e+000 0.000000e+000
      outer loop
         vertex 0.000000e+000 2.570303e-001 2.409160e-001
         vertex 0.000000e+000 2.794000e-001 2.540000e-001
         vertex 0.000000e+000 2.566006e-001 2.393123e-001
      endloop
   endfacet
   facet normal -1.000000e+000 0.000000e+000 0.000000e+000
      outer loop
         vertex 0.000000e+000 2.524125e-001 2.508189e-001
         vertex 0.000000e+000 2.509077e-001 2.515206e-001
         vertex 0.000000e+000 2.794000e-001 2.540000e-001
      endloop
   endfacet
   facet normal -1.000000e+000 0.000000e+000 0.000000e+000
      outer loop
         vertex 0.000000e+000 2.476500e-001 2.330450e-001
         vertex 0.000000e+000 2.493040e-001 2.331897e-001
         vertex 0.000000e+000 2.794000e-001 0.000000e+000
      endloop
   endfacet
   facet normal -1.000000e+000 0.000000e+000 0.000000e+000
      outer loop
         vertex 0.000000e+000 2.794000e-001 0.000000e+000
         vertex 0.000000e+000 2.493040e-001 2.331897e-001
         vertex 0.000000e+000 2.509077e-001 2.336194e-001
      endloop
   endfacet
   facet normal -1.000000e+000 0.000000e+000 0.000000e+000
      outer loop
         vertex 0.000000e+000 2.794000e-001 0.000000e+000
         vertex 0.000000e+000 2.509077e-001 2.336194e-001
         vertex 0.000000e+000 2.524125e-001 2.343211e-001
      endloop
   endfacet
   facet normal -1.000000e+000 0.000000e+000 0.000000e+000
      outer loop
         vertex 0.000000e+000 2.571750e-001 2.425700e-001
         vertex 0.000000e+000 2.570303e-001 2.442240e-001
         vertex 0.000000e+000 2.794000e-001 2.540000e-001
      endloop
   endfacet
   facet normal -1.000000e+000 0.000000e+000 0.000000e+000
      outer loop
         vertex 0.000000e+000 2.794000e-001 2.540000e-001
         vertex 0.000000e+000 2.570303e-001 2.442240e-001
         vertex 0.000000e+000 2.566006e-001 2.458277e-001
      endloop
   endfacet
   facet normal -1.000000e+000 0.000000e+000 0.000000e+000
      outer loop
         vertex 0.000000e+000 2.794000e-001 2.540000e-001
         vertex 0.000000e+000 2.566006e-001 2.458277e-001
         vertex 0.000000e+000 2.558989e-001 2.473325e-001
      endloop
   endfacet
   facet normal -1.000000e+000 0.000000e+000 0.000000e+000
      outer loop
         vertex 0.000000e+000 2.459960e-001 2.519503e-001
         vertex 0.000000e+000 0.000000e+000 2.540000e-001
         vertex 0.000000e+000 2.476500e-001 2.520950e-001
      endloop
   endfacet
   facet normal -1.000000e+000 0.000000e+000 0.000000e+000
      outer loop
         vertex 0.000000e+000 2.476500e-001 2.520950e-001
         vertex 0.000000e+000 0.000000e+000 2.540000e-001
         vertex 0.000000e+000 2.794000e-001 2.540000e-001
      endloop
   endfacet
   facet normal -1.000000e+000 0.000000e+000 0.000000e+000
      outer loop
         vertex 0.000000e+000 2.476500e-001 2.520950e-001
         vertex 0.000000e+000 2.794000e-001 2.540000e-001
         vertex 0.000000e+000 2.493040e-001 2.519503e-001
      endloop
   endfacet
   facet normal -1.000000e+000 0.000000e+000 0.000000e+000
      outer loop
         vertex 0.000000e+000 2.493040e-001 2.519503e-001
         vertex 0.000000e+000 2.794000e-001 2.540000e-001
         vertex 0.000000e+000 2.509077e-001 2.515206e-001
      endloop
   endfacet
   facet normal -1.000000e+000 0.000000e+000 0.000000e+000
      outer loop
         vertex 0.000000e+000 2.524125e-001 2.343211e-001
         vertex 0.000000e+000 2.537726e-001 2.352734e-001
         vertex 0.000000e+000 2.794000e-001 0.000000e+000
      endloop
   endfacet
   facet normal -1.000000e+000 0.000000e+000 0.000000e+000
      outer loop
         vertex 0.000000e+000 2.794000e-001 0.000000e+000
         vertex 0.000000e+000 2.537726e-001 2.352734e-001
         vertex 0.000000e+000 2.549466e-001 2.364475e-001
      endloop
   endfacet
   facet normal -1.000000e+000 0.000000e+000 0.000000e+000
      outer loop
         vertex 0.000000e+000 2.794000e-001 0.000000e+000
         vertex 0.000000e+000 2.549466e-001 2.364475e-001
         vertex 0.000000e+000 2.794000e-001 2.540000e-001
      endloop
   endfacet
   facet normal -1.000000e+000 0.000000e+000 0.000000e+000
      outer loop
         vertex 0.000000e+000 2.794000e-001 2.540000e-001
         vertex 0.000000e+000 2.549466e-001 2.364475e-001
         vertex 0.000000e+000 2.558989e-001 2.378075e-001
      endloop
   endfacet
   facet normal -1.000000e+000 0.000000e+000 0.000000e+000
      outer loop
         vertex 0.000000e+000 2.794000e-001 2.540000e-001
         vertex 0.000000e+000 2.558989e-001 2.378075e-001
         vertex 0.000000e+000 2.566006e-001 2.393123e-001
      endloop
   endfacet
   facet normal -1.000000e+000 0.000000e+000 0.000000e+000
      outer loop
         vertex 0.000000e+000 2.558989e-001 2.473325e-001
         vertex 0.000000e+000 2.549466e-001 2.486926e-001
         vertex 0.000000e+000 2.794000e-001 2.540000e-001
      endloop
   endfacet
   facet normal -1.000000e+000 0.000000e+000 0.000000e+000
      outer loop
         vertex 0.000000e+000 2.794000e-001 2.540000e-001
         vertex 0.000000e+000 2.549466e-001 2.486926e-001
         vertex 0.000000e+000 2.537726e-001 2.498666e-001
      endloop
   endfacet
   facet normal -1.000000e+000 0.000000e+000 0.000000e+000
      outer loop
         vertex 0.000000e+000 2.794000e-001 2.540000e-001
         vertex 0.000000e+000 2.537726e-001 2.498666e-001
         vertex 0.000000e+000 2.524125e-001 2.508189e-001
      endloop
   endfacet
   facet normal -1.000000e+000 0.000000e+000 0.000000e+000
      outer loop
         vertex 0.000000e+000 2.459960e-001 2.519503e-001
         vertex 0.000000e+000 2.443923e-001 2.515206e-001
         vertex 0.000000e+000 0.000000e+000 2.540000e-001
      endloop
   endfacet
   facet normal -1.000000e+000 0.000000e+000 0.000000e+000
      outer loop
         vertex 0.000000e+000 0.000000e+000 2.540000e-001
         vertex 0.000000e+000 2.443923e-001 2.515206e-001
         vertex 0.000000e+000 2.428875e-001 2.508189e-001
      endloop
   endfacet
   facet normal -1.000000e+000 0.000000e+000 0.000000e+000
      outer loop
         vertex 0.000000e+000 0.000000e+000 2.540000e-001
         vertex 0.000000e+000 2.428875e-001 2.508189e-001
         vertex 0.000000e+000 2.415275e-001 2.498666e-001
      endloop
   endfacet
   facet normal -1.000000e+000 0.000000e+000 0.000000e+000
      outer loop
         vertex 0.000000e+000 2.415275e-001 2.498666e-001
         vertex 0.000000e+000 2.403534e-001 2.486926e-001
         vertex 0.000000e+000 0.000000e+000 2.540000e-001
      endloop
   endfacet
   facet normal -1.000000e+000 0.000000e+000 0.000000e+000
      outer loop
         vertex 0.000000e+000 0.000000e+000 2.540000e-001
         vertex 0.000000e+000 2.403534e-001 2.486926e-001
         vertex 0.000000e+000 2.394011e-001 2.473325e-001
      endloop
   endfacet
   facet normal -1.000000e+000 0.000000e+000 0.000000e+000
      outer loop
         vertex 0.000000e+000 0.000000e+000 2.540000e-001
         vertex 0.000000e+000 2.394011e-001 2.473325e-001
         vertex 0.000000e+000 2.386994e-001 2.458277e-001
      endloop
   endfacet
   facet normal -1.000000e+000 0.000000e+000 0.000000e+000
      outer loop
         vertex 0.000000e+000 2.386994e-001 2.458277e-001
         vertex 0.000000e+000 2.382697e-001 2.442240e-001
         vertex 0.000000e+000 0.000000e+000 2.540000e-001
      endloop
   endfacet
   facet normal -1.000000e+000 0.000000e+000 0.000000e+000
      outer loop
         vertex 0.000000e+000 0.000000e+000 2.540000e-001
         vertex 0.000000e+000 2.382697e-001 2.442240e-001
         vertex 0.000000e+000 2.381250e-001 2.425700e-001
      endloop
   endfacet
   facet normal -1.000000e+000 0.000000e+000 0.000000e+000
      outer loop
         vertex 0.000000e+000 0.000000e+000 2.540000e-001
         vertex 0.000000e+000 2.381250e-001 2.425700e-001
         vertex 0.000000e+000 2.382697e-001 2.409160e-001
      endloop
   endfacet
   facet normal 0.000000e+000 0.000000e+000 -1.000000e+000
      outer loop
         vertex 2.794000e-001 2.794000e-001 0.000000e+000
         vertex 1.397000e-001 1.524000e-001 0.000000e+000
         vertex 0.000000e+000 2.794000e-001 0.000000e+000
      endloop
   endfacet
   facet normal 0.000000e+000 0.000000e+000 -1.000000e+000
      outer loop
         vertex 0.000000e+000 2.794000e-001 0.000000e+000
         vertex 1.397000e-001 1.524000e-001 0.000000e+000
         vertex 1.374947e-001 1.522071e-001 0.000000e+000
      endloop
   endfacet
   facet normal 0.000000e+000 0.000000e+000 -1.000000e+000
      outer loop
         vertex 1.374947e-001 1.522071e-001 0.000000e+000
         vertex 1.353563e-001 1.516341e-001 0.000000e+000
         vertex 0.000000e+000 2.794000e-001 0.000000e+000
      endloop
   endfacet
   facet normal 0.000000e+000 0.000000e+000 -1.000000e+000
      outer loop
         vertex 0.000000e+000 2.794000e-001 0.000000e+000
         vertex 1.353563e-001 1.516341e-001 0.000000e+000
         vertex 1.333500e-001 1.506985e-001 0.000000e+000
      endloop
   endfacet
   facet normal 0.000000e+000 0.000000e+000 -1.000000e+000
      outer loop
         vertex 0.000000e+000 2.794000e-001 0.000000e+000
         vertex 1.333500e-001 1.506985e-001 0.000000e+000
         vertex 1.315366e-001 1.494288e-001 0.000000e+000
      endloop
   endfacet
   facet normal 0.000000e+000 0.000000e+000 -1.000000e+000
      outer loop
         vertex 1.516341e-001 1.440437e-001 0.000000e+000
         vertex 1.506985e-001 1.460500e-001 0.000000e+000
         vertex 2.794000e-001 2.794000e-001 0.000000e+000
      endloop
   endfacet
   facet normal 0.000000e+000 0.000000e+000 -1.000000e+000
      outer loop
         vertex 1.315366e-001 1.494288e-001 0.000000e+000
         vertex 1.299712e-001 1.478634e-001 0.000000e+000
         vertex 0.000000e+000 2.794000e-001 0.000000e+000
      endloop
   endfacet
   facet normal 0.000000e+000 0.000000e+000 -1.000000e+000
      outer loop
         vertex 0.000000e+000 2.794000e-001 0.000000e+000
         vertex 1.299712e-001 1.478634e-001 0.000000e+000
         vertex 1.287015e-001 1.460500e-001 0.000000e+000
      endloop
   endfacet
   facet normal 0.000000e+000 0.000000e+000 -1.000000e+000
      outer loop
         vertex 0.000000e+000 2.794000e-001 0.000000e+000
         vertex 1.287015e-001 1.460500e-001 0.000000e+000
         vertex 1.277659e-001 1.440437e-001 0.000000e+000
      endloop
   endfacet
   facet normal 0.000000e+000 0.000000e+000 -1.000000e+000
      outer loop
         vertex 1.299712e-001 1.315366e-001 0.000000e+000
         vertex 0.000000e+000 0.000000e+000 0.000000e+000
         vertex 1.287015e-001 1.333500e-001 0.000000e+000
      endloop
   endfacet
   facet normal 0.000000e+000 0.000000e+000 -1.000000e+000
      outer loop
         vertex 1.287015e-001 1.333500e-001 0.000000e+000
         vertex 0.000000e+000 0.000000e+000 0.000000e+000
         vertex 1.277659e-001 1.353563e-001 0.000000e+000
      endloop
   endfacet
   facet normal 0.000000e+000 0.000000e+000 -1.000000e+000
      outer loop
         vertex 1.299712e-001 1.315366e-001 0.000000e+000
         vertex 1.315366e-001 1.299712e-001 0.000000e+000
         vertex 0.000000e+000 0.000000e+000 0.000000e+000
      endloop
   endfacet
   facet normal 0.000000e+000 0.000000e+000 -1.000000e+000
      outer loop
         vertex 0.000000e+000 0.000000e+000 0.000000e+000
         vertex 1.315366e-001 1.299712e-001 0.000000e+000
         vertex 1.333500e-001 1.287015e-001 0.000000e+000
      endloop
   endfacet
   facet normal 0.000000e+000 0.000000e+000 -1.000000e+000
      outer loop
         vertex 0.000000e+000 0.000000e+000 0.000000e+000
         vertex 1.333500e-001 1.287015e-001 0.000000e+000
         vertex 1.353563e-001 1.277659e-001 0.000000e+000
      endloop
   endfacet
   facet normal 0.000000e+000 0.000000e+000 -1.000000e+000
      outer loop
         vertex 1.440437e-001 1.277659e-001 0.000000e+000
         vertex 1.460500e-001 1.287015e-001 0.000000e+000
         vertex 2.794000e-001 0.000000e+000 0.000000e+000
      endloop
   endfacet
   facet normal 0.000000e+000 0.000000e+000 -1.000000e+000
      outer loop
         vertex 2.794000e-001 0.000000e+000 0.000000e+000
         vertex 1.460500e-001 1.287015e-001 0.000000e+000
         vertex 1.478634e-001 1.299712e-001 0.000000e+000
      endloop
   endfacet
   facet normal 0.000000e+000 0.000000e+000 -1.000000e+000
      outer loop
         vertex 1.277659e-001 1.440437e-001 0.000000e+000
         vertex 1.271929e-001 1.419053e-001 0.000000e+000
         vertex 0.000000e+000 2.794000e-001 0.000000e+000
      endloop
   endfacet
   facet normal 0.000000e+000 0.000000e+000 -1.000000e+000
      outer loop
         vertex 0.000000e+000 2.794000e-001 0.000000e+000
         vertex 1.271929e-001 1.419053e-001 0.000000e+000
         vertex 1.270000e-001 1.397000e-001 0.000000e+000
      endloop
   endfacet
   facet normal 0.000000e+000 0.000000e+000 -1.000000e+000
      outer loop
         vertex 0.000000e+000 2.794000e-001 0.000000e+000
         vertex 1.270000e-001 1.397000e-001 0.000000e+000
         vertex 0.000000e+000 0.000000e+000 0.000000e+000
      endloop
   endfacet
   facet normal 0.000000e+000 0.000000e+000 -1.000000e+000
      outer loop
         vertex 0.000000e+000 0.000000e+000 0.000000e+000
         vertex 1.270000e-001 1.397000e-001 0.000000e+000
         vertex 1.271929e-001 1.374947e-001 0.000000e+000
      endloop
   endfacet
   facet normal 0.000000e+000 0.000000e+000 -1.000000e+000
      outer loop
         vertex 0.000000e+000 0.000000e+000 0.000000e+000
         vertex 1.271929e-001 1.374947e-001 0.000000e+000
         vertex 1.277659e-001 1.353563e-001 0.000000e+000
      endloop
   endfacet
   facet normal 0.000000e+000 0.000000e+000 -1.000000e+000
      outer loop
         vertex 1.478634e-001 1.299712e-001 0.000000e+000
         vertex 1.494288e-001 1.315366e-001 0.000000e+000
         vertex 2.794000e-001 0.000000e+000 0.000000e+000
      endloop
   endfacet
   facet normal 0.000000e+000 0.000000e+000 -1.000000e+000
      outer loop
         vertex 2.794000e-001 0.000000e+000 0.000000e+000
         vertex 1.494288e-001 1.315366e-001 0.000000e+000
         vertex 1.506985e-001 1.333500e-001 0.000000e+000
      endloop
   endfacet
   facet normal 0.000000e+000 0.000000e+000 -1.000000e+000
      outer loop
         vertex 2.794000e-001 0.000000e+000 0.000000e+000
         vertex 1.506985e-001 1.333500e-001 0.000000e+000
         vertex 1.516341e-001 1.353563e-001 0.000000e+000
      endloop
   endfacet
   facet normal 0.000000e+000 0.000000e+000 -1.000000e+000
      outer loop
         vertex 1.506985e-001 1.460500e-001 0.000000e+000
         vertex 1.494288e-001 1.478634e-001 0.000000e+000
         vertex 2.794000e-001 2.794000e-001 0.000000e+000
      endloop
   endfacet
   facet normal 0.000000e+000 0.000000e+000 -1.000000e+000
      outer loop
         vertex 2.794000e-001 2.794000e-001 0.000000e+000
         vertex 1.494288e-001 1.478634e-001 0.000000e+000
         vertex 1.478634e-001 1.494288e-001 0.000000e+000
      endloop
   endfacet
   facet normal 0.000000e+000 0.000000e+000 -1.000000e+000
      outer loop
         vertex 2.794000e-001 2.794000e-001 0.000000e+000
         vertex 1.478634e-001 1.494288e-001 0.000000e+000
         vertex 1.460500e-001 1.506985e-001 0.000000e+000
      endloop
   endfacet
   facet normal 0.000000e+000 0.000000e+000 -1.000000e+000
      outer loop
         vertex 1.460500e-001 1.506985e-001 0.000000e+000
         vertex 1.440437e-001 1.516341e-001 0.000000e+000
         vertex 2.794000e-001 2.794000e-001 0.000000e+000
      endloop
   endfacet
   facet normal 0.000000e+000 0.000000e+000 -1.000000e+000
      outer loop
         vertex 2.794000e-001 2.794000e-001 0.000000e+000
         vertex 1.440437e-001 1.516341e-001 0.000000e+000
         vertex 1.419053e-001 1.522071e-001 0.000000e+000
      endloop
   endfacet
   facet normal 0.000000e+000 0.000000e+000 -1.000000e+000
      outer loop
         vertex 2.794000e-001 2.794000e-001 0.000000e+000
         vertex 1.419053e-001 1.522071e-001 0.000000e+000
         vertex 1.397000e-001 1.524000e-001 0.000000e+000
      endloop
   endfacet
   facet normal 0.000000e+000 0.000000e+000 -1.000000e+000
      outer loop
         vertex 1.353563e-001 1.277659e-001 0.000000e+000
         vertex 1.374947e-001 1.271929e-001 0.000000e+000
         vertex 0.000000e+000 0.000000e+000 0.000000e+000
      endloop
   endfacet
   facet normal 0.000000e+000 0.000000e+000 -1.000000e+000
      outer loop
         vertex 0.000000e+000 0.000000e+000 0.000000e+000
         vertex 1.374947e-001 1.271929e-001 0.000000e+000
         vertex 1.397000e-001 1.270000e-001 0.000000e+000
      endloop
   endfacet
   facet normal 0.000000e+000 0.000000e+000 -1.000000e+000
      outer loop
         vertex 0.000000e+000 0.000000e+000 0.000000e+000
         vertex 1.397000e-001 1.270000e-001 0.000000e+000
         vertex 2.794000e-001 0.000000e+000 0.000000e+000
      endloop
   endfacet
   facet normal 0.000000e+000 0.000000e+000 -1.000000e+000
      outer loop
         vertex 2.794000e-001 0.000000e+000 0.000000e+000
         vertex 1.397000e-001 1.270000e-001 0.000000e+000
         vertex 1.419053e-001 1.271929e-001 0.000000e+000
      endloop
   endfacet
   facet normal 0.000000e+000 0.000000e+000 -1.000000e+000
      outer loop
         vertex 2.794000e-001 0.000000e+000 0.000000e+000
         vertex 1.419053e-001 1.271929e-001 0.000000e+000
         vertex 1.440437e-001 1.277659e-001 0.000000e+000
      endloop
   endfacet
   facet normal 0.000000e+000 0.000000e+000 -1.000000e+000
      outer loop
         vertex 1.516341e-001 1.353563e-001 0.000000e+000
         vertex 1.522071e-001 1.374947e-001 0.000000e+000
         vertex 2.794000e-001 0.000000e+000 0.000000e+000
      endloop
   endfacet
   facet normal 0.000000e+000 0.000000e+000 -1.000000e+000
      outer loop
         vertex 2.794000e-001 0.000000e+000 0.000000e+000
         vertex 1.522071e-001 1.374947e-001 0.000000e+000
         vertex 1.524000e-001 1.397000e-001 0.000000e+000
      endloop
   endfacet
   facet normal 0.000000e+000 0.000000e+000 -1.000000e+000
      outer loop
         vertex 2.794000e-001 0.000000e+000 0.000000e+000
         vertex 1.524000e-001 1.397000e-001 0.000000e+000
         vertex 2.794000e-001 2.794000e-001 0.000000e+000
      endloop
   endfacet
   facet normal 0.000000e+000 0.000000e+000 -1.000000e+000
      outer loop
         vertex 2.794000e-001 2.794000e-001 0.000000e+000
         vertex 1.524000e-001 1.397000e-001 0.000000e+000
         vertex 1.522071e-001 1.419053e-001 0.000000e+000
      endloop
   endfacet
   facet normal 0.000000e+000 0.000000e+000 -1.000000e+000
      outer loop
         vertex 2.794000e-001 2.794000e-001 0.000000e+000
         vertex 1.522071e-001 1.419053e-001 0.000000e+000
         vertex 1.516341e-001 1.440437e-001 0.000000e+000
      endloop
   endfacet
   facet normal 0.000000e+000 0.000000e+000 1.000000e+000
      outer loop
         vertex 2.794000e-001 2.794000e-001 2.540000e-001
         vertex 0.000000e+000 2.794000e-001 2.540000e-001
         vertex 2.794000e-001 0.000000e+000 2.540000e-001
      endloop
   endfacet
   facet normal 0.000000e+000 0.000000e+000 1.000000e+000
      outer loop
         vertex 2.794000e-001 0.000000e+000 2.540000e-001
         vertex 0.000000e+000 2.794000e-001 2.540000e-001
         vertex 0.000000e+000 0.000000e+000 2.540000e-001
      endloop
   endfacet
   facet normal 1.000000e+000 0.000000e+000 0.000000e+000
      outer loop
         vertex 2.794000e-001 2.794000e-001 0.000000e+000
         vertex 2.794000e-001 2.794000e-001 2.540000e-001
         vertex 2.794000e-001 0.000000e+000 0.000000e+000
      endloop
   endfacet
   facet normal 1.000000e+000 0.000000e+000 0.000000e+000
      outer loop
         vertex 2.794000e-001 0.000000e+000 0.000000e+000
         vertex 2.794000e-001 2.794000e-001 2.540000e-001
         vertex 2.794000e-001 0.000000e+000 2.540000e-001
      endloop
   endfacet
   facet normal 0.000000e+000 1.000000e+000 0.000000e+000
      outer loop
         vertex 2.794000e-001 2.794000e-001 2.540000e-001
         vertex 2.794000e-001 2.794000e-001 0.000000e+000
         vertex 0.000000e+000 2.794000e-001 2.540000e-001
      endloop
   endfacet
   facet normal 0.000000e+000 1.000000e+000 0.000000e+000
      outer loop
         vertex 0.000000e+000 2.794000e-001 2.540000e-001
         vertex 2.794000e-001 2.794000e-001 0.000000e+000
         vertex 0.000000e+000 2.794000e-001 0.000000e+000
      endloop
   endfacet
   facet normal 0.000000e+000 -1.000000e+000 0.000000e+000
      outer loop
         vertex 2.794000e-001 0.000000e+000 0.000000e+000
         vertex 2.794000e-001 0.000000e+000 2.540000e-001
         vertex 0.000000e+000 0.000000e+000 0.000000e+000
      endloop
   endfacet
   facet normal 0.000000e+000 -1.000000e+000 0.000000e+000
      outer loop
         vertex 0.000000e+000 0.000000e+000 0.000000e+000
         vertex 2.794000e-001 0.000000e+000 2.540000e-001
         vertex 0.000000e+000 0.000000e+000 2.540000e-001
      endloop
   endfacet
   facet normal 5.807914e-002 -9.983120e-001 0.000000e+000
      outer loop
         vertex 1.419053e-001 1.271929e-001 -2.540000e-002
         vertex 1.397000e-001 1.270000e-001 0.000000e+000
         vertex 1.397000e-001 1.270000e-001 -2.540000e-002
      endloop
   endfacet
   facet normal -5.807914e-002 -9.983120e-001 0.000000e+000
      outer loop
         vertex 1.397000e-001 1.270000e-001 -2.540000e-002
         vertex 1.397000e-001 1.270000e-001 0.000000e+000
         vertex 1.374947e-001 1.271929e-001 0.000000e+000
      endloop
   endfacet
   facet normal -1.161583e-001 -9.932307e-001 0.000000e+000
      outer loop
         vertex 1.397000e-001 1.270000e-001 -2.540000e-002
         vertex 1.374947e-001 1.271929e-001 0.000000e+000
         vertex 1.374947e-001 1.271929e-001 -2.540000e-002
      endloop
   endfacet
   facet normal -2.305519e-001 -9.730600e-001 0.000000e+000
      outer loop
         vertex 1.374947e-001 1.271929e-001 -2.540000e-002
         vertex 1.374947e-001 1.271929e-001 0.000000e+000
         vertex 1.353563e-001 1.277659e-001 0.000000e+000
      endloop
   endfacet
   facet normal -2.868663e-001 -9.579706e-001 0.000000e+000
      outer loop
         vertex 1.374947e-001 1.271929e-001 -2.540000e-002
         vertex 1.353563e-001 1.277659e-001 0.000000e+000
         vertex 1.353563e-001 1.277659e-001 -2.540000e-002
      endloop
   endfacet
   facet normal -3.960194e-001 -9.182422e-001 0.000000e+000
      outer loop
         vertex 1.353563e-001 1.277659e-001 -2.540000e-002
         vertex 1.353563e-001 1.277659e-001 0.000000e+000
         vertex 1.333500e-001 1.287015e-001 0.000000e+000
      endloop
   endfacet
   facet normal -4.488580e-001 -8.936031e-001 0.000000e+000
      outer loop
         vertex 1.353563e-001 1.277659e-001 -2.540000e-002
         vertex 1.333500e-001 1.287015e-001 0.000000e+000
         vertex 1.333500e-001 1.287015e-001 -2.540000e-002
      endloop
   endfacet
   facet normal -5.494540e-001 -8.355240e-001 0.000000e+000
      outer loop
         vertex 1.333500e-001 1.287015e-001 -2.540000e-002
         vertex 1.333500e-001 1.287015e-001 0.000000e+000
         vertex 1.315366e-001 1.299712e-001 0.000000e+000
      endloop
   endfacet
   facet normal -5.972114e-001 -8.020839e-001 0.000000e+000
      outer loop
         vertex 1.333500e-001 1.287015e-001 -2.540000e-002
         vertex 1.315366e-001 1.299712e-001 0.000000e+000
         vertex 1.315366e-001 1.299712e-001 -2.540000e-002
      endloop
   endfacet
   facet normal -6.861938e-001 -7.274188e-001 0.000000e+000
      outer loop
         vertex 1.315366e-001 1.299712e-001 -2.540000e-002
         vertex 1.315366e-001 1.299712e-001 0.000000e+000
         vertex 1.299712e-001 1.315366e-001 0.000000e+000
      endloop
   endfacet
   facet normal -7.274188e-001 -6.861938e-001 0.000000e+000
      outer loop
         vertex 1.315366e-001 1.299712e-001 -2.540000e-002
         vertex 1.299712e-001 1.315366e-001 0.000000e+000
         vertex 1.299712e-001 1.315366e-001 -2.540000e-002
      endloop
   endfacet
   facet normal -8.020839e-001 -5.972114e-001 0.000000e+000
      outer loop
         vertex 1.299712e-001 1.315366e-001 -2.540000e-002
         vertex 1.299712e-001 1.315366e-001 0.000000e+000
         vertex 1.287015e-001 1.333500e-001 0.000000e+000
      endloop
   endfacet
   facet normal -8.355240e-001 -5.494540e-001 0.000000e+000
      outer loop
         vertex 1.299712e-001 1.315366e-001 -2.540000e-002
         vertex 1.287015e-001 1.333500e-001 0.000000e+000
         vertex 1.287015e-001 1.333500e-001 -2.540000e-002
      endloop
   endfacet
   facet normal -8.936031e-001 -4.488580e-001 0.000000e+000
      outer loop
         vertex 1.287015e-001 1.333500e-001 -2.540000e-002
         vertex 1.287015e-001 1.333500e-001 0.000000e+000
         vertex 1.277659e-001 1.353563e-001 0.000000e+000
      endloop
   endfacet
   facet normal -9.182422e-001 -3.960194e-001 0.000000e+000
      outer loop
         vertex 1.287015e-001 1.333500e-001 -2.540000e-002
         vertex 1.277659e-001 1.353563e-001 0.000000e+000
         vertex 1.277659e-001 1.353563e-001 -2.540000e-002
      endloop
   endfacet
   facet normal -9.579706e-001 -2.868663e-001 0.000000e+000
      outer loop
         vertex 1.277659e-001 1.353563e-001 -2.540000e-002
         vertex 1.277659e-001 1.353563e-001 0.000000e+000
         vertex 1.271929e-001 1.374947e-001 0.000000e+000
      endloop
   endfacet
   facet normal -9.730600e-001 -2.305519e-001 0.000000e+000
      outer loop
         vertex 1.277659e-001 1.353563e-001 -2.540000e-002
         vertex 1.271929e-001 1.374947e-001 0.000000e+000
         vertex 1.271929e-001 1.374947e-001 -2.540000e-002
      endloop
   endfacet
   facet normal -9.932307e-001 -1.161583e-001 0.000000e+000
      outer loop
         vertex 1.271929e-001 1.374947e-001 -2.540000e-002
         vertex 1.271929e-001 1.374947e-001 0.000000e+000
         vertex 1.270000e-001 1.397000e-001 0.000000e+000
      endloop
   endfacet
   facet normal -9.983120e-001 -5.807914e-002 0.000000e+000
      outer loop
         vertex 1.271929e-001 1.374947e-001 -2.540000e-002
         vertex 1.270000e-001 1.397000e-001 0.000000e+000
         vertex 1.270000e-001 1.397000e-001 -2.540000e-002
      endloop
   endfacet
   facet normal -9.983120e-001 5.807914e-002 0.000000e+000
      outer loop
         vertex 1.270000e-001 1.397000e-001 -2.540000e-002
         vertex 1.270000e-001 1.397000e-001 0.000000e+000
         vertex 1.271929e-001 1.419053e-001 0.000000e+000
      endloop
   endfacet
   facet normal -9.932307e-001 1.161583e-001 0.000000e+000
      outer loop
         vertex 1.270000e-001 1.397000e-001 -2.540000e-002
         vertex 1.271929e-001 1.419053e-001 0.000000e+000
         vertex 1.271929e-001 1.419053e-001 -2.540000e-002
      endloop
   endfacet
   facet normal -9.730600e-001 2.305519e-001 0.000000e+000
      outer loop
         vertex 1.271929e-001 1.419053e-001 -2.540000e-002
         vertex 1.271929e-001 1.419053e-001 0.000000e+000
         vertex 1.277659e-001 1.440437e-001 0.000000e+000
      endloop
   endfacet
   facet normal -9.579706e-001 2.868663e-001 0.000000e+000
      outer loop
         vertex 1.271929e-001 1.419053e-001 -2.540000e-002
         vertex 1.277659e-001 1.440437e-001 0.000000e+000
         vertex 1.277659e-001 1.440437e-001 -2.540000e-002
      endloop
   endfacet
   facet normal -9.182422e-001 3.960194e-001 0.000000e+000
      outer loop
         vertex 1.277659e-001 1.440437e-001 -2.540000e-002
         vertex 1.277659e-001 1.440437e-001 0.000000e+000
         vertex 1.287015e-001 1.460500e-001 0.000000e+000
      endloop
   endfacet
   facet normal -8.936031e-001 4.488580e-001 0.000000e+000
      outer loop
         vertex 1.277659e-001 1.440437e-001 -2.540000e-002
         vertex 1.287015e-001 1.460500e-001 0.000000e+000
         vertex 1.287015e-001 1.460500e-001 -2.540000e-002
      endloop
   endfacet
   facet normal -8.355240e-001 5.494540e-001 0.000000e+000
      outer loop
         vertex 1.287015e-001 1.460500e-001 -2.540000e-002
         vertex 1.287015e-001 1.460500e-001 0.000000e+000
         vertex 1.299712e-001 1.478634e-001 0.000000e+000
      endloop
   endfacet
   facet normal -8.020839e-001 5.972114e-001 0.000000e+000
      outer loop
         vertex 1.287015e-001 1.460500e-001 -2.540000e-002
         vertex 1.299712e-001 1.478634e-001 0.000000e+000
         vertex 1.299712e-001 1.478634e-001 -2.540000e-002
      endloop
   endfacet
   facet normal -7.274188e-001 6.861938e-001 0.000000e+000
      outer loop
         vertex 1.299712e-001 1.478634e-001 -2.540000e-002
         vertex 1.299712e-001 1.478634e-001 0.000000e+000
         vertex 1.315366e-001 1.494288e-001 0.000000e+000
      endloop
   endfacet
   facet normal -6.861938e-001 7.274188e-001 0.000000e+000
      outer loop
         vertex 1.299712e-001 1.478634e-001 -2.540000e-002
         vertex 1.315366e-001 1.494288e-001 0.000000e+000
         vertex 1.315366e-001 1.494288e-001 -2.540000e-002
      endloop
   endfacet
   facet normal -5.972114e-001 8.020839e-001 0.000000e+000
      outer loop
         vertex 1.315366e-001 1.494288e-001 -2.540000e-002
         vertex 1.315366e-001 1.494288e-001 0.000000e+000
         vertex 1.333500e-001 1.506985e-001 0.000000e+000
      endloop
   endfacet
   facet normal -5.494540e-001 8.355240e-001 0.000000e+000
      outer loop
         vertex 1.315366e-001 1.494288e-001 -2.540000e-002
         vertex 1.333500e-001 1.506985e-001 0.000000e+000
         vertex 1.333500e-001 1.506985e-001 -2.540000e-002
      endloop
   endfacet
   facet normal -4.488580e-001 8.936031e-001 0.000000e+000
      outer loop
         vertex 1.333500e-001 1.506985e-001 -2.540000e-002
         vertex 1.333500e-001 1.506985e-001 0.000000e+000
         vertex 1.353563e-001 1.516341e-001 0.000000e+000
      endloop
   endfacet
   facet normal -3.960194e-001 9.182422e-001 0.000000e+000
      outer loop
         vertex 1.333500e-001 1.506985e-001 -2.540000e-002
         vertex 1.353563e-001 1.516341e-001 0.000000e+000
         vertex 1.353563e-001 1.516341e-001 -2.540000e-002
      endloop
   endfacet
   facet normal -2.868663e-001 9.579706e-001 0.000000e+000
      outer loop
         vertex 1.353563e-001 1.516341e-001 -2.540000e-002
         vertex 1.353563e-001 1.516341e-001 0.000000e+000
         vertex 1.374947e-001 1.522071e-001 0.000000e+000
      endloop
   endfacet
   facet normal -2.305519e-001 9.730600e-001 0.000000e+000
      outer loop
         vertex 1.353563e-001 1.516341e-001 -2.540000e-002
         vertex 1.374947e-001 1.522071e-001 0.000000e+000
         vertex 1.374947e-001 1.522071e-001 -2.540000e-002
      endloop
   endfacet
   facet normal -1.161583e-001 9.932307e-001 0.000000e+000
      outer loop
         vertex 1.374947e-001 1.522071e-001 -2.540000e-002
         vertex 1.374947e-001 1.522071e-001 0.000000e+000
         vertex 1.397000e-001 1.524000e-001 0.000000e+000
      endloop
   endfacet
   facet normal -5.807914e-002 9.983120e-001 0.000000e+000
      outer loop
         vertex 1.374947e-001 1.522071e-001 -2.540000e-002
         vertex 1.397000e-001 1.524000e-001 0.000000e+000
         vertex 1.397000e-001 1.524000e-001 -2.540000e-002
      endloop
   endfacet
   facet normal 5.807914e-002 9.983120e-001 0.000000e+000
      outer loop
         vertex 1.397000e-001 1.524000e-001 -2.540000e-002
         vertex 1.397000e-001 1.524000e-001 0.000000e+000
         vertex 1.419053e-001 1.522071e-001 0.000000e+000
      endloop
   endfacet
   facet normal 1.161583e-001 9.932307e-001 0.000000e+000
      outer loop
         vertex 1.397000e-001 1.524000e-001 -2.540000e-002
         vertex 1.419053e-001 1.522071e-001 0.000000e+000
         vertex 1.419053e-001 1.522071e-001 -2.540000e-002
      endloop
   endfacet
   facet normal 2.305519e-001 9.730600e-001 0.000000e+000
      outer loop
         vertex 1.419053e-001 1.522071e-001 -2.540000e-002
         vertex 1.419053e-001 1.522071e-001 0.000000e+000
         vertex 1.440437e-001 1.516341e-001 0.000000e+000
      endloop
   endfacet
   facet normal 2.868663e-001 9.579706e-001 0.000000e+000
      outer loop
         vertex 1.419053e-001 1.522071e-001 -2.540000e-002
         vertex 1.440437e-001 1.516341e-001 0.000000e+000
         vertex 1.440437e-001 1.516341e-001 -2.540000e-002
      endloop
   endfacet
   facet normal 3.960194e-001 9.182422e-001 0.000000e+000
      outer loop
         vertex 1.440437e-001 1.516341e-001 -2.540000e-002
         vertex 1.440437e-001 1.516341e-001 0.000000e+000
         vertex 1.460500e-001 1.506985e-001 0.000000e+000
      endloop
   endfacet
   facet normal 4.488580e-001 8.936031e-001 0.000000e+000
      outer loop
         vertex 1.440437e-001 1.516341e-001 -2.540000e-002
         vertex 1.460500e-001 1.506985e-001 0.000000e+000
         vertex 1.460500e-001 1.506985e-001 -2.540000e-002
      endloop
   endfacet
   facet normal 5.494540e-001 8.355240e-001 0.000000e+000
      outer loop
         vertex 1.460500e-001 1.506985e-001 -2.540000e-002
         vertex 1.460500e-001 1.506985e-001 0.000000e+000
         vertex 1.478634e-001 1.494288e-001 0.000000e+000
      endloop
   endfacet
   facet normal 5.972114e-001 8.020839e-001 0.000000e+000
      outer loop
         vertex 1.460500e-001 1.506985e-001 -2.540000e-002
         vertex 1.478634e-001 1.494288e-001 0.000000e+000
         vertex 1.478634e-001 1.494288e-001 -2.540000e-002
      endloop
   endfacet
   facet normal 6.861938e-001 7.274188e-001 0.000000e+000
      outer loop
         vertex 1.478634e-001 1.494288e-001 -2.540000e-002
         vertex 1.478634e-001 1.494288e-001 0.000000e+000
         vertex 1.494288e-001 1.478634e-001 0.000000e+000
      endloop
   endfacet
   facet normal 7.274188e-001 6.861938e-001 0.000000e+000
      outer loop
         vertex 1.478634e-001 1.494288e-001 -2.540000e-002
         vertex 1.494288e-001 1.478634e-001 0.000000e+000
         vertex 1.494288e-001 1.478634e-001 -2.540000e-002
      endloop
   endfacet
   facet normal 8.020839e-001 5.972114e-001 0.000000e+000
      outer loop
         vertex 1.494288e-001 1.478634e-001 -2.540000e-002
         vertex 1.494288e-001 1.478634e-001 0.000000e+000
         vertex 1.506985e-001 1.460500e-001 0.000000e+000
      endloop
   endfacet
   facet normal 8.355240e-001 5.494540e-001 0.000000e+000
      outer loop
         vertex 1.494288e-001 1.478634e-001 -2.540000e-002
         vertex 1.506985e-001 1.460500e-001 0.000000e+000
         vertex 1.506985e-001 1.460500e-001 -2.540000e-002
      endloop
   endfacet
   facet normal 8.936031e-001 4.488580e-001 0.000000e+000
      outer loop
         vertex 1.506985e-001 1.460500e-001 -2.540000e-002
         vertex 1.506985e-001 1.460500e-001 0.000000e+000
         vertex 1.516341e-001 1.440437e-001 0.000000e+000
      endloop
   endfacet
   facet normal 9.182422e-001 3.960194e-001 0.000000e+000
      outer loop
         vertex 1.506985e-001 1.460500e-001 -2.540000e-002
         vertex 1.516341e-001 1.440437e-001 0.000000e+000
         vertex 1.516341e-001 1.440437e-001 -2.540000e-002
      endloop
   endfacet
   facet normal 9.579706e-001 2.868663e-001 0.000000e+000
      outer loop
         vertex 1.516341e-001 1.440437e-001 -2.540000e-002
         vertex 1.516341e-001 1.440437e-001 0.000000e+000
         vertex 1.522071e-001 1.419053e-001 0.000000e+000
      endloop
   endfacet
   facet normal 9.730600e-001 2.305519e-001 0.000000e+000
      outer loop
         vertex 1.516341e-001 1.440437e-001 -2.540000e-002
         vertex 1.522071e-001 1.419053e-001 0.000000e+000
         vertex 1.522071e-001 1.419053e-001 -2.540000e-002
      endloop
   endfacet
   facet normal 9.932307e-001 1.161583e-001 0.000000e+000
      outer loop
         vertex 1.522071e-001 1.419053e-001 -2.540000e-002
         vertex 1.522071e-001 1.419053e-001 0.000000e+000
         vertex 1.524000e-001 1.397000e-001 0.000000e+000
      endloop
   endfacet
   facet normal 9.983120e-001 5.807914e-002 0.000000e+000
      outer loop
         vertex 1.522071e-001 1.419053e-001 -2.540000e-002
         vertex 1.524000e-001 1.397000e-001 0.000000e+000
         vertex 1.524000e-001 1.397000e-001 -2.540000e-002
      endloop
   endfacet
   facet normal 9.983120e-001 -5.807914e-002 0.000000e+000
      outer loop
         vertex 1.524000e-001 1.397000e-001 -2.540000e-002
         vertex 1.524000e-001 1.397000e-001 0.000000e+000
         vertex 1.522071e-001 1.374947e-001 0.000000e+000
      endloop
   endfacet
   facet normal 9.932307e-001 -1.161583e-001 0.000000e+000
      outer loop
         vertex 1.524000e-001 1.397000e-001 -2.540000e-002
         vertex 1.522071e-001 1.374947e-001 0.000000e+000
         vertex 1.522071e-001 1.374947e-001 -2.540000e-002
      endloop
   endfacet
   facet normal 9.730600e-001 -2.305519e-001 0.000000e+000
      outer loop
         vertex 1.522071e-001 1.374947e-001 -2.540000e-002
         vertex 1.522071e-001 1.374947e-001 0.000000e+000
         vertex 1.516341e-001 1.353563e-001 0.000000e+000
      endloop
   endfacet
   facet normal 9.579706e-001 -2.868663e-001 0.000000e+000
      outer loop
         vertex 1.522071e-001 1.374947e-001 -2.540000e-002
         vertex 1.516341e-001 1.353563e-001 0.000000e+000
         vertex 1.516341e-001 1.353563e-001 -2.540000e-002
      endloop
   endfacet
   facet normal 9.182422e-001 -3.960194e-001 0.000000e+000
      outer loop
         vertex 1.516341e-001 1.353563e-001 -2.540000e-002
         vertex 1.516341e-001 1.353563e-001 0.000000e+000
         vertex 1.506985e-001 1.333500e-001 0.000000e+000
      endloop
   endfacet
   facet normal 8.936031e-001 -4.488580e-001 0.000000e+000
      outer loop
         vertex 1.516341e-001 1.353563e-001 -2.540000e-002
         vertex 1.506985e-001 1.333500e-001 0.000000e+000
         vertex 1.506985e-001 1.333500e-001 -2.540000e-002
      endloop
   endfacet
   facet normal 8.355240e-001 -5.494540e-001 0.000000e+000
      outer loop
         vertex 1.506985e-001 1.333500e-001 -2.540000e-002
         vertex 1.506985e-001 1.333500e-001 0.000000e+000
         vertex 1.494288e-001 1.315366e-001 0.000000e+000
      endloop
   endfacet
   facet normal 8.020839e-001 -5.972114e-001 0.000000e+000
      outer loop
         vertex 1.506985e-001 1.333500e-001 -2.540000e-002
         vertex 1.494288e-001 1.315366e-001 0.000000e+000
         vertex 1.494288e-001 1.315366e-001 -2.540000e-002
      endloop
   endfacet
   facet normal 7.274188e-001 -6.861938e-001 0.000000e+000
      outer loop
         vertex 1.494288e-001 1.315366e-001 -2.540000e-002
         vertex 1.494288e-001 1.315366e-001 0.000000e+000
         vertex 1.478634e-001 1.299712e-001 0.000000e+000
      endloop
   endfacet
   facet normal 6.861938e-001 -7.274188e-001 0.000000e+000
      outer loop
         vertex 1.494288e-001 1.315366e-001 -2.540000e-002
         vertex 1.478634e-001 1.299712e-001 0.000000e+000
         vertex 1.478634e-001 1.299712e-001 -2.540000e-002
      endloop
   endfacet
   facet normal 5.972114e-001 -8.020839e-001 0.000000e+000
      outer loop
         vertex 1.478634e-001 1.299712e-001 -2.540000e-002
         vertex 1.478634e-001 1.299712e-001 0.000000e+000
         vertex 1.460500e-001 1.287015e-001 0.000000e+000
      endloop
   endfacet
   facet normal 5.494540e-001 -8.355240e-001 0.000000e+000
      outer loop
         vertex 1.478634e-001 1.299712e-001 -2.540000e-002
         vertex 1.460500e-001 1.287015e-001 0.000000e+000
         vertex 1.460500e-001 1.287015e-001 -2.540000e-002
      endloop
   endfacet
   facet normal 4.488580e-001 -8.936031e-001 0.000000e+000
      outer loop
         vertex 1.460500e-001 1.287015e-001 -2.540000e-002
         vertex 1.460500e-001 1.287015e-001 0.000000e+000
         vertex 1.440437e-001 1.277659e-001 0.000000e+000
      endloop
   endfacet
   facet normal 3.960194e-001 -9.182422e-001 0.000000e+000
      outer loop
         vertex 1.460500e-001 1.287015e-001 -2.540000e-002
         vertex 1.440437e-001 1.277659e-001 0.000000e+000
         vertex 1.440437e-001 1.277659e-001 -2.540000e-002
      endloop
   endfacet
   facet normal 2.868663e-001 -9.579706e-001 0.000000e+000
      outer loop
         vertex 1.440437e-001 1.277659e-001 -2.540000e-002
         vertex 1.440437e-001 1.277659e-001 0.000000e+000
         vertex 1.419053e-001 1.271929e-001 0.000000e+000
      endloop
   endfacet
   facet normal 2.305519e-001 -9.730600e-001 0.000000e+000
      outer loop
         vertex 1.440437e-001 1.277659e-001 -2.540000e-002
         vertex 1.419053e-001 1.271929e-001 0.000000e+000
         vertex 1.419053e-001 1.271929e-001 -2.540000e-002
      endloop
   endfacet
   facet normal 1.161583e-001 -9.932307e-001 0.000000e+000
      outer loop
         vertex 1.419053e-001 1.271929e-001 -2.540000e-002
         vertex 1.419053e-001 1.271929e-001 0.000000e+000
         vertex 1.397000e-001 1.270000e-001 0.000000e+000
      endloop
   endfacet
   facet normal 0.000000e+000 9.983120e-001 5.807914e-002
      outer loop
         vertex -2.540000e-002 2.570303e-001 2.442240e-001
         vertex 0.000000e+000 2.571750e-001 2.425700e-001
         vertex -2.540000e-002 2.571750e-001 2.425700e-001
      endloop
   endfacet
   facet normal 0.000000e+000 9.983120e-001 -5.807914e-002
      outer loop
         vertex -2.540000e-002 2.571750e-001 2.425700e-001
         vertex 0.000000e+000 2.571750e-001 2.425700e-001
         vertex 0.000000e+000 2.570303e-001 2.409160e-001
      endloop
   endfacet
   facet normal 0.000000e+000 9.932307e-001 -1.161583e-001
      outer loop
         vertex -2.540000e-002 2.571750e-001 2.425700e-001
         vertex 0.000000e+000 2.570303e-001 2.409160e-001
         vertex -2.540000e-002 2.570303e-001 2.409160e-001
      endloop
   endfacet
   facet normal 0.000000e+000 9.730600e-001 -2.305519e-001
      outer loop
         vertex -2.540000e-002 2.570303e-001 2.409160e-001
         vertex 0.000000e+000 2.570303e-001 2.409160e-001
         vertex 0.000000e+000 2.566006e-001 2.393123e-001
      endloop
   endfacet
   facet normal 0.000000e+000 9.579706e-001 -2.868663e-001
      outer loop
         vertex -2.540000e-002 2.570303e-001 2.409160e-001
         vertex 0.000000e+000 2.566006e-001 2.393123e-001
         vertex -2.540000e-002 2.566006e-001 2.393123e-001
      endloop
   endfacet
   facet normal 0.000000e+000 9.182422e-001 -3.960194e-001
      outer loop
         vertex -2.540000e-002 2.566006e-001 2.393123e-001
         vertex 0.000000e+000 2.566006e-001 2.393123e-001
         vertex 0.000000e+000 2.558989e-001 2.378075e-001
      endloop
   endfacet
   facet normal 0.000000e+000 8.936031e-001 -4.488580e-001
      outer loop
         vertex -2.540000e-002 2.566006e-001 2.393123e-001
         vertex 0.000000e+000 2.558989e-001 2.378075e-001
         vertex -2.540000e-002 2.558989e-001 2.378075e-001
      endloop
   endfacet
   facet normal 0.000000e+000 8.355240e-001 -5.494540e-001
      outer loop
         vertex -2.540000e-002 2.558989e-001 2.378075e-001
         vertex 0.000000e+000 2.558989e-001 2.378075e-001
         vertex 0.000000e+000 2.549466e-001 2.364475e-001
      endloop
   endfacet
   facet normal 0.000000e+000 8.020839e-001 -5.972114e-001
      outer loop
         vertex -2.540000e-002 2.558989e-001 2.378075e-001
         vertex 0.000000e+000 2.549466e-001 2.364475e-001
         vertex -2.540000e-002 2.549466e-001 2.364475e-001
      endloop
   endfacet
   facet normal 0.000000e+000 7.274188e-001 -6.861938e-001
      outer loop
         vertex -2.540000e-002 2.549466e-001 2.364475e-001
         vertex 0.000000e+000 2.549466e-001 2.364475e-001
         vertex 0.000000e+000 2.537726e-001 2.352734e-001
      endloop
   endfacet
   facet normal 0.000000e+000 6.861938e-001 -7.274188e-001
      outer loop
         vertex -2.540000e-002 2.549466e-001 2.364475e-001
         vertex 0.000000e+000 2.537726e-001 2.352734e-001
         vertex -2.540000e-002 2.537726e-001 2.352734e-001
      endloop
   endfacet
   facet normal 0.000000e+000 5.972114e-001 -8.020839e-001
      outer loop
         vertex -2.540000e-002 2.537726e-001 2.352734e-001
         vertex 0.000000e+000 2.537726e-001 2.352734e-001
         vertex 0.000000e+000 2.524125e-001 2.343211e-001
      endloop
   endfacet
   facet normal 0.000000e+000 5.494540e-001 -8.355240e-001
      outer loop
         vertex -2.540000e-002 2.537726e-001 2.352734e-001
         vertex 0.000000e+000 2.524125e-001 2.343211e-001
         vertex -2.540000e-002 2.524125e-001 2.343211e-001
      endloop
   endfacet
   facet normal 0.000000e+000 4.488580e-001 -8.936031e-001
      outer loop
         vertex -2.540000e-002 2.524125e-001 2.343211e-001
         vertex 0.000000e+000 2.524125e-001 2.343211e-001
         vertex 0.000000e+000 2.509077e-001 2.336194e-001
      endloop
   endfacet
   facet normal 0.000000e+000 3.960194e-001 -9.182422e-001
      outer loop
         vertex -2.540000e-002 2.524125e-001 2.343211e-001
         vertex 0.000000e+000 2.509077e-001 2.336194e-001
         vertex -2.540000e-002 2.509077e-001 2.336194e-001
      endloop
   endfacet
   facet normal 0.000000e+000 2.868663e-001 -9.579706e-001
      outer loop
         vertex -2.540000e-002 2.509077e-001 2.336194e-001
         vertex 0.000000e+000 2.509077e-001 2.336194e-001
         vertex 0.000000e+000 2.493040e-001 2.331897e-001
      endloop
   endfacet
   facet normal 0.000000e+000 2.305519e-001 -9.730600e-001
      outer loop
         vertex -2.540000e-002 2.509077e-001 2.336194e-001
         vertex 0.000000e+000 2.493040e-001 2.331897e-001
         vertex -2.540000e-002 2.493040e-001 2.331897e-001
      endloop
   endfacet
   facet normal 0.000000e+000 1.161583e-001 -9.932307e-001
      outer loop
         vertex -2.540000e-002 2.493040e-001 2.331897e-001
         vertex 0.000000e+000 2.493040e-001 2.331897e-001
         vertex 0.000000e+000 2.476500e-001 2.330450e-001
      endloop
   endfacet
   facet normal 0.000000e+000 5.807914e-002 -9.983120e-001
      outer loop
         vertex -2.540000e-002 2.493040e-001 2.331897e-001
         vertex 0.000000e+000 2.476500e-001 2.330450e-001
         vertex -2.540000e-002 2.476500e-001 2.330450e-001
      endloop
   endfacet
   facet normal 0.000000e+000 -5.807914e-002 -9.983120e-001
      outer loop
         vertex -2.540000e-002 2.476500e-001 2.330450e-001
         vertex 0.000000e+000 2.476500e-001 2.330450e-001
         vertex 0.000000e+000 2.459960e-001 2.331897e-001
      endloop
   endfacet
   facet normal 0.000000e+000 -1.161583e-001 -9.932307e-001
      outer loop
         vertex -2.540000e-002 2.476500e-001 2.330450e-001
         vertex 0.000000e+000 2.459960e-001 2.331897e-001
         vertex -2.540000e-002 2.459960e-001 2.331897e-001
      endloop
   endfacet
   facet normal 0.000000e+000 -2.305519e-001 -9.730600e-001
      outer loop
         vertex -2.540000e-002 2.459960e-001 2.331897e-001
         vertex 0.000000e+000 2.459960e-001 2.331897e-001
         vertex 0.000000e+000 2.443923e-001 2.336194e-001
      endloop
   endfacet
   facet normal 0.000000e+000 -2.868663e-001 -9.579706e-001
      outer loop
         vertex -2.540000e-002 2.459960e-001 2.331897e-001
         vertex 0.000000e+000 2.443923e-001 2.336194e-001
         vertex -2.540000e-002 2.443923e-001 2.336194e-001
      endloop
   endfacet
   facet normal 0.000000e+000 -3.960194e-001 -9.182422e-001
      outer loop
         vertex -2.540000e-002 2.443923e-001 2.336194e-001
         vertex 0.000000e+000 2.443923e-001 2.336194e-001
         vertex 0.000000e+000 2.428875e-001 2.343211e-001
      endloop
   endfacet
   facet normal 0.000000e+000 -4.488580e-001 -8.936031e-001
      outer loop
         vertex -2.540000e-002 2.443923e-001 2.336194e-001
         vertex 0.000000e+000 2.428875e-001 2.343211e-001
         vertex -2.540000e-002 2.428875e-001 2.343211e-001
      endloop
   endfacet
   facet normal 0.000000e+000 -5.494540e-001 -8.355240e-001
      outer loop
         vertex -2.540000e-002 2.428875e-001 2.343211e-001
         vertex 0.000000e+000 2.428875e-001 2.343211e-001
         vertex 0.000000e+000 2.415275e-001 2.352734e-001
      endloop
   endfacet
   facet normal 0.000000e+000 -5.972114e-001 -8.020839e-001
      outer loop
         vertex -2.540000e-002 2.428875e-001 2.343211e-001
         vertex 0.000000e+000 2.415275e-001 2.352734e-001
         vertex -2.540000e-002 2.415275e-001 2.352734e-001
      endloop
   endfacet
   facet normal 0.000000e+000 -6.861938e-001 -7.274188e-001
      outer loop
         vertex -2.540000e-002 2.415275e-001 2.352734e-001
         vertex 0.000000e+000 2.415275e-001 2.352734e-001
         vertex 0.000000e+000 2.403534e-001 2.364475e-001
      endloop
   endfacet
   facet normal 0.000000e+000 -7.274188e-001 -6.861938e-001
      outer loop
         vertex -2.540000e-002 2.415275e-001 2.352734e-001
         vertex 0.000000e+000 2.403534e-001 2.364475e-001
         vertex -2.540000e-002 2.403534e-001 2.364475e-001
      endloop
   endfacet
   facet normal 0.000000e+000 -8.020839e-001 -5.972114e-001
      outer loop
         vertex -2.540000e-002 2.403534e-001 2.364475e-001
         vertex 0.000000e+000 2.403534e-001 2.364475e-001
         vertex 0.000000e+000 2.394011e-001 2.378075e-001
      endloop
   endfacet
   facet normal 0.000000e+000 -8.355240e-001 -5.494540e-001
      outer loop
         vertex -2.540000e-002 2.403534e-001 2.364475e-001
         vertex 0.000000e+000 2.394011e-001 2.378075e-001
         vertex -2.540000e-002 2.394011e-001 2.378075e-001
      endloop
   endfacet
   facet normal 0.000000e+000 -8.936031e-001 -4.488580e-001
      outer loop
         vertex -2.540000e-002 2.394011e-001 2.378075e-001
         vertex 0.000000e+000 2.394011e-001 2.378075e-001
         vertex 0.000000e+000 2.386994e-001 2.393123e-001
      endloop
   endfacet
   facet normal 0.000000e+000 -9.182422e-001 -3.960194e-001
      outer loop
         vertex -2.540000e-002 2.394011e-001 2.378075e-001
         vertex 0.000000e+000 2.386994e-001 2.393123e-001
         vertex -2.540000e-002 2.386994e-001 2.393123e-001
      endloop
   endfacet
   facet normal 0.000000e+000 -9.579706e-001 -2.868663e-001
      outer loop
         vertex -2.540000e-002 2.386994e-001 2.393123e-001
         vertex 0.000000e+000 2.386994e-001 2.393123e-001
         vertex 0.000000e+000 2.382697e-001 2.409160e-001
      endloop
   endfacet
   facet normal 0.000000e+000 -9.730600e-001 -2.305519e-001
      outer loop
         vertex -2.540000e-002 2.386994e-001 2.393123e-001
         vertex 0.000000e+000 2.382697e-001 2.409160e-001
         vertex -2.540000e-002 2.382697e-001 2.409160e-001
      endloop
   endfacet
   facet normal 0.000000e+000 -9.932307e-001 -1.161583e-001
      outer loop
         vertex -2.540000e-002 2.382697e-001 2.409160e-001
         vertex 0.000000e+000 2.382697e-001 2.409160e-001
         vertex 0.000000e+000 2.381250e-001 2.425700e-001
      endloop
   endfacet
   facet normal 0.000000e+000 -9.983120e-001 -5.807914e-002
      outer loop
         vertex -2.540000e-002 2.382697e-001 2.409160e-001
         vertex 0.000000e+000 2.381250e-001 2.425700e-001
         vertex -2.540000e-002 2.381250e-001 2.425700e-001
      endloop
   endfacet
   facet normal 0.000000e+000 -9.983120e-001 5.807914e-002
      outer loop
         vertex -2.540000e-002 2.381250e-001 2.425700e-001
         vertex 0.000000e+000 2.381250e-001 2.425700e-001
         vertex 0.000000e+000 2.382697e-001 2.442240e-001
      endloop
   endfacet
   facet normal 0.000000e+000 -9.932307e-001 1.161583e-001
      outer loop
         vertex -2.540000e-002 2.381250e-001 2.425700e-001
         vertex 0.000000e+000 2.382697e-001 2.442240e-001
         vertex -2.540000e-002 2.382697e-001 2.442240e-001
      endloop
   endfacet
   facet normal 0.000000e+000 -9.730600e-001 2.305519e-001
      outer loop
         vertex -2.540000e-002 2.382697e-001 2.442240e-001
         vertex 0.000000e+000 2.382697e-001 2.442240e-001
         vertex 0.000000e+000 2.386994e-001 2.458277e-001
      endloop
   endfacet
   facet normal 0.000000e+000 -9.579706e-001 2.868663e-001
      outer loop
         vertex -2.540000e-002 2.382697e-001 2.442240e-001
         vertex 0.000000e+000 2.386994e-001 2.458277e-001
         vertex -2.540000e-002 2.386994e-001 2.458277e-001
      endloop
   endfacet
   facet normal 0.000000e+000 -9.182422e-001 3.960194e-001
      outer loop
         vertex -2.540000e-002 2.386994e-001 2.458277e-001
         vertex 0.000000e+000 2.386994e-001 2.458277e-001
         vertex 0.000000e+000 2.394011e-001 2.473325e-001
      endloop
   endfacet
   facet normal 0.000000e+000 -8.936031e-001 4.488580e-001
      outer loop
         vertex -2.540000e-002 2.386994e-001 2.458277e-001
         vertex 0.000000e+000 2.394011e-001 2.473325e-001
         vertex -2.540000e-002 2.394011e-001 2.473325e-001
      endloop
   endfacet
   facet normal 0.000000e+000 -8.355240e-001 5.494540e-001
      outer loop
         vertex -2.540000e-002 2.394011e-001 2.473325e-001
         vertex 0.000000e+000 2.394011e-001 2.473325e-001
         vertex 0.000000e+000 2.403534e-001 2.486926e-001
      endloop
   endfacet
   facet normal 0.000000e+000 -8.020839e-001 5.972114e-001
      outer loop
         vertex -2.540000e-002 2.394011e-001 2.473325e-001
         vertex 0.000000e+000 2.403534e-001 2.486926e-001
         vertex -2.540000e-002 2.403534e-001 2.486926e-001
      endloop
   endfacet
   facet normal 0.000000e+000 -7.274188e-001 6.861938e-001
      outer loop
         vertex -2.540000e-002 2.403534e-001 2.486926e-001
         vertex 0.000000e+000 2.403534e-001 2.486926e-001
         vertex 0.000000e+000 2.415275e-001 2.498666e-001
      endloop
   endfacet
   facet normal 0.000000e+000 -6.861938e-001 7.274188e-001
      outer loop
         vertex -2.540000e-002 2.403534e-001 2.486926e-001
         vertex 0.000000e+000 2.415275e-001 2.498666e-001
         vertex -2.540000e-002 2.415275e-001 2.498666e-001
      endloop
   endfacet
   facet normal 0.000000e+000 -5.972114e-001 8.020839e-001
      outer loop
         vertex -2.540000e-002 2.415275e-001 2.498666e-001
         vertex 0.000000e+000 2.415275e-001 2.498666e-001
         vertex 0.000000e+000 2.428875e-001 2.508189e-001
      endloop
   endfacet
   facet normal 0.000000e+000 -5.494540e-001 8.355240e-001
      outer loop
         vertex -2.540000e-002 2.415275e-001 2.498666e-001
         vertex 0.000000e+000 2.428875e-001 2.508189e-001
         vertex -2.540000e-002 2.428875e-001 2.508189e-001
      endloop
   endfacet
   facet normal 0.000000e+000 -4.488580e-001 8.936031e-001
      outer loop
         vertex -2.540000e-002 2.428875e-001 2.508189e-001
         vertex 0.000000e+000 2.428875e-001 2.508189e-001
         vertex 0.000000e+000 2.443923e-001 2.515206e-001
      endloop
   endfacet
   facet normal 0.000000e+000 -3.960194e-001 9.182422e-001
      outer loop
         vertex -2.540000e-002 2.428875e-001 2.508189e-001
         vertex 0.000000e+000 2.443923e-001 2.515206e-001
         vertex -2.540000e-002 2.443923e-001 2.515206e-001
      endloop
   endfacet
   facet normal 0.000000e+000 -2.868663e-001 9.579706e-001
      outer loop
         vertex -2.540000e-002 2.443923e-001 2.515206e-001
         vertex 0.000000e+000 2.443923e-001 2.515206e-001
         vertex 0.000000e+000 2.459960e-001 2.519503e-001
      endloop
   endfacet
   facet normal 0.000000e+000 -2.305519e-001 9.730600e-001
      outer loop
         vertex -2.540000e-002 2.443923e-001 2.515206e-001
         vertex 0.000000e+000 2.459960e-001 2.519503e-001
         vertex -2.540000e-002 2.459960e-001 2.519503e-001
      endloop
   endfacet
   facet normal 0.000000e+000 -1.161583e-001 9.932307e-001
      outer loop
         vertex -2.540000e-002 2.459960e-001 2.519503e-001
         vertex 0.000000e+000 2.459960e-001 2.519503e-001
         vertex 0.000000e+000 2.476500e-001 2.520950e-001
      endloop
   endfacet
   facet normal 0.000000e+000 -5.807914e-002 9.983120e-001
      outer loop
         vertex -2.540000e-002 2.459960e-001 2.519503e-001
         vertex 0.000000e+000 2.476500e-001 2.520950e-001
         vertex -2.540000e-002 2.476500e-001 2.520950e-001
      endloop
   endfacet
   facet normal 0.000000e+000 5.807914e-002 9.983120e-001
      outer loop
         vertex -2.540000e-002 2.476500e-001 2.520950e-001
         vertex 0.000000e+000 2.476500e-001 2.520950e-001
         vertex 0.000000e+000 2.493040e-001 2.519503e-001
      endloop
   endfacet
   facet normal 0.000000e+000 1.161583e-001 9.932307e-001
      outer loop
         vertex -2.540000e-002 2.476500e-001 2.520950e-001
         vertex 0.000000e+000 2.493040e-001 2.519503e-001
         vertex -2.540000e-002 2.493040e-001 2.519503e-001
      endloop
   endfacet
   facet normal 0.000000e+000 2.305519e-001 9.730600e-001
      outer loop
         vertex -2.540000e-002 2.493040e-001 2.519503e-001
         vertex 0.000000e+000 2.493040e-001 2.519503e-001
         vertex 0.000000e+000 2.509077e-001 2.515206e-001
      endloop
   endfacet
   facet normal 0.000000e+000 2.868663e-001 9.579706e-001
      outer loop
         vertex -2.540000e-002 2.493040e-001 2.519503e-001
         vertex 0.000000e+000 2.509077e-001 2.515206e-001
         vertex -2.540000e-002 2.509077e-001 2.515206e-001
      endloop
   endfacet
   facet normal 0.000000e+000 3.960194e-001 9.182422e-001
      outer loop
         vertex -2.540000e-002 2.509077e-001 2.515206e-001
         vertex 0.000000e+000 2.509077e-001 2.515206e-001
         vertex 0.000000e+000 2.524125e-001 2.508189e-001
      endloop
   endfacet
   facet normal 0.000000e+000 4.488580e-001 8.936031e-001
      outer loop
         vertex -2.540000e-002 2.509077e-001 2.515206e-001
         vertex 0.000000e+000 2.524125e-001 2.508189e-001
         vertex -2.540000e-002 2.524125e-001 2.508189e-001
      endloop
   endfacet
   facet normal 0.000000e+000 5.494540e-001 8.355240e-001
      outer loop
         vertex -2.540000e-002 2.524125e-001 2.508189e-001
         vertex 0.000000e+000 2.524125e-001 2.508189e-001
         vertex 0.000000e+000 2.537726e-001 2.498666e-001
      endloop
   endfacet
   facet normal 0.000000e+000 5.972114e-001 8.020839e-001
      outer loop
         vertex -2.540000e-002 2.524125e-001 2.508189e-001
         vertex 0.000000e+000 2.537726e-001 2.498666e-001
         vertex -2.540000e-002 2.537726e-001 2.498666e-001
      endloop
   endfacet
   facet normal 0.000000e+000 6.861938e-001 7.274188e-001
      outer loop
         vertex -2.540000e-002 2.537726e-001 2.498666e-001
         vertex 0.000000e+000 2.537726e-001 2.498666e-001
         vertex 0.000000e+000 2.549466e-001 2.486926e-001
      endloop
   endfacet
   facet normal 0.000000e+000 7.274188e-001 6.861938e-001
      outer loop
         vertex -2.540000e-002 2.537726e-001 2.498666e-001
         vertex 0.000000e+000 2.549466e-001 2.486926e-001
         vertex -2.540000e-002 2.549466e-001 2.486926e-001
      endloop
   endfacet
   facet normal 0.000000e+000 8.020839e-001 5.972114e-001
      outer loop
         vertex -2.540000e-002 2.549466e-001 2.486926e-001
         vertex 0.000000e+000 2.549466e-001 2.486926e-001
         vertex 0.000000e+000 2.558989e-001 2.473325e-001
      endloop
   endfacet
   facet normal 0.000000e+000 8.355240e-001 5.494540e-001
      outer loop
         vertex -2.540000e-002 2.549466e-001 2.486926e-001
         vertex 0.000000e+000 2.558989e-001 2.473325e-001
         vertex -2.540000e-002 2.558989e-001 2.473325e-001
      endloop
   endfacet
   facet normal 0.000000e+000 8.936031e-001 4.488580e-001
      outer loop
         vertex -2.540000e-002 2.558989e-001 2.473325e-001
         vertex 0.000000e+000 2.558989e-001 2.473325e-001
         vertex 0.000000e+000 2.566006e-001 2.458277e-001
      endloop
   endfacet
   facet normal 0.000000e+000 9.182422e-001 3.960194e-001
      outer loop
         vertex -2.540000e-002 2.558989e-001 2.473325e-001
         vertex 0.000000e+000 2.566006e-001 2.458277e-001
         vertex -2.540000e-002 2.566006e-001 2.458277e-001
      endloop
   endfacet
   facet normal 0.000000e+000 9.579706e-001 2.868663e-001
      outer loop
         vertex -2.540000e-002 2.566006e-001 2.458277e-001
         vertex 0.000000e+000 2.566006e-001 2.458277e-001
         vertex 0.000000e+000 2.570303e-001 2.442240e-001
      endloop
   endfacet
   facet normal 0.000000e+000 9.730600e-001 2.305519e-001
      outer loop
         vertex -2.540000e-002 2.566006e-001 2.458277e-001
         vertex 0.000000e+000 2.570303e-001 2.442240e-001
         vertex -2.540000e-002 2.570303e-001 2.442240e-001
      endloop
   endfacet
   facet normal 0.000000e+000 9.932307e-001 1.161583e-001
      outer loop
         vertex -2.540000e-002 2.570303e-001 2.442240e-001
         vertex 0.000000e+000 2.570303e-001 2.442240e-001
         vertex 0.000000e+000 2.571750e-001 2.425700e-001
      endloop
   endfacet
endsolid

   solid patch1
   facet normal 0.000000e+000 0.000000e+000 -1.000000e+000
      outer loop
         vertex 1.353563e-001 1.277659e-001 -2.540000e-002
         vertex 1.440437e-001 1.516341e-001 -2.540000e-002
         vertex 1.460500e-001 1.506985e-001 -2.540000e-002
      endloop
   endfacet
   facet normal 0.000000e+000 0.000000e+000 -1.000000e+000
      outer loop
         vertex 1.460500e-001 1.506985e-001 -2.540000e-002
         vertex 1.478634e-001 1.494288e-001 -2.540000e-002
         vertex 1.353563e-001 1.277659e-001 -2.540000e-002
      endloop
   endfacet
   facet normal 0.000000e+000 0.000000e+000 -1.000000e+000
      outer loop
         vertex 1.353563e-001 1.277659e-001 -2.540000e-002
         vertex 1.478634e-001 1.494288e-001 -2.540000e-002
         vertex 1.494288e-001 1.478634e-001 -2.540000e-002
      endloop
   endfacet
   facet normal 0.000000e+000 0.000000e+000 -1.000000e+000
      outer loop
         vertex 1.353563e-001 1.277659e-001 -2.540000e-002
         vertex 1.494288e-001 1.478634e-001 -2.540000e-002
         vertex 1.506985e-001 1.460500e-001 -2.540000e-002
      endloop
   endfacet
   facet normal 0.000000e+000 0.000000e+000 -1.000000e+000
      outer loop
         vertex 1.506985e-001 1.460500e-001 -2.540000e-002
         vertex 1.516341e-001 1.440437e-001 -2.540000e-002
         vertex 1.353563e-001 1.277659e-001 -2.540000e-002
      endloop
   endfacet
   facet normal 0.000000e+000 0.000000e+000 -1.000000e+000
      outer loop
         vertex 1.353563e-001 1.277659e-001 -2.540000e-002
         vertex 1.516341e-001 1.440437e-001 -2.540000e-002
         vertex 1.522071e-001 1.419053e-001 -2.540000e-002
      endloop
   endfacet
   facet normal 0.000000e+000 0.000000e+000 -1.000000e+000
      outer loop
         vertex 1.353563e-001 1.277659e-001 -2.540000e-002
         vertex 1.522071e-001 1.419053e-001 -2.540000e-002
         vertex 1.524000e-001 1.397000e-001 -2.540000e-002
      endloop
   endfacet
   facet normal 0.000000e+000 0.000000e+000 -1.000000e+000
      outer loop
         vertex 1.299712e-001 1.478634e-001 -2.540000e-002
         vertex 1.374947e-001 1.522071e-001 -2.540000e-002
         vertex 1.397000e-001 1.524000e-001 -2.540000e-002
      endloop
   endfacet
   facet normal 0.000000e+000 0.000000e+000 -1.000000e+000
      outer loop
         vertex 1.397000e-001 1.270000e-001 -2.540000e-002
         vertex 1.516341e-001 1.353563e-001 -2.540000e-002
         vertex 1.419053e-001 1.271929e-001 -2.540000e-002
      endloop
   endfacet
   facet normal 0.000000e+000 0.000000e+000 -1.000000e+000
      outer loop
         vertex 1.419053e-001 1.271929e-001 -2.540000e-002
         vertex 1.516341e-001 1.353563e-001 -2.540000e-002
         vertex 1.506985e-001 1.333500e-001 -2.540000e-002
      endloop
   endfacet
   facet normal 0.000000e+000 0.000000e+000 -1.000000e+000
      outer loop
         vertex 1.419053e-001 1.271929e-001 -2.540000e-002
         vertex 1.506985e-001 1.333500e-001 -2.540000e-002
         vertex 1.494288e-001 1.315366e-001 -2.540000e-002
      endloop
   endfacet
   facet normal 0.000000e+000 0.000000e+000 -1.000000e+000
      outer loop
         vertex 1.524000e-001 1.397000e-001 -2.540000e-002
         vertex 1.522071e-001 1.374947e-001 -2.540000e-002
         vertex 1.353563e-001 1.277659e-001 -2.540000e-002
      endloop
   endfacet
   facet normal 0.000000e+000 0.000000e+000 -1.000000e+000
      outer loop
         vertex 1.353563e-001 1.277659e-001 -2.540000e-002
         vertex 1.522071e-001 1.374947e-001 -2.540000e-002
         vertex 1.516341e-001 1.353563e-001 -2.540000e-002
      endloop
   endfacet
   facet normal 0.000000e+000 0.000000e+000 -1.000000e+000
      outer loop
         vertex 1.353563e-001 1.277659e-001 -2.540000e-002
         vertex 1.516341e-001 1.353563e-001 -2.540000e-002
         vertex 1.374947e-001 1.271929e-001 -2.540000e-002
      endloop
   endfacet
   facet normal 0.000000e+000 0.000000e+000 -1.000000e+000
      outer loop
         vertex 1.374947e-001 1.271929e-001 -2.540000e-002
         vertex 1.516341e-001 1.353563e-001 -2.540000e-002
         vertex 1.397000e-001 1.270000e-001 -2.540000e-002
      endloop
   endfacet
   facet normal 0.000000e+000 0.000000e+000 -1.000000e+000
      outer loop
         vertex 1.353563e-001 1.277659e-001 -2.540000e-002
         vertex 1.333500e-001 1.287015e-001 -2.540000e-002
         vertex 1.440437e-001 1.516341e-001 -2.540000e-002
      endloop
   endfacet
   facet normal 0.000000e+000 0.000000e+000 -1.000000e+000
      outer loop
         vertex 1.440437e-001 1.516341e-001 -2.540000e-002
         vertex 1.333500e-001 1.287015e-001 -2.540000e-002
         vertex 1.315366e-001 1.299712e-001 -2.540000e-002
      endloop
   endfacet
   facet normal 0.000000e+000 0.000000e+000 -1.000000e+000
      outer loop
         vertex 1.440437e-001 1.516341e-001 -2.540000e-002
         vertex 1.315366e-001 1.299712e-001 -2.540000e-002
         vertex 1.299712e-001 1.315366e-001 -2.540000e-002
      endloop
   endfacet
   facet normal 0.000000e+000 0.000000e+000 -1.000000e+000
      outer loop
         vertex 1.299712e-001 1.315366e-001 -2.540000e-002
         vertex 1.287015e-001 1.333500e-001 -2.540000e-002
         vertex 1.440437e-001 1.516341e-001 -2.540000e-002
      endloop
   endfacet
   facet normal 0.000000e+000 0.000000e+000 -1.000000e+000
      outer loop
         vertex 1.440437e-001 1.516341e-001 -2.540000e-002
         vertex 1.287015e-001 1.333500e-001 -2.540000e-002
         vertex 1.277659e-001 1.353563e-001 -2.540000e-002
      endloop
   endfacet
   facet normal 0.000000e+000 0.000000e+000 -1.000000e+000
      outer loop
         vertex 1.440437e-001 1.516341e-001 -2.540000e-002
         vertex 1.277659e-001 1.353563e-001 -2.540000e-002
         vertex 1.271929e-001 1.374947e-001 -2.540000e-002
      endloop
   endfacet
   facet normal 0.000000e+000 0.000000e+000 -1.000000e+000
      outer loop
         vertex 1.271929e-001 1.374947e-001 -2.540000e-002
         vertex 1.270000e-001 1.397000e-001 -2.540000e-002
         vertex 1.440437e-001 1.516341e-001 -2.540000e-002
      endloop
   endfacet
   facet normal 0.000000e+000 0.000000e+000 -1.000000e+000
      outer loop
         vertex 1.440437e-001 1.516341e-001 -2.540000e-002
         vertex 1.270000e-001 1.397000e-001 -2.540000e-002
         vertex 1.271929e-001 1.419053e-001 -2.540000e-002
      endloop
   endfacet
   facet normal 0.000000e+000 0.000000e+000 -1.000000e+000
      outer loop
         vertex 1.440437e-001 1.516341e-001 -2.540000e-002
         vertex 1.271929e-001 1.419053e-001 -2.540000e-002
         vertex 1.277659e-001 1.440437e-001 -2.540000e-002
      endloop
   endfacet
   facet normal 0.000000e+000 0.000000e+000 -1.000000e+000
      outer loop
         vertex 1.299712e-001 1.478634e-001 -2.540000e-002
         vertex 1.315366e-001 1.494288e-001 -2.540000e-002
         vertex 1.374947e-001 1.522071e-001 -2.540000e-002
      endloop
   endfacet
   facet normal 0.000000e+000 0.000000e+000 -1.000000e+000
      outer loop
         vertex 1.374947e-001 1.522071e-001 -2.540000e-002
         vertex 1.315366e-001 1.494288e-001 -2.540000e-002
         vertex 1.333500e-001 1.506985e-001 -2.540000e-002
      endloop
   endfacet
   facet normal 0.000000e+000 0.000000e+000 -1.000000e+000
      outer loop
         vertex 1.374947e-001 1.522071e-001 -2.540000e-002
         vertex 1.333500e-001 1.506985e-001 -2.540000e-002
         vertex 1.353563e-001 1.516341e-001 -2.540000e-002
      endloop
   endfacet
   facet normal 0.000000e+000 0.000000e+000 -1.000000e+000
      outer loop
         vertex 1.277659e-001 1.440437e-001 -2.540000e-002
         vertex 1.287015e-001 1.460500e-001 -2.540000e-002
         vertex 1.440437e-001 1.516341e-001 -2.540000e-002
      endloop
   endfacet
   facet normal 0.000000e+000 0.000000e+000 -1.000000e+000
      outer loop
         vertex 1.440437e-001 1.516341e-001 -2.540000e-002
         vertex 1.287015e-001 1.460500e-001 -2.540000e-002
         vertex 1.299712e-001 1.478634e-001 -2.540000e-002
      endloop
   endfacet
   facet normal 0.000000e+000 0.000000e+000 -1.000000e+000
      outer loop
         vertex 1.440437e-001 1.516341e-001 -2.540000e-002
         vertex 1.299712e-001 1.478634e-001 -2.540000e-002
         vertex 1.419053e-001 1.522071e-001 -2.540000e-002
      endloop
   endfacet
   facet normal 0.000000e+000 0.000000e+000 -1.000000e+000
      outer loop
         vertex 1.419053e-001 1.522071e-001 -2.540000e-002
         vertex 1.299712e-001 1.478634e-001 -2.540000e-002
         vertex 1.397000e-001 1.524000e-001 -2.540000e-002
      endloop
   endfacet
   facet normal 0.000000e+000 0.000000e+000 -1.000000e+000
      outer loop
         vertex 1.494288e-001 1.315366e-001 -2.540000e-002
         vertex 1.478634e-001 1.299712e-001 -2.540000e-002
         vertex 1.419053e-001 1.271929e-001 -2.540000e-002
      endloop
   endfacet
   facet normal 0.000000e+000 0.000000e+000 -1.000000e+000
      outer loop
         vertex 1.419053e-001 1.271929e-001 -2.540000e-002
         vertex 1.478634e-001 1.299712e-001 -2.540000e-002
         vertex 1.460500e-001 1.287015e-001 -2.540000e-002
      endloop
   endfacet
   facet normal 0.000000e+000 0.000000e+000 -1.000000e+000
      outer loop
         vertex 1.419053e-001 1.271929e-001 -2.540000e-002
         vertex 1.460500e-001 1.287015e-001 -2.540000e-002
         vertex 1.440437e-001 1.277659e-001 -2.540000e-002
      endloop
   endfacet
endsolid

solid patch2
   facet normal -1.000000e+000 0.000000e+000 0.000000e+000
      outer loop
         vertex -2.540000e-002 2.459960e-001 2.519503e-001
         vertex -2.540000e-002 2.570303e-001 2.442240e-001
         vertex -2.540000e-002 2.571750e-001 2.425700e-001
      endloop
   endfacet
   facet normal -1.000000e+000 0.000000e+000 0.000000e+000
      outer loop
         vertex -2.540000e-002 2.428875e-001 2.508189e-001
         vertex -2.540000e-002 2.537726e-001 2.352734e-001
         vertex -2.540000e-002 2.415275e-001 2.498666e-001
      endloop
   endfacet
   facet normal -1.000000e+000 0.000000e+000 0.000000e+000
      outer loop
         vertex -2.540000e-002 2.415275e-001 2.498666e-001
         vertex -2.540000e-002 2.537726e-001 2.352734e-001
         vertex -2.540000e-002 2.524125e-001 2.343211e-001
      endloop
   endfacet
   facet normal -1.000000e+000 0.000000e+000 0.000000e+000
      outer loop
         vertex -2.540000e-002 2.415275e-001 2.498666e-001
         vertex -2.540000e-002 2.524125e-001 2.343211e-001
         vertex -2.540000e-002 2.509077e-001 2.336194e-001
      endloop
   endfacet
   facet normal -1.000000e+000 0.000000e+000 0.000000e+000
      outer loop
         vertex -2.540000e-002 2.509077e-001 2.336194e-001
         vertex -2.540000e-002 2.493040e-001 2.331897e-001
         vertex -2.540000e-002 2.415275e-001 2.498666e-001
      endloop
   endfacet
   facet normal -1.000000e+000 0.000000e+000 0.000000e+000
      outer loop
         vertex -2.540000e-002 2.415275e-001 2.498666e-001
         vertex -2.540000e-002 2.493040e-001 2.331897e-001
         vertex -2.540000e-002 2.476500e-001 2.330450e-001
      endloop
   endfacet
   facet normal -1.000000e+000 0.000000e+000 0.000000e+000
      outer loop
         vertex -2.540000e-002 2.415275e-001 2.498666e-001
         vertex -2.540000e-002 2.476500e-001 2.330450e-001
         vertex -2.540000e-002 2.459960e-001 2.331897e-001
      endloop
   endfacet
   facet normal -1.000000e+000 0.000000e+000 0.000000e+000
      outer loop
         vertex -2.540000e-002 2.459960e-001 2.331897e-001
         vertex -2.540000e-002 2.443923e-001 2.336194e-001
         vertex -2.540000e-002 2.415275e-001 2.498666e-001
      endloop
   endfacet
   facet normal -1.000000e+000 0.000000e+000 0.000000e+000
      outer loop
         vertex -2.540000e-002 2.415275e-001 2.498666e-001
         vertex -2.540000e-002 2.443923e-001 2.336194e-001
         vertex -2.540000e-002 2.428875e-001 2.343211e-001
      endloop
   endfacet
   facet normal -1.000000e+000 0.000000e+000 0.000000e+000
      outer loop
         vertex -2.540000e-002 2.415275e-001 2.498666e-001
         vertex -2.540000e-002 2.428875e-001 2.343211e-001
         vertex -2.540000e-002 2.415275e-001 2.352734e-001
      endloop
   endfacet
   facet normal -1.000000e+000 0.000000e+000 0.000000e+000
      outer loop
         vertex -2.540000e-002 2.415275e-001 2.352734e-001
         vertex -2.540000e-002 2.403534e-001 2.364475e-001
         vertex -2.540000e-002 2.415275e-001 2.498666e-001
      endloop
   endfacet
   facet normal -1.000000e+000 0.000000e+000 0.000000e+000
      outer loop
         vertex -2.540000e-002 2.415275e-001 2.498666e-001
         vertex -2.540000e-002 2.403534e-001 2.364475e-001
         vertex -2.540000e-002 2.394011e-001 2.378075e-001
      endloop
   endfacet
   facet normal -1.000000e+000 0.000000e+000 0.000000e+000
      outer loop
         vertex -2.540000e-002 2.415275e-001 2.498666e-001
         vertex -2.540000e-002 2.394011e-001 2.378075e-001
         vertex -2.540000e-002 2.403534e-001 2.486926e-001
      endloop
   endfacet
   facet normal -1.000000e+000 0.000000e+000 0.000000e+000
      outer loop
         vertex -2.540000e-002 2.403534e-001 2.486926e-001
         vertex -2.540000e-002 2.394011e-001 2.378075e-001
         vertex -2.540000e-002 2.394011e-001 2.473325e-001
      endloop
   endfacet
   facet normal -1.000000e+000 0.000000e+000 0.000000e+000
      outer loop
         vertex -2.540000e-002 2.493040e-001 2.519503e-001
         vertex -2.540000e-002 2.549466e-001 2.486926e-001
         vertex -2.540000e-002 2.558989e-001 2.473325e-001
      endloop
   endfacet
   facet normal -1.000000e+000 0.000000e+000 0.000000e+000
      outer loop
         vertex -2.540000e-002 2.571750e-001 2.425700e-001
         vertex -2.540000e-002 2.570303e-001 2.409160e-001
         vertex -2.540000e-002 2.459960e-001 2.519503e-001
      endloop
   endfacet
   facet normal -1.000000e+000 0.000000e+000 0.000000e+000
      outer loop
         vertex -2.540000e-002 2.459960e-001 2.519503e-001
         vertex -2.540000e-002 2.570303e-001 2.409160e-001
         vertex -2.540000e-002 2.566006e-001 2.393123e-001
      endloop
   endfacet
   facet normal -1.000000e+000 0.000000e+000 0.000000e+000
      outer loop
         vertex -2.540000e-002 2.459960e-001 2.519503e-001
         vertex -2.540000e-002 2.566006e-001 2.393123e-001
         vertex -2.540000e-002 2.558989e-001 2.378075e-001
      endloop
   endfacet
   facet normal -1.000000e+000 0.000000e+000 0.000000e+000
      outer loop
         vertex -2.540000e-002 2.428875e-001 2.508189e-001
         vertex -2.540000e-002 2.443923e-001 2.515206e-001
         vertex -2.540000e-002 2.537726e-001 2.352734e-001
      endloop
   endfacet
   facet normal -1.000000e+000 0.000000e+000 0.000000e+000
      outer loop
         vertex -2.540000e-002 2.537726e-001 2.352734e-001
         vertex -2.540000e-002 2.443923e-001 2.515206e-001
         vertex -2.540000e-002 2.459960e-001 2.519503e-001
      endloop
   endfacet
   facet normal -1.000000e+000 0.000000e+000 0.000000e+000
      outer loop
         vertex -2.540000e-002 2.537726e-001 2.352734e-001
         vertex -2.540000e-002 2.459960e-001 2.519503e-001
         vertex -2.540000e-002 2.549466e-001 2.364475e-001
      endloop
   endfacet
   facet normal -1.000000e+000 0.000000e+000 0.000000e+000
      outer loop
         vertex -2.540000e-002 2.549466e-001 2.364475e-001
         vertex -2.540000e-002 2.459960e-001 2.519503e-001
         vertex -2.540000e-002 2.558989e-001 2.378075e-001
      endloop
   endfacet
   facet normal -1.000000e+000 0.000000e+000 0.000000e+000
      outer loop
         vertex -2.540000e-002 2.382697e-001 2.409160e-001
         vertex -2.540000e-002 2.381250e-001 2.425700e-001
         vertex -2.540000e-002 2.382697e-001 2.442240e-001
      endloop
   endfacet
   facet normal -1.000000e+000 0.000000e+000 0.000000e+000
      outer loop
         vertex -2.540000e-002 2.493040e-001 2.519503e-001
         vertex -2.540000e-002 2.509077e-001 2.515206e-001
         vertex -2.540000e-002 2.549466e-001 2.486926e-001
      endloop
   endfacet
   facet normal -1.000000e+000 0.000000e+000 0.000000e+000
      outer loop
         vertex -2.540000e-002 2.549466e-001 2.486926e-001
         vertex -2.540000e-002 2.509077e-001 2.515206e-001
         vertex -2.540000e-002 2.524125e-001 2.508189e-001
      endloop
   endfacet
   facet normal -1.000000e+000 0.000000e+000 0.000000e+000
      outer loop
         vertex -2.540000e-002 2.549466e-001 2.486926e-001
         vertex -2.540000e-002 2.524125e-001 2.508189e-001
         vertex -2.540000e-002 2.537726e-001 2.498666e-001
      endloop
   endfacet
   facet normal -1.000000e+000 0.000000e+000 0.000000e+000
      outer loop
         vertex -2.540000e-002 2.459960e-001 2.519503e-001
         vertex -2.540000e-002 2.476500e-001 2.520950e-001
         vertex -2.540000e-002 2.570303e-001 2.442240e-001
      endloop
   endfacet
   facet normal -1.000000e+000 0.000000e+000 0.000000e+000
      outer loop
         vertex -2.540000e-002 2.570303e-001 2.442240e-001
         vertex -2.540000e-002 2.476500e-001 2.520950e-001
         vertex -2.540000e-002 2.493040e-001 2.519503e-001
      endloop
   endfacet
   facet normal -1.000000e+000 0.000000e+000 0.000000e+000
      outer loop
         vertex -2.540000e-002 2.570303e-001 2.442240e-001
         vertex -2.540000e-002 2.493040e-001 2.519503e-001
         vertex -2.540000e-002 2.566006e-001 2.458277e-001
      endloop
   endfacet
   facet normal -1.000000e+000 0.000000e+000 0.000000e+000
      outer loop
         vertex -2.540000e-002 2.566006e-001 2.458277e-001
         vertex -2.540000e-002 2.493040e-001 2.519503e-001
         vertex -2.540000e-002 2.558989e-001 2.473325e-001
      endloop
   endfacet
   facet normal -1.000000e+000 0.000000e+000 0.000000e+000
      outer loop
         vertex -2.540000e-002 2.394011e-001 2.378075e-001
         vertex -2.540000e-002 2.386994e-001 2.393123e-001
         vertex -2.540000e-002 2.394011e-001 2.473325e-001
      endloop
   endfacet
   facet normal -1.000000e+000 0.000000e+000 0.000000e+000
      outer loop
         vertex -2.540000e-002 2.394011e-001 2.473325e-001
         vertex -2.540000e-002 2.386994e-001 2.393123e-001
         vertex -2.540000e-002 2.382697e-001 2.409160e-001
      endloop
   endfacet
   facet normal -1.000000e+000 0.000000e+000 0.000000e+000
      outer loop
         vertex -2.540000e-002 2.394011e-001 2.473325e-001
         vertex -2.540000e-002 2.382697e-001 2.409160e-001
         vertex -2.540000e-002 2.386994e-001 2.458277e-001
      endloop
   endfacet
   facet normal -1.000000e+000 0.000000e+000 0.000000e+000
      outer loop
         vertex -2.540000e-002 2.386994e-001 2.458277e-001
         vertex -2.540000e-002 2.382697e-001 2.409160e-001
         vertex -2.540000e-002 2.382697e-001 2.442240e-001
      endloop
   endfacet
endsolid
