solid waterCylinder
   facet normal 3.805230e-002 0.000000e+000 9.992757e-001
      outer loop
         vertex 1.447691e-003 -2.540000e-002 1.261722e-002
         vertex 0.000000e+000 0.000000e+000 1.270000e-002
         vertex 0.000000e+000 -2.540000e-002 1.270000e-002
      endloop
   endfacet
   facet normal -3.805230e-002 0.000000e+000 9.992757e-001
      outer loop
         vertex 0.000000e+000 -2.540000e-002 1.270000e-002
         vertex 0.000000e+000 0.000000e+000 1.270000e-002
         vertex -1.447691e-003 0.000000e+000 1.261722e-002
      endloop
   endfacet
   facet normal -7.610459e-002 0.000000e+000 9.970998e-001
      outer loop
         vertex 0.000000e+000 -2.540000e-002 1.270000e-002
         vertex -1.447691e-003 0.000000e+000 1.261722e-002
         vertex -1.447691e-003 -2.540000e-002 1.261722e-002
      endloop
   endfacet
   facet normal -1.517131e-001 0.000000e+000 9.884245e-001
      outer loop
         vertex -1.447691e-003 -2.540000e-002 1.261722e-002
         vertex -1.447691e-003 0.000000e+000 1.261722e-002
         vertex -2.876509e-003 0.000000e+000 1.236995e-002
      endloop
   endfacet
   facet normal -1.892693e-001 0.000000e+000 9.819252e-001
      outer loop
         vertex -1.447691e-003 -2.540000e-002 1.261722e-002
         vertex -2.876509e-003 0.000000e+000 1.236995e-002
         vertex -2.876509e-003 -2.540000e-002 1.236995e-002
      endloop
   endfacet
   facet normal -2.633961e-001 0.000000e+000 9.646878e-001
      outer loop
         vertex -2.876509e-003 -2.540000e-002 1.236995e-002
         vertex -2.876509e-003 0.000000e+000 1.236995e-002
         vertex -4.267827e-003 0.000000e+000 1.196142e-002
      endloop
   endfacet
   facet normal -2.999667e-001 0.000000e+000 9.539497e-001
      outer loop
         vertex -2.876509e-003 -2.540000e-002 1.236995e-002
         vertex -4.267827e-003 0.000000e+000 1.196142e-002
         vertex -4.267827e-003 -2.540000e-002 1.196142e-002
      endloop
   endfacet
   facet normal -3.716453e-001 0.000000e+000 9.283748e-001
      outer loop
         vertex -4.267827e-003 -2.540000e-002 1.196142e-002
         vertex -4.267827e-003 0.000000e+000 1.196142e-002
         vertex -5.603508e-003 0.000000e+000 1.139696e-002
      endloop
   endfacet
   facet normal -4.067535e-001 0.000000e+000 9.135380e-001
      outer loop
         vertex -4.267827e-003 -2.540000e-002 1.196142e-002
         vertex -5.603508e-003 0.000000e+000 1.139696e-002
         vertex -5.603508e-003 -2.540000e-002 1.139696e-002
      endloop
   endfacet
   facet normal -4.750497e-001 0.000000e+000 8.799590e-001
      outer loop
         vertex -5.603508e-003 -2.540000e-002 1.139696e-002
         vertex -5.603508e-003 0.000000e+000 1.139696e-002
         vertex -6.866138e-003 0.000000e+000 1.068392e-002
      endloop
   endfacet
   facet normal -5.082377e-001 0.000000e+000 8.612168e-001
      outer loop
         vertex -5.603508e-003 -2.540000e-002 1.139696e-002
         vertex -6.866138e-003 0.000000e+000 1.068392e-002
         vertex -6.866138e-003 -2.540000e-002 1.068392e-002
      endloop
   endfacet
   facet normal -5.722609e-001 0.000000e+000 8.200716e-001
      outer loop
         vertex -6.866138e-003 -2.540000e-002 1.068392e-002
         vertex -6.866138e-003 0.000000e+000 1.068392e-002
         vertex -8.039258e-003 0.000000e+000 9.831598e-003
      endloop
   endfacet
   facet normal -6.030962e-001 0.000000e+000 7.976685e-001
      outer loop
         vertex -6.866138e-003 -2.540000e-002 1.068392e-002
         vertex -8.039258e-003 0.000000e+000 9.831598e-003
         vertex -8.039258e-003 -2.540000e-002 9.831598e-003
      endloop
   endfacet
   facet normal -6.620119e-001 0.000000e+000 7.494934e-001
      outer loop
         vertex -8.039258e-003 -2.540000e-002 9.831598e-003
         vertex -8.039258e-003 0.000000e+000 9.831598e-003
         vertex -9.107574e-003 0.000000e+000 8.851107e-003
      endloop
   endfacet
   facet normal -6.900924e-001 0.000000e+000 7.237214e-001
      outer loop
         vertex -8.039258e-003 -2.540000e-002 9.831598e-003
         vertex -9.107574e-003 0.000000e+000 8.851107e-003
         vertex -9.107574e-003 -2.540000e-002 8.851107e-003
      endloop
   endfacet
   facet normal -7.431325e-001 0.000000e+000 6.691443e-001
      outer loop
         vertex -9.107574e-003 -2.540000e-002 8.851107e-003
         vertex -9.107574e-003 0.000000e+000 8.851107e-003
         vertex -1.005716e-002 0.000000e+000 7.755228e-003
      endloop
   endfacet
   facet normal -7.680922e-001 0.000000e+000 6.403394e-001
      outer loop
         vertex -9.107574e-003 -2.540000e-002 8.851107e-003
         vertex -1.005716e-002 0.000000e+000 7.755228e-003
         vertex -1.005716e-002 -2.540000e-002 7.755228e-003
      endloop
   endfacet
   facet normal -8.145652e-001 0.000000e+000 5.800719e-001
      outer loop
         vertex -1.005716e-002 -2.540000e-002 7.755228e-003
         vertex -1.005716e-002 0.000000e+000 7.755228e-003
         vertex -1.087563e-002 0.000000e+000 6.558248e-003
      endloop
   endfacet
   facet normal -8.360787e-001 0.000000e+000 5.486096e-001
      outer loop
         vertex -1.005716e-002 -2.540000e-002 7.755228e-003
         vertex -1.087563e-002 0.000000e+000 6.558248e-003
         vertex -1.087563e-002 -2.540000e-002 6.558248e-003
      endloop
   endfacet
   facet normal -8.753789e-001 0.000000e+000 4.834374e-001
      outer loop
         vertex -1.087563e-002 -2.540000e-002 6.558248e-003
         vertex -1.087563e-002 0.000000e+000 6.558248e-003
         vertex -1.155233e-002 0.000000e+000 5.275771e-003
      endloop
   endfacet
   facet normal -8.931657e-001 0.000000e+000 4.497278e-001
      outer loop
         vertex -1.087563e-002 -2.540000e-002 6.558248e-003
         vertex -1.155233e-002 0.000000e+000 5.275771e-003
         vertex -1.155233e-002 -2.540000e-002 5.275771e-003
      endloop
   endfacet
   facet normal -9.247807e-001 0.000000e+000 3.805006e-001
      outer loop
         vertex -1.155233e-002 -2.540000e-002 5.275771e-003
         vertex -1.155233e-002 0.000000e+000 5.275771e-003
         vertex -1.207842e-002 0.000000e+000 3.924516e-003
      endloop
   endfacet
   facet normal -9.386089e-001 0.000000e+000 3.449831e-001
      outer loop
         vertex -1.155233e-002 -2.540000e-002 5.275771e-003
         vertex -1.207842e-002 0.000000e+000 3.924516e-003
         vertex -1.207842e-002 -2.540000e-002 3.924516e-003
      endloop
   endfacet
   facet normal -9.621266e-001 0.000000e+000 2.726033e-001
      outer loop
         vertex -1.207842e-002 -2.540000e-002 3.924516e-003
         vertex -1.207842e-002 0.000000e+000 3.924516e-003
         vertex -1.244705e-002 0.000000e+000 2.522099e-003
      endloop
   endfacet
   facet normal -9.718159e-001 0.000000e+000 2.357410e-001
      outer loop
         vertex -1.207842e-002 -2.540000e-002 3.924516e-003
         vertex -1.244705e-002 0.000000e+000 2.522099e-003
         vertex -1.244705e-002 -2.540000e-002 2.522099e-003
      endloop
   endfacet
   facet normal -9.869295e-001 0.000000e+000 1.611522e-001
      outer loop
         vertex -1.244705e-002 -2.540000e-002 2.522099e-003
         vertex -1.244705e-002 0.000000e+000 2.522099e-003
         vertex -1.265341e-002 0.000000e+000 1.086803e-003
      endloop
   endfacet
   facet normal -9.923538e-001 0.000000e+000 1.234257e-001
      outer loop
         vertex -1.244705e-002 -2.540000e-002 2.522099e-003
         vertex -1.265341e-002 0.000000e+000 1.086803e-003
         vertex -1.265341e-002 -2.540000e-002 1.086803e-003
      endloop
   endfacet
   facet normal -9.988664e-001 0.000000e+000 4.760032e-002
      outer loop
         vertex -1.265341e-002 -2.540000e-002 1.086803e-003
         vertex -1.265341e-002 0.000000e+000 1.086803e-003
         vertex -1.269482e-002 0.000000e+000 -3.626618e-004
      endloop
   endfacet
   facet normal -9.999549e-001 0.000000e+000 9.501408e-003
      outer loop
         vertex -1.265341e-002 -2.540000e-002 1.086803e-003
         vertex -1.269482e-002 0.000000e+000 -3.626618e-004
         vertex -1.269482e-002 -2.540000e-002 -3.626618e-004
      endloop
   endfacet
   facet normal -9.977816e-001 0.000000e+000 -6.657214e-002
      outer loop
         vertex -1.269482e-002 -2.540000e-002 -3.626618e-004
         vertex -1.269482e-002 0.000000e+000 -3.626618e-004
         vertex -1.257073e-002 0.000000e+000 -1.807398e-003
      endloop
   endfacet
   facet normal -9.945200e-001 0.000000e+000 -1.045468e-001
      outer loop
         vertex -1.269482e-002 -2.540000e-002 -3.626618e-004
         vertex -1.257073e-002 0.000000e+000 -1.807398e-003
         vertex -1.257073e-002 -2.540000e-002 -1.807398e-003
      endloop
   endfacet
   facet normal -9.836891e-001 0.000000e+000 -1.798768e-001
      outer loop
         vertex -1.257073e-002 -2.540000e-002 -1.807398e-003
         vertex -1.257073e-002 0.000000e+000 -1.807398e-003
         vertex -1.228277e-002 0.000000e+000 -3.228573e-003
      endloop
   endfacet
   facet normal -9.761200e-001 0.000000e+000 -2.172321e-001
      outer loop
         vertex -1.257073e-002 -2.540000e-002 -1.807398e-003
         vertex -1.228277e-002 0.000000e+000 -3.228573e-003
         vertex -1.228277e-002 -2.540000e-002 -3.228573e-003
      endloop
   endfacet
   facet normal -9.567728e-001 0.000000e+000 -2.908364e-001
      outer loop
         vertex -1.228277e-002 -2.540000e-002 -3.228573e-003
         vertex -1.228277e-002 0.000000e+000 -3.228573e-003
         vertex -1.183467e-002 0.000000e+000 -4.607658e-003
      endloop
   endfacet
   facet normal -9.449948e-001 0.000000e+000 -3.270854e-001
      outer loop
         vertex -1.228277e-002 -2.540000e-002 -3.228573e-003
         vertex -1.183467e-002 0.000000e+000 -4.607658e-003
         vertex -1.183467e-002 -2.540000e-002 -4.607658e-003
      endloop
   endfacet
   facet normal -9.173835e-001 0.000000e+000 -3.980045e-001
      outer loop
         vertex -1.183467e-002 -2.540000e-002 -4.607658e-003
         vertex -1.183467e-002 0.000000e+000 -4.607658e-003
         vertex -1.123230e-002 0.000000e+000 -5.926675e-003
      endloop
   endfacet
   facet normal -9.015502e-001 0.000000e+000 -4.326746e-001
      outer loop
         vertex -1.183467e-002 -2.540000e-002 -4.607658e-003
         vertex -1.123230e-002 0.000000e+000 -5.926675e-003
         vertex -1.123230e-002 -2.540000e-002 -5.926675e-003
      endloop
   endfacet
   facet normal -8.660346e-001 0.000000e+000 -4.999841e-001
      outer loop
         vertex -1.123230e-002 -2.540000e-002 -5.926675e-003
         vertex -1.123230e-002 0.000000e+000 -5.926675e-003
         vertex -1.048349e-002 0.000000e+000 -7.168429e-003
      endloop
   endfacet
   facet normal -8.463524e-001 0.000000e+000 -5.326234e-001
      outer loop
         vertex -1.123230e-002 -2.540000e-002 -5.926675e-003
         vertex -1.048349e-002 0.000000e+000 -7.168429e-003
         vertex -1.048349e-002 -2.540000e-002 -7.168429e-003
      endloop
   endfacet
   facet normal -8.033957e-001 0.000000e+000 -5.954455e-001
      outer loop
         vertex -1.048349e-002 -2.540000e-002 -7.168429e-003
         vertex -1.048349e-002 0.000000e+000 -7.168429e-003
         vertex -9.598020e-003 0.000000e+000 -8.316731e-003
      endloop
   endfacet
   facet normal -7.801212e-001 0.000000e+000 -6.256285e-001
      outer loop
         vertex -1.048349e-002 -2.540000e-002 -7.168429e-003
         vertex -9.598020e-003 0.000000e+000 -8.316731e-003
         vertex -9.598020e-003 -2.540000e-002 -8.316731e-003
      endloop
   endfacet
   facet normal -7.302833e-001 0.000000e+000 -6.831445e-001
      outer loop
         vertex -9.598020e-003 -2.540000e-002 -8.316731e-003
         vertex -9.598020e-003 0.000000e+000 -8.316731e-003
         vertex -8.587421e-003 0.000000e+000 -9.356612e-003
      endloop
   endfacet
   facet normal -7.037199e-001 0.000000e+000 -7.104775e-001
      outer loop
         vertex -9.598020e-003 -2.540000e-002 -8.316731e-003
         vertex -8.587421e-003 0.000000e+000 -9.356612e-003
         vertex -8.587421e-003 -2.540000e-002 -9.356612e-003
      endloop
   endfacet
   facet normal -6.476505e-001 0.000000e+000 -7.619376e-001
      outer loop
         vertex -8.587421e-003 -2.540000e-002 -9.356612e-003
         vertex -8.587421e-003 0.000000e+000 -9.356612e-003
         vertex -7.464873e-003 0.000000e+000 -1.027452e-002
      endloop
   endfacet
   facet normal -6.181445e-001 0.000000e+000 -7.860644e-001
      outer loop
         vertex -8.587421e-003 -2.540000e-002 -9.356612e-003
         vertex -7.464873e-003 0.000000e+000 -1.027452e-002
         vertex -7.464873e-003 -2.540000e-002 -1.027452e-002
      endloop
   endfacet
   facet normal -5.565746e-001 0.000000e+000 -8.307976e-001
      outer loop
         vertex -7.464873e-003 -2.540000e-002 -1.027452e-002
         vertex -7.464873e-003 0.000000e+000 -1.027452e-002
         vertex -6.245008e-003 0.000000e+000 -1.105847e-002
      endloop
   endfacet
   facet normal -5.245107e-001 0.000000e+000 -8.514039e-001
      outer loop
         vertex -7.464873e-003 -2.540000e-002 -1.027452e-002
         vertex -6.245008e-003 0.000000e+000 -1.105847e-002
         vertex -6.245008e-003 -2.540000e-002 -1.105847e-002
      endloop
   endfacet
   facet normal -4.582429e-001 0.000000e+000 -8.888270e-001
      outer loop
         vertex -6.245008e-003 -2.540000e-002 -1.105847e-002
         vertex -6.245008e-003 0.000000e+000 -1.105847e-002
         vertex -4.943730e-003 0.000000e+000 -1.169827e-002
      endloop
   endfacet
   facet normal -4.240391e-001 0.000000e+000 -9.056439e-001
      outer loop
         vertex -6.245008e-003 -2.540000e-002 -1.105847e-002
         vertex -4.943730e-003 0.000000e+000 -1.169827e-002
         vertex -4.943730e-003 -2.540000e-002 -1.169827e-002
      endloop
   endfacet
   facet normal -3.539373e-001 0.000000e+000 -9.352692e-001
      outer loop
         vertex -4.943730e-003 -2.540000e-002 -1.169827e-002
         vertex -4.943730e-003 0.000000e+000 -1.169827e-002
         vertex -3.578003e-003 0.000000e+000 -1.218556e-002
      endloop
   endfacet
   facet normal -3.180394e-001 0.000000e+000 -9.480774e-001
      outer loop
         vertex -4.943730e-003 -2.540000e-002 -1.169827e-002
         vertex -3.578003e-003 0.000000e+000 -1.218556e-002
         vertex -3.578003e-003 -2.540000e-002 -1.218556e-002
      endloop
   endfacet
   facet normal -2.450176e-001 0.000000e+000 -9.695187e-001
      outer loop
         vertex -3.578003e-003 -2.540000e-002 -1.218556e-002
         vertex -3.578003e-003 0.000000e+000 -1.218556e-002
         vertex -2.165632e-003 0.000000e+000 -1.251399e-002
      endloop
   endfacet
   facet normal -2.078937e-001 0.000000e+000 -9.781514e-001
      outer loop
         vertex -3.578003e-003 -2.540000e-002 -1.218556e-002
         vertex -2.165632e-003 0.000000e+000 -1.251399e-002
         vertex -2.165632e-003 -2.540000e-002 -1.251399e-002
      endloop
   endfacet
   facet normal -1.329037e-001 0.000000e+000 -9.911289e-001
      outer loop
         vertex -2.165632e-003 -2.540000e-002 -1.251399e-002
         vertex -2.165632e-003 0.000000e+000 -1.251399e-002
         vertex -7.250279e-004 0.000000e+000 -1.267929e-002
      endloop
   endfacet
   facet normal -9.503771e-002 0.000000e+000 -9.954737e-001
      outer loop
         vertex -2.165632e-003 -2.540000e-002 -1.251399e-002
         vertex -7.250279e-004 0.000000e+000 -1.267929e-002
         vertex -7.250279e-004 -2.540000e-002 -1.267929e-002
      endloop
   endfacet
   facet normal -1.905723e-002 0.000000e+000 -9.998184e-001
      outer loop
         vertex -7.250279e-004 -2.540000e-002 -1.267929e-002
         vertex -7.250279e-004 0.000000e+000 -1.267929e-002
         vertex 7.250279e-004 0.000000e+000 -1.267929e-002
      endloop
   endfacet
   facet normal 1.905723e-002 0.000000e+000 -9.998184e-001
      outer loop
         vertex -7.250279e-004 -2.540000e-002 -1.267929e-002
         vertex 7.250279e-004 0.000000e+000 -1.267929e-002
         vertex 7.250279e-004 -2.540000e-002 -1.267929e-002
      endloop
   endfacet
   facet normal 9.503771e-002 0.000000e+000 -9.954737e-001
      outer loop
         vertex 7.250279e-004 -2.540000e-002 -1.267929e-002
         vertex 7.250279e-004 0.000000e+000 -1.267929e-002
         vertex 2.165632e-003 0.000000e+000 -1.251399e-002
      endloop
   endfacet
   facet normal 1.329037e-001 0.000000e+000 -9.911289e-001
      outer loop
         vertex 7.250279e-004 -2.540000e-002 -1.267929e-002
         vertex 2.165632e-003 0.000000e+000 -1.251399e-002
         vertex 2.165632e-003 -2.540000e-002 -1.251399e-002
      endloop
   endfacet
   facet normal 2.078937e-001 0.000000e+000 -9.781514e-001
      outer loop
         vertex 2.165632e-003 -2.540000e-002 -1.251399e-002
         vertex 2.165632e-003 0.000000e+000 -1.251399e-002
         vertex 3.578003e-003 0.000000e+000 -1.218556e-002
      endloop
   endfacet
   facet normal 2.450176e-001 0.000000e+000 -9.695187e-001
      outer loop
         vertex 2.165632e-003 -2.540000e-002 -1.251399e-002
         vertex 3.578003e-003 0.000000e+000 -1.218556e-002
         vertex 3.578003e-003 -2.540000e-002 -1.218556e-002
      endloop
   endfacet
   facet normal 3.180394e-001 0.000000e+000 -9.480774e-001
      outer loop
         vertex 3.578003e-003 -2.540000e-002 -1.218556e-002
         vertex 3.578003e-003 0.000000e+000 -1.218556e-002
         vertex 4.943730e-003 0.000000e+000 -1.169827e-002
      endloop
   endfacet
   facet normal 3.539373e-001 0.000000e+000 -9.352692e-001
      outer loop
         vertex 3.578003e-003 -2.540000e-002 -1.218556e-002
         vertex 4.943730e-003 0.000000e+000 -1.169827e-002
         vertex 4.943730e-003 -2.540000e-002 -1.169827e-002
      endloop
   endfacet
   facet normal 4.240390e-001 0.000000e+000 -9.056439e-001
      outer loop
         vertex 4.943730e-003 -2.540000e-002 -1.169827e-002
         vertex 4.943730e-003 0.000000e+000 -1.169827e-002
         vertex 6.245008e-003 0.000000e+000 -1.105847e-002
      endloop
   endfacet
   facet normal 4.582429e-001 0.000000e+000 -8.888270e-001
      outer loop
         vertex 4.943730e-003 -2.540000e-002 -1.169827e-002
         vertex 6.245008e-003 0.000000e+000 -1.105847e-002
         vertex 6.245008e-003 -2.540000e-002 -1.105847e-002
      endloop
   endfacet
   facet normal 5.245107e-001 0.000000e+000 -8.514039e-001
      outer loop
         vertex 6.245008e-003 -2.540000e-002 -1.105847e-002
         vertex 6.245008e-003 0.000000e+000 -1.105847e-002
         vertex 7.464873e-003 0.000000e+000 -1.027452e-002
      endloop
   endfacet
   facet normal 5.565746e-001 0.000000e+000 -8.307976e-001
      outer loop
         vertex 6.245008e-003 -2.540000e-002 -1.105847e-002
         vertex 7.464873e-003 0.000000e+000 -1.027452e-002
         vertex 7.464873e-003 -2.540000e-002 -1.027452e-002
      endloop
   endfacet
   facet normal 6.181445e-001 0.000000e+000 -7.860644e-001
      outer loop
         vertex 7.464873e-003 -2.540000e-002 -1.027452e-002
         vertex 7.464873e-003 0.000000e+000 -1.027452e-002
         vertex 8.587421e-003 0.000000e+000 -9.356612e-003
      endloop
   endfacet
   facet normal 6.476505e-001 0.000000e+000 -7.619376e-001
      outer loop
         vertex 7.464873e-003 -2.540000e-002 -1.027452e-002
         vertex 8.587421e-003 0.000000e+000 -9.356612e-003
         vertex 8.587421e-003 -2.540000e-002 -9.356612e-003
      endloop
   endfacet
   facet normal 7.037199e-001 0.000000e+000 -7.104775e-001
      outer loop
         vertex 8.587421e-003 -2.540000e-002 -9.356612e-003
         vertex 8.587421e-003 0.000000e+000 -9.356612e-003
         vertex 9.598020e-003 0.000000e+000 -8.316731e-003
      endloop
   endfacet
   facet normal 7.302833e-001 0.000000e+000 -6.831445e-001
      outer loop
         vertex 8.587421e-003 -2.540000e-002 -9.356612e-003
         vertex 9.598020e-003 0.000000e+000 -8.316731e-003
         vertex 9.598020e-003 -2.540000e-002 -8.316731e-003
      endloop
   endfacet
   facet normal 7.801212e-001 0.000000e+000 -6.256285e-001
      outer loop
         vertex 9.598020e-003 -2.540000e-002 -8.316731e-003
         vertex 9.598020e-003 0.000000e+000 -8.316731e-003
         vertex 1.048349e-002 0.000000e+000 -7.168429e-003
      endloop
   endfacet
   facet normal 8.033957e-001 0.000000e+000 -5.954455e-001
      outer loop
         vertex 9.598020e-003 -2.540000e-002 -8.316731e-003
         vertex 1.048349e-002 0.000000e+000 -7.168429e-003
         vertex 1.048349e-002 -2.540000e-002 -7.168429e-003
      endloop
   endfacet
   facet normal 8.463524e-001 0.000000e+000 -5.326234e-001
      outer loop
         vertex 1.048349e-002 -2.540000e-002 -7.168429e-003
         vertex 1.048349e-002 0.000000e+000 -7.168429e-003
         vertex 1.123230e-002 0.000000e+000 -5.926675e-003
      endloop
   endfacet
   facet normal 8.660346e-001 0.000000e+000 -4.999840e-001
      outer loop
         vertex 1.048349e-002 -2.540000e-002 -7.168429e-003
         vertex 1.123230e-002 0.000000e+000 -5.926675e-003
         vertex 1.123230e-002 -2.540000e-002 -5.926675e-003
      endloop
   endfacet
   facet normal 9.015502e-001 0.000000e+000 -4.326746e-001
      outer loop
         vertex 1.123230e-002 -2.540000e-002 -5.926675e-003
         vertex 1.123230e-002 0.000000e+000 -5.926675e-003
         vertex 1.183467e-002 0.000000e+000 -4.607658e-003
      endloop
   endfacet
   facet normal 9.173835e-001 0.000000e+000 -3.980045e-001
      outer loop
         vertex 1.123230e-002 -2.540000e-002 -5.926675e-003
         vertex 1.183467e-002 0.000000e+000 -4.607658e-003
         vertex 1.183467e-002 -2.540000e-002 -4.607658e-003
      endloop
   endfacet
   facet normal 9.449948e-001 0.000000e+000 -3.270854e-001
      outer loop
         vertex 1.183467e-002 -2.540000e-002 -4.607658e-003
         vertex 1.183467e-002 0.000000e+000 -4.607658e-003
         vertex 1.228277e-002 0.000000e+000 -3.228573e-003
      endloop
   endfacet
   facet normal 9.567728e-001 0.000000e+000 -2.908364e-001
      outer loop
         vertex 1.183467e-002 -2.540000e-002 -4.607658e-003
         vertex 1.228277e-002 0.000000e+000 -3.228573e-003
         vertex 1.228277e-002 -2.540000e-002 -3.228573e-003
      endloop
   endfacet
   facet normal 9.761200e-001 0.000000e+000 -2.172321e-001
      outer loop
         vertex 1.228277e-002 -2.540000e-002 -3.228573e-003
         vertex 1.228277e-002 0.000000e+000 -3.228573e-003
         vertex 1.257073e-002 0.000000e+000 -1.807398e-003
      endloop
   endfacet
   facet normal 9.836891e-001 0.000000e+000 -1.798768e-001
      outer loop
         vertex 1.228277e-002 -2.540000e-002 -3.228573e-003
         vertex 1.257073e-002 0.000000e+000 -1.807398e-003
         vertex 1.257073e-002 -2.540000e-002 -1.807398e-003
      endloop
   endfacet
   facet normal 9.945200e-001 0.000000e+000 -1.045468e-001
      outer loop
         vertex 1.257073e-002 -2.540000e-002 -1.807398e-003
         vertex 1.257073e-002 0.000000e+000 -1.807398e-003
         vertex 1.269482e-002 0.000000e+000 -3.626618e-004
      endloop
   endfacet
   facet normal 9.977816e-001 0.000000e+000 -6.657214e-002
      outer loop
         vertex 1.257073e-002 -2.540000e-002 -1.807398e-003
         vertex 1.269482e-002 0.000000e+000 -3.626618e-004
         vertex 1.269482e-002 -2.540000e-002 -3.626618e-004
      endloop
   endfacet
   facet normal 9.999549e-001 0.000000e+000 9.501409e-003
      outer loop
         vertex 1.269482e-002 -2.540000e-002 -3.626618e-004
         vertex 1.269482e-002 0.000000e+000 -3.626618e-004
         vertex 1.265341e-002 0.000000e+000 1.086803e-003
      endloop
   endfacet
   facet normal 9.988664e-001 0.000000e+000 4.760032e-002
      outer loop
         vertex 1.269482e-002 -2.540000e-002 -3.626618e-004
         vertex 1.265341e-002 0.000000e+000 1.086803e-003
         vertex 1.265341e-002 -2.540000e-002 1.086803e-003
      endloop
   endfacet
   facet normal 9.923538e-001 0.000000e+000 1.234257e-001
      outer loop
         vertex 1.265341e-002 -2.540000e-002 1.086803e-003
         vertex 1.265341e-002 0.000000e+000 1.086803e-003
         vertex 1.244705e-002 0.000000e+000 2.522099e-003
      endloop
   endfacet
   facet normal 9.869295e-001 0.000000e+000 1.611522e-001
      outer loop
         vertex 1.265341e-002 -2.540000e-002 1.086803e-003
         vertex 1.244705e-002 0.000000e+000 2.522099e-003
         vertex 1.244705e-002 -2.540000e-002 2.522099e-003
      endloop
   endfacet
   facet normal 9.718159e-001 0.000000e+000 2.357410e-001
      outer loop
         vertex 1.244705e-002 -2.540000e-002 2.522099e-003
         vertex 1.244705e-002 0.000000e+000 2.522099e-003
         vertex 1.207842e-002 0.000000e+000 3.924516e-003
      endloop
   endfacet
   facet normal 9.621266e-001 0.000000e+000 2.726033e-001
      outer loop
         vertex 1.244705e-002 -2.540000e-002 2.522099e-003
         vertex 1.207842e-002 0.000000e+000 3.924516e-003
         vertex 1.207842e-002 -2.540000e-002 3.924516e-003
      endloop
   endfacet
   facet normal 9.386089e-001 0.000000e+000 3.449831e-001
      outer loop
         vertex 1.207842e-002 -2.540000e-002 3.924516e-003
         vertex 1.207842e-002 0.000000e+000 3.924516e-003
         vertex 1.155233e-002 0.000000e+000 5.275771e-003
      endloop
   endfacet
   facet normal 9.247807e-001 0.000000e+000 3.805006e-001
      outer loop
         vertex 1.207842e-002 -2.540000e-002 3.924516e-003
         vertex 1.155233e-002 0.000000e+000 5.275771e-003
         vertex 1.155233e-002 -2.540000e-002 5.275771e-003
      endloop
   endfacet
   facet normal 8.931657e-001 0.000000e+000 4.497278e-001
      outer loop
         vertex 1.155233e-002 -2.540000e-002 5.275771e-003
         vertex 1.155233e-002 0.000000e+000 5.275771e-003
         vertex 1.087563e-002 0.000000e+000 6.558248e-003
      endloop
   endfacet
   facet normal 8.753789e-001 0.000000e+000 4.834374e-001
      outer loop
         vertex 1.155233e-002 -2.540000e-002 5.275771e-003
         vertex 1.087563e-002 0.000000e+000 6.558248e-003
         vertex 1.087563e-002 -2.540000e-002 6.558248e-003
      endloop
   endfacet
   facet normal 8.360787e-001 0.000000e+000 5.486096e-001
      outer loop
         vertex 1.087563e-002 -2.540000e-002 6.558248e-003
         vertex 1.087563e-002 0.000000e+000 6.558248e-003
         vertex 1.005716e-002 0.000000e+000 7.755228e-003
      endloop
   endfacet
   facet normal 8.145652e-001 0.000000e+000 5.800719e-001
      outer loop
         vertex 1.087563e-002 -2.540000e-002 6.558248e-003
         vertex 1.005716e-002 0.000000e+000 7.755228e-003
         vertex 1.005716e-002 -2.540000e-002 7.755228e-003
      endloop
   endfacet
   facet normal 7.680922e-001 0.000000e+000 6.403393e-001
      outer loop
         vertex 1.005716e-002 -2.540000e-002 7.755228e-003
         vertex 1.005716e-002 0.000000e+000 7.755228e-003
         vertex 9.107574e-003 0.000000e+000 8.851107e-003
      endloop
   endfacet
   facet normal 7.431325e-001 0.000000e+000 6.691443e-001
      outer loop
         vertex 1.005716e-002 -2.540000e-002 7.755228e-003
         vertex 9.107574e-003 0.000000e+000 8.851107e-003
         vertex 9.107574e-003 -2.540000e-002 8.851107e-003
      endloop
   endfacet
   facet normal 6.900924e-001 0.000000e+000 7.237214e-001
      outer loop
         vertex 9.107574e-003 -2.540000e-002 8.851107e-003
         vertex 9.107574e-003 0.000000e+000 8.851107e-003
         vertex 8.039258e-003 0.000000e+000 9.831598e-003
      endloop
   endfacet
   facet normal 6.620119e-001 0.000000e+000 7.494934e-001
      outer loop
         vertex 9.107574e-003 -2.540000e-002 8.851107e-003
         vertex 8.039258e-003 0.000000e+000 9.831598e-003
         vertex 8.039258e-003 -2.540000e-002 9.831598e-003
      endloop
   endfacet
   facet normal 6.030961e-001 0.000000e+000 7.976686e-001
      outer loop
         vertex 8.039258e-003 -2.540000e-002 9.831598e-003
         vertex 8.039258e-003 0.000000e+000 9.831598e-003
         vertex 6.866138e-003 0.000000e+000 1.068392e-002
      endloop
   endfacet
   facet normal 5.722609e-001 0.000000e+000 8.200716e-001
      outer loop
         vertex 8.039258e-003 -2.540000e-002 9.831598e-003
         vertex 6.866138e-003 0.000000e+000 1.068392e-002
         vertex 6.866138e-003 -2.540000e-002 1.068392e-002
      endloop
   endfacet
   facet normal 5.082377e-001 0.000000e+000 8.612168e-001
      outer loop
         vertex 6.866138e-003 -2.540000e-002 1.068392e-002
         vertex 6.866138e-003 0.000000e+000 1.068392e-002
         vertex 5.603508e-003 0.000000e+000 1.139696e-002
      endloop
   endfacet
   facet normal 4.750496e-001 0.000000e+000 8.799590e-001
      outer loop
         vertex 6.866138e-003 -2.540000e-002 1.068392e-002
         vertex 5.603508e-003 0.000000e+000 1.139696e-002
         vertex 5.603508e-003 -2.540000e-002 1.139696e-002
      endloop
   endfacet
   facet normal 4.067535e-001 0.000000e+000 9.135380e-001
      outer loop
         vertex 5.603508e-003 -2.540000e-002 1.139696e-002
         vertex 5.603508e-003 0.000000e+000 1.139696e-002
         vertex 4.267827e-003 0.000000e+000 1.196142e-002
      endloop
   endfacet
   facet normal 3.716454e-001 0.000000e+000 9.283748e-001
      outer loop
         vertex 5.603508e-003 -2.540000e-002 1.139696e-002
         vertex 4.267827e-003 0.000000e+000 1.196142e-002
         vertex 4.267827e-003 -2.540000e-002 1.196142e-002
      endloop
   endfacet
   facet normal 2.999667e-001 0.000000e+000 9.539497e-001
      outer loop
         vertex 4.267827e-003 -2.540000e-002 1.196142e-002
         vertex 4.267827e-003 0.000000e+000 1.196142e-002
         vertex 2.876509e-003 0.000000e+000 1.236995e-002
      endloop
   endfacet
   facet normal 2.633961e-001 0.000000e+000 9.646878e-001
      outer loop
         vertex 4.267827e-003 -2.540000e-002 1.196142e-002
         vertex 2.876509e-003 0.000000e+000 1.236995e-002
         vertex 2.876509e-003 -2.540000e-002 1.236995e-002
      endloop
   endfacet
   facet normal 1.892693e-001 0.000000e+000 9.819252e-001
      outer loop
         vertex 2.876509e-003 -2.540000e-002 1.236995e-002
         vertex 2.876509e-003 0.000000e+000 1.236995e-002
         vertex 1.447691e-003 0.000000e+000 1.261722e-002
      endloop
   endfacet
   facet normal 1.517131e-001 0.000000e+000 9.884245e-001
      outer loop
         vertex 2.876509e-003 -2.540000e-002 1.236995e-002
         vertex 1.447691e-003 0.000000e+000 1.261722e-002
         vertex 1.447691e-003 -2.540000e-002 1.261722e-002
      endloop
   endfacet
   facet normal 7.610459e-002 0.000000e+000 9.970998e-001
      outer loop
         vertex 1.447691e-003 -2.540000e-002 1.261722e-002
         vertex 1.447691e-003 0.000000e+000 1.261722e-002
         vertex 0.000000e+000 0.000000e+000 1.270000e-002
      endloop
   endfacet
   facet normal 0.000000e+000 -1.000000e+000 0.000000e+000
      outer loop
         vertex -8.587421e-003 -2.540000e-002 -9.356612e-003
         vertex 9.107574e-003 -2.540000e-002 8.851107e-003
         vertex -9.598020e-003 -2.540000e-002 -8.316731e-003
      endloop
   endfacet
   facet normal 0.000000e+000 -1.000000e+000 0.000000e+000
      outer loop
         vertex -9.598020e-003 -2.540000e-002 -8.316731e-003
         vertex 9.107574e-003 -2.540000e-002 8.851107e-003
         vertex 8.039258e-003 -2.540000e-002 9.831598e-003
      endloop
   endfacet
   facet normal 0.000000e+000 -1.000000e+000 0.000000e+000
      outer loop
         vertex -9.598020e-003 -2.540000e-002 -8.316731e-003
         vertex 8.039258e-003 -2.540000e-002 9.831598e-003
         vertex 6.866138e-003 -2.540000e-002 1.068392e-002
      endloop
   endfacet
   facet normal 0.000000e+000 -1.000000e+000 0.000000e+000
      outer loop
         vertex 6.866138e-003 -2.540000e-002 1.068392e-002
         vertex 5.603508e-003 -2.540000e-002 1.139696e-002
         vertex -9.598020e-003 -2.540000e-002 -8.316731e-003
      endloop
   endfacet
   facet normal 0.000000e+000 -1.000000e+000 0.000000e+000
      outer loop
         vertex -9.598020e-003 -2.540000e-002 -8.316731e-003
         vertex 5.603508e-003 -2.540000e-002 1.139696e-002
         vertex 4.267827e-003 -2.540000e-002 1.196142e-002
      endloop
   endfacet
   facet normal 0.000000e+000 -1.000000e+000 0.000000e+000
      outer loop
         vertex -9.598020e-003 -2.540000e-002 -8.316731e-003
         vertex 4.267827e-003 -2.540000e-002 1.196142e-002
         vertex -1.048349e-002 -2.540000e-002 -7.168429e-003
      endloop
   endfacet
   facet normal 0.000000e+000 -1.000000e+000 0.000000e+000
      outer loop
         vertex -1.087563e-002 -2.540000e-002 6.558248e-003
         vertex -1.155233e-002 -2.540000e-002 5.275771e-003
         vertex 4.267827e-003 -2.540000e-002 1.196142e-002
      endloop
   endfacet
   facet normal 0.000000e+000 -1.000000e+000 0.000000e+000
      outer loop
         vertex -8.587421e-003 -2.540000e-002 -9.356612e-003
         vertex -7.464873e-003 -2.540000e-002 -1.027452e-002
         vertex 9.107574e-003 -2.540000e-002 8.851107e-003
      endloop
   endfacet
   facet normal 0.000000e+000 -1.000000e+000 0.000000e+000
      outer loop
         vertex 9.107574e-003 -2.540000e-002 8.851107e-003
         vertex -7.464873e-003 -2.540000e-002 -1.027452e-002
         vertex -6.245008e-003 -2.540000e-002 -1.105847e-002
      endloop
   endfacet
   facet normal 0.000000e+000 -1.000000e+000 0.000000e+000
      outer loop
         vertex 9.107574e-003 -2.540000e-002 8.851107e-003
         vertex -6.245008e-003 -2.540000e-002 -1.105847e-002
         vertex -4.943730e-003 -2.540000e-002 -1.169827e-002
      endloop
   endfacet
   facet normal 0.000000e+000 -1.000000e+000 0.000000e+000
      outer loop
         vertex 1.257073e-002 -2.540000e-002 -1.807398e-003
         vertex 1.269482e-002 -2.540000e-002 -3.626618e-004
         vertex 1.228277e-002 -2.540000e-002 -3.228573e-003
      endloop
   endfacet
   facet normal 0.000000e+000 -1.000000e+000 0.000000e+000
      outer loop
         vertex 1.228277e-002 -2.540000e-002 -3.228573e-003
         vertex 1.269482e-002 -2.540000e-002 -3.626618e-004
         vertex 7.250279e-004 -2.540000e-002 -1.267929e-002
      endloop
   endfacet
   facet normal 0.000000e+000 -1.000000e+000 0.000000e+000
      outer loop
         vertex 7.250279e-004 -2.540000e-002 -1.267929e-002
         vertex 2.165632e-003 -2.540000e-002 -1.251399e-002
         vertex 9.598020e-003 -2.540000e-002 -8.316731e-003
      endloop
   endfacet
   facet normal 0.000000e+000 -1.000000e+000 0.000000e+000
      outer loop
         vertex 9.598020e-003 -2.540000e-002 -8.316731e-003
         vertex 2.165632e-003 -2.540000e-002 -1.251399e-002
         vertex 3.578003e-003 -2.540000e-002 -1.218556e-002
      endloop
   endfacet
   facet normal 0.000000e+000 -1.000000e+000 0.000000e+000
      outer loop
         vertex 1.183467e-002 -2.540000e-002 -4.607658e-003
         vertex 1.228277e-002 -2.540000e-002 -3.228573e-003
         vertex 1.123230e-002 -2.540000e-002 -5.926675e-003
      endloop
   endfacet
   facet normal 0.000000e+000 -1.000000e+000 0.000000e+000
      outer loop
         vertex 1.123230e-002 -2.540000e-002 -5.926675e-003
         vertex 1.228277e-002 -2.540000e-002 -3.228573e-003
         vertex 7.250279e-004 -2.540000e-002 -1.267929e-002
      endloop
   endfacet
   facet normal 0.000000e+000 -1.000000e+000 0.000000e+000
      outer loop
         vertex 1.123230e-002 -2.540000e-002 -5.926675e-003
         vertex 7.250279e-004 -2.540000e-002 -1.267929e-002
         vertex 1.048349e-002 -2.540000e-002 -7.168429e-003
      endloop
   endfacet
   facet normal 0.000000e+000 -1.000000e+000 0.000000e+000
      outer loop
         vertex 1.048349e-002 -2.540000e-002 -7.168429e-003
         vertex 7.250279e-004 -2.540000e-002 -1.267929e-002
         vertex 9.598020e-003 -2.540000e-002 -8.316731e-003
      endloop
   endfacet
   facet normal 0.000000e+000 -1.000000e+000 0.000000e+000
      outer loop
         vertex 1.269482e-002 -2.540000e-002 -3.626618e-004
         vertex 1.265341e-002 -2.540000e-002 1.086803e-003
         vertex 7.250279e-004 -2.540000e-002 -1.267929e-002
      endloop
   endfacet
   facet normal 0.000000e+000 -1.000000e+000 0.000000e+000
      outer loop
         vertex 7.250279e-004 -2.540000e-002 -1.267929e-002
         vertex 1.265341e-002 -2.540000e-002 1.086803e-003
         vertex 1.244705e-002 -2.540000e-002 2.522099e-003
      endloop
   endfacet
   facet normal 0.000000e+000 -1.000000e+000 0.000000e+000
      outer loop
         vertex 7.250279e-004 -2.540000e-002 -1.267929e-002
         vertex 1.244705e-002 -2.540000e-002 2.522099e-003
         vertex 1.207842e-002 -2.540000e-002 3.924516e-003
      endloop
   endfacet
   facet normal 0.000000e+000 -1.000000e+000 0.000000e+000
      outer loop
         vertex -1.228277e-002 -2.540000e-002 -3.228573e-003
         vertex -1.183467e-002 -2.540000e-002 -4.607658e-003
         vertex -1.123230e-002 -2.540000e-002 -5.926675e-003
      endloop
   endfacet
   facet normal 0.000000e+000 -1.000000e+000 0.000000e+000
      outer loop
         vertex -7.250279e-004 -2.540000e-002 -1.267929e-002
         vertex 7.250279e-004 -2.540000e-002 -1.267929e-002
         vertex -2.165632e-003 -2.540000e-002 -1.251399e-002
      endloop
   endfacet
   facet normal 0.000000e+000 -1.000000e+000 0.000000e+000
      outer loop
         vertex -2.165632e-003 -2.540000e-002 -1.251399e-002
         vertex 7.250279e-004 -2.540000e-002 -1.267929e-002
         vertex 9.107574e-003 -2.540000e-002 8.851107e-003
      endloop
   endfacet
   facet normal 0.000000e+000 -1.000000e+000 0.000000e+000
      outer loop
         vertex -2.165632e-003 -2.540000e-002 -1.251399e-002
         vertex 9.107574e-003 -2.540000e-002 8.851107e-003
         vertex -3.578003e-003 -2.540000e-002 -1.218556e-002
      endloop
   endfacet
   facet normal 0.000000e+000 -1.000000e+000 0.000000e+000
      outer loop
         vertex -3.578003e-003 -2.540000e-002 -1.218556e-002
         vertex 9.107574e-003 -2.540000e-002 8.851107e-003
         vertex -4.943730e-003 -2.540000e-002 -1.169827e-002
      endloop
   endfacet
   facet normal 0.000000e+000 -1.000000e+000 0.000000e+000
      outer loop
         vertex 8.587421e-003 -2.540000e-002 -9.356612e-003
         vertex 9.598020e-003 -2.540000e-002 -8.316731e-003
         vertex 7.464873e-003 -2.540000e-002 -1.027452e-002
      endloop
   endfacet
   facet normal 0.000000e+000 -1.000000e+000 0.000000e+000
      outer loop
         vertex 7.464873e-003 -2.540000e-002 -1.027452e-002
         vertex 9.598020e-003 -2.540000e-002 -8.316731e-003
         vertex 3.578003e-003 -2.540000e-002 -1.218556e-002
      endloop
   endfacet
   facet normal 0.000000e+000 -1.000000e+000 0.000000e+000
      outer loop
         vertex 7.464873e-003 -2.540000e-002 -1.027452e-002
         vertex 3.578003e-003 -2.540000e-002 -1.218556e-002
         vertex 6.245008e-003 -2.540000e-002 -1.105847e-002
      endloop
   endfacet
   facet normal 0.000000e+000 -1.000000e+000 0.000000e+000
      outer loop
         vertex 6.245008e-003 -2.540000e-002 -1.105847e-002
         vertex 3.578003e-003 -2.540000e-002 -1.218556e-002
         vertex 4.943730e-003 -2.540000e-002 -1.169827e-002
      endloop
   endfacet
   facet normal 0.000000e+000 -1.000000e+000 0.000000e+000
      outer loop
         vertex -1.005716e-002 -2.540000e-002 7.755228e-003
         vertex -1.087563e-002 -2.540000e-002 6.558248e-003
         vertex -9.107574e-003 -2.540000e-002 8.851107e-003
      endloop
   endfacet
   facet normal 0.000000e+000 -1.000000e+000 0.000000e+000
      outer loop
         vertex -9.107574e-003 -2.540000e-002 8.851107e-003
         vertex -1.087563e-002 -2.540000e-002 6.558248e-003
         vertex 4.267827e-003 -2.540000e-002 1.196142e-002
      endloop
   endfacet
   facet normal 0.000000e+000 -1.000000e+000 0.000000e+000
      outer loop
         vertex -9.107574e-003 -2.540000e-002 8.851107e-003
         vertex 4.267827e-003 -2.540000e-002 1.196142e-002
         vertex -8.039258e-003 -2.540000e-002 9.831598e-003
      endloop
   endfacet
   facet normal 0.000000e+000 -1.000000e+000 0.000000e+000
      outer loop
         vertex -1.155233e-002 -2.540000e-002 5.275771e-003
         vertex -1.207842e-002 -2.540000e-002 3.924516e-003
         vertex 4.267827e-003 -2.540000e-002 1.196142e-002
      endloop
   endfacet
   facet normal 0.000000e+000 -1.000000e+000 0.000000e+000
      outer loop
         vertex 4.267827e-003 -2.540000e-002 1.196142e-002
         vertex -1.207842e-002 -2.540000e-002 3.924516e-003
         vertex -1.244705e-002 -2.540000e-002 2.522099e-003
      endloop
   endfacet
   facet normal 0.000000e+000 -1.000000e+000 0.000000e+000
      outer loop
         vertex 4.267827e-003 -2.540000e-002 1.196142e-002
         vertex -1.244705e-002 -2.540000e-002 2.522099e-003
         vertex -1.265341e-002 -2.540000e-002 1.086803e-003
      endloop
   endfacet
   facet normal 0.000000e+000 -1.000000e+000 0.000000e+000
      outer loop
         vertex 1.005716e-002 -2.540000e-002 7.755228e-003
         vertex 9.107574e-003 -2.540000e-002 8.851107e-003
         vertex 1.087563e-002 -2.540000e-002 6.558248e-003
      endloop
   endfacet
   facet normal 0.000000e+000 -1.000000e+000 0.000000e+000
      outer loop
         vertex 1.087563e-002 -2.540000e-002 6.558248e-003
         vertex 9.107574e-003 -2.540000e-002 8.851107e-003
         vertex 7.250279e-004 -2.540000e-002 -1.267929e-002
      endloop
   endfacet
   facet normal 0.000000e+000 -1.000000e+000 0.000000e+000
      outer loop
         vertex 1.087563e-002 -2.540000e-002 6.558248e-003
         vertex 7.250279e-004 -2.540000e-002 -1.267929e-002
         vertex 1.155233e-002 -2.540000e-002 5.275771e-003
      endloop
   endfacet
   facet normal 0.000000e+000 -1.000000e+000 0.000000e+000
      outer loop
         vertex 1.155233e-002 -2.540000e-002 5.275771e-003
         vertex 7.250279e-004 -2.540000e-002 -1.267929e-002
         vertex 1.207842e-002 -2.540000e-002 3.924516e-003
      endloop
   endfacet
   facet normal 0.000000e+000 -1.000000e+000 0.000000e+000
      outer loop
         vertex -1.123230e-002 -2.540000e-002 -5.926675e-003
         vertex -1.048349e-002 -2.540000e-002 -7.168429e-003
         vertex -1.228277e-002 -2.540000e-002 -3.228573e-003
      endloop
   endfacet
   facet normal 0.000000e+000 -1.000000e+000 0.000000e+000
      outer loop
         vertex -1.228277e-002 -2.540000e-002 -3.228573e-003
         vertex -1.048349e-002 -2.540000e-002 -7.168429e-003
         vertex 4.267827e-003 -2.540000e-002 1.196142e-002
      endloop
   endfacet
   facet normal 0.000000e+000 -1.000000e+000 0.000000e+000
      outer loop
         vertex -1.228277e-002 -2.540000e-002 -3.228573e-003
         vertex 4.267827e-003 -2.540000e-002 1.196142e-002
         vertex -1.257073e-002 -2.540000e-002 -1.807398e-003
      endloop
   endfacet
   facet normal 0.000000e+000 -1.000000e+000 0.000000e+000
      outer loop
         vertex -1.257073e-002 -2.540000e-002 -1.807398e-003
         vertex 4.267827e-003 -2.540000e-002 1.196142e-002
         vertex -1.265341e-002 -2.540000e-002 1.086803e-003
      endloop
   endfacet
   facet normal 0.000000e+000 -1.000000e+000 0.000000e+000
      outer loop
         vertex -1.257073e-002 -2.540000e-002 -1.807398e-003
         vertex -1.265341e-002 -2.540000e-002 1.086803e-003
         vertex -1.269482e-002 -2.540000e-002 -3.626618e-004
      endloop
   endfacet
   facet normal 0.000000e+000 -1.000000e+000 0.000000e+000
      outer loop
         vertex 0.000000e+000 -2.540000e-002 1.270000e-002
         vertex -1.447691e-003 -2.540000e-002 1.261722e-002
         vertex 1.447691e-003 -2.540000e-002 1.261722e-002
      endloop
   endfacet
   facet normal 0.000000e+000 -1.000000e+000 0.000000e+000
      outer loop
         vertex 1.447691e-003 -2.540000e-002 1.261722e-002
         vertex -1.447691e-003 -2.540000e-002 1.261722e-002
         vertex -8.039258e-003 -2.540000e-002 9.831598e-003
      endloop
   endfacet
   facet normal 0.000000e+000 -1.000000e+000 0.000000e+000
      outer loop
         vertex 1.447691e-003 -2.540000e-002 1.261722e-002
         vertex -8.039258e-003 -2.540000e-002 9.831598e-003
         vertex 2.876509e-003 -2.540000e-002 1.236995e-002
      endloop
   endfacet
   facet normal 0.000000e+000 -1.000000e+000 0.000000e+000
      outer loop
         vertex 2.876509e-003 -2.540000e-002 1.236995e-002
         vertex -8.039258e-003 -2.540000e-002 9.831598e-003
         vertex 4.267827e-003 -2.540000e-002 1.196142e-002
      endloop
   endfacet
   facet normal 0.000000e+000 -1.000000e+000 0.000000e+000
      outer loop
         vertex -5.603508e-003 -2.540000e-002 1.139696e-002
         vertex -6.866138e-003 -2.540000e-002 1.068392e-002
         vertex -4.267827e-003 -2.540000e-002 1.196142e-002
      endloop
   endfacet
   facet normal 0.000000e+000 -1.000000e+000 0.000000e+000
      outer loop
         vertex -4.267827e-003 -2.540000e-002 1.196142e-002
         vertex -6.866138e-003 -2.540000e-002 1.068392e-002
         vertex -8.039258e-003 -2.540000e-002 9.831598e-003
      endloop
   endfacet
   facet normal 0.000000e+000 -1.000000e+000 0.000000e+000
      outer loop
         vertex -4.267827e-003 -2.540000e-002 1.196142e-002
         vertex -8.039258e-003 -2.540000e-002 9.831598e-003
         vertex -2.876509e-003 -2.540000e-002 1.236995e-002
      endloop
   endfacet
   facet normal 0.000000e+000 -1.000000e+000 0.000000e+000
      outer loop
         vertex -2.876509e-003 -2.540000e-002 1.236995e-002
         vertex -8.039258e-003 -2.540000e-002 9.831598e-003
         vertex -1.447691e-003 -2.540000e-002 1.261722e-002
      endloop
   endfacet
   facet normal 0.000000e+000 1.000000e+000 0.000000e+000
      outer loop
         vertex -6.245008e-003 0.000000e+000 -1.105847e-002
         vertex -7.464873e-003 0.000000e+000 -1.027452e-002
         vertex 6.866138e-003 0.000000e+000 1.068392e-002
      endloop
   endfacet
   facet normal 0.000000e+000 1.000000e+000 0.000000e+000
      outer loop
         vertex 6.866138e-003 0.000000e+000 1.068392e-002
         vertex -7.464873e-003 0.000000e+000 -1.027452e-002
         vertex -8.587421e-003 0.000000e+000 -9.356612e-003
      endloop
   endfacet
   facet normal 0.000000e+000 1.000000e+000 0.000000e+000
      outer loop
         vertex -1.183467e-002 0.000000e+000 -4.607658e-003
         vertex -1.228277e-002 0.000000e+000 -3.228573e-003
         vertex 6.866138e-003 0.000000e+000 1.068392e-002
      endloop
   endfacet
   facet normal 0.000000e+000 1.000000e+000 0.000000e+000
      outer loop
         vertex -1.244705e-002 0.000000e+000 2.522099e-003
         vertex -1.207842e-002 0.000000e+000 3.924516e-003
         vertex -1.155233e-002 0.000000e+000 5.275771e-003
      endloop
   endfacet
   facet normal 0.000000e+000 1.000000e+000 0.000000e+000
      outer loop
         vertex 6.866138e-003 0.000000e+000 1.068392e-002
         vertex 8.039258e-003 0.000000e+000 9.831598e-003
         vertex -6.245008e-003 0.000000e+000 -1.105847e-002
      endloop
   endfacet
   facet normal 0.000000e+000 1.000000e+000 0.000000e+000
      outer loop
         vertex -6.245008e-003 0.000000e+000 -1.105847e-002
         vertex 8.039258e-003 0.000000e+000 9.831598e-003
         vertex 9.107574e-003 0.000000e+000 8.851107e-003
      endloop
   endfacet
   facet normal 0.000000e+000 1.000000e+000 0.000000e+000
      outer loop
         vertex -6.245008e-003 0.000000e+000 -1.105847e-002
         vertex 9.107574e-003 0.000000e+000 8.851107e-003
         vertex 1.005716e-002 0.000000e+000 7.755228e-003
      endloop
   endfacet
   facet normal 0.000000e+000 1.000000e+000 0.000000e+000
      outer loop
         vertex -1.123230e-002 0.000000e+000 -5.926675e-003
         vertex -1.183467e-002 0.000000e+000 -4.607658e-003
         vertex -1.048349e-002 0.000000e+000 -7.168429e-003
      endloop
   endfacet
   facet normal 0.000000e+000 1.000000e+000 0.000000e+000
      outer loop
         vertex -1.048349e-002 0.000000e+000 -7.168429e-003
         vertex -1.183467e-002 0.000000e+000 -4.607658e-003
         vertex 6.866138e-003 0.000000e+000 1.068392e-002
      endloop
   endfacet
   facet normal 0.000000e+000 1.000000e+000 0.000000e+000
      outer loop
         vertex -1.048349e-002 0.000000e+000 -7.168429e-003
         vertex 6.866138e-003 0.000000e+000 1.068392e-002
         vertex -9.598020e-003 0.000000e+000 -8.316731e-003
      endloop
   endfacet
   facet normal 0.000000e+000 1.000000e+000 0.000000e+000
      outer loop
         vertex -9.598020e-003 0.000000e+000 -8.316731e-003
         vertex 6.866138e-003 0.000000e+000 1.068392e-002
         vertex -8.587421e-003 0.000000e+000 -9.356612e-003
      endloop
   endfacet
   facet normal 0.000000e+000 1.000000e+000 0.000000e+000
      outer loop
         vertex -1.244705e-002 0.000000e+000 2.522099e-003
         vertex 6.866138e-003 0.000000e+000 1.068392e-002
         vertex -1.265341e-002 0.000000e+000 1.086803e-003
      endloop
   endfacet
   facet normal 0.000000e+000 1.000000e+000 0.000000e+000
      outer loop
         vertex -1.265341e-002 0.000000e+000 1.086803e-003
         vertex 6.866138e-003 0.000000e+000 1.068392e-002
         vertex -1.228277e-002 0.000000e+000 -3.228573e-003
      endloop
   endfacet
   facet normal 0.000000e+000 1.000000e+000 0.000000e+000
      outer loop
         vertex -1.265341e-002 0.000000e+000 1.086803e-003
         vertex -1.228277e-002 0.000000e+000 -3.228573e-003
         vertex -1.269482e-002 0.000000e+000 -3.626618e-004
      endloop
   endfacet
   facet normal 0.000000e+000 1.000000e+000 0.000000e+000
      outer loop
         vertex -1.269482e-002 0.000000e+000 -3.626618e-004
         vertex -1.228277e-002 0.000000e+000 -3.228573e-003
         vertex -1.257073e-002 0.000000e+000 -1.807398e-003
      endloop
   endfacet
   facet normal 0.000000e+000 1.000000e+000 0.000000e+000
      outer loop
         vertex -1.244705e-002 0.000000e+000 2.522099e-003
         vertex -1.155233e-002 0.000000e+000 5.275771e-003
         vertex 6.866138e-003 0.000000e+000 1.068392e-002
      endloop
   endfacet
   facet normal 0.000000e+000 1.000000e+000 0.000000e+000
      outer loop
         vertex 6.866138e-003 0.000000e+000 1.068392e-002
         vertex -1.155233e-002 0.000000e+000 5.275771e-003
         vertex 4.267827e-003 0.000000e+000 1.196142e-002
      endloop
   endfacet
   facet normal 0.000000e+000 1.000000e+000 0.000000e+000
      outer loop
         vertex 6.866138e-003 0.000000e+000 1.068392e-002
         vertex 4.267827e-003 0.000000e+000 1.196142e-002
         vertex 5.603508e-003 0.000000e+000 1.139696e-002
      endloop
   endfacet
   facet normal 0.000000e+000 1.000000e+000 0.000000e+000
      outer loop
         vertex 1.005716e-002 0.000000e+000 7.755228e-003
         vertex 1.087563e-002 0.000000e+000 6.558248e-003
         vertex -6.245008e-003 0.000000e+000 -1.105847e-002
      endloop
   endfacet
   facet normal 0.000000e+000 1.000000e+000 0.000000e+000
      outer loop
         vertex -6.245008e-003 0.000000e+000 -1.105847e-002
         vertex 1.087563e-002 0.000000e+000 6.558248e-003
         vertex 1.155233e-002 0.000000e+000 5.275771e-003
      endloop
   endfacet
   facet normal 0.000000e+000 1.000000e+000 0.000000e+000
      outer loop
         vertex -6.245008e-003 0.000000e+000 -1.105847e-002
         vertex 1.155233e-002 0.000000e+000 5.275771e-003
         vertex 1.207842e-002 0.000000e+000 3.924516e-003
      endloop
   endfacet
   facet normal 0.000000e+000 1.000000e+000 0.000000e+000
      outer loop
         vertex -8.039258e-003 0.000000e+000 9.831598e-003
         vertex 4.267827e-003 0.000000e+000 1.196142e-002
         vertex -9.107574e-003 0.000000e+000 8.851107e-003
      endloop
   endfacet
   facet normal 0.000000e+000 1.000000e+000 0.000000e+000
      outer loop
         vertex -9.107574e-003 0.000000e+000 8.851107e-003
         vertex 4.267827e-003 0.000000e+000 1.196142e-002
         vertex -1.155233e-002 0.000000e+000 5.275771e-003
      endloop
   endfacet
   facet normal 0.000000e+000 1.000000e+000 0.000000e+000
      outer loop
         vertex -9.107574e-003 0.000000e+000 8.851107e-003
         vertex -1.155233e-002 0.000000e+000 5.275771e-003
         vertex -1.005716e-002 0.000000e+000 7.755228e-003
      endloop
   endfacet
   facet normal 0.000000e+000 1.000000e+000 0.000000e+000
      outer loop
         vertex -1.005716e-002 0.000000e+000 7.755228e-003
         vertex -1.155233e-002 0.000000e+000 5.275771e-003
         vertex -1.087563e-002 0.000000e+000 6.558248e-003
      endloop
   endfacet
   facet normal 0.000000e+000 1.000000e+000 0.000000e+000
      outer loop
         vertex 1.257073e-002 0.000000e+000 -1.807398e-003
         vertex 1.228277e-002 0.000000e+000 -3.228573e-003
         vertex 1.269482e-002 0.000000e+000 -3.626618e-004
      endloop
   endfacet
   facet normal 0.000000e+000 1.000000e+000 0.000000e+000
      outer loop
         vertex 1.269482e-002 0.000000e+000 -3.626618e-004
         vertex 1.228277e-002 0.000000e+000 -3.228573e-003
         vertex -6.245008e-003 0.000000e+000 -1.105847e-002
      endloop
   endfacet
   facet normal 0.000000e+000 1.000000e+000 0.000000e+000
      outer loop
         vertex 1.269482e-002 0.000000e+000 -3.626618e-004
         vertex -6.245008e-003 0.000000e+000 -1.105847e-002
         vertex 1.265341e-002 0.000000e+000 1.086803e-003
      endloop
   endfacet
   facet normal 0.000000e+000 1.000000e+000 0.000000e+000
      outer loop
         vertex 1.265341e-002 0.000000e+000 1.086803e-003
         vertex -6.245008e-003 0.000000e+000 -1.105847e-002
         vertex 1.207842e-002 0.000000e+000 3.924516e-003
      endloop
   endfacet
   facet normal 0.000000e+000 1.000000e+000 0.000000e+000
      outer loop
         vertex 1.265341e-002 0.000000e+000 1.086803e-003
         vertex 1.207842e-002 0.000000e+000 3.924516e-003
         vertex 1.244705e-002 0.000000e+000 2.522099e-003
      endloop
   endfacet
   facet normal 0.000000e+000 1.000000e+000 0.000000e+000
      outer loop
         vertex 1.228277e-002 0.000000e+000 -3.228573e-003
         vertex 1.183467e-002 0.000000e+000 -4.607658e-003
         vertex 7.250279e-004 0.000000e+000 -1.267929e-002
      endloop
   endfacet
   facet normal 0.000000e+000 1.000000e+000 0.000000e+000
      outer loop
         vertex 7.250279e-004 0.000000e+000 -1.267929e-002
         vertex 1.183467e-002 0.000000e+000 -4.607658e-003
         vertex 1.123230e-002 0.000000e+000 -5.926675e-003
      endloop
   endfacet
   facet normal 0.000000e+000 1.000000e+000 0.000000e+000
      outer loop
         vertex 7.250279e-004 0.000000e+000 -1.267929e-002
         vertex 1.123230e-002 0.000000e+000 -5.926675e-003
         vertex 1.048349e-002 0.000000e+000 -7.168429e-003
      endloop
   endfacet
   facet normal 0.000000e+000 1.000000e+000 0.000000e+000
      outer loop
         vertex -4.943730e-003 0.000000e+000 -1.169827e-002
         vertex -6.245008e-003 0.000000e+000 -1.105847e-002
         vertex -3.578003e-003 0.000000e+000 -1.218556e-002
      endloop
   endfacet
   facet normal 0.000000e+000 1.000000e+000 0.000000e+000
      outer loop
         vertex -3.578003e-003 0.000000e+000 -1.218556e-002
         vertex -6.245008e-003 0.000000e+000 -1.105847e-002
         vertex 1.228277e-002 0.000000e+000 -3.228573e-003
      endloop
   endfacet
   facet normal 0.000000e+000 1.000000e+000 0.000000e+000
      outer loop
         vertex -3.578003e-003 0.000000e+000 -1.218556e-002
         vertex 1.228277e-002 0.000000e+000 -3.228573e-003
         vertex -2.165632e-003 0.000000e+000 -1.251399e-002
      endloop
   endfacet
   facet normal 0.000000e+000 1.000000e+000 0.000000e+000
      outer loop
         vertex -2.165632e-003 0.000000e+000 -1.251399e-002
         vertex 1.228277e-002 0.000000e+000 -3.228573e-003
         vertex 7.250279e-004 0.000000e+000 -1.267929e-002
      endloop
   endfacet
   facet normal 0.000000e+000 1.000000e+000 0.000000e+000
      outer loop
         vertex -2.165632e-003 0.000000e+000 -1.251399e-002
         vertex 7.250279e-004 0.000000e+000 -1.267929e-002
         vertex -7.250279e-004 0.000000e+000 -1.267929e-002
      endloop
   endfacet
   facet normal 0.000000e+000 1.000000e+000 0.000000e+000
      outer loop
         vertex -8.039258e-003 0.000000e+000 9.831598e-003
         vertex -6.866138e-003 0.000000e+000 1.068392e-002
         vertex 4.267827e-003 0.000000e+000 1.196142e-002
      endloop
   endfacet
   facet normal 0.000000e+000 1.000000e+000 0.000000e+000
      outer loop
         vertex 4.267827e-003 0.000000e+000 1.196142e-002
         vertex -6.866138e-003 0.000000e+000 1.068392e-002
         vertex -5.603508e-003 0.000000e+000 1.139696e-002
      endloop
   endfacet
   facet normal 0.000000e+000 1.000000e+000 0.000000e+000
      outer loop
         vertex 4.267827e-003 0.000000e+000 1.196142e-002
         vertex -5.603508e-003 0.000000e+000 1.139696e-002
         vertex -4.267827e-003 0.000000e+000 1.196142e-002
      endloop
   endfacet
   facet normal 0.000000e+000 1.000000e+000 0.000000e+000
      outer loop
         vertex 1.048349e-002 0.000000e+000 -7.168429e-003
         vertex 9.598020e-003 0.000000e+000 -8.316731e-003
         vertex 7.250279e-004 0.000000e+000 -1.267929e-002
      endloop
   endfacet
   facet normal 0.000000e+000 1.000000e+000 0.000000e+000
      outer loop
         vertex 7.250279e-004 0.000000e+000 -1.267929e-002
         vertex 9.598020e-003 0.000000e+000 -8.316731e-003
         vertex 8.587421e-003 0.000000e+000 -9.356612e-003
      endloop
   endfacet
   facet normal 0.000000e+000 1.000000e+000 0.000000e+000
      outer loop
         vertex 7.250279e-004 0.000000e+000 -1.267929e-002
         vertex 8.587421e-003 0.000000e+000 -9.356612e-003
         vertex 7.464873e-003 0.000000e+000 -1.027452e-002
      endloop
   endfacet
   facet normal 0.000000e+000 1.000000e+000 0.000000e+000
      outer loop
         vertex 2.165632e-003 0.000000e+000 -1.251399e-002
         vertex 7.250279e-004 0.000000e+000 -1.267929e-002
         vertex 3.578003e-003 0.000000e+000 -1.218556e-002
      endloop
   endfacet
   facet normal 0.000000e+000 1.000000e+000 0.000000e+000
      outer loop
         vertex 3.578003e-003 0.000000e+000 -1.218556e-002
         vertex 7.250279e-004 0.000000e+000 -1.267929e-002
         vertex 7.464873e-003 0.000000e+000 -1.027452e-002
      endloop
   endfacet
   facet normal 0.000000e+000 1.000000e+000 0.000000e+000
      outer loop
         vertex 3.578003e-003 0.000000e+000 -1.218556e-002
         vertex 7.464873e-003 0.000000e+000 -1.027452e-002
         vertex 4.943730e-003 0.000000e+000 -1.169827e-002
      endloop
   endfacet
   facet normal 0.000000e+000 1.000000e+000 0.000000e+000
      outer loop
         vertex 4.943730e-003 0.000000e+000 -1.169827e-002
         vertex 7.464873e-003 0.000000e+000 -1.027452e-002
         vertex 6.245008e-003 0.000000e+000 -1.105847e-002
      endloop
   endfacet
   facet normal 0.000000e+000 1.000000e+000 0.000000e+000
      outer loop
         vertex -4.267827e-003 0.000000e+000 1.196142e-002
         vertex -2.876509e-003 0.000000e+000 1.236995e-002
         vertex 4.267827e-003 0.000000e+000 1.196142e-002
      endloop
   endfacet
   facet normal 0.000000e+000 1.000000e+000 0.000000e+000
      outer loop
         vertex 4.267827e-003 0.000000e+000 1.196142e-002
         vertex -2.876509e-003 0.000000e+000 1.236995e-002
         vertex -1.447691e-003 0.000000e+000 1.261722e-002
      endloop
   endfacet
   facet normal 0.000000e+000 1.000000e+000 0.000000e+000
      outer loop
         vertex 4.267827e-003 0.000000e+000 1.196142e-002
         vertex -1.447691e-003 0.000000e+000 1.261722e-002
         vertex 2.876509e-003 0.000000e+000 1.236995e-002
      endloop
   endfacet
   facet normal 0.000000e+000 1.000000e+000 0.000000e+000
      outer loop
         vertex 2.876509e-003 0.000000e+000 1.236995e-002
         vertex -1.447691e-003 0.000000e+000 1.261722e-002
         vertex -3.110603e-018 0.000000e+000 1.270000e-002
      endloop
   endfacet
   facet normal 0.000000e+000 1.000000e+000 0.000000e+000
      outer loop
         vertex 2.876509e-003 0.000000e+000 1.236995e-002
         vertex -3.110603e-018 0.000000e+000 1.270000e-002
         vertex 1.447691e-003 0.000000e+000 1.261722e-002
      endloop
   endfacet
endsolid