solid water
   facet normal -1.000000e+000 0.000000e+000 0.000000e+000
      outer loop
         vertex 0.000000e+000 0.000000e+000 3.048000e-001
         vertex 0.000000e+000 1.270000e-001 2.286000e-001
         vertex 0.000000e+000 1.271929e-001 2.263947e-001
      endloop
   endfacet
   facet normal -1.000000e+000 0.000000e+000 0.000000e+000
      outer loop
         vertex 0.000000e+000 0.000000e+000 3.048000e-001
         vertex 0.000000e+000 1.271929e-001 2.263947e-001
         vertex 0.000000e+000 0.000000e+000 0.000000e+000
      endloop
   endfacet
   facet normal -1.000000e+000 0.000000e+000 0.000000e+000
      outer loop
         vertex 0.000000e+000 1.271929e-001 2.263947e-001
         vertex 0.000000e+000 1.277659e-001 2.242564e-001
         vertex 0.000000e+000 0.000000e+000 0.000000e+000
      endloop
   endfacet
   facet normal -1.000000e+000 0.000000e+000 0.000000e+000
      outer loop
         vertex 0.000000e+000 0.000000e+000 0.000000e+000
         vertex 0.000000e+000 1.277659e-001 2.242564e-001
         vertex 0.000000e+000 1.287015e-001 2.222500e-001
      endloop
   endfacet
   facet normal -1.000000e+000 0.000000e+000 0.000000e+000
      outer loop
         vertex 0.000000e+000 0.000000e+000 0.000000e+000
         vertex 0.000000e+000 1.287015e-001 2.222500e-001
         vertex 0.000000e+000 1.299712e-001 2.204366e-001
      endloop
   endfacet
   facet normal -1.000000e+000 0.000000e+000 0.000000e+000
      outer loop
         vertex 0.000000e+000 1.353563e-001 2.405341e-001
         vertex 0.000000e+000 1.333500e-001 2.395985e-001
         vertex 0.000000e+000 0.000000e+000 3.048000e-001
      endloop
   endfacet
   facet normal -1.000000e+000 0.000000e+000 0.000000e+000
      outer loop
         vertex 0.000000e+000 1.299712e-001 2.204366e-001
         vertex 0.000000e+000 1.315366e-001 2.188712e-001
         vertex 0.000000e+000 0.000000e+000 0.000000e+000
      endloop
   endfacet
   facet normal -1.000000e+000 0.000000e+000 0.000000e+000
      outer loop
         vertex 0.000000e+000 0.000000e+000 0.000000e+000
         vertex 0.000000e+000 1.315366e-001 2.188712e-001
         vertex 0.000000e+000 1.333500e-001 2.176015e-001
      endloop
   endfacet
   facet normal -1.000000e+000 0.000000e+000 0.000000e+000
      outer loop
         vertex 0.000000e+000 0.000000e+000 0.000000e+000
         vertex 0.000000e+000 1.333500e-001 2.176015e-001
         vertex 0.000000e+000 1.353563e-001 2.166659e-001
      endloop
   endfacet
   facet normal -1.000000e+000 0.000000e+000 0.000000e+000
      outer loop
         vertex 0.000000e+000 1.440437e-001 2.166659e-001
         vertex 0.000000e+000 1.460500e-001 2.176015e-001
         vertex 0.000000e+000 2.794000e-001 0.000000e+000
      endloop
   endfacet
   facet normal -1.000000e+000 0.000000e+000 0.000000e+000
      outer loop
         vertex 0.000000e+000 2.794000e-001 0.000000e+000
         vertex 0.000000e+000 1.460500e-001 2.176015e-001
         vertex 0.000000e+000 1.478634e-001 2.188712e-001
      endloop
   endfacet
   facet normal -1.000000e+000 0.000000e+000 0.000000e+000
      outer loop
         vertex 0.000000e+000 2.794000e-001 0.000000e+000
         vertex 0.000000e+000 1.478634e-001 2.188712e-001
         vertex 0.000000e+000 1.494288e-001 2.204366e-001
      endloop
   endfacet
   facet normal -1.000000e+000 0.000000e+000 0.000000e+000
      outer loop
         vertex 0.000000e+000 2.794000e-001 3.048000e-001
         vertex 0.000000e+000 1.506985e-001 2.349500e-001
         vertex 0.000000e+000 1.494288e-001 2.367634e-001
      endloop
   endfacet
   facet normal -1.000000e+000 0.000000e+000 0.000000e+000
      outer loop
         vertex 0.000000e+000 1.353563e-001 2.166659e-001
         vertex 0.000000e+000 1.374947e-001 2.160929e-001
         vertex 0.000000e+000 0.000000e+000 0.000000e+000
      endloop
   endfacet
   facet normal -1.000000e+000 0.000000e+000 0.000000e+000
      outer loop
         vertex 0.000000e+000 0.000000e+000 0.000000e+000
         vertex 0.000000e+000 1.374947e-001 2.160929e-001
         vertex 0.000000e+000 1.397000e-001 2.159000e-001
      endloop
   endfacet
   facet normal -1.000000e+000 0.000000e+000 0.000000e+000
      outer loop
         vertex 0.000000e+000 0.000000e+000 0.000000e+000
         vertex 0.000000e+000 1.397000e-001 2.159000e-001
         vertex 0.000000e+000 2.794000e-001 0.000000e+000
      endloop
   endfacet
   facet normal -1.000000e+000 0.000000e+000 0.000000e+000
      outer loop
         vertex 0.000000e+000 2.794000e-001 0.000000e+000
         vertex 0.000000e+000 1.397000e-001 2.159000e-001
         vertex 0.000000e+000 1.419053e-001 2.160929e-001
      endloop
   endfacet
   facet normal -1.000000e+000 0.000000e+000 0.000000e+000
      outer loop
         vertex 0.000000e+000 2.794000e-001 0.000000e+000
         vertex 0.000000e+000 1.419053e-001 2.160929e-001
         vertex 0.000000e+000 1.440437e-001 2.166659e-001
      endloop
   endfacet
   facet normal -1.000000e+000 0.000000e+000 0.000000e+000
      outer loop
         vertex 0.000000e+000 1.494288e-001 2.204366e-001
         vertex 0.000000e+000 1.506985e-001 2.222500e-001
         vertex 0.000000e+000 2.794000e-001 0.000000e+000
      endloop
   endfacet
   facet normal -1.000000e+000 0.000000e+000 0.000000e+000
      outer loop
         vertex 0.000000e+000 2.794000e-001 0.000000e+000
         vertex 0.000000e+000 1.506985e-001 2.222500e-001
         vertex 0.000000e+000 1.516341e-001 2.242564e-001
      endloop
   endfacet
   facet normal -1.000000e+000 0.000000e+000 0.000000e+000
      outer loop
         vertex 0.000000e+000 2.794000e-001 0.000000e+000
         vertex 0.000000e+000 1.516341e-001 2.242564e-001
         vertex 0.000000e+000 2.794000e-001 3.048000e-001
      endloop
   endfacet
   facet normal -1.000000e+000 0.000000e+000 0.000000e+000
      outer loop
         vertex 0.000000e+000 2.794000e-001 3.048000e-001
         vertex 0.000000e+000 1.516341e-001 2.242564e-001
         vertex 0.000000e+000 1.522071e-001 2.263947e-001
      endloop
   endfacet
   facet normal -1.000000e+000 0.000000e+000 0.000000e+000
      outer loop
         vertex 0.000000e+000 2.794000e-001 3.048000e-001
         vertex 0.000000e+000 1.522071e-001 2.263947e-001
         vertex 0.000000e+000 1.524000e-001 2.286000e-001
      endloop
   endfacet
   facet normal -1.000000e+000 0.000000e+000 0.000000e+000
      outer loop
         vertex 0.000000e+000 1.524000e-001 2.286000e-001
         vertex 0.000000e+000 1.522071e-001 2.308053e-001
         vertex 0.000000e+000 2.794000e-001 3.048000e-001
      endloop
   endfacet
   facet normal -1.000000e+000 0.000000e+000 0.000000e+000
      outer loop
         vertex 0.000000e+000 2.794000e-001 3.048000e-001
         vertex 0.000000e+000 1.522071e-001 2.308053e-001
         vertex 0.000000e+000 1.516341e-001 2.329437e-001
      endloop
   endfacet
   facet normal -1.000000e+000 0.000000e+000 0.000000e+000
      outer loop
         vertex 0.000000e+000 2.794000e-001 3.048000e-001
         vertex 0.000000e+000 1.516341e-001 2.329437e-001
         vertex 0.000000e+000 1.506985e-001 2.349500e-001
      endloop
   endfacet
   facet normal -1.000000e+000 0.000000e+000 0.000000e+000
      outer loop
         vertex 0.000000e+000 1.494288e-001 2.367634e-001
         vertex 0.000000e+000 1.478634e-001 2.383288e-001
         vertex 0.000000e+000 2.794000e-001 3.048000e-001
      endloop
   endfacet
   facet normal -1.000000e+000 0.000000e+000 0.000000e+000
      outer loop
         vertex 0.000000e+000 2.794000e-001 3.048000e-001
         vertex 0.000000e+000 1.478634e-001 2.383288e-001
         vertex 0.000000e+000 1.460500e-001 2.395985e-001
      endloop
   endfacet
   facet normal -1.000000e+000 0.000000e+000 0.000000e+000
      outer loop
         vertex 0.000000e+000 2.794000e-001 3.048000e-001
         vertex 0.000000e+000 1.460500e-001 2.395985e-001
         vertex 0.000000e+000 1.440437e-001 2.405341e-001
      endloop
   endfacet
   facet normal -1.000000e+000 0.000000e+000 0.000000e+000
      outer loop
         vertex 0.000000e+000 1.333500e-001 2.395985e-001
         vertex 0.000000e+000 1.315366e-001 2.383288e-001
         vertex 0.000000e+000 0.000000e+000 3.048000e-001
      endloop
   endfacet
   facet normal -1.000000e+000 0.000000e+000 0.000000e+000
      outer loop
         vertex 0.000000e+000 0.000000e+000 3.048000e-001
         vertex 0.000000e+000 1.315366e-001 2.383288e-001
         vertex 0.000000e+000 1.299712e-001 2.367634e-001
      endloop
   endfacet
   facet normal -1.000000e+000 0.000000e+000 0.000000e+000
      outer loop
         vertex 0.000000e+000 0.000000e+000 3.048000e-001
         vertex 0.000000e+000 1.299712e-001 2.367634e-001
         vertex 0.000000e+000 1.287015e-001 2.349500e-001
      endloop
   endfacet
   facet normal -1.000000e+000 0.000000e+000 0.000000e+000
      outer loop
         vertex 0.000000e+000 1.287015e-001 2.349500e-001
         vertex 0.000000e+000 1.277659e-001 2.329437e-001
         vertex 0.000000e+000 0.000000e+000 3.048000e-001
      endloop
   endfacet
   facet normal -1.000000e+000 0.000000e+000 0.000000e+000
      outer loop
         vertex 0.000000e+000 0.000000e+000 3.048000e-001
         vertex 0.000000e+000 1.277659e-001 2.329437e-001
         vertex 0.000000e+000 1.271929e-001 2.308053e-001
      endloop
   endfacet
   facet normal -1.000000e+000 0.000000e+000 0.000000e+000
      outer loop
         vertex 0.000000e+000 0.000000e+000 3.048000e-001
         vertex 0.000000e+000 1.271929e-001 2.308053e-001
         vertex 0.000000e+000 1.270000e-001 2.286000e-001
      endloop
   endfacet
   facet normal -1.000000e+000 0.000000e+000 0.000000e+000
      outer loop
         vertex 0.000000e+000 1.440437e-001 2.405341e-001
         vertex 0.000000e+000 1.419053e-001 2.411071e-001
         vertex 0.000000e+000 2.794000e-001 3.048000e-001
      endloop
   endfacet
   facet normal -1.000000e+000 0.000000e+000 0.000000e+000
      outer loop
         vertex 0.000000e+000 2.794000e-001 3.048000e-001
         vertex 0.000000e+000 1.419053e-001 2.411071e-001
         vertex 0.000000e+000 1.397000e-001 2.413000e-001
      endloop
   endfacet
   facet normal -1.000000e+000 0.000000e+000 0.000000e+000
      outer loop
         vertex 0.000000e+000 2.794000e-001 3.048000e-001
         vertex 0.000000e+000 1.397000e-001 2.413000e-001
         vertex 0.000000e+000 0.000000e+000 3.048000e-001
      endloop
   endfacet
   facet normal -1.000000e+000 0.000000e+000 0.000000e+000
      outer loop
         vertex 0.000000e+000 0.000000e+000 3.048000e-001
         vertex 0.000000e+000 1.397000e-001 2.413000e-001
         vertex 0.000000e+000 1.374947e-001 2.411071e-001
      endloop
   endfacet
   facet normal -1.000000e+000 0.000000e+000 0.000000e+000
      outer loop
         vertex 0.000000e+000 0.000000e+000 3.048000e-001
         vertex 0.000000e+000 1.374947e-001 2.411071e-001
         vertex 0.000000e+000 1.353563e-001 2.405341e-001
      endloop
   endfacet
   facet normal 0.000000e+000 0.000000e+000 -1.000000e+000
      outer loop
         vertex 1.353563e-001 1.516341e-001 0.000000e+000
         vertex 1.333500e-001 1.506985e-001 0.000000e+000
         vertex 0.000000e+000 2.794000e-001 0.000000e+000
      endloop
   endfacet
   facet normal 0.000000e+000 0.000000e+000 -1.000000e+000
      outer loop
         vertex 0.000000e+000 2.794000e-001 0.000000e+000
         vertex 1.333500e-001 1.506985e-001 0.000000e+000
         vertex 1.315366e-001 1.494288e-001 0.000000e+000
      endloop
   endfacet
   facet normal 0.000000e+000 0.000000e+000 -1.000000e+000
      outer loop
         vertex 1.315366e-001 1.494288e-001 0.000000e+000
         vertex 1.299712e-001 1.478634e-001 0.000000e+000
         vertex 0.000000e+000 2.794000e-001 0.000000e+000
      endloop
   endfacet
   facet normal 0.000000e+000 0.000000e+000 -1.000000e+000
      outer loop
         vertex 0.000000e+000 2.794000e-001 0.000000e+000
         vertex 1.299712e-001 1.478634e-001 0.000000e+000
         vertex 1.287015e-001 1.460500e-001 0.000000e+000
      endloop
   endfacet
   facet normal 0.000000e+000 0.000000e+000 -1.000000e+000
      outer loop
         vertex 0.000000e+000 2.794000e-001 0.000000e+000
         vertex 1.287015e-001 1.460500e-001 0.000000e+000
         vertex 1.277659e-001 1.440437e-001 0.000000e+000
      endloop
   endfacet
   facet normal 0.000000e+000 0.000000e+000 -1.000000e+000
      outer loop
         vertex 1.277659e-001 1.353563e-001 0.000000e+000
         vertex 1.287015e-001 1.333500e-001 0.000000e+000
         vertex 0.000000e+000 0.000000e+000 0.000000e+000
      endloop
   endfacet
   facet normal 0.000000e+000 0.000000e+000 -1.000000e+000
      outer loop
         vertex 0.000000e+000 0.000000e+000 0.000000e+000
         vertex 1.287015e-001 1.333500e-001 0.000000e+000
         vertex 1.299712e-001 1.315366e-001 0.000000e+000
      endloop
   endfacet
   facet normal 0.000000e+000 0.000000e+000 -1.000000e+000
      outer loop
         vertex 1.299712e-001 1.315366e-001 0.000000e+000
         vertex 1.315366e-001 1.299712e-001 0.000000e+000
         vertex 0.000000e+000 0.000000e+000 0.000000e+000
      endloop
   endfacet
   facet normal 0.000000e+000 0.000000e+000 -1.000000e+000
      outer loop
         vertex 0.000000e+000 0.000000e+000 0.000000e+000
         vertex 1.315366e-001 1.299712e-001 0.000000e+000
         vertex 1.333500e-001 1.287015e-001 0.000000e+000
      endloop
   endfacet
   facet normal 0.000000e+000 0.000000e+000 -1.000000e+000
      outer loop
         vertex 0.000000e+000 0.000000e+000 0.000000e+000
         vertex 1.333500e-001 1.287015e-001 0.000000e+000
         vertex 1.353563e-001 1.277659e-001 0.000000e+000
      endloop
   endfacet
   facet normal 0.000000e+000 0.000000e+000 -1.000000e+000
      outer loop
         vertex 1.440437e-001 1.277659e-001 0.000000e+000
         vertex 1.460500e-001 1.287015e-001 0.000000e+000
         vertex 2.794000e-001 0.000000e+000 0.000000e+000
      endloop
   endfacet
   facet normal 0.000000e+000 0.000000e+000 -1.000000e+000
      outer loop
         vertex 2.794000e-001 0.000000e+000 0.000000e+000
         vertex 1.460500e-001 1.287015e-001 0.000000e+000
         vertex 1.478634e-001 1.299712e-001 0.000000e+000
      endloop
   endfacet
   facet normal 0.000000e+000 0.000000e+000 -1.000000e+000
      outer loop
         vertex 1.516341e-001 1.440437e-001 0.000000e+000
         vertex 1.506985e-001 1.460500e-001 0.000000e+000
         vertex 2.794000e-001 2.794000e-001 0.000000e+000
      endloop
   endfacet
   facet normal 0.000000e+000 0.000000e+000 -1.000000e+000
      outer loop
         vertex 2.794000e-001 2.794000e-001 0.000000e+000
         vertex 1.506985e-001 1.460500e-001 0.000000e+000
         vertex 1.494288e-001 1.478634e-001 0.000000e+000
      endloop
   endfacet
   facet normal 0.000000e+000 0.000000e+000 -1.000000e+000
      outer loop
         vertex 1.277659e-001 1.440437e-001 0.000000e+000
         vertex 1.271929e-001 1.419053e-001 0.000000e+000
         vertex 0.000000e+000 2.794000e-001 0.000000e+000
      endloop
   endfacet
   facet normal 0.000000e+000 0.000000e+000 -1.000000e+000
      outer loop
         vertex 0.000000e+000 2.794000e-001 0.000000e+000
         vertex 1.271929e-001 1.419053e-001 0.000000e+000
         vertex 1.270000e-001 1.397000e-001 0.000000e+000
      endloop
   endfacet
   facet normal 0.000000e+000 0.000000e+000 -1.000000e+000
      outer loop
         vertex 0.000000e+000 2.794000e-001 0.000000e+000
         vertex 1.270000e-001 1.397000e-001 0.000000e+000
         vertex 0.000000e+000 0.000000e+000 0.000000e+000
      endloop
   endfacet
   facet normal 0.000000e+000 0.000000e+000 -1.000000e+000
      outer loop
         vertex 0.000000e+000 0.000000e+000 0.000000e+000
         vertex 1.270000e-001 1.397000e-001 0.000000e+000
         vertex 1.271929e-001 1.374947e-001 0.000000e+000
      endloop
   endfacet
   facet normal 0.000000e+000 0.000000e+000 -1.000000e+000
      outer loop
         vertex 0.000000e+000 0.000000e+000 0.000000e+000
         vertex 1.271929e-001 1.374947e-001 0.000000e+000
         vertex 1.277659e-001 1.353563e-001 0.000000e+000
      endloop
   endfacet
   facet normal 0.000000e+000 0.000000e+000 -1.000000e+000
      outer loop
         vertex 1.478634e-001 1.299712e-001 0.000000e+000
         vertex 1.494288e-001 1.315366e-001 0.000000e+000
         vertex 2.794000e-001 0.000000e+000 0.000000e+000
      endloop
   endfacet
   facet normal 0.000000e+000 0.000000e+000 -1.000000e+000
      outer loop
         vertex 2.794000e-001 0.000000e+000 0.000000e+000
         vertex 1.494288e-001 1.315366e-001 0.000000e+000
         vertex 1.506985e-001 1.333500e-001 0.000000e+000
      endloop
   endfacet
   facet normal 0.000000e+000 0.000000e+000 -1.000000e+000
      outer loop
         vertex 2.794000e-001 0.000000e+000 0.000000e+000
         vertex 1.506985e-001 1.333500e-001 0.000000e+000
         vertex 1.516341e-001 1.353563e-001 0.000000e+000
      endloop
   endfacet
   facet normal 0.000000e+000 0.000000e+000 -1.000000e+000
      outer loop
         vertex 1.494288e-001 1.478634e-001 0.000000e+000
         vertex 1.478634e-001 1.494288e-001 0.000000e+000
         vertex 2.794000e-001 2.794000e-001 0.000000e+000
      endloop
   endfacet
   facet normal 0.000000e+000 0.000000e+000 -1.000000e+000
      outer loop
         vertex 2.794000e-001 2.794000e-001 0.000000e+000
         vertex 1.478634e-001 1.494288e-001 0.000000e+000
         vertex 1.460500e-001 1.506985e-001 0.000000e+000
      endloop
   endfacet
   facet normal 0.000000e+000 0.000000e+000 -1.000000e+000
      outer loop
         vertex 2.794000e-001 2.794000e-001 0.000000e+000
         vertex 1.460500e-001 1.506985e-001 0.000000e+000
         vertex 1.440437e-001 1.516341e-001 0.000000e+000
      endloop
   endfacet
   facet normal 0.000000e+000 0.000000e+000 -1.000000e+000
      outer loop
         vertex 1.440437e-001 1.516341e-001 0.000000e+000
         vertex 1.419053e-001 1.522071e-001 0.000000e+000
         vertex 2.794000e-001 2.794000e-001 0.000000e+000
      endloop
   endfacet
   facet normal 0.000000e+000 0.000000e+000 -1.000000e+000
      outer loop
         vertex 2.794000e-001 2.794000e-001 0.000000e+000
         vertex 1.419053e-001 1.522071e-001 0.000000e+000
         vertex 1.397000e-001 1.524000e-001 0.000000e+000
      endloop
   endfacet
   facet normal 0.000000e+000 0.000000e+000 -1.000000e+000
      outer loop
         vertex 2.794000e-001 2.794000e-001 0.000000e+000
         vertex 1.397000e-001 1.524000e-001 0.000000e+000
         vertex 0.000000e+000 2.794000e-001 0.000000e+000
      endloop
   endfacet
   facet normal 0.000000e+000 0.000000e+000 -1.000000e+000
      outer loop
         vertex 0.000000e+000 2.794000e-001 0.000000e+000
         vertex 1.397000e-001 1.524000e-001 0.000000e+000
         vertex 1.374947e-001 1.522071e-001 0.000000e+000
      endloop
   endfacet
   facet normal 0.000000e+000 0.000000e+000 -1.000000e+000
      outer loop
         vertex 0.000000e+000 2.794000e-001 0.000000e+000
         vertex 1.374947e-001 1.522071e-001 0.000000e+000
         vertex 1.353563e-001 1.516341e-001 0.000000e+000
      endloop
   endfacet
   facet normal 0.000000e+000 0.000000e+000 -1.000000e+000
      outer loop
         vertex 1.353563e-001 1.277659e-001 0.000000e+000
         vertex 1.374947e-001 1.271929e-001 0.000000e+000
         vertex 0.000000e+000 0.000000e+000 0.000000e+000
      endloop
   endfacet
   facet normal 0.000000e+000 0.000000e+000 -1.000000e+000
      outer loop
         vertex 0.000000e+000 0.000000e+000 0.000000e+000
         vertex 1.374947e-001 1.271929e-001 0.000000e+000
         vertex 1.397000e-001 1.270000e-001 0.000000e+000
      endloop
   endfacet
   facet normal 0.000000e+000 0.000000e+000 -1.000000e+000
      outer loop
         vertex 0.000000e+000 0.000000e+000 0.000000e+000
         vertex 1.397000e-001 1.270000e-001 0.000000e+000
         vertex 2.794000e-001 0.000000e+000 0.000000e+000
      endloop
   endfacet
   facet normal 0.000000e+000 0.000000e+000 -1.000000e+000
      outer loop
         vertex 2.794000e-001 0.000000e+000 0.000000e+000
         vertex 1.397000e-001 1.270000e-001 0.000000e+000
         vertex 1.419053e-001 1.271929e-001 0.000000e+000
      endloop
   endfacet
   facet normal 0.000000e+000 0.000000e+000 -1.000000e+000
      outer loop
         vertex 2.794000e-001 0.000000e+000 0.000000e+000
         vertex 1.419053e-001 1.271929e-001 0.000000e+000
         vertex 1.440437e-001 1.277659e-001 0.000000e+000
      endloop
   endfacet
   facet normal 0.000000e+000 0.000000e+000 -1.000000e+000
      outer loop
         vertex 1.516341e-001 1.353563e-001 0.000000e+000
         vertex 1.522071e-001 1.374947e-001 0.000000e+000
         vertex 2.794000e-001 0.000000e+000 0.000000e+000
      endloop
   endfacet
   facet normal 0.000000e+000 0.000000e+000 -1.000000e+000
      outer loop
         vertex 2.794000e-001 0.000000e+000 0.000000e+000
         vertex 1.522071e-001 1.374947e-001 0.000000e+000
         vertex 1.524000e-001 1.397000e-001 0.000000e+000
      endloop
   endfacet
   facet normal 0.000000e+000 0.000000e+000 -1.000000e+000
      outer loop
         vertex 2.794000e-001 0.000000e+000 0.000000e+000
         vertex 1.524000e-001 1.397000e-001 0.000000e+000
         vertex 2.794000e-001 2.794000e-001 0.000000e+000
      endloop
   endfacet
   facet normal 0.000000e+000 0.000000e+000 -1.000000e+000
      outer loop
         vertex 2.794000e-001 2.794000e-001 0.000000e+000
         vertex 1.524000e-001 1.397000e-001 0.000000e+000
         vertex 1.522071e-001 1.419053e-001 0.000000e+000
      endloop
   endfacet
   facet normal 0.000000e+000 0.000000e+000 -1.000000e+000
      outer loop
         vertex 2.794000e-001 2.794000e-001 0.000000e+000
         vertex 1.522071e-001 1.419053e-001 0.000000e+000
         vertex 1.516341e-001 1.440437e-001 0.000000e+000
      endloop
   endfacet
   facet normal 0.000000e+000 0.000000e+000 1.000000e+000
      outer loop
         vertex 2.794000e-001 2.794000e-001 3.048000e-001
         vertex 0.000000e+000 2.794000e-001 3.048000e-001
         vertex 2.794000e-001 0.000000e+000 3.048000e-001
      endloop
   endfacet
   facet normal 0.000000e+000 0.000000e+000 1.000000e+000
      outer loop
         vertex 2.794000e-001 0.000000e+000 3.048000e-001
         vertex 0.000000e+000 2.794000e-001 3.048000e-001
         vertex 0.000000e+000 0.000000e+000 3.048000e-001
      endloop
   endfacet
   facet normal 1.000000e+000 0.000000e+000 0.000000e+000
      outer loop
         vertex 2.794000e-001 2.794000e-001 0.000000e+000
         vertex 2.794000e-001 2.794000e-001 3.048000e-001
         vertex 2.794000e-001 0.000000e+000 0.000000e+000
      endloop
   endfacet
   facet normal 1.000000e+000 0.000000e+000 0.000000e+000
      outer loop
         vertex 2.794000e-001 0.000000e+000 0.000000e+000
         vertex 2.794000e-001 2.794000e-001 3.048000e-001
         vertex 2.794000e-001 0.000000e+000 3.048000e-001
      endloop
   endfacet
   facet normal 0.000000e+000 1.000000e+000 0.000000e+000
      outer loop
         vertex 2.794000e-001 2.794000e-001 3.048000e-001
         vertex 2.794000e-001 2.794000e-001 0.000000e+000
         vertex 0.000000e+000 2.794000e-001 3.048000e-001
      endloop
   endfacet
   facet normal 0.000000e+000 1.000000e+000 0.000000e+000
      outer loop
         vertex 0.000000e+000 2.794000e-001 3.048000e-001
         vertex 2.794000e-001 2.794000e-001 0.000000e+000
         vertex 0.000000e+000 2.794000e-001 0.000000e+000
      endloop
   endfacet
   facet normal 0.000000e+000 -1.000000e+000 0.000000e+000
      outer loop
         vertex 2.794000e-001 0.000000e+000 0.000000e+000
         vertex 2.794000e-001 0.000000e+000 3.048000e-001
         vertex 0.000000e+000 0.000000e+000 0.000000e+000
      endloop
   endfacet
   facet normal 0.000000e+000 -1.000000e+000 0.000000e+000
      outer loop
         vertex 0.000000e+000 0.000000e+000 0.000000e+000
         vertex 2.794000e-001 0.000000e+000 3.048000e-001
         vertex 0.000000e+000 0.000000e+000 3.048000e-001
      endloop
   endfacet

solid outlet
   facet normal 0.000000e+000 0.000000e+000 -1.000000e+000
      outer loop
         vertex 1.460500e-001 1.506985e-001 0.000000e+000
         vertex 1.353563e-001 1.277659e-001 0.000000e+000
         vertex 1.440437e-001 1.516341e-001 0.000000e+000
      endloop
   endfacet
   facet normal 0.000000e+000 0.000000e+000 -1.000000e+000
      outer loop
         vertex 1.440437e-001 1.516341e-001 0.000000e+000
         vertex 1.353563e-001 1.277659e-001 0.000000e+000
         vertex 1.333500e-001 1.287015e-001 0.000000e+000
      endloop
   endfacet
   facet normal 0.000000e+000 0.000000e+000 -1.000000e+000
      outer loop
         vertex 1.277659e-001 1.440437e-001 0.000000e+000
         vertex 1.287015e-001 1.460500e-001 0.000000e+000
         vertex 1.440437e-001 1.516341e-001 0.000000e+000
      endloop
   endfacet
   facet normal 0.000000e+000 0.000000e+000 -1.000000e+000
      outer loop
         vertex 1.440437e-001 1.516341e-001 0.000000e+000
         vertex 1.287015e-001 1.460500e-001 0.000000e+000
         vertex 1.299712e-001 1.478634e-001 0.000000e+000
      endloop
   endfacet
   facet normal 0.000000e+000 0.000000e+000 -1.000000e+000
      outer loop
         vertex 1.506985e-001 1.460500e-001 0.000000e+000
         vertex 1.516341e-001 1.440437e-001 0.000000e+000
         vertex 1.494288e-001 1.478634e-001 0.000000e+000
      endloop
   endfacet
   facet normal 0.000000e+000 0.000000e+000 -1.000000e+000
      outer loop
         vertex 1.494288e-001 1.478634e-001 0.000000e+000
         vertex 1.516341e-001 1.440437e-001 0.000000e+000
         vertex 1.353563e-001 1.277659e-001 0.000000e+000
      endloop
   endfacet
   facet normal 0.000000e+000 0.000000e+000 -1.000000e+000
      outer loop
         vertex 1.494288e-001 1.478634e-001 0.000000e+000
         vertex 1.353563e-001 1.277659e-001 0.000000e+000
         vertex 1.478634e-001 1.494288e-001 0.000000e+000
      endloop
   endfacet
   facet normal 0.000000e+000 0.000000e+000 -1.000000e+000
      outer loop
         vertex 1.478634e-001 1.494288e-001 0.000000e+000
         vertex 1.353563e-001 1.277659e-001 0.000000e+000
         vertex 1.460500e-001 1.506985e-001 0.000000e+000
      endloop
   endfacet
   facet normal 0.000000e+000 0.000000e+000 -1.000000e+000
      outer loop
         vertex 1.522071e-001 1.374947e-001 0.000000e+000
         vertex 1.516341e-001 1.353563e-001 0.000000e+000
         vertex 1.524000e-001 1.397000e-001 0.000000e+000
      endloop
   endfacet
   facet normal 0.000000e+000 0.000000e+000 -1.000000e+000
      outer loop
         vertex 1.524000e-001 1.397000e-001 0.000000e+000
         vertex 1.516341e-001 1.353563e-001 0.000000e+000
         vertex 1.353563e-001 1.277659e-001 0.000000e+000
      endloop
   endfacet
   facet normal 0.000000e+000 0.000000e+000 -1.000000e+000
      outer loop
         vertex 1.524000e-001 1.397000e-001 0.000000e+000
         vertex 1.353563e-001 1.277659e-001 0.000000e+000
         vertex 1.522071e-001 1.419053e-001 0.000000e+000
      endloop
   endfacet
   facet normal 0.000000e+000 0.000000e+000 -1.000000e+000
      outer loop
         vertex 1.522071e-001 1.419053e-001 0.000000e+000
         vertex 1.353563e-001 1.277659e-001 0.000000e+000
         vertex 1.516341e-001 1.440437e-001 0.000000e+000
      endloop
   endfacet
   facet normal 0.000000e+000 0.000000e+000 -1.000000e+000
      outer loop
         vertex 1.374947e-001 1.271929e-001 0.000000e+000
         vertex 1.353563e-001 1.277659e-001 0.000000e+000
         vertex 1.397000e-001 1.270000e-001 0.000000e+000
      endloop
   endfacet
   facet normal 0.000000e+000 0.000000e+000 -1.000000e+000
      outer loop
         vertex 1.397000e-001 1.270000e-001 0.000000e+000
         vertex 1.353563e-001 1.277659e-001 0.000000e+000
         vertex 1.516341e-001 1.353563e-001 0.000000e+000
      endloop
   endfacet
   facet normal 0.000000e+000 0.000000e+000 -1.000000e+000
      outer loop
         vertex 1.397000e-001 1.270000e-001 0.000000e+000
         vertex 1.516341e-001 1.353563e-001 0.000000e+000
         vertex 1.419053e-001 1.271929e-001 0.000000e+000
      endloop
   endfacet
   facet normal 0.000000e+000 0.000000e+000 -1.000000e+000
      outer loop
         vertex 1.419053e-001 1.271929e-001 0.000000e+000
         vertex 1.516341e-001 1.353563e-001 0.000000e+000
         vertex 1.506985e-001 1.333500e-001 0.000000e+000
      endloop
   endfacet
   facet normal 0.000000e+000 0.000000e+000 -1.000000e+000
      outer loop
         vertex 1.333500e-001 1.287015e-001 0.000000e+000
         vertex 1.315366e-001 1.299712e-001 0.000000e+000
         vertex 1.440437e-001 1.516341e-001 0.000000e+000
      endloop
   endfacet
   facet normal 0.000000e+000 0.000000e+000 -1.000000e+000
      outer loop
         vertex 1.440437e-001 1.516341e-001 0.000000e+000
         vertex 1.315366e-001 1.299712e-001 0.000000e+000
         vertex 1.299712e-001 1.315366e-001 0.000000e+000
      endloop
   endfacet
   facet normal 0.000000e+000 0.000000e+000 -1.000000e+000
      outer loop
         vertex 1.440437e-001 1.516341e-001 0.000000e+000
         vertex 1.299712e-001 1.315366e-001 0.000000e+000
         vertex 1.287015e-001 1.333500e-001 0.000000e+000
      endloop
   endfacet
   facet normal 0.000000e+000 0.000000e+000 -1.000000e+000
      outer loop
         vertex 1.271929e-001 1.419053e-001 0.000000e+000
         vertex 1.277659e-001 1.440437e-001 0.000000e+000
         vertex 1.270000e-001 1.397000e-001 0.000000e+000
      endloop
   endfacet
   facet normal 0.000000e+000 0.000000e+000 -1.000000e+000
      outer loop
         vertex 1.270000e-001 1.397000e-001 0.000000e+000
         vertex 1.277659e-001 1.440437e-001 0.000000e+000
         vertex 1.440437e-001 1.516341e-001 0.000000e+000
      endloop
   endfacet
   facet normal 0.000000e+000 0.000000e+000 -1.000000e+000
      outer loop
         vertex 1.270000e-001 1.397000e-001 0.000000e+000
         vertex 1.440437e-001 1.516341e-001 0.000000e+000
         vertex 1.271929e-001 1.374947e-001 0.000000e+000
      endloop
   endfacet
   facet normal 0.000000e+000 0.000000e+000 -1.000000e+000
      outer loop
         vertex 1.271929e-001 1.374947e-001 0.000000e+000
         vertex 1.440437e-001 1.516341e-001 0.000000e+000
         vertex 1.287015e-001 1.333500e-001 0.000000e+000
      endloop
   endfacet
   facet normal 0.000000e+000 0.000000e+000 -1.000000e+000
      outer loop
         vertex 1.271929e-001 1.374947e-001 0.000000e+000
         vertex 1.287015e-001 1.333500e-001 0.000000e+000
         vertex 1.277659e-001 1.353563e-001 0.000000e+000
      endloop
   endfacet
   facet normal 0.000000e+000 0.000000e+000 -1.000000e+000
      outer loop
         vertex 1.419053e-001 1.522071e-001 0.000000e+000
         vertex 1.440437e-001 1.516341e-001 0.000000e+000
         vertex 1.397000e-001 1.524000e-001 0.000000e+000
      endloop
   endfacet
   facet normal 0.000000e+000 0.000000e+000 -1.000000e+000
      outer loop
         vertex 1.397000e-001 1.524000e-001 0.000000e+000
         vertex 1.440437e-001 1.516341e-001 0.000000e+000
         vertex 1.299712e-001 1.478634e-001 0.000000e+000
      endloop
   endfacet
   facet normal 0.000000e+000 0.000000e+000 -1.000000e+000
      outer loop
         vertex 1.397000e-001 1.524000e-001 0.000000e+000
         vertex 1.299712e-001 1.478634e-001 0.000000e+000
         vertex 1.374947e-001 1.522071e-001 0.000000e+000
      endloop
   endfacet
   facet normal 0.000000e+000 0.000000e+000 -1.000000e+000
      outer loop
         vertex 1.374947e-001 1.522071e-001 0.000000e+000
         vertex 1.299712e-001 1.478634e-001 0.000000e+000
         vertex 1.315366e-001 1.494288e-001 0.000000e+000
      endloop
   endfacet
   facet normal 0.000000e+000 0.000000e+000 -1.000000e+000
      outer loop
         vertex 1.374947e-001 1.522071e-001 0.000000e+000
         vertex 1.315366e-001 1.494288e-001 0.000000e+000
         vertex 1.353563e-001 1.516341e-001 0.000000e+000
      endloop
   endfacet
   facet normal 0.000000e+000 0.000000e+000 -1.000000e+000
      outer loop
         vertex 1.353563e-001 1.516341e-001 0.000000e+000
         vertex 1.315366e-001 1.494288e-001 0.000000e+000
         vertex 1.333500e-001 1.506985e-001 0.000000e+000
      endloop
   endfacet
   facet normal 0.000000e+000 0.000000e+000 -1.000000e+000
      outer loop
         vertex 1.460500e-001 1.287015e-001 0.000000e+000
         vertex 1.440437e-001 1.277659e-001 0.000000e+000
         vertex 1.478634e-001 1.299712e-001 0.000000e+000
      endloop
   endfacet
   facet normal 0.000000e+000 0.000000e+000 -1.000000e+000
      outer loop
         vertex 1.478634e-001 1.299712e-001 0.000000e+000
         vertex 1.440437e-001 1.277659e-001 0.000000e+000
         vertex 1.419053e-001 1.271929e-001 0.000000e+000
      endloop
   endfacet
   facet normal 0.000000e+000 0.000000e+000 -1.000000e+000
      outer loop
         vertex 1.478634e-001 1.299712e-001 0.000000e+000
         vertex 1.419053e-001 1.271929e-001 0.000000e+000
         vertex 1.494288e-001 1.315366e-001 0.000000e+000
      endloop
   endfacet
   facet normal 0.000000e+000 0.000000e+000 -1.000000e+000
      outer loop
         vertex 1.494288e-001 1.315366e-001 0.000000e+000
         vertex 1.419053e-001 1.271929e-001 0.000000e+000
         vertex 1.506985e-001 1.333500e-001 0.000000e+000
      endloop
   endfacet
endsolid

solid inlet
   facet normal -1.000000e+000 0.000000e+000 0.000000e+000
      outer loop
         vertex 0.000000e+000 1.287015e-001 2.349500e-001
         vertex 0.000000e+000 1.516341e-001 2.242564e-001
         vertex 0.000000e+000 1.277659e-001 2.329437e-001
      endloop
   endfacet
   facet normal -1.000000e+000 0.000000e+000 0.000000e+000
      outer loop
         vertex 0.000000e+000 1.277659e-001 2.329437e-001
         vertex 0.000000e+000 1.516341e-001 2.242564e-001
         vertex 0.000000e+000 1.506985e-001 2.222500e-001
      endloop
   endfacet
   facet normal -1.000000e+000 0.000000e+000 0.000000e+000
      outer loop
         vertex 0.000000e+000 1.353563e-001 2.166659e-001
         vertex 0.000000e+000 1.333500e-001 2.176015e-001
         vertex 0.000000e+000 1.277659e-001 2.329437e-001
      endloop
   endfacet
   facet normal -1.000000e+000 0.000000e+000 0.000000e+000
      outer loop
         vertex 0.000000e+000 1.277659e-001 2.329437e-001
         vertex 0.000000e+000 1.333500e-001 2.176015e-001
         vertex 0.000000e+000 1.315366e-001 2.188712e-001
      endloop
   endfacet
   facet normal -1.000000e+000 0.000000e+000 0.000000e+000
      outer loop
         vertex 0.000000e+000 1.333500e-001 2.395985e-001
         vertex 0.000000e+000 1.353563e-001 2.405341e-001
         vertex 0.000000e+000 1.315366e-001 2.383288e-001
      endloop
   endfacet
   facet normal -1.000000e+000 0.000000e+000 0.000000e+000
      outer loop
         vertex 0.000000e+000 1.315366e-001 2.383288e-001
         vertex 0.000000e+000 1.353563e-001 2.405341e-001
         vertex 0.000000e+000 1.516341e-001 2.242564e-001
      endloop
   endfacet
   facet normal -1.000000e+000 0.000000e+000 0.000000e+000
      outer loop
         vertex 0.000000e+000 1.315366e-001 2.383288e-001
         vertex 0.000000e+000 1.516341e-001 2.242564e-001
         vertex 0.000000e+000 1.299712e-001 2.367634e-001
      endloop
   endfacet
   facet normal -1.000000e+000 0.000000e+000 0.000000e+000
      outer loop
         vertex 0.000000e+000 1.299712e-001 2.367634e-001
         vertex 0.000000e+000 1.516341e-001 2.242564e-001
         vertex 0.000000e+000 1.287015e-001 2.349500e-001
      endloop
   endfacet
   facet normal -1.000000e+000 0.000000e+000 0.000000e+000
      outer loop
         vertex 0.000000e+000 1.419053e-001 2.411071e-001
         vertex 0.000000e+000 1.440437e-001 2.405341e-001
         vertex 0.000000e+000 1.397000e-001 2.413000e-001
      endloop
   endfacet
   facet normal -1.000000e+000 0.000000e+000 0.000000e+000
      outer loop
         vertex 0.000000e+000 1.397000e-001 2.413000e-001
         vertex 0.000000e+000 1.440437e-001 2.405341e-001
         vertex 0.000000e+000 1.516341e-001 2.242564e-001
      endloop
   endfacet
   facet normal -1.000000e+000 0.000000e+000 0.000000e+000
      outer loop
         vertex 0.000000e+000 1.397000e-001 2.413000e-001
         vertex 0.000000e+000 1.516341e-001 2.242564e-001
         vertex 0.000000e+000 1.374947e-001 2.411071e-001
      endloop
   endfacet
   facet normal -1.000000e+000 0.000000e+000 0.000000e+000
      outer loop
         vertex 0.000000e+000 1.374947e-001 2.411071e-001
         vertex 0.000000e+000 1.516341e-001 2.242564e-001
         vertex 0.000000e+000 1.353563e-001 2.405341e-001
      endloop
   endfacet
   facet normal -1.000000e+000 0.000000e+000 0.000000e+000
      outer loop
         vertex 0.000000e+000 1.522071e-001 2.263947e-001
         vertex 0.000000e+000 1.516341e-001 2.242564e-001
         vertex 0.000000e+000 1.524000e-001 2.286000e-001
      endloop
   endfacet
   facet normal -1.000000e+000 0.000000e+000 0.000000e+000
      outer loop
         vertex 0.000000e+000 1.524000e-001 2.286000e-001
         vertex 0.000000e+000 1.516341e-001 2.242564e-001
         vertex 0.000000e+000 1.440437e-001 2.405341e-001
      endloop
   endfacet
   facet normal -1.000000e+000 0.000000e+000 0.000000e+000
      outer loop
         vertex 0.000000e+000 1.524000e-001 2.286000e-001
         vertex 0.000000e+000 1.440437e-001 2.405341e-001
         vertex 0.000000e+000 1.522071e-001 2.308053e-001
      endloop
   endfacet
   facet normal -1.000000e+000 0.000000e+000 0.000000e+000
      outer loop
         vertex 0.000000e+000 1.522071e-001 2.308053e-001
         vertex 0.000000e+000 1.440437e-001 2.405341e-001
         vertex 0.000000e+000 1.460500e-001 2.395985e-001
      endloop
   endfacet
   facet normal -1.000000e+000 0.000000e+000 0.000000e+000
      outer loop
         vertex 0.000000e+000 1.506985e-001 2.222500e-001
         vertex 0.000000e+000 1.494288e-001 2.204366e-001
         vertex 0.000000e+000 1.277659e-001 2.329437e-001
      endloop
   endfacet
   facet normal -1.000000e+000 0.000000e+000 0.000000e+000
      outer loop
         vertex 0.000000e+000 1.277659e-001 2.329437e-001
         vertex 0.000000e+000 1.494288e-001 2.204366e-001
         vertex 0.000000e+000 1.478634e-001 2.188712e-001
      endloop
   endfacet
   facet normal -1.000000e+000 0.000000e+000 0.000000e+000
      outer loop
         vertex 0.000000e+000 1.277659e-001 2.329437e-001
         vertex 0.000000e+000 1.478634e-001 2.188712e-001
         vertex 0.000000e+000 1.460500e-001 2.176015e-001
      endloop
   endfacet
   facet normal -1.000000e+000 0.000000e+000 0.000000e+000
      outer loop
         vertex 0.000000e+000 1.374947e-001 2.160929e-001
         vertex 0.000000e+000 1.353563e-001 2.166659e-001
         vertex 0.000000e+000 1.397000e-001 2.159000e-001
      endloop
   endfacet
   facet normal -1.000000e+000 0.000000e+000 0.000000e+000
      outer loop
         vertex 0.000000e+000 1.397000e-001 2.159000e-001
         vertex 0.000000e+000 1.353563e-001 2.166659e-001
         vertex 0.000000e+000 1.277659e-001 2.329437e-001
      endloop
   endfacet
   facet normal -1.000000e+000 0.000000e+000 0.000000e+000
      outer loop
         vertex 0.000000e+000 1.397000e-001 2.159000e-001
         vertex 0.000000e+000 1.277659e-001 2.329437e-001
         vertex 0.000000e+000 1.419053e-001 2.160929e-001
      endloop
   endfacet
   facet normal -1.000000e+000 0.000000e+000 0.000000e+000
      outer loop
         vertex 0.000000e+000 1.419053e-001 2.160929e-001
         vertex 0.000000e+000 1.277659e-001 2.329437e-001
         vertex 0.000000e+000 1.460500e-001 2.176015e-001
      endloop
   endfacet
   facet normal -1.000000e+000 0.000000e+000 0.000000e+000
      outer loop
         vertex 0.000000e+000 1.419053e-001 2.160929e-001
         vertex 0.000000e+000 1.460500e-001 2.176015e-001
         vertex 0.000000e+000 1.440437e-001 2.166659e-001
      endloop
   endfacet
   facet normal -1.000000e+000 0.000000e+000 0.000000e+000
      outer loop
         vertex 0.000000e+000 1.271929e-001 2.308053e-001
         vertex 0.000000e+000 1.277659e-001 2.329437e-001
         vertex 0.000000e+000 1.270000e-001 2.286000e-001
      endloop
   endfacet
   facet normal -1.000000e+000 0.000000e+000 0.000000e+000
      outer loop
         vertex 0.000000e+000 1.270000e-001 2.286000e-001
         vertex 0.000000e+000 1.277659e-001 2.329437e-001
         vertex 0.000000e+000 1.315366e-001 2.188712e-001
      endloop
   endfacet
   facet normal -1.000000e+000 0.000000e+000 0.000000e+000
      outer loop
         vertex 0.000000e+000 1.270000e-001 2.286000e-001
         vertex 0.000000e+000 1.315366e-001 2.188712e-001
         vertex 0.000000e+000 1.271929e-001 2.263947e-001
      endloop
   endfacet
   facet normal -1.000000e+000 0.000000e+000 0.000000e+000
      outer loop
         vertex 0.000000e+000 1.271929e-001 2.263947e-001
         vertex 0.000000e+000 1.315366e-001 2.188712e-001
         vertex 0.000000e+000 1.299712e-001 2.204366e-001
      endloop
   endfacet
   facet normal -1.000000e+000 0.000000e+000 0.000000e+000
      outer loop
         vertex 0.000000e+000 1.271929e-001 2.263947e-001
         vertex 0.000000e+000 1.299712e-001 2.204366e-001
         vertex 0.000000e+000 1.277659e-001 2.242564e-001
      endloop
   endfacet
   facet normal -1.000000e+000 0.000000e+000 0.000000e+000
      outer loop
         vertex 0.000000e+000 1.277659e-001 2.242564e-001
         vertex 0.000000e+000 1.299712e-001 2.204366e-001
         vertex 0.000000e+000 1.287015e-001 2.222500e-001
      endloop
   endfacet
   facet normal -1.000000e+000 0.000000e+000 0.000000e+000
      outer loop
         vertex 0.000000e+000 1.506985e-001 2.349500e-001
         vertex 0.000000e+000 1.516341e-001 2.329437e-001
         vertex 0.000000e+000 1.494288e-001 2.367634e-001
      endloop
   endfacet
   facet normal -1.000000e+000 0.000000e+000 0.000000e+000
      outer loop
         vertex 0.000000e+000 1.494288e-001 2.367634e-001
         vertex 0.000000e+000 1.516341e-001 2.329437e-001
         vertex 0.000000e+000 1.522071e-001 2.308053e-001
      endloop
   endfacet
   facet normal -1.000000e+000 0.000000e+000 0.000000e+000
      outer loop
         vertex 0.000000e+000 1.494288e-001 2.367634e-001
         vertex 0.000000e+000 1.522071e-001 2.308053e-001
         vertex 0.000000e+000 1.478634e-001 2.383288e-001
      endloop
   endfacet
   facet normal -1.000000e+000 0.000000e+000 0.000000e+000
      outer loop
         vertex 0.000000e+000 1.478634e-001 2.383288e-001
         vertex 0.000000e+000 1.522071e-001 2.308053e-001
         vertex 0.000000e+000 1.460500e-001 2.395985e-001
      endloop
   endfacet
endsolid
