solid water
   facet normal -1.000000e+000 0.000000e+000 0.000000e+000
      outer loop
         vertex 0.000000e+000 0.000000e+000 3.048000e-001
         vertex 0.000000e+000 1.270000e-001 2.286000e-001
         vertex 0.000000e+000 1.271929e-001 2.263947e-001
      endloop
   endfacet
   facet normal -1.000000e+000 0.000000e+000 0.000000e+000
      outer loop
         vertex 0.000000e+000 0.000000e+000 3.048000e-001
         vertex 0.000000e+000 1.271929e-001 2.263947e-001
         vertex 0.000000e+000 0.000000e+000 0.000000e+000
      endloop
   endfacet
   facet normal -1.000000e+000 0.000000e+000 0.000000e+000
      outer loop
         vertex 0.000000e+000 1.271929e-001 2.263947e-001
         vertex 0.000000e+000 1.277659e-001 2.242564e-001
         vertex 0.000000e+000 0.000000e+000 0.000000e+000
      endloop
   endfacet
   facet normal -1.000000e+000 0.000000e+000 0.000000e+000
      outer loop
         vertex 0.000000e+000 0.000000e+000 0.000000e+000
         vertex 0.000000e+000 1.277659e-001 2.242564e-001
         vertex 0.000000e+000 1.287015e-001 2.222500e-001
      endloop
   endfacet
   facet normal -1.000000e+000 0.000000e+000 0.000000e+000
      outer loop
         vertex 0.000000e+000 0.000000e+000 0.000000e+000
         vertex 0.000000e+000 1.287015e-001 2.222500e-001
         vertex 0.000000e+000 1.299712e-001 2.204366e-001
      endloop
   endfacet
   facet normal -1.000000e+000 0.000000e+000 0.000000e+000
      outer loop
         vertex 0.000000e+000 1.353563e-001 2.405341e-001
         vertex 0.000000e+000 1.333500e-001 2.395985e-001
         vertex 0.000000e+000 0.000000e+000 3.048000e-001
      endloop
   endfacet
   facet normal -1.000000e+000 0.000000e+000 0.000000e+000
      outer loop
         vertex 0.000000e+000 1.299712e-001 2.204366e-001
         vertex 0.000000e+000 1.315366e-001 2.188712e-001
         vertex 0.000000e+000 0.000000e+000 0.000000e+000
      endloop
   endfacet
   facet normal -1.000000e+000 0.000000e+000 0.000000e+000
      outer loop
         vertex 0.000000e+000 0.000000e+000 0.000000e+000
         vertex 0.000000e+000 1.315366e-001 2.188712e-001
         vertex 0.000000e+000 1.333500e-001 2.176015e-001
      endloop
   endfacet
   facet normal -1.000000e+000 0.000000e+000 0.000000e+000
      outer loop
         vertex 0.000000e+000 0.000000e+000 0.000000e+000
         vertex 0.000000e+000 1.333500e-001 2.176015e-001
         vertex 0.000000e+000 1.353563e-001 2.166659e-001
      endloop
   endfacet
   facet normal -1.000000e+000 0.000000e+000 0.000000e+000
      outer loop
         vertex 0.000000e+000 1.440437e-001 2.166659e-001
         vertex 0.000000e+000 1.460500e-001 2.176015e-001
         vertex 0.000000e+000 2.794000e-001 0.000000e+000
      endloop
   endfacet
   facet normal -1.000000e+000 0.000000e+000 0.000000e+000
      outer loop
         vertex 0.000000e+000 2.794000e-001 0.000000e+000
         vertex 0.000000e+000 1.460500e-001 2.176015e-001
         vertex 0.000000e+000 1.478634e-001 2.188712e-001
      endloop
   endfacet
   facet normal -1.000000e+000 0.000000e+000 0.000000e+000
      outer loop
         vertex 0.000000e+000 2.794000e-001 0.000000e+000
         vertex 0.000000e+000 1.478634e-001 2.188712e-001
         vertex 0.000000e+000 1.494288e-001 2.204366e-001
      endloop
   endfacet
   facet normal -1.000000e+000 0.000000e+000 0.000000e+000
      outer loop
         vertex 0.000000e+000 2.794000e-001 3.048000e-001
         vertex 0.000000e+000 1.506985e-001 2.349500e-001
         vertex 0.000000e+000 1.494288e-001 2.367634e-001
      endloop
   endfacet
   facet normal -1.000000e+000 0.000000e+000 0.000000e+000
      outer loop
         vertex 0.000000e+000 1.353563e-001 2.166659e-001
         vertex 0.000000e+000 1.374947e-001 2.160929e-001
         vertex 0.000000e+000 0.000000e+000 0.000000e+000
      endloop
   endfacet
   facet normal -1.000000e+000 0.000000e+000 0.000000e+000
      outer loop
         vertex 0.000000e+000 0.000000e+000 0.000000e+000
         vertex 0.000000e+000 1.374947e-001 2.160929e-001
         vertex 0.000000e+000 1.397000e-001 2.159000e-001
      endloop
   endfacet
   facet normal -1.000000e+000 0.000000e+000 0.000000e+000
      outer loop
         vertex 0.000000e+000 0.000000e+000 0.000000e+000
         vertex 0.000000e+000 1.397000e-001 2.159000e-001
         vertex 0.000000e+000 2.794000e-001 0.000000e+000
      endloop
   endfacet
   facet normal -1.000000e+000 0.000000e+000 0.000000e+000
      outer loop
         vertex 0.000000e+000 2.794000e-001 0.000000e+000
         vertex 0.000000e+000 1.397000e-001 2.159000e-001
         vertex 0.000000e+000 1.419053e-001 2.160929e-001
      endloop
   endfacet
   facet normal -1.000000e+000 0.000000e+000 0.000000e+000
      outer loop
         vertex 0.000000e+000 2.794000e-001 0.000000e+000
         vertex 0.000000e+000 1.419053e-001 2.160929e-001
         vertex 0.000000e+000 1.440437e-001 2.166659e-001
      endloop
   endfacet
   facet normal -1.000000e+000 0.000000e+000 0.000000e+000
      outer loop
         vertex 0.000000e+000 1.494288e-001 2.204366e-001
         vertex 0.000000e+000 1.506985e-001 2.222500e-001
         vertex 0.000000e+000 2.794000e-001 0.000000e+000
      endloop
   endfacet
   facet normal -1.000000e+000 0.000000e+000 0.000000e+000
      outer loop
         vertex 0.000000e+000 2.794000e-001 0.000000e+000
         vertex 0.000000e+000 1.506985e-001 2.222500e-001
         vertex 0.000000e+000 1.516341e-001 2.242564e-001
      endloop
   endfacet
   facet normal -1.000000e+000 0.000000e+000 0.000000e+000
      outer loop
         vertex 0.000000e+000 2.794000e-001 0.000000e+000
         vertex 0.000000e+000 1.516341e-001 2.242564e-001
         vertex 0.000000e+000 2.794000e-001 3.048000e-001
      endloop
   endfacet
   facet normal -1.000000e+000 0.000000e+000 0.000000e+000
      outer loop
         vertex 0.000000e+000 2.794000e-001 3.048000e-001
         vertex 0.000000e+000 1.516341e-001 2.242564e-001
         vertex 0.000000e+000 1.522071e-001 2.263947e-001
      endloop
   endfacet
   facet normal -1.000000e+000 0.000000e+000 0.000000e+000
      outer loop
         vertex 0.000000e+000 2.794000e-001 3.048000e-001
         vertex 0.000000e+000 1.522071e-001 2.263947e-001
         vertex 0.000000e+000 1.524000e-001 2.286000e-001
      endloop
   endfacet
   facet normal -1.000000e+000 0.000000e+000 0.000000e+000
      outer loop
         vertex 0.000000e+000 1.524000e-001 2.286000e-001
         vertex 0.000000e+000 1.522071e-001 2.308053e-001
         vertex 0.000000e+000 2.794000e-001 3.048000e-001
      endloop
   endfacet
   facet normal -1.000000e+000 0.000000e+000 0.000000e+000
      outer loop
         vertex 0.000000e+000 2.794000e-001 3.048000e-001
         vertex 0.000000e+000 1.522071e-001 2.308053e-001
         vertex 0.000000e+000 1.516341e-001 2.329437e-001
      endloop
   endfacet
   facet normal -1.000000e+000 0.000000e+000 0.000000e+000
      outer loop
         vertex 0.000000e+000 2.794000e-001 3.048000e-001
         vertex 0.000000e+000 1.516341e-001 2.329437e-001
         vertex 0.000000e+000 1.506985e-001 2.349500e-001
      endloop
   endfacet
   facet normal -1.000000e+000 0.000000e+000 0.000000e+000
      outer loop
         vertex 0.000000e+000 1.494288e-001 2.367634e-001
         vertex 0.000000e+000 1.478634e-001 2.383288e-001
         vertex 0.000000e+000 2.794000e-001 3.048000e-001
      endloop
   endfacet
   facet normal -1.000000e+000 0.000000e+000 0.000000e+000
      outer loop
         vertex 0.000000e+000 2.794000e-001 3.048000e-001
         vertex 0.000000e+000 1.478634e-001 2.383288e-001
         vertex 0.000000e+000 1.460500e-001 2.395985e-001
      endloop
   endfacet
   facet normal -1.000000e+000 0.000000e+000 0.000000e+000
      outer loop
         vertex 0.000000e+000 2.794000e-001 3.048000e-001
         vertex 0.000000e+000 1.460500e-001 2.395985e-001
         vertex 0.000000e+000 1.440437e-001 2.405341e-001
      endloop
   endfacet
   facet normal -1.000000e+000 0.000000e+000 0.000000e+000
      outer loop
         vertex 0.000000e+000 1.333500e-001 2.395985e-001
         vertex 0.000000e+000 1.315366e-001 2.383288e-001
         vertex 0.000000e+000 0.000000e+000 3.048000e-001
      endloop
   endfacet
   facet normal -1.000000e+000 0.000000e+000 0.000000e+000
      outer loop
         vertex 0.000000e+000 0.000000e+000 3.048000e-001
         vertex 0.000000e+000 1.315366e-001 2.383288e-001
         vertex 0.000000e+000 1.299712e-001 2.367634e-001
      endloop
   endfacet
   facet normal -1.000000e+000 0.000000e+000 0.000000e+000
      outer loop
         vertex 0.000000e+000 0.000000e+000 3.048000e-001
         vertex 0.000000e+000 1.299712e-001 2.367634e-001
         vertex 0.000000e+000 1.287015e-001 2.349500e-001
      endloop
   endfacet
   facet normal -1.000000e+000 0.000000e+000 0.000000e+000
      outer loop
         vertex 0.000000e+000 1.287015e-001 2.349500e-001
         vertex 0.000000e+000 1.277659e-001 2.329437e-001
         vertex 0.000000e+000 0.000000e+000 3.048000e-001
      endloop
   endfacet
   facet normal -1.000000e+000 0.000000e+000 0.000000e+000
      outer loop
         vertex 0.000000e+000 0.000000e+000 3.048000e-001
         vertex 0.000000e+000 1.277659e-001 2.329437e-001
         vertex 0.000000e+000 1.271929e-001 2.308053e-001
      endloop
   endfacet
   facet normal -1.000000e+000 0.000000e+000 0.000000e+000
      outer loop
         vertex 0.000000e+000 0.000000e+000 3.048000e-001
         vertex 0.000000e+000 1.271929e-001 2.308053e-001
         vertex 0.000000e+000 1.270000e-001 2.286000e-001
      endloop
   endfacet
   facet normal -1.000000e+000 0.000000e+000 0.000000e+000
      outer loop
         vertex 0.000000e+000 1.440437e-001 2.405341e-001
         vertex 0.000000e+000 1.419053e-001 2.411071e-001
         vertex 0.000000e+000 2.794000e-001 3.048000e-001
      endloop
   endfacet
   facet normal -1.000000e+000 0.000000e+000 0.000000e+000
      outer loop
         vertex 0.000000e+000 2.794000e-001 3.048000e-001
         vertex 0.000000e+000 1.419053e-001 2.411071e-001
         vertex 0.000000e+000 1.397000e-001 2.413000e-001
      endloop
   endfacet
   facet normal -1.000000e+000 0.000000e+000 0.000000e+000
      outer loop
         vertex 0.000000e+000 2.794000e-001 3.048000e-001
         vertex 0.000000e+000 1.397000e-001 2.413000e-001
         vertex 0.000000e+000 0.000000e+000 3.048000e-001
      endloop
   endfacet
   facet normal -1.000000e+000 0.000000e+000 0.000000e+000
      outer loop
         vertex 0.000000e+000 0.000000e+000 3.048000e-001
         vertex 0.000000e+000 1.397000e-001 2.413000e-001
         vertex 0.000000e+000 1.374947e-001 2.411071e-001
      endloop
   endfacet
   facet normal -1.000000e+000 0.000000e+000 0.000000e+000
      outer loop
         vertex 0.000000e+000 0.000000e+000 3.048000e-001
         vertex 0.000000e+000 1.374947e-001 2.411071e-001
         vertex 0.000000e+000 1.353563e-001 2.405341e-001
      endloop
   endfacet
   facet normal 0.000000e+000 0.000000e+000 -1.000000e+000
      outer loop
         vertex 1.353563e-001 1.516341e-001 0.000000e+000
         vertex 1.333500e-001 1.506985e-001 0.000000e+000
         vertex 0.000000e+000 2.794000e-001 0.000000e+000
      endloop
   endfacet
   facet normal 0.000000e+000 0.000000e+000 -1.000000e+000
      outer loop
         vertex 0.000000e+000 2.794000e-001 0.000000e+000
         vertex 1.333500e-001 1.506985e-001 0.000000e+000
         vertex 1.315366e-001 1.494288e-001 0.000000e+000
      endloop
   endfacet
   facet normal 0.000000e+000 0.000000e+000 -1.000000e+000
      outer loop
         vertex 1.315366e-001 1.494288e-001 0.000000e+000
         vertex 1.299712e-001 1.478634e-001 0.000000e+000
         vertex 0.000000e+000 2.794000e-001 0.000000e+000
      endloop
   endfacet
   facet normal 0.000000e+000 0.000000e+000 -1.000000e+000
      outer loop
         vertex 0.000000e+000 2.794000e-001 0.000000e+000
         vertex 1.299712e-001 1.478634e-001 0.000000e+000
         vertex 1.287015e-001 1.460500e-001 0.000000e+000
      endloop
   endfacet
   facet normal 0.000000e+000 0.000000e+000 -1.000000e+000
      outer loop
         vertex 0.000000e+000 2.794000e-001 0.000000e+000
         vertex 1.287015e-001 1.460500e-001 0.000000e+000
         vertex 1.277659e-001 1.440437e-001 0.000000e+000
      endloop
   endfacet
   facet normal 0.000000e+000 0.000000e+000 -1.000000e+000
      outer loop
         vertex 1.277659e-001 1.353563e-001 0.000000e+000
         vertex 1.287015e-001 1.333500e-001 0.000000e+000
         vertex 0.000000e+000 0.000000e+000 0.000000e+000
      endloop
   endfacet
   facet normal 0.000000e+000 0.000000e+000 -1.000000e+000
      outer loop
         vertex 0.000000e+000 0.000000e+000 0.000000e+000
         vertex 1.287015e-001 1.333500e-001 0.000000e+000
         vertex 1.299712e-001 1.315366e-001 0.000000e+000
      endloop
   endfacet
   facet normal 0.000000e+000 0.000000e+000 -1.000000e+000
      outer loop
         vertex 1.299712e-001 1.315366e-001 0.000000e+000
         vertex 1.315366e-001 1.299712e-001 0.000000e+000
         vertex 0.000000e+000 0.000000e+000 0.000000e+000
      endloop
   endfacet
   facet normal 0.000000e+000 0.000000e+000 -1.000000e+000
      outer loop
         vertex 0.000000e+000 0.000000e+000 0.000000e+000
         vertex 1.315366e-001 1.299712e-001 0.000000e+000
         vertex 1.333500e-001 1.287015e-001 0.000000e+000
      endloop
   endfacet
   facet normal 0.000000e+000 0.000000e+000 -1.000000e+000
      outer loop
         vertex 0.000000e+000 0.000000e+000 0.000000e+000
         vertex 1.333500e-001 1.287015e-001 0.000000e+000
         vertex 1.353563e-001 1.277659e-001 0.000000e+000
      endloop
   endfacet
   facet normal 0.000000e+000 0.000000e+000 -1.000000e+000
      outer loop
         vertex 1.440437e-001 1.277659e-001 0.000000e+000
         vertex 1.460500e-001 1.287015e-001 0.000000e+000
         vertex 2.794000e-001 0.000000e+000 0.000000e+000
      endloop
   endfacet
   facet normal 0.000000e+000 0.000000e+000 -1.000000e+000
      outer loop
         vertex 2.794000e-001 0.000000e+000 0.000000e+000
         vertex 1.460500e-001 1.287015e-001 0.000000e+000
         vertex 1.478634e-001 1.299712e-001 0.000000e+000
      endloop
   endfacet
   facet normal 0.000000e+000 0.000000e+000 -1.000000e+000
      outer loop
         vertex 1.516341e-001 1.440437e-001 0.000000e+000
         vertex 1.506985e-001 1.460500e-001 0.000000e+000
         vertex 2.794000e-001 2.794000e-001 0.000000e+000
      endloop
   endfacet
   facet normal 0.000000e+000 0.000000e+000 -1.000000e+000
      outer loop
         vertex 2.794000e-001 2.794000e-001 0.000000e+000
         vertex 1.506985e-001 1.460500e-001 0.000000e+000
         vertex 1.494288e-001 1.478634e-001 0.000000e+000
      endloop
   endfacet
   facet normal 0.000000e+000 0.000000e+000 -1.000000e+000
      outer loop
         vertex 1.277659e-001 1.440437e-001 0.000000e+000
         vertex 1.271929e-001 1.419053e-001 0.000000e+000
         vertex 0.000000e+000 2.794000e-001 0.000000e+000
      endloop
   endfacet
   facet normal 0.000000e+000 0.000000e+000 -1.000000e+000
      outer loop
         vertex 0.000000e+000 2.794000e-001 0.000000e+000
         vertex 1.271929e-001 1.419053e-001 0.000000e+000
         vertex 1.270000e-001 1.397000e-001 0.000000e+000
      endloop
   endfacet
   facet normal 0.000000e+000 0.000000e+000 -1.000000e+000
      outer loop
         vertex 0.000000e+000 2.794000e-001 0.000000e+000
         vertex 1.270000e-001 1.397000e-001 0.000000e+000
         vertex 0.000000e+000 0.000000e+000 0.000000e+000
      endloop
   endfacet
   facet normal 0.000000e+000 0.000000e+000 -1.000000e+000
      outer loop
         vertex 0.000000e+000 0.000000e+000 0.000000e+000
         vertex 1.270000e-001 1.397000e-001 0.000000e+000
         vertex 1.271929e-001 1.374947e-001 0.000000e+000
      endloop
   endfacet
   facet normal 0.000000e+000 0.000000e+000 -1.000000e+000
      outer loop
         vertex 0.000000e+000 0.000000e+000 0.000000e+000
         vertex 1.271929e-001 1.374947e-001 0.000000e+000
         vertex 1.277659e-001 1.353563e-001 0.000000e+000
      endloop
   endfacet
   facet normal 0.000000e+000 0.000000e+000 -1.000000e+000
      outer loop
         vertex 1.478634e-001 1.299712e-001 0.000000e+000
         vertex 1.494288e-001 1.315366e-001 0.000000e+000
         vertex 2.794000e-001 0.000000e+000 0.000000e+000
      endloop
   endfacet
   facet normal 0.000000e+000 0.000000e+000 -1.000000e+000
      outer loop
         vertex 2.794000e-001 0.000000e+000 0.000000e+000
         vertex 1.494288e-001 1.315366e-001 0.000000e+000
         vertex 1.506985e-001 1.333500e-001 0.000000e+000
      endloop
   endfacet
   facet normal 0.000000e+000 0.000000e+000 -1.000000e+000
      outer loop
         vertex 2.794000e-001 0.000000e+000 0.000000e+000
         vertex 1.506985e-001 1.333500e-001 0.000000e+000
         vertex 1.516341e-001 1.353563e-001 0.000000e+000
      endloop
   endfacet
   facet normal 0.000000e+000 0.000000e+000 -1.000000e+000
      outer loop
         vertex 1.494288e-001 1.478634e-001 0.000000e+000
         vertex 1.478634e-001 1.494288e-001 0.000000e+000
         vertex 2.794000e-001 2.794000e-001 0.000000e+000
      endloop
   endfacet
   facet normal 0.000000e+000 0.000000e+000 -1.000000e+000
      outer loop
         vertex 2.794000e-001 2.794000e-001 0.000000e+000
         vertex 1.478634e-001 1.494288e-001 0.000000e+000
         vertex 1.460500e-001 1.506985e-001 0.000000e+000
      endloop
   endfacet
   facet normal 0.000000e+000 0.000000e+000 -1.000000e+000
      outer loop
         vertex 2.794000e-001 2.794000e-001 0.000000e+000
         vertex 1.460500e-001 1.506985e-001 0.000000e+000
         vertex 1.440437e-001 1.516341e-001 0.000000e+000
      endloop
   endfacet
   facet normal 0.000000e+000 0.000000e+000 -1.000000e+000
      outer loop
         vertex 1.440437e-001 1.516341e-001 0.000000e+000
         vertex 1.419053e-001 1.522071e-001 0.000000e+000
         vertex 2.794000e-001 2.794000e-001 0.000000e+000
      endloop
   endfacet
   facet normal 0.000000e+000 0.000000e+000 -1.000000e+000
      outer loop
         vertex 2.794000e-001 2.794000e-001 0.000000e+000
         vertex 1.419053e-001 1.522071e-001 0.000000e+000
         vertex 1.397000e-001 1.524000e-001 0.000000e+000
      endloop
   endfacet
   facet normal 0.000000e+000 0.000000e+000 -1.000000e+000
      outer loop
         vertex 2.794000e-001 2.794000e-001 0.000000e+000
         vertex 1.397000e-001 1.524000e-001 0.000000e+000
         vertex 0.000000e+000 2.794000e-001 0.000000e+000
      endloop
   endfacet
   facet normal 0.000000e+000 0.000000e+000 -1.000000e+000
      outer loop
         vertex 0.000000e+000 2.794000e-001 0.000000e+000
         vertex 1.397000e-001 1.524000e-001 0.000000e+000
         vertex 1.374947e-001 1.522071e-001 0.000000e+000
      endloop
   endfacet
   facet normal 0.000000e+000 0.000000e+000 -1.000000e+000
      outer loop
         vertex 0.000000e+000 2.794000e-001 0.000000e+000
         vertex 1.374947e-001 1.522071e-001 0.000000e+000
         vertex 1.353563e-001 1.516341e-001 0.000000e+000
      endloop
   endfacet
   facet normal 0.000000e+000 0.000000e+000 -1.000000e+000
      outer loop
         vertex 1.353563e-001 1.277659e-001 0.000000e+000
         vertex 1.374947e-001 1.271929e-001 0.000000e+000
         vertex 0.000000e+000 0.000000e+000 0.000000e+000
      endloop
   endfacet
   facet normal 0.000000e+000 0.000000e+000 -1.000000e+000
      outer loop
         vertex 0.000000e+000 0.000000e+000 0.000000e+000
         vertex 1.374947e-001 1.271929e-001 0.000000e+000
         vertex 1.397000e-001 1.270000e-001 0.000000e+000
      endloop
   endfacet
   facet normal 0.000000e+000 0.000000e+000 -1.000000e+000
      outer loop
         vertex 0.000000e+000 0.000000e+000 0.000000e+000
         vertex 1.397000e-001 1.270000e-001 0.000000e+000
         vertex 2.794000e-001 0.000000e+000 0.000000e+000
      endloop
   endfacet
   facet normal 0.000000e+000 0.000000e+000 -1.000000e+000
      outer loop
         vertex 2.794000e-001 0.000000e+000 0.000000e+000
         vertex 1.397000e-001 1.270000e-001 0.000000e+000
         vertex 1.419053e-001 1.271929e-001 0.000000e+000
      endloop
   endfacet
   facet normal 0.000000e+000 0.000000e+000 -1.000000e+000
      outer loop
         vertex 2.794000e-001 0.000000e+000 0.000000e+000
         vertex 1.419053e-001 1.271929e-001 0.000000e+000
         vertex 1.440437e-001 1.277659e-001 0.000000e+000
      endloop
   endfacet
   facet normal 0.000000e+000 0.000000e+000 -1.000000e+000
      outer loop
         vertex 1.516341e-001 1.353563e-001 0.000000e+000
         vertex 1.522071e-001 1.374947e-001 0.000000e+000
         vertex 2.794000e-001 0.000000e+000 0.000000e+000
      endloop
   endfacet
   facet normal 0.000000e+000 0.000000e+000 -1.000000e+000
      outer loop
         vertex 2.794000e-001 0.000000e+000 0.000000e+000
         vertex 1.522071e-001 1.374947e-001 0.000000e+000
         vertex 1.524000e-001 1.397000e-001 0.000000e+000
      endloop
   endfacet
   facet normal 0.000000e+000 0.000000e+000 -1.000000e+000
      outer loop
         vertex 2.794000e-001 0.000000e+000 0.000000e+000
         vertex 1.524000e-001 1.397000e-001 0.000000e+000
         vertex 2.794000e-001 2.794000e-001 0.000000e+000
      endloop
   endfacet
   facet normal 0.000000e+000 0.000000e+000 -1.000000e+000
      outer loop
         vertex 2.794000e-001 2.794000e-001 0.000000e+000
         vertex 1.524000e-001 1.397000e-001 0.000000e+000
         vertex 1.522071e-001 1.419053e-001 0.000000e+000
      endloop
   endfacet
   facet normal 0.000000e+000 0.000000e+000 -1.000000e+000
      outer loop
         vertex 2.794000e-001 2.794000e-001 0.000000e+000
         vertex 1.522071e-001 1.419053e-001 0.000000e+000
         vertex 1.516341e-001 1.440437e-001 0.000000e+000
      endloop
   endfacet
   facet normal 0.000000e+000 0.000000e+000 1.000000e+000
      outer loop
         vertex 2.794000e-001 2.794000e-001 3.048000e-001
         vertex 0.000000e+000 2.794000e-001 3.048000e-001
         vertex 2.794000e-001 0.000000e+000 3.048000e-001
      endloop
   endfacet
   facet normal 0.000000e+000 0.000000e+000 1.000000e+000
      outer loop
         vertex 2.794000e-001 0.000000e+000 3.048000e-001
         vertex 0.000000e+000 2.794000e-001 3.048000e-001
         vertex 0.000000e+000 0.000000e+000 3.048000e-001
      endloop
   endfacet
   facet normal 1.000000e+000 0.000000e+000 0.000000e+000
      outer loop
         vertex 2.794000e-001 2.794000e-001 0.000000e+000
         vertex 2.794000e-001 2.794000e-001 3.048000e-001
         vertex 2.794000e-001 0.000000e+000 0.000000e+000
      endloop
   endfacet
   facet normal 1.000000e+000 0.000000e+000 0.000000e+000
      outer loop
         vertex 2.794000e-001 0.000000e+000 0.000000e+000
         vertex 2.794000e-001 2.794000e-001 3.048000e-001
         vertex 2.794000e-001 0.000000e+000 3.048000e-001
      endloop
   endfacet
   facet normal 0.000000e+000 1.000000e+000 0.000000e+000
      outer loop
         vertex 2.794000e-001 2.794000e-001 3.048000e-001
         vertex 2.794000e-001 2.794000e-001 0.000000e+000
         vertex 0.000000e+000 2.794000e-001 3.048000e-001
      endloop
   endfacet
   facet normal 0.000000e+000 1.000000e+000 0.000000e+000
      outer loop
         vertex 0.000000e+000 2.794000e-001 3.048000e-001
         vertex 2.794000e-001 2.794000e-001 0.000000e+000
         vertex 0.000000e+000 2.794000e-001 0.000000e+000
      endloop
   endfacet
   facet normal 0.000000e+000 -1.000000e+000 0.000000e+000
      outer loop
         vertex 2.794000e-001 0.000000e+000 0.000000e+000
         vertex 2.794000e-001 0.000000e+000 3.048000e-001
         vertex 0.000000e+000 0.000000e+000 0.000000e+000
      endloop
   endfacet
   facet normal 0.000000e+000 -1.000000e+000 0.000000e+000
      outer loop
         vertex 0.000000e+000 0.000000e+000 0.000000e+000
         vertex 2.794000e-001 0.000000e+000 3.048000e-001
         vertex 0.000000e+000 0.000000e+000 3.048000e-001
      endloop
   endfacet
   facet normal 5.807914e-002 -9.983120e-001 0.000000e+000
      outer loop
         vertex 1.419053e-001 1.271929e-001 -2.540000e-002
         vertex 1.397000e-001 1.270000e-001 0.000000e+000
         vertex 1.397000e-001 1.270000e-001 -2.540000e-002
      endloop
   endfacet
   facet normal -5.807914e-002 -9.983120e-001 0.000000e+000
      outer loop
         vertex 1.397000e-001 1.270000e-001 -2.540000e-002
         vertex 1.397000e-001 1.270000e-001 0.000000e+000
         vertex 1.374947e-001 1.271929e-001 0.000000e+000
      endloop
   endfacet
   facet normal -1.161583e-001 -9.932307e-001 0.000000e+000
      outer loop
         vertex 1.397000e-001 1.270000e-001 -2.540000e-002
         vertex 1.374947e-001 1.271929e-001 0.000000e+000
         vertex 1.374947e-001 1.271929e-001 -2.540000e-002
      endloop
   endfacet
   facet normal -2.305519e-001 -9.730600e-001 0.000000e+000
      outer loop
         vertex 1.374947e-001 1.271929e-001 -2.540000e-002
         vertex 1.374947e-001 1.271929e-001 0.000000e+000
         vertex 1.353563e-001 1.277659e-001 0.000000e+000
      endloop
   endfacet
   facet normal -2.868663e-001 -9.579706e-001 0.000000e+000
      outer loop
         vertex 1.374947e-001 1.271929e-001 -2.540000e-002
         vertex 1.353563e-001 1.277659e-001 0.000000e+000
         vertex 1.353563e-001 1.277659e-001 -2.540000e-002
      endloop
   endfacet
   facet normal -3.960194e-001 -9.182422e-001 0.000000e+000
      outer loop
         vertex 1.353563e-001 1.277659e-001 -2.540000e-002
         vertex 1.353563e-001 1.277659e-001 0.000000e+000
         vertex 1.333500e-001 1.287015e-001 0.000000e+000
      endloop
   endfacet
   facet normal -4.488580e-001 -8.936031e-001 0.000000e+000
      outer loop
         vertex 1.353563e-001 1.277659e-001 -2.540000e-002
         vertex 1.333500e-001 1.287015e-001 0.000000e+000
         vertex 1.333500e-001 1.287015e-001 -2.540000e-002
      endloop
   endfacet
   facet normal -5.494540e-001 -8.355240e-001 0.000000e+000
      outer loop
         vertex 1.333500e-001 1.287015e-001 -2.540000e-002
         vertex 1.333500e-001 1.287015e-001 0.000000e+000
         vertex 1.315366e-001 1.299712e-001 0.000000e+000
      endloop
   endfacet
   facet normal -5.972114e-001 -8.020839e-001 0.000000e+000
      outer loop
         vertex 1.333500e-001 1.287015e-001 -2.540000e-002
         vertex 1.315366e-001 1.299712e-001 0.000000e+000
         vertex 1.315366e-001 1.299712e-001 -2.540000e-002
      endloop
   endfacet
   facet normal -6.861938e-001 -7.274188e-001 0.000000e+000
      outer loop
         vertex 1.315366e-001 1.299712e-001 -2.540000e-002
         vertex 1.315366e-001 1.299712e-001 0.000000e+000
         vertex 1.299712e-001 1.315366e-001 0.000000e+000
      endloop
   endfacet
   facet normal -7.274188e-001 -6.861938e-001 0.000000e+000
      outer loop
         vertex 1.315366e-001 1.299712e-001 -2.540000e-002
         vertex 1.299712e-001 1.315366e-001 0.000000e+000
         vertex 1.299712e-001 1.315366e-001 -2.540000e-002
      endloop
   endfacet
   facet normal -8.020839e-001 -5.972114e-001 0.000000e+000
      outer loop
         vertex 1.299712e-001 1.315366e-001 -2.540000e-002
         vertex 1.299712e-001 1.315366e-001 0.000000e+000
         vertex 1.287015e-001 1.333500e-001 0.000000e+000
      endloop
   endfacet
   facet normal -8.355240e-001 -5.494540e-001 0.000000e+000
      outer loop
         vertex 1.299712e-001 1.315366e-001 -2.540000e-002
         vertex 1.287015e-001 1.333500e-001 0.000000e+000
         vertex 1.287015e-001 1.333500e-001 -2.540000e-002
      endloop
   endfacet
   facet normal -8.936031e-001 -4.488580e-001 0.000000e+000
      outer loop
         vertex 1.287015e-001 1.333500e-001 -2.540000e-002
         vertex 1.287015e-001 1.333500e-001 0.000000e+000
         vertex 1.277659e-001 1.353563e-001 0.000000e+000
      endloop
   endfacet
   facet normal -9.182422e-001 -3.960194e-001 0.000000e+000
      outer loop
         vertex 1.287015e-001 1.333500e-001 -2.540000e-002
         vertex 1.277659e-001 1.353563e-001 0.000000e+000
         vertex 1.277659e-001 1.353563e-001 -2.540000e-002
      endloop
   endfacet
   facet normal -9.579706e-001 -2.868663e-001 0.000000e+000
      outer loop
         vertex 1.277659e-001 1.353563e-001 -2.540000e-002
         vertex 1.277659e-001 1.353563e-001 0.000000e+000
         vertex 1.271929e-001 1.374947e-001 0.000000e+000
      endloop
   endfacet
   facet normal -9.730600e-001 -2.305519e-001 0.000000e+000
      outer loop
         vertex 1.277659e-001 1.353563e-001 -2.540000e-002
         vertex 1.271929e-001 1.374947e-001 0.000000e+000
         vertex 1.271929e-001 1.374947e-001 -2.540000e-002
      endloop
   endfacet
   facet normal -9.932307e-001 -1.161583e-001 0.000000e+000
      outer loop
         vertex 1.271929e-001 1.374947e-001 -2.540000e-002
         vertex 1.271929e-001 1.374947e-001 0.000000e+000
         vertex 1.270000e-001 1.397000e-001 0.000000e+000
      endloop
   endfacet
   facet normal -9.983120e-001 -5.807914e-002 0.000000e+000
      outer loop
         vertex 1.271929e-001 1.374947e-001 -2.540000e-002
         vertex 1.270000e-001 1.397000e-001 0.000000e+000
         vertex 1.270000e-001 1.397000e-001 -2.540000e-002
      endloop
   endfacet
   facet normal -9.983120e-001 5.807914e-002 0.000000e+000
      outer loop
         vertex 1.270000e-001 1.397000e-001 -2.540000e-002
         vertex 1.270000e-001 1.397000e-001 0.000000e+000
         vertex 1.271929e-001 1.419053e-001 0.000000e+000
      endloop
   endfacet
   facet normal -9.932307e-001 1.161583e-001 0.000000e+000
      outer loop
         vertex 1.270000e-001 1.397000e-001 -2.540000e-002
         vertex 1.271929e-001 1.419053e-001 0.000000e+000
         vertex 1.271929e-001 1.419053e-001 -2.540000e-002
      endloop
   endfacet
   facet normal -9.730600e-001 2.305519e-001 0.000000e+000
      outer loop
         vertex 1.271929e-001 1.419053e-001 -2.540000e-002
         vertex 1.271929e-001 1.419053e-001 0.000000e+000
         vertex 1.277659e-001 1.440437e-001 0.000000e+000
      endloop
   endfacet
   facet normal -9.579706e-001 2.868663e-001 0.000000e+000
      outer loop
         vertex 1.271929e-001 1.419053e-001 -2.540000e-002
         vertex 1.277659e-001 1.440437e-001 0.000000e+000
         vertex 1.277659e-001 1.440437e-001 -2.540000e-002
      endloop
   endfacet
   facet normal -9.182422e-001 3.960194e-001 0.000000e+000
      outer loop
         vertex 1.277659e-001 1.440437e-001 -2.540000e-002
         vertex 1.277659e-001 1.440437e-001 0.000000e+000
         vertex 1.287015e-001 1.460500e-001 0.000000e+000
      endloop
   endfacet
   facet normal -8.936031e-001 4.488580e-001 0.000000e+000
      outer loop
         vertex 1.277659e-001 1.440437e-001 -2.540000e-002
         vertex 1.287015e-001 1.460500e-001 0.000000e+000
         vertex 1.287015e-001 1.460500e-001 -2.540000e-002
      endloop
   endfacet
   facet normal -8.355240e-001 5.494540e-001 0.000000e+000
      outer loop
         vertex 1.287015e-001 1.460500e-001 -2.540000e-002
         vertex 1.287015e-001 1.460500e-001 0.000000e+000
         vertex 1.299712e-001 1.478634e-001 0.000000e+000
      endloop
   endfacet
   facet normal -8.020839e-001 5.972114e-001 0.000000e+000
      outer loop
         vertex 1.287015e-001 1.460500e-001 -2.540000e-002
         vertex 1.299712e-001 1.478634e-001 0.000000e+000
         vertex 1.299712e-001 1.478634e-001 -2.540000e-002
      endloop
   endfacet
   facet normal -7.274188e-001 6.861938e-001 0.000000e+000
      outer loop
         vertex 1.299712e-001 1.478634e-001 -2.540000e-002
         vertex 1.299712e-001 1.478634e-001 0.000000e+000
         vertex 1.315366e-001 1.494288e-001 0.000000e+000
      endloop
   endfacet
   facet normal -6.861938e-001 7.274188e-001 0.000000e+000
      outer loop
         vertex 1.299712e-001 1.478634e-001 -2.540000e-002
         vertex 1.315366e-001 1.494288e-001 0.000000e+000
         vertex 1.315366e-001 1.494288e-001 -2.540000e-002
      endloop
   endfacet
   facet normal -5.972114e-001 8.020839e-001 0.000000e+000
      outer loop
         vertex 1.315366e-001 1.494288e-001 -2.540000e-002
         vertex 1.315366e-001 1.494288e-001 0.000000e+000
         vertex 1.333500e-001 1.506985e-001 0.000000e+000
      endloop
   endfacet
   facet normal -5.494540e-001 8.355240e-001 0.000000e+000
      outer loop
         vertex 1.315366e-001 1.494288e-001 -2.540000e-002
         vertex 1.333500e-001 1.506985e-001 0.000000e+000
         vertex 1.333500e-001 1.506985e-001 -2.540000e-002
      endloop
   endfacet
   facet normal -4.488580e-001 8.936031e-001 0.000000e+000
      outer loop
         vertex 1.333500e-001 1.506985e-001 -2.540000e-002
         vertex 1.333500e-001 1.506985e-001 0.000000e+000
         vertex 1.353563e-001 1.516341e-001 0.000000e+000
      endloop
   endfacet
   facet normal -3.960194e-001 9.182422e-001 0.000000e+000
      outer loop
         vertex 1.333500e-001 1.506985e-001 -2.540000e-002
         vertex 1.353563e-001 1.516341e-001 0.000000e+000
         vertex 1.353563e-001 1.516341e-001 -2.540000e-002
      endloop
   endfacet
   facet normal -2.868663e-001 9.579706e-001 0.000000e+000
      outer loop
         vertex 1.353563e-001 1.516341e-001 -2.540000e-002
         vertex 1.353563e-001 1.516341e-001 0.000000e+000
         vertex 1.374947e-001 1.522071e-001 0.000000e+000
      endloop
   endfacet
   facet normal -2.305519e-001 9.730600e-001 0.000000e+000
      outer loop
         vertex 1.353563e-001 1.516341e-001 -2.540000e-002
         vertex 1.374947e-001 1.522071e-001 0.000000e+000
         vertex 1.374947e-001 1.522071e-001 -2.540000e-002
      endloop
   endfacet
   facet normal -1.161583e-001 9.932307e-001 0.000000e+000
      outer loop
         vertex 1.374947e-001 1.522071e-001 -2.540000e-002
         vertex 1.374947e-001 1.522071e-001 0.000000e+000
         vertex 1.397000e-001 1.524000e-001 0.000000e+000
      endloop
   endfacet
   facet normal -5.807914e-002 9.983120e-001 0.000000e+000
      outer loop
         vertex 1.374947e-001 1.522071e-001 -2.540000e-002
         vertex 1.397000e-001 1.524000e-001 0.000000e+000
         vertex 1.397000e-001 1.524000e-001 -2.540000e-002
      endloop
   endfacet
   facet normal 5.807914e-002 9.983120e-001 0.000000e+000
      outer loop
         vertex 1.397000e-001 1.524000e-001 -2.540000e-002
         vertex 1.397000e-001 1.524000e-001 0.000000e+000
         vertex 1.419053e-001 1.522071e-001 0.000000e+000
      endloop
   endfacet
   facet normal 1.161583e-001 9.932307e-001 0.000000e+000
      outer loop
         vertex 1.397000e-001 1.524000e-001 -2.540000e-002
         vertex 1.419053e-001 1.522071e-001 0.000000e+000
         vertex 1.419053e-001 1.522071e-001 -2.540000e-002
      endloop
   endfacet
   facet normal 2.305519e-001 9.730600e-001 0.000000e+000
      outer loop
         vertex 1.419053e-001 1.522071e-001 -2.540000e-002
         vertex 1.419053e-001 1.522071e-001 0.000000e+000
         vertex 1.440437e-001 1.516341e-001 0.000000e+000
      endloop
   endfacet
   facet normal 2.868663e-001 9.579706e-001 0.000000e+000
      outer loop
         vertex 1.419053e-001 1.522071e-001 -2.540000e-002
         vertex 1.440437e-001 1.516341e-001 0.000000e+000
         vertex 1.440437e-001 1.516341e-001 -2.540000e-002
      endloop
   endfacet
   facet normal 3.960194e-001 9.182422e-001 0.000000e+000
      outer loop
         vertex 1.440437e-001 1.516341e-001 -2.540000e-002
         vertex 1.440437e-001 1.516341e-001 0.000000e+000
         vertex 1.460500e-001 1.506985e-001 0.000000e+000
      endloop
   endfacet
   facet normal 4.488580e-001 8.936031e-001 0.000000e+000
      outer loop
         vertex 1.440437e-001 1.516341e-001 -2.540000e-002
         vertex 1.460500e-001 1.506985e-001 0.000000e+000
         vertex 1.460500e-001 1.506985e-001 -2.540000e-002
      endloop
   endfacet
   facet normal 5.494540e-001 8.355240e-001 0.000000e+000
      outer loop
         vertex 1.460500e-001 1.506985e-001 -2.540000e-002
         vertex 1.460500e-001 1.506985e-001 0.000000e+000
         vertex 1.478634e-001 1.494288e-001 0.000000e+000
      endloop
   endfacet
   facet normal 5.972114e-001 8.020839e-001 0.000000e+000
      outer loop
         vertex 1.460500e-001 1.506985e-001 -2.540000e-002
         vertex 1.478634e-001 1.494288e-001 0.000000e+000
         vertex 1.478634e-001 1.494288e-001 -2.540000e-002
      endloop
   endfacet
   facet normal 6.861938e-001 7.274188e-001 0.000000e+000
      outer loop
         vertex 1.478634e-001 1.494288e-001 -2.540000e-002
         vertex 1.478634e-001 1.494288e-001 0.000000e+000
         vertex 1.494288e-001 1.478634e-001 0.000000e+000
      endloop
   endfacet
   facet normal 7.274188e-001 6.861938e-001 0.000000e+000
      outer loop
         vertex 1.478634e-001 1.494288e-001 -2.540000e-002
         vertex 1.494288e-001 1.478634e-001 0.000000e+000
         vertex 1.494288e-001 1.478634e-001 -2.540000e-002
      endloop
   endfacet
   facet normal 8.020839e-001 5.972114e-001 0.000000e+000
      outer loop
         vertex 1.494288e-001 1.478634e-001 -2.540000e-002
         vertex 1.494288e-001 1.478634e-001 0.000000e+000
         vertex 1.506985e-001 1.460500e-001 0.000000e+000
      endloop
   endfacet
   facet normal 8.355240e-001 5.494540e-001 0.000000e+000
      outer loop
         vertex 1.494288e-001 1.478634e-001 -2.540000e-002
         vertex 1.506985e-001 1.460500e-001 0.000000e+000
         vertex 1.506985e-001 1.460500e-001 -2.540000e-002
      endloop
   endfacet
   facet normal 8.936031e-001 4.488580e-001 0.000000e+000
      outer loop
         vertex 1.506985e-001 1.460500e-001 -2.540000e-002
         vertex 1.506985e-001 1.460500e-001 0.000000e+000
         vertex 1.516341e-001 1.440437e-001 0.000000e+000
      endloop
   endfacet
   facet normal 9.182422e-001 3.960194e-001 0.000000e+000
      outer loop
         vertex 1.506985e-001 1.460500e-001 -2.540000e-002
         vertex 1.516341e-001 1.440437e-001 0.000000e+000
         vertex 1.516341e-001 1.440437e-001 -2.540000e-002
      endloop
   endfacet
   facet normal 9.579706e-001 2.868663e-001 0.000000e+000
      outer loop
         vertex 1.516341e-001 1.440437e-001 -2.540000e-002
         vertex 1.516341e-001 1.440437e-001 0.000000e+000
         vertex 1.522071e-001 1.419053e-001 0.000000e+000
      endloop
   endfacet
   facet normal 9.730600e-001 2.305519e-001 0.000000e+000
      outer loop
         vertex 1.516341e-001 1.440437e-001 -2.540000e-002
         vertex 1.522071e-001 1.419053e-001 0.000000e+000
         vertex 1.522071e-001 1.419053e-001 -2.540000e-002
      endloop
   endfacet
   facet normal 9.932307e-001 1.161583e-001 0.000000e+000
      outer loop
         vertex 1.522071e-001 1.419053e-001 -2.540000e-002
         vertex 1.522071e-001 1.419053e-001 0.000000e+000
         vertex 1.524000e-001 1.397000e-001 0.000000e+000
      endloop
   endfacet
   facet normal 9.983120e-001 5.807914e-002 0.000000e+000
      outer loop
         vertex 1.522071e-001 1.419053e-001 -2.540000e-002
         vertex 1.524000e-001 1.397000e-001 0.000000e+000
         vertex 1.524000e-001 1.397000e-001 -2.540000e-002
      endloop
   endfacet
   facet normal 9.983120e-001 -5.807914e-002 0.000000e+000
      outer loop
         vertex 1.524000e-001 1.397000e-001 -2.540000e-002
         vertex 1.524000e-001 1.397000e-001 0.000000e+000
         vertex 1.522071e-001 1.374947e-001 0.000000e+000
      endloop
   endfacet
   facet normal 9.932307e-001 -1.161583e-001 0.000000e+000
      outer loop
         vertex 1.524000e-001 1.397000e-001 -2.540000e-002
         vertex 1.522071e-001 1.374947e-001 0.000000e+000
         vertex 1.522071e-001 1.374947e-001 -2.540000e-002
      endloop
   endfacet
   facet normal 9.730600e-001 -2.305519e-001 0.000000e+000
      outer loop
         vertex 1.522071e-001 1.374947e-001 -2.540000e-002
         vertex 1.522071e-001 1.374947e-001 0.000000e+000
         vertex 1.516341e-001 1.353563e-001 0.000000e+000
      endloop
   endfacet
   facet normal 9.579706e-001 -2.868663e-001 0.000000e+000
      outer loop
         vertex 1.522071e-001 1.374947e-001 -2.540000e-002
         vertex 1.516341e-001 1.353563e-001 0.000000e+000
         vertex 1.516341e-001 1.353563e-001 -2.540000e-002
      endloop
   endfacet
   facet normal 9.182422e-001 -3.960194e-001 0.000000e+000
      outer loop
         vertex 1.516341e-001 1.353563e-001 -2.540000e-002
         vertex 1.516341e-001 1.353563e-001 0.000000e+000
         vertex 1.506985e-001 1.333500e-001 0.000000e+000
      endloop
   endfacet
   facet normal 8.936031e-001 -4.488580e-001 0.000000e+000
      outer loop
         vertex 1.516341e-001 1.353563e-001 -2.540000e-002
         vertex 1.506985e-001 1.333500e-001 0.000000e+000
         vertex 1.506985e-001 1.333500e-001 -2.540000e-002
      endloop
   endfacet
   facet normal 8.355240e-001 -5.494540e-001 0.000000e+000
      outer loop
         vertex 1.506985e-001 1.333500e-001 -2.540000e-002
         vertex 1.506985e-001 1.333500e-001 0.000000e+000
         vertex 1.494288e-001 1.315366e-001 0.000000e+000
      endloop
   endfacet
   facet normal 8.020839e-001 -5.972114e-001 0.000000e+000
      outer loop
         vertex 1.506985e-001 1.333500e-001 -2.540000e-002
         vertex 1.494288e-001 1.315366e-001 0.000000e+000
         vertex 1.494288e-001 1.315366e-001 -2.540000e-002
      endloop
   endfacet
   facet normal 7.274188e-001 -6.861938e-001 0.000000e+000
      outer loop
         vertex 1.494288e-001 1.315366e-001 -2.540000e-002
         vertex 1.494288e-001 1.315366e-001 0.000000e+000
         vertex 1.478634e-001 1.299712e-001 0.000000e+000
      endloop
   endfacet
   facet normal 6.861938e-001 -7.274188e-001 0.000000e+000
      outer loop
         vertex 1.494288e-001 1.315366e-001 -2.540000e-002
         vertex 1.478634e-001 1.299712e-001 0.000000e+000
         vertex 1.478634e-001 1.299712e-001 -2.540000e-002
      endloop
   endfacet
   facet normal 5.972114e-001 -8.020839e-001 0.000000e+000
      outer loop
         vertex 1.478634e-001 1.299712e-001 -2.540000e-002
         vertex 1.478634e-001 1.299712e-001 0.000000e+000
         vertex 1.460500e-001 1.287015e-001 0.000000e+000
      endloop
   endfacet
   facet normal 5.494540e-001 -8.355240e-001 0.000000e+000
      outer loop
         vertex 1.478634e-001 1.299712e-001 -2.540000e-002
         vertex 1.460500e-001 1.287015e-001 0.000000e+000
         vertex 1.460500e-001 1.287015e-001 -2.540000e-002
      endloop
   endfacet
   facet normal 4.488580e-001 -8.936031e-001 0.000000e+000
      outer loop
         vertex 1.460500e-001 1.287015e-001 -2.540000e-002
         vertex 1.460500e-001 1.287015e-001 0.000000e+000
         vertex 1.440437e-001 1.277659e-001 0.000000e+000
      endloop
   endfacet
   facet normal 3.960194e-001 -9.182422e-001 0.000000e+000
      outer loop
         vertex 1.460500e-001 1.287015e-001 -2.540000e-002
         vertex 1.440437e-001 1.277659e-001 0.000000e+000
         vertex 1.440437e-001 1.277659e-001 -2.540000e-002
      endloop
   endfacet
   facet normal 2.868663e-001 -9.579706e-001 0.000000e+000
      outer loop
         vertex 1.440437e-001 1.277659e-001 -2.540000e-002
         vertex 1.440437e-001 1.277659e-001 0.000000e+000
         vertex 1.419053e-001 1.271929e-001 0.000000e+000
      endloop
   endfacet
   facet normal 2.305519e-001 -9.730600e-001 0.000000e+000
      outer loop
         vertex 1.440437e-001 1.277659e-001 -2.540000e-002
         vertex 1.419053e-001 1.271929e-001 0.000000e+000
         vertex 1.419053e-001 1.271929e-001 -2.540000e-002
      endloop
   endfacet
   facet normal 1.161583e-001 -9.932307e-001 0.000000e+000
      outer loop
         vertex 1.419053e-001 1.271929e-001 -2.540000e-002
         vertex 1.419053e-001 1.271929e-001 0.000000e+000
         vertex 1.397000e-001 1.270000e-001 0.000000e+000
      endloop
   endfacet
   facet normal 0.000000e+000 0.000000e+000 -1.000000e+000
      outer loop
         vertex 1.460500e-001 1.506985e-001 -2.540000e-002
         vertex 1.353563e-001 1.277659e-001 -2.540000e-002
         vertex 1.440437e-001 1.516341e-001 -2.540000e-002
      endloop
   endfacet
   facet normal 0.000000e+000 0.000000e+000 -1.000000e+000
      outer loop
         vertex 1.440437e-001 1.516341e-001 -2.540000e-002
         vertex 1.353563e-001 1.277659e-001 -2.540000e-002
         vertex 1.333500e-001 1.287015e-001 -2.540000e-002
      endloop
   endfacet
   facet normal 0.000000e+000 0.000000e+000 -1.000000e+000
      outer loop
         vertex 1.277659e-001 1.440437e-001 -2.540000e-002
         vertex 1.287015e-001 1.460500e-001 -2.540000e-002
         vertex 1.440437e-001 1.516341e-001 -2.540000e-002
      endloop
   endfacet
   facet normal 0.000000e+000 0.000000e+000 -1.000000e+000
      outer loop
         vertex 1.440437e-001 1.516341e-001 -2.540000e-002
         vertex 1.287015e-001 1.460500e-001 -2.540000e-002
         vertex 1.299712e-001 1.478634e-001 -2.540000e-002
      endloop
   endfacet
   facet normal 0.000000e+000 0.000000e+000 -1.000000e+000
      outer loop
         vertex 1.506985e-001 1.460500e-001 -2.540000e-002
         vertex 1.516341e-001 1.440437e-001 -2.540000e-002
         vertex 1.494288e-001 1.478634e-001 -2.540000e-002
      endloop
   endfacet
   facet normal 0.000000e+000 0.000000e+000 -1.000000e+000
      outer loop
         vertex 1.494288e-001 1.478634e-001 -2.540000e-002
         vertex 1.516341e-001 1.440437e-001 -2.540000e-002
         vertex 1.353563e-001 1.277659e-001 -2.540000e-002
      endloop
   endfacet
   facet normal 0.000000e+000 0.000000e+000 -1.000000e+000
      outer loop
         vertex 1.494288e-001 1.478634e-001 -2.540000e-002
         vertex 1.353563e-001 1.277659e-001 -2.540000e-002
         vertex 1.478634e-001 1.494288e-001 -2.540000e-002
      endloop
   endfacet
   facet normal 0.000000e+000 0.000000e+000 -1.000000e+000
      outer loop
         vertex 1.478634e-001 1.494288e-001 -2.540000e-002
         vertex 1.353563e-001 1.277659e-001 -2.540000e-002
         vertex 1.460500e-001 1.506985e-001 -2.540000e-002
      endloop
   endfacet
   facet normal 0.000000e+000 0.000000e+000 -1.000000e+000
      outer loop
         vertex 1.522071e-001 1.374947e-001 -2.540000e-002
         vertex 1.516341e-001 1.353563e-001 -2.540000e-002
         vertex 1.524000e-001 1.397000e-001 -2.540000e-002
      endloop
   endfacet
   facet normal 0.000000e+000 0.000000e+000 -1.000000e+000
      outer loop
         vertex 1.524000e-001 1.397000e-001 -2.540000e-002
         vertex 1.516341e-001 1.353563e-001 -2.540000e-002
         vertex 1.353563e-001 1.277659e-001 -2.540000e-002
      endloop
   endfacet
   facet normal 0.000000e+000 0.000000e+000 -1.000000e+000
      outer loop
         vertex 1.524000e-001 1.397000e-001 -2.540000e-002
         vertex 1.353563e-001 1.277659e-001 -2.540000e-002
         vertex 1.522071e-001 1.419053e-001 -2.540000e-002
      endloop
   endfacet
   facet normal 0.000000e+000 0.000000e+000 -1.000000e+000
      outer loop
         vertex 1.522071e-001 1.419053e-001 -2.540000e-002
         vertex 1.353563e-001 1.277659e-001 -2.540000e-002
         vertex 1.516341e-001 1.440437e-001 -2.540000e-002
      endloop
   endfacet
   facet normal 0.000000e+000 0.000000e+000 -1.000000e+000
      outer loop
         vertex 1.374947e-001 1.271929e-001 -2.540000e-002
         vertex 1.353563e-001 1.277659e-001 -2.540000e-002
         vertex 1.397000e-001 1.270000e-001 -2.540000e-002
      endloop
   endfacet
   facet normal 0.000000e+000 0.000000e+000 -1.000000e+000
      outer loop
         vertex 1.397000e-001 1.270000e-001 -2.540000e-002
         vertex 1.353563e-001 1.277659e-001 -2.540000e-002
         vertex 1.516341e-001 1.353563e-001 -2.540000e-002
      endloop
   endfacet
   facet normal 0.000000e+000 0.000000e+000 -1.000000e+000
      outer loop
         vertex 1.397000e-001 1.270000e-001 -2.540000e-002
         vertex 1.516341e-001 1.353563e-001 -2.540000e-002
         vertex 1.419053e-001 1.271929e-001 -2.540000e-002
      endloop
   endfacet
   facet normal 0.000000e+000 0.000000e+000 -1.000000e+000
      outer loop
         vertex 1.419053e-001 1.271929e-001 -2.540000e-002
         vertex 1.516341e-001 1.353563e-001 -2.540000e-002
         vertex 1.506985e-001 1.333500e-001 -2.540000e-002
      endloop
   endfacet
   facet normal 0.000000e+000 0.000000e+000 -1.000000e+000
      outer loop
         vertex 1.333500e-001 1.287015e-001 -2.540000e-002
         vertex 1.315366e-001 1.299712e-001 -2.540000e-002
         vertex 1.440437e-001 1.516341e-001 -2.540000e-002
      endloop
   endfacet
   facet normal 0.000000e+000 0.000000e+000 -1.000000e+000
      outer loop
         vertex 1.440437e-001 1.516341e-001 -2.540000e-002
         vertex 1.315366e-001 1.299712e-001 -2.540000e-002
         vertex 1.299712e-001 1.315366e-001 -2.540000e-002
      endloop
   endfacet
   facet normal 0.000000e+000 0.000000e+000 -1.000000e+000
      outer loop
         vertex 1.440437e-001 1.516341e-001 -2.540000e-002
         vertex 1.299712e-001 1.315366e-001 -2.540000e-002
         vertex 1.287015e-001 1.333500e-001 -2.540000e-002
      endloop
   endfacet
   facet normal 0.000000e+000 0.000000e+000 -1.000000e+000
      outer loop
         vertex 1.271929e-001 1.419053e-001 -2.540000e-002
         vertex 1.277659e-001 1.440437e-001 -2.540000e-002
         vertex 1.270000e-001 1.397000e-001 -2.540000e-002
      endloop
   endfacet
   facet normal 0.000000e+000 0.000000e+000 -1.000000e+000
      outer loop
         vertex 1.270000e-001 1.397000e-001 -2.540000e-002
         vertex 1.277659e-001 1.440437e-001 -2.540000e-002
         vertex 1.440437e-001 1.516341e-001 -2.540000e-002
      endloop
   endfacet
   facet normal 0.000000e+000 0.000000e+000 -1.000000e+000
      outer loop
         vertex 1.270000e-001 1.397000e-001 -2.540000e-002
         vertex 1.440437e-001 1.516341e-001 -2.540000e-002
         vertex 1.271929e-001 1.374947e-001 -2.540000e-002
      endloop
   endfacet
   facet normal 0.000000e+000 0.000000e+000 -1.000000e+000
      outer loop
         vertex 1.271929e-001 1.374947e-001 -2.540000e-002
         vertex 1.440437e-001 1.516341e-001 -2.540000e-002
         vertex 1.287015e-001 1.333500e-001 -2.540000e-002
      endloop
   endfacet
   facet normal 0.000000e+000 0.000000e+000 -1.000000e+000
      outer loop
         vertex 1.271929e-001 1.374947e-001 -2.540000e-002
         vertex 1.287015e-001 1.333500e-001 -2.540000e-002
         vertex 1.277659e-001 1.353563e-001 -2.540000e-002
      endloop
   endfacet
   facet normal 0.000000e+000 0.000000e+000 -1.000000e+000
      outer loop
         vertex 1.419053e-001 1.522071e-001 -2.540000e-002
         vertex 1.440437e-001 1.516341e-001 -2.540000e-002
         vertex 1.397000e-001 1.524000e-001 -2.540000e-002
      endloop
   endfacet
   facet normal 0.000000e+000 0.000000e+000 -1.000000e+000
      outer loop
         vertex 1.397000e-001 1.524000e-001 -2.540000e-002
         vertex 1.440437e-001 1.516341e-001 -2.540000e-002
         vertex 1.299712e-001 1.478634e-001 -2.540000e-002
      endloop
   endfacet
   facet normal 0.000000e+000 0.000000e+000 -1.000000e+000
      outer loop
         vertex 1.397000e-001 1.524000e-001 -2.540000e-002
         vertex 1.299712e-001 1.478634e-001 -2.540000e-002
         vertex 1.374947e-001 1.522071e-001 -2.540000e-002
      endloop
   endfacet
   facet normal 0.000000e+000 0.000000e+000 -1.000000e+000
      outer loop
         vertex 1.374947e-001 1.522071e-001 -2.540000e-002
         vertex 1.299712e-001 1.478634e-001 -2.540000e-002
         vertex 1.315366e-001 1.494288e-001 -2.540000e-002
      endloop
   endfacet
   facet normal 0.000000e+000 0.000000e+000 -1.000000e+000
      outer loop
         vertex 1.374947e-001 1.522071e-001 -2.540000e-002
         vertex 1.315366e-001 1.494288e-001 -2.540000e-002
         vertex 1.353563e-001 1.516341e-001 -2.540000e-002
      endloop
   endfacet
   facet normal 0.000000e+000 0.000000e+000 -1.000000e+000
      outer loop
         vertex 1.353563e-001 1.516341e-001 -2.540000e-002
         vertex 1.315366e-001 1.494288e-001 -2.540000e-002
         vertex 1.333500e-001 1.506985e-001 -2.540000e-002
      endloop
   endfacet
   facet normal 0.000000e+000 0.000000e+000 -1.000000e+000
      outer loop
         vertex 1.460500e-001 1.287015e-001 -2.540000e-002
         vertex 1.440437e-001 1.277659e-001 -2.540000e-002
         vertex 1.478634e-001 1.299712e-001 -2.540000e-002
      endloop
   endfacet
   facet normal 0.000000e+000 0.000000e+000 -1.000000e+000
      outer loop
         vertex 1.478634e-001 1.299712e-001 -2.540000e-002
         vertex 1.440437e-001 1.277659e-001 -2.540000e-002
         vertex 1.419053e-001 1.271929e-001 -2.540000e-002
      endloop
   endfacet
   facet normal 0.000000e+000 0.000000e+000 -1.000000e+000
      outer loop
         vertex 1.478634e-001 1.299712e-001 -2.540000e-002
         vertex 1.419053e-001 1.271929e-001 -2.540000e-002
         vertex 1.494288e-001 1.315366e-001 -2.540000e-002
      endloop
   endfacet
   facet normal 0.000000e+000 0.000000e+000 -1.000000e+000
      outer loop
         vertex 1.494288e-001 1.315366e-001 -2.540000e-002
         vertex 1.419053e-001 1.271929e-001 -2.540000e-002
         vertex 1.506985e-001 1.333500e-001 -2.540000e-002
      endloop
   endfacet
   facet normal 0.000000e+000 9.983120e-001 5.807914e-002
      outer loop
         vertex -2.540000e-002 1.522071e-001 2.308053e-001
         vertex 0.000000e+000 1.524000e-001 2.286000e-001
         vertex -2.540000e-002 1.524000e-001 2.286000e-001
      endloop
   endfacet
   facet normal 0.000000e+000 9.983120e-001 -5.807914e-002
      outer loop
         vertex -2.540000e-002 1.524000e-001 2.286000e-001
         vertex 0.000000e+000 1.524000e-001 2.286000e-001
         vertex 0.000000e+000 1.522071e-001 2.263947e-001
      endloop
   endfacet
   facet normal 0.000000e+000 9.932307e-001 -1.161583e-001
      outer loop
         vertex -2.540000e-002 1.524000e-001 2.286000e-001
         vertex 0.000000e+000 1.522071e-001 2.263947e-001
         vertex -2.540000e-002 1.522071e-001 2.263947e-001
      endloop
   endfacet
   facet normal 0.000000e+000 9.730600e-001 -2.305519e-001
      outer loop
         vertex -2.540000e-002 1.522071e-001 2.263947e-001
         vertex 0.000000e+000 1.522071e-001 2.263947e-001
         vertex 0.000000e+000 1.516341e-001 2.242564e-001
      endloop
   endfacet
   facet normal 0.000000e+000 9.579706e-001 -2.868663e-001
      outer loop
         vertex -2.540000e-002 1.522071e-001 2.263947e-001
         vertex 0.000000e+000 1.516341e-001 2.242564e-001
         vertex -2.540000e-002 1.516341e-001 2.242564e-001
      endloop
   endfacet
   facet normal 0.000000e+000 9.182422e-001 -3.960194e-001
      outer loop
         vertex -2.540000e-002 1.516341e-001 2.242564e-001
         vertex 0.000000e+000 1.516341e-001 2.242564e-001
         vertex 0.000000e+000 1.506985e-001 2.222500e-001
      endloop
   endfacet
   facet normal 0.000000e+000 8.936031e-001 -4.488580e-001
      outer loop
         vertex -2.540000e-002 1.516341e-001 2.242564e-001
         vertex 0.000000e+000 1.506985e-001 2.222500e-001
         vertex -2.540000e-002 1.506985e-001 2.222500e-001
      endloop
   endfacet
   facet normal 0.000000e+000 8.355240e-001 -5.494540e-001
      outer loop
         vertex -2.540000e-002 1.506985e-001 2.222500e-001
         vertex 0.000000e+000 1.506985e-001 2.222500e-001
         vertex 0.000000e+000 1.494288e-001 2.204366e-001
      endloop
   endfacet
   facet normal 0.000000e+000 8.020839e-001 -5.972114e-001
      outer loop
         vertex -2.540000e-002 1.506985e-001 2.222500e-001
         vertex 0.000000e+000 1.494288e-001 2.204366e-001
         vertex -2.540000e-002 1.494288e-001 2.204366e-001
      endloop
   endfacet
   facet normal 0.000000e+000 7.274188e-001 -6.861938e-001
      outer loop
         vertex -2.540000e-002 1.494288e-001 2.204366e-001
         vertex 0.000000e+000 1.494288e-001 2.204366e-001
         vertex 0.000000e+000 1.478634e-001 2.188712e-001
      endloop
   endfacet
   facet normal 0.000000e+000 6.861938e-001 -7.274188e-001
      outer loop
         vertex -2.540000e-002 1.494288e-001 2.204366e-001
         vertex 0.000000e+000 1.478634e-001 2.188712e-001
         vertex -2.540000e-002 1.478634e-001 2.188712e-001
      endloop
   endfacet
   facet normal 0.000000e+000 5.972114e-001 -8.020839e-001
      outer loop
         vertex -2.540000e-002 1.478634e-001 2.188712e-001
         vertex 0.000000e+000 1.478634e-001 2.188712e-001
         vertex 0.000000e+000 1.460500e-001 2.176015e-001
      endloop
   endfacet
   facet normal 0.000000e+000 5.494540e-001 -8.355240e-001
      outer loop
         vertex -2.540000e-002 1.478634e-001 2.188712e-001
         vertex 0.000000e+000 1.460500e-001 2.176015e-001
         vertex -2.540000e-002 1.460500e-001 2.176015e-001
      endloop
   endfacet
   facet normal 0.000000e+000 4.488580e-001 -8.936031e-001
      outer loop
         vertex -2.540000e-002 1.460500e-001 2.176015e-001
         vertex 0.000000e+000 1.460500e-001 2.176015e-001
         vertex 0.000000e+000 1.440437e-001 2.166659e-001
      endloop
   endfacet
   facet normal 0.000000e+000 3.960194e-001 -9.182422e-001
      outer loop
         vertex -2.540000e-002 1.460500e-001 2.176015e-001
         vertex 0.000000e+000 1.440437e-001 2.166659e-001
         vertex -2.540000e-002 1.440437e-001 2.166659e-001
      endloop
   endfacet
   facet normal 0.000000e+000 2.868663e-001 -9.579706e-001
      outer loop
         vertex -2.540000e-002 1.440437e-001 2.166659e-001
         vertex 0.000000e+000 1.440437e-001 2.166659e-001
         vertex 0.000000e+000 1.419053e-001 2.160929e-001
      endloop
   endfacet
   facet normal 0.000000e+000 2.305519e-001 -9.730600e-001
      outer loop
         vertex -2.540000e-002 1.440437e-001 2.166659e-001
         vertex 0.000000e+000 1.419053e-001 2.160929e-001
         vertex -2.540000e-002 1.419053e-001 2.160929e-001
      endloop
   endfacet
   facet normal 0.000000e+000 1.161583e-001 -9.932307e-001
      outer loop
         vertex -2.540000e-002 1.419053e-001 2.160929e-001
         vertex 0.000000e+000 1.419053e-001 2.160929e-001
         vertex 0.000000e+000 1.397000e-001 2.159000e-001
      endloop
   endfacet
   facet normal 0.000000e+000 5.807914e-002 -9.983120e-001
      outer loop
         vertex -2.540000e-002 1.419053e-001 2.160929e-001
         vertex 0.000000e+000 1.397000e-001 2.159000e-001
         vertex -2.540000e-002 1.397000e-001 2.159000e-001
      endloop
   endfacet
   facet normal 0.000000e+000 -5.807914e-002 -9.983120e-001
      outer loop
         vertex -2.540000e-002 1.397000e-001 2.159000e-001
         vertex 0.000000e+000 1.397000e-001 2.159000e-001
         vertex 0.000000e+000 1.374947e-001 2.160929e-001
      endloop
   endfacet
   facet normal 0.000000e+000 -1.161583e-001 -9.932307e-001
      outer loop
         vertex -2.540000e-002 1.397000e-001 2.159000e-001
         vertex 0.000000e+000 1.374947e-001 2.160929e-001
         vertex -2.540000e-002 1.374947e-001 2.160929e-001
      endloop
   endfacet
   facet normal 0.000000e+000 -2.305519e-001 -9.730600e-001
      outer loop
         vertex -2.540000e-002 1.374947e-001 2.160929e-001
         vertex 0.000000e+000 1.374947e-001 2.160929e-001
         vertex 0.000000e+000 1.353563e-001 2.166659e-001
      endloop
   endfacet
   facet normal 0.000000e+000 -2.868663e-001 -9.579706e-001
      outer loop
         vertex -2.540000e-002 1.374947e-001 2.160929e-001
         vertex 0.000000e+000 1.353563e-001 2.166659e-001
         vertex -2.540000e-002 1.353563e-001 2.166659e-001
      endloop
   endfacet
   facet normal 0.000000e+000 -3.960194e-001 -9.182422e-001
      outer loop
         vertex -2.540000e-002 1.353563e-001 2.166659e-001
         vertex 0.000000e+000 1.353563e-001 2.166659e-001
         vertex 0.000000e+000 1.333500e-001 2.176015e-001
      endloop
   endfacet
   facet normal 0.000000e+000 -4.488580e-001 -8.936031e-001
      outer loop
         vertex -2.540000e-002 1.353563e-001 2.166659e-001
         vertex 0.000000e+000 1.333500e-001 2.176015e-001
         vertex -2.540000e-002 1.333500e-001 2.176015e-001
      endloop
   endfacet
   facet normal 0.000000e+000 -5.494540e-001 -8.355240e-001
      outer loop
         vertex -2.540000e-002 1.333500e-001 2.176015e-001
         vertex 0.000000e+000 1.333500e-001 2.176015e-001
         vertex 0.000000e+000 1.315366e-001 2.188712e-001
      endloop
   endfacet
   facet normal 0.000000e+000 -5.972114e-001 -8.020839e-001
      outer loop
         vertex -2.540000e-002 1.333500e-001 2.176015e-001
         vertex 0.000000e+000 1.315366e-001 2.188712e-001
         vertex -2.540000e-002 1.315366e-001 2.188712e-001
      endloop
   endfacet
   facet normal 0.000000e+000 -6.861938e-001 -7.274188e-001
      outer loop
         vertex -2.540000e-002 1.315366e-001 2.188712e-001
         vertex 0.000000e+000 1.315366e-001 2.188712e-001
         vertex 0.000000e+000 1.299712e-001 2.204366e-001
      endloop
   endfacet
   facet normal 0.000000e+000 -7.274188e-001 -6.861938e-001
      outer loop
         vertex -2.540000e-002 1.315366e-001 2.188712e-001
         vertex 0.000000e+000 1.299712e-001 2.204366e-001
         vertex -2.540000e-002 1.299712e-001 2.204366e-001
      endloop
   endfacet
   facet normal 0.000000e+000 -8.020839e-001 -5.972114e-001
      outer loop
         vertex -2.540000e-002 1.299712e-001 2.204366e-001
         vertex 0.000000e+000 1.299712e-001 2.204366e-001
         vertex 0.000000e+000 1.287015e-001 2.222500e-001
      endloop
   endfacet
   facet normal 0.000000e+000 -8.355240e-001 -5.494540e-001
      outer loop
         vertex -2.540000e-002 1.299712e-001 2.204366e-001
         vertex 0.000000e+000 1.287015e-001 2.222500e-001
         vertex -2.540000e-002 1.287015e-001 2.222500e-001
      endloop
   endfacet
   facet normal 0.000000e+000 -8.936031e-001 -4.488580e-001
      outer loop
         vertex -2.540000e-002 1.287015e-001 2.222500e-001
         vertex 0.000000e+000 1.287015e-001 2.222500e-001
         vertex 0.000000e+000 1.277659e-001 2.242564e-001
      endloop
   endfacet
   facet normal 0.000000e+000 -9.182422e-001 -3.960194e-001
      outer loop
         vertex -2.540000e-002 1.287015e-001 2.222500e-001
         vertex 0.000000e+000 1.277659e-001 2.242564e-001
         vertex -2.540000e-002 1.277659e-001 2.242564e-001
      endloop
   endfacet
   facet normal 0.000000e+000 -9.579706e-001 -2.868663e-001
      outer loop
         vertex -2.540000e-002 1.277659e-001 2.242564e-001
         vertex 0.000000e+000 1.277659e-001 2.242564e-001
         vertex 0.000000e+000 1.271929e-001 2.263947e-001
      endloop
   endfacet
   facet normal 0.000000e+000 -9.730600e-001 -2.305519e-001
      outer loop
         vertex -2.540000e-002 1.277659e-001 2.242564e-001
         vertex 0.000000e+000 1.271929e-001 2.263947e-001
         vertex -2.540000e-002 1.271929e-001 2.263947e-001
      endloop
   endfacet
   facet normal 0.000000e+000 -9.932307e-001 -1.161583e-001
      outer loop
         vertex -2.540000e-002 1.271929e-001 2.263947e-001
         vertex 0.000000e+000 1.271929e-001 2.263947e-001
         vertex 0.000000e+000 1.270000e-001 2.286000e-001
      endloop
   endfacet
   facet normal 0.000000e+000 -9.983120e-001 -5.807914e-002
      outer loop
         vertex -2.540000e-002 1.271929e-001 2.263947e-001
         vertex 0.000000e+000 1.270000e-001 2.286000e-001
         vertex -2.540000e-002 1.270000e-001 2.286000e-001
      endloop
   endfacet
   facet normal 0.000000e+000 -9.983120e-001 5.807914e-002
      outer loop
         vertex -2.540000e-002 1.270000e-001 2.286000e-001
         vertex 0.000000e+000 1.270000e-001 2.286000e-001
         vertex 0.000000e+000 1.271929e-001 2.308053e-001
      endloop
   endfacet
   facet normal 0.000000e+000 -9.932307e-001 1.161583e-001
      outer loop
         vertex -2.540000e-002 1.270000e-001 2.286000e-001
         vertex 0.000000e+000 1.271929e-001 2.308053e-001
         vertex -2.540000e-002 1.271929e-001 2.308053e-001
      endloop
   endfacet
   facet normal 0.000000e+000 -9.730600e-001 2.305519e-001
      outer loop
         vertex -2.540000e-002 1.271929e-001 2.308053e-001
         vertex 0.000000e+000 1.271929e-001 2.308053e-001
         vertex 0.000000e+000 1.277659e-001 2.329437e-001
      endloop
   endfacet
   facet normal 0.000000e+000 -9.579706e-001 2.868663e-001
      outer loop
         vertex -2.540000e-002 1.271929e-001 2.308053e-001
         vertex 0.000000e+000 1.277659e-001 2.329437e-001
         vertex -2.540000e-002 1.277659e-001 2.329437e-001
      endloop
   endfacet
   facet normal 0.000000e+000 -9.182422e-001 3.960194e-001
      outer loop
         vertex -2.540000e-002 1.277659e-001 2.329437e-001
         vertex 0.000000e+000 1.277659e-001 2.329437e-001
         vertex 0.000000e+000 1.287015e-001 2.349500e-001
      endloop
   endfacet
   facet normal 0.000000e+000 -8.936031e-001 4.488580e-001
      outer loop
         vertex -2.540000e-002 1.277659e-001 2.329437e-001
         vertex 0.000000e+000 1.287015e-001 2.349500e-001
         vertex -2.540000e-002 1.287015e-001 2.349500e-001
      endloop
   endfacet
   facet normal 0.000000e+000 -8.355240e-001 5.494540e-001
      outer loop
         vertex -2.540000e-002 1.287015e-001 2.349500e-001
         vertex 0.000000e+000 1.287015e-001 2.349500e-001
         vertex 0.000000e+000 1.299712e-001 2.367634e-001
      endloop
   endfacet
   facet normal 0.000000e+000 -8.020839e-001 5.972114e-001
      outer loop
         vertex -2.540000e-002 1.287015e-001 2.349500e-001
         vertex 0.000000e+000 1.299712e-001 2.367634e-001
         vertex -2.540000e-002 1.299712e-001 2.367634e-001
      endloop
   endfacet
   facet normal 0.000000e+000 -7.274188e-001 6.861938e-001
      outer loop
         vertex -2.540000e-002 1.299712e-001 2.367634e-001
         vertex 0.000000e+000 1.299712e-001 2.367634e-001
         vertex 0.000000e+000 1.315366e-001 2.383288e-001
      endloop
   endfacet
   facet normal 0.000000e+000 -6.861938e-001 7.274188e-001
      outer loop
         vertex -2.540000e-002 1.299712e-001 2.367634e-001
         vertex 0.000000e+000 1.315366e-001 2.383288e-001
         vertex -2.540000e-002 1.315366e-001 2.383288e-001
      endloop
   endfacet
   facet normal 0.000000e+000 -5.972114e-001 8.020839e-001
      outer loop
         vertex -2.540000e-002 1.315366e-001 2.383288e-001
         vertex 0.000000e+000 1.315366e-001 2.383288e-001
         vertex 0.000000e+000 1.333500e-001 2.395985e-001
      endloop
   endfacet
   facet normal 0.000000e+000 -5.494540e-001 8.355240e-001
      outer loop
         vertex -2.540000e-002 1.315366e-001 2.383288e-001
         vertex 0.000000e+000 1.333500e-001 2.395985e-001
         vertex -2.540000e-002 1.333500e-001 2.395985e-001
      endloop
   endfacet
   facet normal 0.000000e+000 -4.488580e-001 8.936031e-001
      outer loop
         vertex -2.540000e-002 1.333500e-001 2.395985e-001
         vertex 0.000000e+000 1.333500e-001 2.395985e-001
         vertex 0.000000e+000 1.353563e-001 2.405341e-001
      endloop
   endfacet
   facet normal 0.000000e+000 -3.960194e-001 9.182422e-001
      outer loop
         vertex -2.540000e-002 1.333500e-001 2.395985e-001
         vertex 0.000000e+000 1.353563e-001 2.405341e-001
         vertex -2.540000e-002 1.353563e-001 2.405341e-001
      endloop
   endfacet
   facet normal 0.000000e+000 -2.868663e-001 9.579706e-001
      outer loop
         vertex -2.540000e-002 1.353563e-001 2.405341e-001
         vertex 0.000000e+000 1.353563e-001 2.405341e-001
         vertex 0.000000e+000 1.374947e-001 2.411071e-001
      endloop
   endfacet
   facet normal 0.000000e+000 -2.305519e-001 9.730600e-001
      outer loop
         vertex -2.540000e-002 1.353563e-001 2.405341e-001
         vertex 0.000000e+000 1.374947e-001 2.411071e-001
         vertex -2.540000e-002 1.374947e-001 2.411071e-001
      endloop
   endfacet
   facet normal 0.000000e+000 -1.161583e-001 9.932307e-001
      outer loop
         vertex -2.540000e-002 1.374947e-001 2.411071e-001
         vertex 0.000000e+000 1.374947e-001 2.411071e-001
         vertex 0.000000e+000 1.397000e-001 2.413000e-001
      endloop
   endfacet
   facet normal 0.000000e+000 -5.807914e-002 9.983120e-001
      outer loop
         vertex -2.540000e-002 1.374947e-001 2.411071e-001
         vertex 0.000000e+000 1.397000e-001 2.413000e-001
         vertex -2.540000e-002 1.397000e-001 2.413000e-001
      endloop
   endfacet
   facet normal 0.000000e+000 5.807914e-002 9.983120e-001
      outer loop
         vertex -2.540000e-002 1.397000e-001 2.413000e-001
         vertex 0.000000e+000 1.397000e-001 2.413000e-001
         vertex 0.000000e+000 1.419053e-001 2.411071e-001
      endloop
   endfacet
   facet normal 0.000000e+000 1.161583e-001 9.932307e-001
      outer loop
         vertex -2.540000e-002 1.397000e-001 2.413000e-001
         vertex 0.000000e+000 1.419053e-001 2.411071e-001
         vertex -2.540000e-002 1.419053e-001 2.411071e-001
      endloop
   endfacet
   facet normal 0.000000e+000 2.305519e-001 9.730600e-001
      outer loop
         vertex -2.540000e-002 1.419053e-001 2.411071e-001
         vertex 0.000000e+000 1.419053e-001 2.411071e-001
         vertex 0.000000e+000 1.440437e-001 2.405341e-001
      endloop
   endfacet
   facet normal 0.000000e+000 2.868663e-001 9.579706e-001
      outer loop
         vertex -2.540000e-002 1.419053e-001 2.411071e-001
         vertex 0.000000e+000 1.440437e-001 2.405341e-001
         vertex -2.540000e-002 1.440437e-001 2.405341e-001
      endloop
   endfacet
   facet normal 0.000000e+000 3.960194e-001 9.182422e-001
      outer loop
         vertex -2.540000e-002 1.440437e-001 2.405341e-001
         vertex 0.000000e+000 1.440437e-001 2.405341e-001
         vertex 0.000000e+000 1.460500e-001 2.395985e-001
      endloop
   endfacet
   facet normal 0.000000e+000 4.488580e-001 8.936031e-001
      outer loop
         vertex -2.540000e-002 1.440437e-001 2.405341e-001
         vertex 0.000000e+000 1.460500e-001 2.395985e-001
         vertex -2.540000e-002 1.460500e-001 2.395985e-001
      endloop
   endfacet
   facet normal 0.000000e+000 5.494540e-001 8.355240e-001
      outer loop
         vertex -2.540000e-002 1.460500e-001 2.395985e-001
         vertex 0.000000e+000 1.460500e-001 2.395985e-001
         vertex 0.000000e+000 1.478634e-001 2.383288e-001
      endloop
   endfacet
   facet normal 0.000000e+000 5.972114e-001 8.020839e-001
      outer loop
         vertex -2.540000e-002 1.460500e-001 2.395985e-001
         vertex 0.000000e+000 1.478634e-001 2.383288e-001
         vertex -2.540000e-002 1.478634e-001 2.383288e-001
      endloop
   endfacet
   facet normal 0.000000e+000 6.861938e-001 7.274188e-001
      outer loop
         vertex -2.540000e-002 1.478634e-001 2.383288e-001
         vertex 0.000000e+000 1.478634e-001 2.383288e-001
         vertex 0.000000e+000 1.494288e-001 2.367634e-001
      endloop
   endfacet
   facet normal 0.000000e+000 7.274188e-001 6.861938e-001
      outer loop
         vertex -2.540000e-002 1.478634e-001 2.383288e-001
         vertex 0.000000e+000 1.494288e-001 2.367634e-001
         vertex -2.540000e-002 1.494288e-001 2.367634e-001
      endloop
   endfacet
   facet normal 0.000000e+000 8.020839e-001 5.972114e-001
      outer loop
         vertex -2.540000e-002 1.494288e-001 2.367634e-001
         vertex 0.000000e+000 1.494288e-001 2.367634e-001
         vertex 0.000000e+000 1.506985e-001 2.349500e-001
      endloop
   endfacet
   facet normal 0.000000e+000 8.355240e-001 5.494540e-001
      outer loop
         vertex -2.540000e-002 1.494288e-001 2.367634e-001
         vertex 0.000000e+000 1.506985e-001 2.349500e-001
         vertex -2.540000e-002 1.506985e-001 2.349500e-001
      endloop
   endfacet
   facet normal 0.000000e+000 8.936031e-001 4.488580e-001
      outer loop
         vertex -2.540000e-002 1.506985e-001 2.349500e-001
         vertex 0.000000e+000 1.506985e-001 2.349500e-001
         vertex 0.000000e+000 1.516341e-001 2.329437e-001
      endloop
   endfacet
   facet normal 0.000000e+000 9.182422e-001 3.960194e-001
      outer loop
         vertex -2.540000e-002 1.506985e-001 2.349500e-001
         vertex 0.000000e+000 1.516341e-001 2.329437e-001
         vertex -2.540000e-002 1.516341e-001 2.329437e-001
      endloop
   endfacet
   facet normal 0.000000e+000 9.579706e-001 2.868663e-001
      outer loop
         vertex -2.540000e-002 1.516341e-001 2.329437e-001
         vertex 0.000000e+000 1.516341e-001 2.329437e-001
         vertex 0.000000e+000 1.522071e-001 2.308053e-001
      endloop
   endfacet
   facet normal 0.000000e+000 9.730600e-001 2.305519e-001
      outer loop
         vertex -2.540000e-002 1.516341e-001 2.329437e-001
         vertex 0.000000e+000 1.522071e-001 2.308053e-001
         vertex -2.540000e-002 1.522071e-001 2.308053e-001
      endloop
   endfacet
   facet normal 0.000000e+000 9.932307e-001 1.161583e-001
      outer loop
         vertex -2.540000e-002 1.522071e-001 2.308053e-001
         vertex 0.000000e+000 1.522071e-001 2.308053e-001
         vertex 0.000000e+000 1.524000e-001 2.286000e-001
      endloop
   endfacet
   facet normal -1.000000e+000 0.000000e+000 0.000000e+000
      outer loop
         vertex -2.540000e-002 1.287015e-001 2.349500e-001
         vertex -2.540000e-002 1.516341e-001 2.242564e-001
         vertex -2.540000e-002 1.277659e-001 2.329437e-001
      endloop
   endfacet
   facet normal -1.000000e+000 0.000000e+000 0.000000e+000
      outer loop
         vertex -2.540000e-002 1.277659e-001 2.329437e-001
         vertex -2.540000e-002 1.516341e-001 2.242564e-001
         vertex -2.540000e-002 1.506985e-001 2.222500e-001
      endloop
   endfacet
   facet normal -1.000000e+000 0.000000e+000 0.000000e+000
      outer loop
         vertex -2.540000e-002 1.353563e-001 2.166659e-001
         vertex -2.540000e-002 1.333500e-001 2.176015e-001
         vertex -2.540000e-002 1.277659e-001 2.329437e-001
      endloop
   endfacet
   facet normal -1.000000e+000 0.000000e+000 0.000000e+000
      outer loop
         vertex -2.540000e-002 1.277659e-001 2.329437e-001
         vertex -2.540000e-002 1.333500e-001 2.176015e-001
         vertex -2.540000e-002 1.315366e-001 2.188712e-001
      endloop
   endfacet
   facet normal -1.000000e+000 0.000000e+000 0.000000e+000
      outer loop
         vertex -2.540000e-002 1.333500e-001 2.395985e-001
         vertex -2.540000e-002 1.353563e-001 2.405341e-001
         vertex -2.540000e-002 1.315366e-001 2.383288e-001
      endloop
   endfacet
   facet normal -1.000000e+000 0.000000e+000 0.000000e+000
      outer loop
         vertex -2.540000e-002 1.315366e-001 2.383288e-001
         vertex -2.540000e-002 1.353563e-001 2.405341e-001
         vertex -2.540000e-002 1.516341e-001 2.242564e-001
      endloop
   endfacet
   facet normal -1.000000e+000 0.000000e+000 0.000000e+000
      outer loop
         vertex -2.540000e-002 1.315366e-001 2.383288e-001
         vertex -2.540000e-002 1.516341e-001 2.242564e-001
         vertex -2.540000e-002 1.299712e-001 2.367634e-001
      endloop
   endfacet
   facet normal -1.000000e+000 0.000000e+000 0.000000e+000
      outer loop
         vertex -2.540000e-002 1.299712e-001 2.367634e-001
         vertex -2.540000e-002 1.516341e-001 2.242564e-001
         vertex -2.540000e-002 1.287015e-001 2.349500e-001
      endloop
   endfacet
   facet normal -1.000000e+000 0.000000e+000 0.000000e+000
      outer loop
         vertex -2.540000e-002 1.419053e-001 2.411071e-001
         vertex -2.540000e-002 1.440437e-001 2.405341e-001
         vertex -2.540000e-002 1.397000e-001 2.413000e-001
      endloop
   endfacet
   facet normal -1.000000e+000 0.000000e+000 0.000000e+000
      outer loop
         vertex -2.540000e-002 1.397000e-001 2.413000e-001
         vertex -2.540000e-002 1.440437e-001 2.405341e-001
         vertex -2.540000e-002 1.516341e-001 2.242564e-001
      endloop
   endfacet
   facet normal -1.000000e+000 0.000000e+000 0.000000e+000
      outer loop
         vertex -2.540000e-002 1.397000e-001 2.413000e-001
         vertex -2.540000e-002 1.516341e-001 2.242564e-001
         vertex -2.540000e-002 1.374947e-001 2.411071e-001
      endloop
   endfacet
   facet normal -1.000000e+000 0.000000e+000 0.000000e+000
      outer loop
         vertex -2.540000e-002 1.374947e-001 2.411071e-001
         vertex -2.540000e-002 1.516341e-001 2.242564e-001
         vertex -2.540000e-002 1.353563e-001 2.405341e-001
      endloop
   endfacet
   facet normal -1.000000e+000 0.000000e+000 0.000000e+000
      outer loop
         vertex -2.540000e-002 1.522071e-001 2.263947e-001
         vertex -2.540000e-002 1.516341e-001 2.242564e-001
         vertex -2.540000e-002 1.524000e-001 2.286000e-001
      endloop
   endfacet
   facet normal -1.000000e+000 0.000000e+000 0.000000e+000
      outer loop
         vertex -2.540000e-002 1.524000e-001 2.286000e-001
         vertex -2.540000e-002 1.516341e-001 2.242564e-001
         vertex -2.540000e-002 1.440437e-001 2.405341e-001
      endloop
   endfacet
   facet normal -1.000000e+000 0.000000e+000 0.000000e+000
      outer loop
         vertex -2.540000e-002 1.524000e-001 2.286000e-001
         vertex -2.540000e-002 1.440437e-001 2.405341e-001
         vertex -2.540000e-002 1.522071e-001 2.308053e-001
      endloop
   endfacet
   facet normal -1.000000e+000 0.000000e+000 0.000000e+000
      outer loop
         vertex -2.540000e-002 1.522071e-001 2.308053e-001
         vertex -2.540000e-002 1.440437e-001 2.405341e-001
         vertex -2.540000e-002 1.460500e-001 2.395985e-001
      endloop
   endfacet
   facet normal -1.000000e+000 0.000000e+000 0.000000e+000
      outer loop
         vertex -2.540000e-002 1.506985e-001 2.222500e-001
         vertex -2.540000e-002 1.494288e-001 2.204366e-001
         vertex -2.540000e-002 1.277659e-001 2.329437e-001
      endloop
   endfacet
   facet normal -1.000000e+000 0.000000e+000 0.000000e+000
      outer loop
         vertex -2.540000e-002 1.277659e-001 2.329437e-001
         vertex -2.540000e-002 1.494288e-001 2.204366e-001
         vertex -2.540000e-002 1.478634e-001 2.188712e-001
      endloop
   endfacet
   facet normal -1.000000e+000 0.000000e+000 0.000000e+000
      outer loop
         vertex -2.540000e-002 1.277659e-001 2.329437e-001
         vertex -2.540000e-002 1.478634e-001 2.188712e-001
         vertex -2.540000e-002 1.460500e-001 2.176015e-001
      endloop
   endfacet
   facet normal -1.000000e+000 0.000000e+000 0.000000e+000
      outer loop
         vertex -2.540000e-002 1.374947e-001 2.160929e-001
         vertex -2.540000e-002 1.353563e-001 2.166659e-001
         vertex -2.540000e-002 1.397000e-001 2.159000e-001
      endloop
   endfacet
   facet normal -1.000000e+000 0.000000e+000 0.000000e+000
      outer loop
         vertex -2.540000e-002 1.397000e-001 2.159000e-001
         vertex -2.540000e-002 1.353563e-001 2.166659e-001
         vertex -2.540000e-002 1.277659e-001 2.329437e-001
      endloop
   endfacet
   facet normal -1.000000e+000 0.000000e+000 0.000000e+000
      outer loop
         vertex -2.540000e-002 1.397000e-001 2.159000e-001
         vertex -2.540000e-002 1.277659e-001 2.329437e-001
         vertex -2.540000e-002 1.419053e-001 2.160929e-001
      endloop
   endfacet
   facet normal -1.000000e+000 0.000000e+000 0.000000e+000
      outer loop
         vertex -2.540000e-002 1.419053e-001 2.160929e-001
         vertex -2.540000e-002 1.277659e-001 2.329437e-001
         vertex -2.540000e-002 1.460500e-001 2.176015e-001
      endloop
   endfacet
   facet normal -1.000000e+000 0.000000e+000 0.000000e+000
      outer loop
         vertex -2.540000e-002 1.419053e-001 2.160929e-001
         vertex -2.540000e-002 1.460500e-001 2.176015e-001
         vertex -2.540000e-002 1.440437e-001 2.166659e-001
      endloop
   endfacet
   facet normal -1.000000e+000 0.000000e+000 0.000000e+000
      outer loop
         vertex -2.540000e-002 1.271929e-001 2.308053e-001
         vertex -2.540000e-002 1.277659e-001 2.329437e-001
         vertex -2.540000e-002 1.270000e-001 2.286000e-001
      endloop
   endfacet
   facet normal -1.000000e+000 0.000000e+000 0.000000e+000
      outer loop
         vertex -2.540000e-002 1.270000e-001 2.286000e-001
         vertex -2.540000e-002 1.277659e-001 2.329437e-001
         vertex -2.540000e-002 1.315366e-001 2.188712e-001
      endloop
   endfacet
   facet normal -1.000000e+000 0.000000e+000 0.000000e+000
      outer loop
         vertex -2.540000e-002 1.270000e-001 2.286000e-001
         vertex -2.540000e-002 1.315366e-001 2.188712e-001
         vertex -2.540000e-002 1.271929e-001 2.263947e-001
      endloop
   endfacet
   facet normal -1.000000e+000 0.000000e+000 0.000000e+000
      outer loop
         vertex -2.540000e-002 1.271929e-001 2.263947e-001
         vertex -2.540000e-002 1.315366e-001 2.188712e-001
         vertex -2.540000e-002 1.299712e-001 2.204366e-001
      endloop
   endfacet
   facet normal -1.000000e+000 0.000000e+000 0.000000e+000
      outer loop
         vertex -2.540000e-002 1.271929e-001 2.263947e-001
         vertex -2.540000e-002 1.299712e-001 2.204366e-001
         vertex -2.540000e-002 1.277659e-001 2.242564e-001
      endloop
   endfacet
   facet normal -1.000000e+000 0.000000e+000 0.000000e+000
      outer loop
         vertex -2.540000e-002 1.277659e-001 2.242564e-001
         vertex -2.540000e-002 1.299712e-001 2.204366e-001
         vertex -2.540000e-002 1.287015e-001 2.222500e-001
      endloop
   endfacet
   facet normal -1.000000e+000 0.000000e+000 0.000000e+000
      outer loop
         vertex -2.540000e-002 1.506985e-001 2.349500e-001
         vertex -2.540000e-002 1.516341e-001 2.329437e-001
         vertex -2.540000e-002 1.494288e-001 2.367634e-001
      endloop
   endfacet
   facet normal -1.000000e+000 0.000000e+000 0.000000e+000
      outer loop
         vertex -2.540000e-002 1.494288e-001 2.367634e-001
         vertex -2.540000e-002 1.516341e-001 2.329437e-001
         vertex -2.540000e-002 1.522071e-001 2.308053e-001
      endloop
   endfacet
   facet normal -1.000000e+000 0.000000e+000 0.000000e+000
      outer loop
         vertex -2.540000e-002 1.494288e-001 2.367634e-001
         vertex -2.540000e-002 1.522071e-001 2.308053e-001
         vertex -2.540000e-002 1.478634e-001 2.383288e-001
      endloop
   endfacet
   facet normal -1.000000e+000 0.000000e+000 0.000000e+000
      outer loop
         vertex -2.540000e-002 1.478634e-001 2.383288e-001
         vertex -2.540000e-002 1.522071e-001 2.308053e-001
         vertex -2.540000e-002 1.460500e-001 2.395985e-001
      endloop
   endfacet
endsolid