solid patch0
   facet normal -1.000000e+000 0.000000e+000 0.000000e+000
      outer loop
         vertex 0.000000e+000 2.794000e-001 2.794000e-001
         vertex 0.000000e+000 2.540000e-001 2.726185e-001
         vertex 0.000000e+000 2.519937e-001 2.735541e-001
      endloop
   endfacet
   facet normal -1.000000e+000 0.000000e+000 0.000000e+000
      outer loop
         vertex 0.000000e+000 2.519937e-001 2.735541e-001
         vertex 0.000000e+000 2.498553e-001 2.741271e-001
         vertex 0.000000e+000 2.794000e-001 2.794000e-001
      endloop
   endfacet
   facet normal -1.000000e+000 0.000000e+000 0.000000e+000
      outer loop
         vertex 0.000000e+000 2.794000e-001 2.794000e-001
         vertex 0.000000e+000 2.498553e-001 2.741271e-001
         vertex 0.000000e+000 2.476500e-001 2.743200e-001
      endloop
   endfacet
   facet normal -1.000000e+000 0.000000e+000 0.000000e+000
      outer loop
         vertex 0.000000e+000 2.794000e-001 2.794000e-001
         vertex 0.000000e+000 2.476500e-001 2.743200e-001
         vertex 0.000000e+000 0.000000e+000 2.794000e-001
      endloop
   endfacet
   facet normal -1.000000e+000 0.000000e+000 0.000000e+000
      outer loop
         vertex 0.000000e+000 2.476500e-001 2.743200e-001
         vertex 0.000000e+000 2.454447e-001 2.741271e-001
         vertex 0.000000e+000 0.000000e+000 2.794000e-001
      endloop
   endfacet
   facet normal -1.000000e+000 0.000000e+000 0.000000e+000
      outer loop
         vertex 0.000000e+000 0.000000e+000 2.794000e-001
         vertex 0.000000e+000 2.454447e-001 2.741271e-001
         vertex 0.000000e+000 2.433063e-001 2.735541e-001
      endloop
   endfacet
   facet normal -1.000000e+000 0.000000e+000 0.000000e+000
      outer loop
         vertex 0.000000e+000 0.000000e+000 2.794000e-001
         vertex 0.000000e+000 2.433063e-001 2.735541e-001
         vertex 0.000000e+000 2.413000e-001 2.726185e-001
      endloop
   endfacet
   facet normal -1.000000e+000 0.000000e+000 0.000000e+000
      outer loop
         vertex 0.000000e+000 2.540000e-001 2.506215e-001
         vertex 0.000000e+000 2.558134e-001 2.518912e-001
         vertex 0.000000e+000 2.794000e-001 0.000000e+000
      endloop
   endfacet
   facet normal -1.000000e+000 0.000000e+000 0.000000e+000
      outer loop
         vertex 0.000000e+000 2.794000e-001 0.000000e+000
         vertex 0.000000e+000 2.558134e-001 2.518912e-001
         vertex 0.000000e+000 2.573788e-001 2.534566e-001
      endloop
   endfacet
   facet normal -1.000000e+000 0.000000e+000 0.000000e+000
      outer loop
         vertex 0.000000e+000 2.573788e-001 2.534566e-001
         vertex 0.000000e+000 2.586485e-001 2.552700e-001
         vertex 0.000000e+000 2.794000e-001 0.000000e+000
      endloop
   endfacet
   facet normal -1.000000e+000 0.000000e+000 0.000000e+000
      outer loop
         vertex 0.000000e+000 2.794000e-001 0.000000e+000
         vertex 0.000000e+000 2.586485e-001 2.552700e-001
         vertex 0.000000e+000 2.595841e-001 2.572764e-001
      endloop
   endfacet
   facet normal -1.000000e+000 0.000000e+000 0.000000e+000
      outer loop
         vertex 0.000000e+000 2.794000e-001 0.000000e+000
         vertex 0.000000e+000 2.595841e-001 2.572764e-001
         vertex 0.000000e+000 2.794000e-001 2.794000e-001
      endloop
   endfacet
   facet normal -1.000000e+000 0.000000e+000 0.000000e+000
      outer loop
         vertex 0.000000e+000 2.794000e-001 2.794000e-001
         vertex 0.000000e+000 2.595841e-001 2.572764e-001
         vertex 0.000000e+000 2.601570e-001 2.594147e-001
      endloop
   endfacet
   facet normal -1.000000e+000 0.000000e+000 0.000000e+000
      outer loop
         vertex 0.000000e+000 2.794000e-001 2.794000e-001
         vertex 0.000000e+000 2.601570e-001 2.594147e-001
         vertex 0.000000e+000 2.603500e-001 2.616200e-001
      endloop
   endfacet
   facet normal -1.000000e+000 0.000000e+000 0.000000e+000
      outer loop
         vertex 0.000000e+000 2.603500e-001 2.616200e-001
         vertex 0.000000e+000 2.601570e-001 2.638253e-001
         vertex 0.000000e+000 2.794000e-001 2.794000e-001
      endloop
   endfacet
   facet normal -1.000000e+000 0.000000e+000 0.000000e+000
      outer loop
         vertex 0.000000e+000 2.794000e-001 2.794000e-001
         vertex 0.000000e+000 2.601570e-001 2.638253e-001
         vertex 0.000000e+000 2.595841e-001 2.659636e-001
      endloop
   endfacet
   facet normal -1.000000e+000 0.000000e+000 0.000000e+000
      outer loop
         vertex 0.000000e+000 2.794000e-001 2.794000e-001
         vertex 0.000000e+000 2.595841e-001 2.659636e-001
         vertex 0.000000e+000 2.586485e-001 2.679700e-001
      endloop
   endfacet
   facet normal -1.000000e+000 0.000000e+000 0.000000e+000
      outer loop
         vertex 0.000000e+000 2.586485e-001 2.679700e-001
         vertex 0.000000e+000 2.573788e-001 2.697834e-001
         vertex 0.000000e+000 2.794000e-001 2.794000e-001
      endloop
   endfacet
   facet normal -1.000000e+000 0.000000e+000 0.000000e+000
      outer loop
         vertex 0.000000e+000 2.794000e-001 2.794000e-001
         vertex 0.000000e+000 2.573788e-001 2.697834e-001
         vertex 0.000000e+000 2.558134e-001 2.713488e-001
      endloop
   endfacet
   facet normal -1.000000e+000 0.000000e+000 0.000000e+000
      outer loop
         vertex 0.000000e+000 2.794000e-001 2.794000e-001
         vertex 0.000000e+000 2.558134e-001 2.713488e-001
         vertex 0.000000e+000 2.540000e-001 2.726185e-001
      endloop
   endfacet
   facet normal -1.000000e+000 0.000000e+000 0.000000e+000
      outer loop
         vertex 0.000000e+000 2.413000e-001 2.726185e-001
         vertex 0.000000e+000 2.394866e-001 2.713488e-001
         vertex 0.000000e+000 0.000000e+000 2.794000e-001
      endloop
   endfacet
   facet normal -1.000000e+000 0.000000e+000 0.000000e+000
      outer loop
         vertex 0.000000e+000 0.000000e+000 2.794000e-001
         vertex 0.000000e+000 2.394866e-001 2.713488e-001
         vertex 0.000000e+000 2.379212e-001 2.697834e-001
      endloop
   endfacet
   facet normal -1.000000e+000 0.000000e+000 0.000000e+000
      outer loop
         vertex 0.000000e+000 0.000000e+000 2.794000e-001
         vertex 0.000000e+000 2.379212e-001 2.697834e-001
         vertex 0.000000e+000 2.366515e-001 2.679700e-001
      endloop
   endfacet
   facet normal -1.000000e+000 0.000000e+000 0.000000e+000
      outer loop
         vertex 0.000000e+000 2.349500e-001 2.616200e-001
         vertex 0.000000e+000 2.351429e-001 2.594147e-001
         vertex 0.000000e+000 0.000000e+000 2.794000e-001
      endloop
   endfacet
   facet normal -1.000000e+000 0.000000e+000 0.000000e+000
      outer loop
         vertex 0.000000e+000 0.000000e+000 2.794000e-001
         vertex 0.000000e+000 2.351429e-001 2.594147e-001
         vertex 0.000000e+000 2.357159e-001 2.572764e-001
      endloop
   endfacet
   facet normal -1.000000e+000 0.000000e+000 0.000000e+000
      outer loop
         vertex 0.000000e+000 0.000000e+000 2.794000e-001
         vertex 0.000000e+000 2.357159e-001 2.572764e-001
         vertex 0.000000e+000 0.000000e+000 0.000000e+000
      endloop
   endfacet
   facet normal -1.000000e+000 0.000000e+000 0.000000e+000
      outer loop
         vertex 0.000000e+000 2.366515e-001 2.679700e-001
         vertex 0.000000e+000 2.357159e-001 2.659636e-001
         vertex 0.000000e+000 0.000000e+000 2.794000e-001
      endloop
   endfacet
   facet normal -1.000000e+000 0.000000e+000 0.000000e+000
      outer loop
         vertex 0.000000e+000 0.000000e+000 2.794000e-001
         vertex 0.000000e+000 2.357159e-001 2.659636e-001
         vertex 0.000000e+000 2.351429e-001 2.638253e-001
      endloop
   endfacet
   facet normal -1.000000e+000 0.000000e+000 0.000000e+000
      outer loop
         vertex 0.000000e+000 0.000000e+000 2.794000e-001
         vertex 0.000000e+000 2.351429e-001 2.638253e-001
         vertex 0.000000e+000 2.349500e-001 2.616200e-001
      endloop
   endfacet
   facet normal -1.000000e+000 0.000000e+000 0.000000e+000
      outer loop
         vertex 0.000000e+000 2.357159e-001 2.572764e-001
         vertex 0.000000e+000 2.366515e-001 2.552700e-001
         vertex 0.000000e+000 0.000000e+000 0.000000e+000
      endloop
   endfacet
   facet normal -1.000000e+000 0.000000e+000 0.000000e+000
      outer loop
         vertex 0.000000e+000 0.000000e+000 0.000000e+000
         vertex 0.000000e+000 2.366515e-001 2.552700e-001
         vertex 0.000000e+000 2.379212e-001 2.534566e-001
      endloop
   endfacet
   facet normal -1.000000e+000 0.000000e+000 0.000000e+000
      outer loop
         vertex 0.000000e+000 0.000000e+000 0.000000e+000
         vertex 0.000000e+000 2.379212e-001 2.534566e-001
         vertex 0.000000e+000 2.394866e-001 2.518912e-001
      endloop
   endfacet
   facet normal -1.000000e+000 0.000000e+000 0.000000e+000
      outer loop
         vertex 0.000000e+000 2.476500e-001 2.489200e-001
         vertex 0.000000e+000 2.498553e-001 2.491129e-001
         vertex 0.000000e+000 2.794000e-001 0.000000e+000
      endloop
   endfacet
   facet normal -1.000000e+000 0.000000e+000 0.000000e+000
      outer loop
         vertex 0.000000e+000 2.794000e-001 0.000000e+000
         vertex 0.000000e+000 2.498553e-001 2.491129e-001
         vertex 0.000000e+000 2.519937e-001 2.496859e-001
      endloop
   endfacet
   facet normal -1.000000e+000 0.000000e+000 0.000000e+000
      outer loop
         vertex 0.000000e+000 2.794000e-001 0.000000e+000
         vertex 0.000000e+000 2.519937e-001 2.496859e-001
         vertex 0.000000e+000 2.540000e-001 2.506215e-001
      endloop
   endfacet
   facet normal -1.000000e+000 0.000000e+000 0.000000e+000
      outer loop
         vertex 0.000000e+000 2.394866e-001 2.518912e-001
         vertex 0.000000e+000 2.413000e-001 2.506215e-001
         vertex 0.000000e+000 0.000000e+000 0.000000e+000
      endloop
   endfacet
   facet normal -1.000000e+000 0.000000e+000 0.000000e+000
      outer loop
         vertex 0.000000e+000 0.000000e+000 0.000000e+000
         vertex 0.000000e+000 2.413000e-001 2.506215e-001
         vertex 0.000000e+000 2.433063e-001 2.496859e-001
      endloop
   endfacet
   facet normal -1.000000e+000 0.000000e+000 0.000000e+000
      outer loop
         vertex 0.000000e+000 0.000000e+000 0.000000e+000
         vertex 0.000000e+000 2.433063e-001 2.496859e-001
         vertex 0.000000e+000 2.794000e-001 0.000000e+000
      endloop
   endfacet
   facet normal -1.000000e+000 0.000000e+000 0.000000e+000
      outer loop
         vertex 0.000000e+000 2.794000e-001 0.000000e+000
         vertex 0.000000e+000 2.433063e-001 2.496859e-001
         vertex 0.000000e+000 2.454447e-001 2.491129e-001
      endloop
   endfacet
   facet normal -1.000000e+000 0.000000e+000 0.000000e+000
      outer loop
         vertex 0.000000e+000 2.794000e-001 0.000000e+000
         vertex 0.000000e+000 2.454447e-001 2.491129e-001
         vertex 0.000000e+000 2.476500e-001 2.489200e-001
      endloop
   endfacet
   facet normal 0.000000e+000 0.000000e+000 -1.000000e+000
      outer loop
         vertex 2.794000e-001 2.794000e-001 0.000000e+000
         vertex 1.397000e-001 1.524000e-001 0.000000e+000
         vertex 0.000000e+000 2.794000e-001 0.000000e+000
      endloop
   endfacet
   facet normal 0.000000e+000 0.000000e+000 -1.000000e+000
      outer loop
         vertex 0.000000e+000 2.794000e-001 0.000000e+000
         vertex 1.397000e-001 1.524000e-001 0.000000e+000
         vertex 1.374947e-001 1.522071e-001 0.000000e+000
      endloop
   endfacet
   facet normal 0.000000e+000 0.000000e+000 -1.000000e+000
      outer loop
         vertex 1.374947e-001 1.522071e-001 0.000000e+000
         vertex 1.353563e-001 1.516341e-001 0.000000e+000
         vertex 0.000000e+000 2.794000e-001 0.000000e+000
      endloop
   endfacet
   facet normal 0.000000e+000 0.000000e+000 -1.000000e+000
      outer loop
         vertex 0.000000e+000 2.794000e-001 0.000000e+000
         vertex 1.353563e-001 1.516341e-001 0.000000e+000
         vertex 1.333500e-001 1.506985e-001 0.000000e+000
      endloop
   endfacet
   facet normal 0.000000e+000 0.000000e+000 -1.000000e+000
      outer loop
         vertex 0.000000e+000 2.794000e-001 0.000000e+000
         vertex 1.333500e-001 1.506985e-001 0.000000e+000
         vertex 1.315366e-001 1.494288e-001 0.000000e+000
      endloop
   endfacet
   facet normal 0.000000e+000 0.000000e+000 -1.000000e+000
      outer loop
         vertex 1.516341e-001 1.440437e-001 0.000000e+000
         vertex 1.506985e-001 1.460500e-001 0.000000e+000
         vertex 2.794000e-001 2.794000e-001 0.000000e+000
      endloop
   endfacet
   facet normal 0.000000e+000 0.000000e+000 -1.000000e+000
      outer loop
         vertex 1.315366e-001 1.494288e-001 0.000000e+000
         vertex 1.299712e-001 1.478634e-001 0.000000e+000
         vertex 0.000000e+000 2.794000e-001 0.000000e+000
      endloop
   endfacet
   facet normal 0.000000e+000 0.000000e+000 -1.000000e+000
      outer loop
         vertex 0.000000e+000 2.794000e-001 0.000000e+000
         vertex 1.299712e-001 1.478634e-001 0.000000e+000
         vertex 1.287015e-001 1.460500e-001 0.000000e+000
      endloop
   endfacet
   facet normal 0.000000e+000 0.000000e+000 -1.000000e+000
      outer loop
         vertex 0.000000e+000 2.794000e-001 0.000000e+000
         vertex 1.287015e-001 1.460500e-001 0.000000e+000
         vertex 1.277659e-001 1.440437e-001 0.000000e+000
      endloop
   endfacet
   facet normal 0.000000e+000 0.000000e+000 -1.000000e+000
      outer loop
         vertex 1.299712e-001 1.315366e-001 0.000000e+000
         vertex 0.000000e+000 0.000000e+000 0.000000e+000
         vertex 1.287015e-001 1.333500e-001 0.000000e+000
      endloop
   endfacet
   facet normal 0.000000e+000 0.000000e+000 -1.000000e+000
      outer loop
         vertex 1.287015e-001 1.333500e-001 0.000000e+000
         vertex 0.000000e+000 0.000000e+000 0.000000e+000
         vertex 1.277659e-001 1.353563e-001 0.000000e+000
      endloop
   endfacet
   facet normal 0.000000e+000 0.000000e+000 -1.000000e+000
      outer loop
         vertex 1.299712e-001 1.315366e-001 0.000000e+000
         vertex 1.315366e-001 1.299712e-001 0.000000e+000
         vertex 0.000000e+000 0.000000e+000 0.000000e+000
      endloop
   endfacet
   facet normal 0.000000e+000 0.000000e+000 -1.000000e+000
      outer loop
         vertex 0.000000e+000 0.000000e+000 0.000000e+000
         vertex 1.315366e-001 1.299712e-001 0.000000e+000
         vertex 1.333500e-001 1.287015e-001 0.000000e+000
      endloop
   endfacet
   facet normal 0.000000e+000 0.000000e+000 -1.000000e+000
      outer loop
         vertex 0.000000e+000 0.000000e+000 0.000000e+000
         vertex 1.333500e-001 1.287015e-001 0.000000e+000
         vertex 1.353563e-001 1.277659e-001 0.000000e+000
      endloop
   endfacet
   facet normal 0.000000e+000 0.000000e+000 -1.000000e+000
      outer loop
         vertex 1.440437e-001 1.277659e-001 0.000000e+000
         vertex 1.460500e-001 1.287015e-001 0.000000e+000
         vertex 2.794000e-001 0.000000e+000 0.000000e+000
      endloop
   endfacet
   facet normal 0.000000e+000 0.000000e+000 -1.000000e+000
      outer loop
         vertex 2.794000e-001 0.000000e+000 0.000000e+000
         vertex 1.460500e-001 1.287015e-001 0.000000e+000
         vertex 1.478634e-001 1.299712e-001 0.000000e+000
      endloop
   endfacet
   facet normal 0.000000e+000 0.000000e+000 -1.000000e+000
      outer loop
         vertex 1.277659e-001 1.440437e-001 0.000000e+000
         vertex 1.271929e-001 1.419053e-001 0.000000e+000
         vertex 0.000000e+000 2.794000e-001 0.000000e+000
      endloop
   endfacet
   facet normal 0.000000e+000 0.000000e+000 -1.000000e+000
      outer loop
         vertex 0.000000e+000 2.794000e-001 0.000000e+000
         vertex 1.271929e-001 1.419053e-001 0.000000e+000
         vertex 1.270000e-001 1.397000e-001 0.000000e+000
      endloop
   endfacet
   facet normal 0.000000e+000 0.000000e+000 -1.000000e+000
      outer loop
         vertex 0.000000e+000 2.794000e-001 0.000000e+000
         vertex 1.270000e-001 1.397000e-001 0.000000e+000
         vertex 0.000000e+000 0.000000e+000 0.000000e+000
      endloop
   endfacet
   facet normal 0.000000e+000 0.000000e+000 -1.000000e+000
      outer loop
         vertex 0.000000e+000 0.000000e+000 0.000000e+000
         vertex 1.270000e-001 1.397000e-001 0.000000e+000
         vertex 1.271929e-001 1.374947e-001 0.000000e+000
      endloop
   endfacet
   facet normal 0.000000e+000 0.000000e+000 -1.000000e+000
      outer loop
         vertex 0.000000e+000 0.000000e+000 0.000000e+000
         vertex 1.271929e-001 1.374947e-001 0.000000e+000
         vertex 1.277659e-001 1.353563e-001 0.000000e+000
      endloop
   endfacet
   facet normal 0.000000e+000 0.000000e+000 -1.000000e+000
      outer loop
         vertex 1.478634e-001 1.299712e-001 0.000000e+000
         vertex 1.494288e-001 1.315366e-001 0.000000e+000
         vertex 2.794000e-001 0.000000e+000 0.000000e+000
      endloop
   endfacet
   facet normal 0.000000e+000 0.000000e+000 -1.000000e+000
      outer loop
         vertex 2.794000e-001 0.000000e+000 0.000000e+000
         vertex 1.494288e-001 1.315366e-001 0.000000e+000
         vertex 1.506985e-001 1.333500e-001 0.000000e+000
      endloop
   endfacet
   facet normal 0.000000e+000 0.000000e+000 -1.000000e+000
      outer loop
         vertex 2.794000e-001 0.000000e+000 0.000000e+000
         vertex 1.506985e-001 1.333500e-001 0.000000e+000
         vertex 1.516341e-001 1.353563e-001 0.000000e+000
      endloop
   endfacet
   facet normal 0.000000e+000 0.000000e+000 -1.000000e+000
      outer loop
         vertex 1.506985e-001 1.460500e-001 0.000000e+000
         vertex 1.494288e-001 1.478634e-001 0.000000e+000
         vertex 2.794000e-001 2.794000e-001 0.000000e+000
      endloop
   endfacet
   facet normal 0.000000e+000 0.000000e+000 -1.000000e+000
      outer loop
         vertex 2.794000e-001 2.794000e-001 0.000000e+000
         vertex 1.494288e-001 1.478634e-001 0.000000e+000
         vertex 1.478634e-001 1.494288e-001 0.000000e+000
      endloop
   endfacet
   facet normal 0.000000e+000 0.000000e+000 -1.000000e+000
      outer loop
         vertex 2.794000e-001 2.794000e-001 0.000000e+000
         vertex 1.478634e-001 1.494288e-001 0.000000e+000
         vertex 1.460500e-001 1.506985e-001 0.000000e+000
      endloop
   endfacet
   facet normal 0.000000e+000 0.000000e+000 -1.000000e+000
      outer loop
         vertex 1.460500e-001 1.506985e-001 0.000000e+000
         vertex 1.440437e-001 1.516341e-001 0.000000e+000
         vertex 2.794000e-001 2.794000e-001 0.000000e+000
      endloop
   endfacet
   facet normal 0.000000e+000 0.000000e+000 -1.000000e+000
      outer loop
         vertex 2.794000e-001 2.794000e-001 0.000000e+000
         vertex 1.440437e-001 1.516341e-001 0.000000e+000
         vertex 1.419053e-001 1.522071e-001 0.000000e+000
      endloop
   endfacet
   facet normal 0.000000e+000 0.000000e+000 -1.000000e+000
      outer loop
         vertex 2.794000e-001 2.794000e-001 0.000000e+000
         vertex 1.419053e-001 1.522071e-001 0.000000e+000
         vertex 1.397000e-001 1.524000e-001 0.000000e+000
      endloop
   endfacet
   facet normal 0.000000e+000 0.000000e+000 -1.000000e+000
      outer loop
         vertex 1.353563e-001 1.277659e-001 0.000000e+000
         vertex 1.374947e-001 1.271929e-001 0.000000e+000
         vertex 0.000000e+000 0.000000e+000 0.000000e+000
      endloop
   endfacet
   facet normal 0.000000e+000 0.000000e+000 -1.000000e+000
      outer loop
         vertex 0.000000e+000 0.000000e+000 0.000000e+000
         vertex 1.374947e-001 1.271929e-001 0.000000e+000
         vertex 1.397000e-001 1.270000e-001 0.000000e+000
      endloop
   endfacet
   facet normal 0.000000e+000 0.000000e+000 -1.000000e+000
      outer loop
         vertex 0.000000e+000 0.000000e+000 0.000000e+000
         vertex 1.397000e-001 1.270000e-001 0.000000e+000
         vertex 2.794000e-001 0.000000e+000 0.000000e+000
      endloop
   endfacet
   facet normal 0.000000e+000 0.000000e+000 -1.000000e+000
      outer loop
         vertex 2.794000e-001 0.000000e+000 0.000000e+000
         vertex 1.397000e-001 1.270000e-001 0.000000e+000
         vertex 1.419053e-001 1.271929e-001 0.000000e+000
      endloop
   endfacet
   facet normal 0.000000e+000 0.000000e+000 -1.000000e+000
      outer loop
         vertex 2.794000e-001 0.000000e+000 0.000000e+000
         vertex 1.419053e-001 1.271929e-001 0.000000e+000
         vertex 1.440437e-001 1.277659e-001 0.000000e+000
      endloop
   endfacet
   facet normal 0.000000e+000 0.000000e+000 -1.000000e+000
      outer loop
         vertex 1.516341e-001 1.353563e-001 0.000000e+000
         vertex 1.522071e-001 1.374947e-001 0.000000e+000
         vertex 2.794000e-001 0.000000e+000 0.000000e+000
      endloop
   endfacet
   facet normal 0.000000e+000 0.000000e+000 -1.000000e+000
      outer loop
         vertex 2.794000e-001 0.000000e+000 0.000000e+000
         vertex 1.522071e-001 1.374947e-001 0.000000e+000
         vertex 1.524000e-001 1.397000e-001 0.000000e+000
      endloop
   endfacet
   facet normal 0.000000e+000 0.000000e+000 -1.000000e+000
      outer loop
         vertex 2.794000e-001 0.000000e+000 0.000000e+000
         vertex 1.524000e-001 1.397000e-001 0.000000e+000
         vertex 2.794000e-001 2.794000e-001 0.000000e+000
      endloop
   endfacet
   facet normal 0.000000e+000 0.000000e+000 -1.000000e+000
      outer loop
         vertex 2.794000e-001 2.794000e-001 0.000000e+000
         vertex 1.524000e-001 1.397000e-001 0.000000e+000
         vertex 1.522071e-001 1.419053e-001 0.000000e+000
      endloop
   endfacet
   facet normal 0.000000e+000 0.000000e+000 -1.000000e+000
      outer loop
         vertex 2.794000e-001 2.794000e-001 0.000000e+000
         vertex 1.522071e-001 1.419053e-001 0.000000e+000
         vertex 1.516341e-001 1.440437e-001 0.000000e+000
      endloop
   endfacet
   facet normal 0.000000e+000 0.000000e+000 1.000000e+000
      outer loop
         vertex 2.794000e-001 2.794000e-001 2.794000e-001
         vertex 0.000000e+000 2.794000e-001 2.794000e-001
         vertex 2.794000e-001 0.000000e+000 2.794000e-001
      endloop
   endfacet
   facet normal 0.000000e+000 0.000000e+000 1.000000e+000
      outer loop
         vertex 2.794000e-001 0.000000e+000 2.794000e-001
         vertex 0.000000e+000 2.794000e-001 2.794000e-001
         vertex 0.000000e+000 0.000000e+000 2.794000e-001
      endloop
   endfacet
   facet normal 1.000000e+000 0.000000e+000 0.000000e+000
      outer loop
         vertex 2.794000e-001 2.794000e-001 0.000000e+000
         vertex 2.794000e-001 2.794000e-001 2.794000e-001
         vertex 2.794000e-001 0.000000e+000 0.000000e+000
      endloop
   endfacet
   facet normal 1.000000e+000 0.000000e+000 0.000000e+000
      outer loop
         vertex 2.794000e-001 0.000000e+000 0.000000e+000
         vertex 2.794000e-001 2.794000e-001 2.794000e-001
         vertex 2.794000e-001 0.000000e+000 2.794000e-001
      endloop
   endfacet
   facet normal 0.000000e+000 1.000000e+000 0.000000e+000
      outer loop
         vertex 2.794000e-001 2.794000e-001 2.794000e-001
         vertex 2.794000e-001 2.794000e-001 0.000000e+000
         vertex 0.000000e+000 2.794000e-001 2.794000e-001
      endloop
   endfacet
   facet normal 0.000000e+000 1.000000e+000 0.000000e+000
      outer loop
         vertex 0.000000e+000 2.794000e-001 2.794000e-001
         vertex 2.794000e-001 2.794000e-001 0.000000e+000
         vertex 0.000000e+000 2.794000e-001 0.000000e+000
      endloop
   endfacet
   facet normal 0.000000e+000 -1.000000e+000 0.000000e+000
      outer loop
         vertex 2.794000e-001 0.000000e+000 0.000000e+000
         vertex 2.794000e-001 0.000000e+000 2.794000e-001
         vertex 0.000000e+000 0.000000e+000 0.000000e+000
      endloop
   endfacet
   facet normal 0.000000e+000 -1.000000e+000 0.000000e+000
      outer loop
         vertex 0.000000e+000 0.000000e+000 0.000000e+000
         vertex 2.794000e-001 0.000000e+000 2.794000e-001
         vertex 0.000000e+000 0.000000e+000 2.794000e-001
      endloop
   endfacet
   facet normal 5.807914e-002 -9.983120e-001 0.000000e+000
      outer loop
         vertex 1.419053e-001 1.271929e-001 -2.540000e-002
         vertex 1.397000e-001 1.270000e-001 0.000000e+000
         vertex 1.397000e-001 1.270000e-001 -2.540000e-002
      endloop
   endfacet
   facet normal -5.807914e-002 -9.983120e-001 0.000000e+000
      outer loop
         vertex 1.397000e-001 1.270000e-001 -2.540000e-002
         vertex 1.397000e-001 1.270000e-001 0.000000e+000
         vertex 1.374947e-001 1.271929e-001 0.000000e+000
      endloop
   endfacet
   facet normal -1.161583e-001 -9.932307e-001 0.000000e+000
      outer loop
         vertex 1.397000e-001 1.270000e-001 -2.540000e-002
         vertex 1.374947e-001 1.271929e-001 0.000000e+000
         vertex 1.374947e-001 1.271929e-001 -2.540000e-002
      endloop
   endfacet
   facet normal -2.305519e-001 -9.730600e-001 0.000000e+000
      outer loop
         vertex 1.374947e-001 1.271929e-001 -2.540000e-002
         vertex 1.374947e-001 1.271929e-001 0.000000e+000
         vertex 1.353563e-001 1.277659e-001 0.000000e+000
      endloop
   endfacet
   facet normal -2.868663e-001 -9.579706e-001 0.000000e+000
      outer loop
         vertex 1.374947e-001 1.271929e-001 -2.540000e-002
         vertex 1.353563e-001 1.277659e-001 0.000000e+000
         vertex 1.353563e-001 1.277659e-001 -2.540000e-002
      endloop
   endfacet
   facet normal -3.960194e-001 -9.182422e-001 0.000000e+000
      outer loop
         vertex 1.353563e-001 1.277659e-001 -2.540000e-002
         vertex 1.353563e-001 1.277659e-001 0.000000e+000
         vertex 1.333500e-001 1.287015e-001 0.000000e+000
      endloop
   endfacet
   facet normal -4.488580e-001 -8.936031e-001 0.000000e+000
      outer loop
         vertex 1.353563e-001 1.277659e-001 -2.540000e-002
         vertex 1.333500e-001 1.287015e-001 0.000000e+000
         vertex 1.333500e-001 1.287015e-001 -2.540000e-002
      endloop
   endfacet
   facet normal -5.494540e-001 -8.355240e-001 0.000000e+000
      outer loop
         vertex 1.333500e-001 1.287015e-001 -2.540000e-002
         vertex 1.333500e-001 1.287015e-001 0.000000e+000
         vertex 1.315366e-001 1.299712e-001 0.000000e+000
      endloop
   endfacet
   facet normal -5.972114e-001 -8.020839e-001 0.000000e+000
      outer loop
         vertex 1.333500e-001 1.287015e-001 -2.540000e-002
         vertex 1.315366e-001 1.299712e-001 0.000000e+000
         vertex 1.315366e-001 1.299712e-001 -2.540000e-002
      endloop
   endfacet
   facet normal -6.861938e-001 -7.274188e-001 0.000000e+000
      outer loop
         vertex 1.315366e-001 1.299712e-001 -2.540000e-002
         vertex 1.315366e-001 1.299712e-001 0.000000e+000
         vertex 1.299712e-001 1.315366e-001 0.000000e+000
      endloop
   endfacet
   facet normal -7.274188e-001 -6.861938e-001 0.000000e+000
      outer loop
         vertex 1.315366e-001 1.299712e-001 -2.540000e-002
         vertex 1.299712e-001 1.315366e-001 0.000000e+000
         vertex 1.299712e-001 1.315366e-001 -2.540000e-002
      endloop
   endfacet
   facet normal -8.020839e-001 -5.972114e-001 0.000000e+000
      outer loop
         vertex 1.299712e-001 1.315366e-001 -2.540000e-002
         vertex 1.299712e-001 1.315366e-001 0.000000e+000
         vertex 1.287015e-001 1.333500e-001 0.000000e+000
      endloop
   endfacet
   facet normal -8.355240e-001 -5.494540e-001 0.000000e+000
      outer loop
         vertex 1.299712e-001 1.315366e-001 -2.540000e-002
         vertex 1.287015e-001 1.333500e-001 0.000000e+000
         vertex 1.287015e-001 1.333500e-001 -2.540000e-002
      endloop
   endfacet
   facet normal -8.936031e-001 -4.488580e-001 0.000000e+000
      outer loop
         vertex 1.287015e-001 1.333500e-001 -2.540000e-002
         vertex 1.287015e-001 1.333500e-001 0.000000e+000
         vertex 1.277659e-001 1.353563e-001 0.000000e+000
      endloop
   endfacet
   facet normal -9.182422e-001 -3.960194e-001 0.000000e+000
      outer loop
         vertex 1.287015e-001 1.333500e-001 -2.540000e-002
         vertex 1.277659e-001 1.353563e-001 0.000000e+000
         vertex 1.277659e-001 1.353563e-001 -2.540000e-002
      endloop
   endfacet
   facet normal -9.579706e-001 -2.868663e-001 0.000000e+000
      outer loop
         vertex 1.277659e-001 1.353563e-001 -2.540000e-002
         vertex 1.277659e-001 1.353563e-001 0.000000e+000
         vertex 1.271929e-001 1.374947e-001 0.000000e+000
      endloop
   endfacet
   facet normal -9.730600e-001 -2.305519e-001 0.000000e+000
      outer loop
         vertex 1.277659e-001 1.353563e-001 -2.540000e-002
         vertex 1.271929e-001 1.374947e-001 0.000000e+000
         vertex 1.271929e-001 1.374947e-001 -2.540000e-002
      endloop
   endfacet
   facet normal -9.932307e-001 -1.161583e-001 0.000000e+000
      outer loop
         vertex 1.271929e-001 1.374947e-001 -2.540000e-002
         vertex 1.271929e-001 1.374947e-001 0.000000e+000
         vertex 1.270000e-001 1.397000e-001 0.000000e+000
      endloop
   endfacet
   facet normal -9.983120e-001 -5.807914e-002 0.000000e+000
      outer loop
         vertex 1.271929e-001 1.374947e-001 -2.540000e-002
         vertex 1.270000e-001 1.397000e-001 0.000000e+000
         vertex 1.270000e-001 1.397000e-001 -2.540000e-002
      endloop
   endfacet
   facet normal -9.983120e-001 5.807914e-002 0.000000e+000
      outer loop
         vertex 1.270000e-001 1.397000e-001 -2.540000e-002
         vertex 1.270000e-001 1.397000e-001 0.000000e+000
         vertex 1.271929e-001 1.419053e-001 0.000000e+000
      endloop
   endfacet
   facet normal -9.932307e-001 1.161583e-001 0.000000e+000
      outer loop
         vertex 1.270000e-001 1.397000e-001 -2.540000e-002
         vertex 1.271929e-001 1.419053e-001 0.000000e+000
         vertex 1.271929e-001 1.419053e-001 -2.540000e-002
      endloop
   endfacet
   facet normal -9.730600e-001 2.305519e-001 0.000000e+000
      outer loop
         vertex 1.271929e-001 1.419053e-001 -2.540000e-002
         vertex 1.271929e-001 1.419053e-001 0.000000e+000
         vertex 1.277659e-001 1.440437e-001 0.000000e+000
      endloop
   endfacet
   facet normal -9.579706e-001 2.868663e-001 0.000000e+000
      outer loop
         vertex 1.271929e-001 1.419053e-001 -2.540000e-002
         vertex 1.277659e-001 1.440437e-001 0.000000e+000
         vertex 1.277659e-001 1.440437e-001 -2.540000e-002
      endloop
   endfacet
   facet normal -9.182422e-001 3.960194e-001 0.000000e+000
      outer loop
         vertex 1.277659e-001 1.440437e-001 -2.540000e-002
         vertex 1.277659e-001 1.440437e-001 0.000000e+000
         vertex 1.287015e-001 1.460500e-001 0.000000e+000
      endloop
   endfacet
   facet normal -8.936031e-001 4.488580e-001 0.000000e+000
      outer loop
         vertex 1.277659e-001 1.440437e-001 -2.540000e-002
         vertex 1.287015e-001 1.460500e-001 0.000000e+000
         vertex 1.287015e-001 1.460500e-001 -2.540000e-002
      endloop
   endfacet
   facet normal -8.355240e-001 5.494540e-001 0.000000e+000
      outer loop
         vertex 1.287015e-001 1.460500e-001 -2.540000e-002
         vertex 1.287015e-001 1.460500e-001 0.000000e+000
         vertex 1.299712e-001 1.478634e-001 0.000000e+000
      endloop
   endfacet
   facet normal -8.020839e-001 5.972114e-001 0.000000e+000
      outer loop
         vertex 1.287015e-001 1.460500e-001 -2.540000e-002
         vertex 1.299712e-001 1.478634e-001 0.000000e+000
         vertex 1.299712e-001 1.478634e-001 -2.540000e-002
      endloop
   endfacet
   facet normal -7.274188e-001 6.861938e-001 0.000000e+000
      outer loop
         vertex 1.299712e-001 1.478634e-001 -2.540000e-002
         vertex 1.299712e-001 1.478634e-001 0.000000e+000
         vertex 1.315366e-001 1.494288e-001 0.000000e+000
      endloop
   endfacet
   facet normal -6.861938e-001 7.274188e-001 0.000000e+000
      outer loop
         vertex 1.299712e-001 1.478634e-001 -2.540000e-002
         vertex 1.315366e-001 1.494288e-001 0.000000e+000
         vertex 1.315366e-001 1.494288e-001 -2.540000e-002
      endloop
   endfacet
   facet normal -5.972114e-001 8.020839e-001 0.000000e+000
      outer loop
         vertex 1.315366e-001 1.494288e-001 -2.540000e-002
         vertex 1.315366e-001 1.494288e-001 0.000000e+000
         vertex 1.333500e-001 1.506985e-001 0.000000e+000
      endloop
   endfacet
   facet normal -5.494540e-001 8.355240e-001 0.000000e+000
      outer loop
         vertex 1.315366e-001 1.494288e-001 -2.540000e-002
         vertex 1.333500e-001 1.506985e-001 0.000000e+000
         vertex 1.333500e-001 1.506985e-001 -2.540000e-002
      endloop
   endfacet
   facet normal -4.488580e-001 8.936031e-001 0.000000e+000
      outer loop
         vertex 1.333500e-001 1.506985e-001 -2.540000e-002
         vertex 1.333500e-001 1.506985e-001 0.000000e+000
         vertex 1.353563e-001 1.516341e-001 0.000000e+000
      endloop
   endfacet
   facet normal -3.960194e-001 9.182422e-001 0.000000e+000
      outer loop
         vertex 1.333500e-001 1.506985e-001 -2.540000e-002
         vertex 1.353563e-001 1.516341e-001 0.000000e+000
         vertex 1.353563e-001 1.516341e-001 -2.540000e-002
      endloop
   endfacet
   facet normal -2.868663e-001 9.579706e-001 0.000000e+000
      outer loop
         vertex 1.353563e-001 1.516341e-001 -2.540000e-002
         vertex 1.353563e-001 1.516341e-001 0.000000e+000
         vertex 1.374947e-001 1.522071e-001 0.000000e+000
      endloop
   endfacet
   facet normal -2.305519e-001 9.730600e-001 0.000000e+000
      outer loop
         vertex 1.353563e-001 1.516341e-001 -2.540000e-002
         vertex 1.374947e-001 1.522071e-001 0.000000e+000
         vertex 1.374947e-001 1.522071e-001 -2.540000e-002
      endloop
   endfacet
   facet normal -1.161583e-001 9.932307e-001 0.000000e+000
      outer loop
         vertex 1.374947e-001 1.522071e-001 -2.540000e-002
         vertex 1.374947e-001 1.522071e-001 0.000000e+000
         vertex 1.397000e-001 1.524000e-001 0.000000e+000
      endloop
   endfacet
   facet normal -5.807914e-002 9.983120e-001 0.000000e+000
      outer loop
         vertex 1.374947e-001 1.522071e-001 -2.540000e-002
         vertex 1.397000e-001 1.524000e-001 0.000000e+000
         vertex 1.397000e-001 1.524000e-001 -2.540000e-002
      endloop
   endfacet
   facet normal 5.807914e-002 9.983120e-001 0.000000e+000
      outer loop
         vertex 1.397000e-001 1.524000e-001 -2.540000e-002
         vertex 1.397000e-001 1.524000e-001 0.000000e+000
         vertex 1.419053e-001 1.522071e-001 0.000000e+000
      endloop
   endfacet
   facet normal 1.161583e-001 9.932307e-001 0.000000e+000
      outer loop
         vertex 1.397000e-001 1.524000e-001 -2.540000e-002
         vertex 1.419053e-001 1.522071e-001 0.000000e+000
         vertex 1.419053e-001 1.522071e-001 -2.540000e-002
      endloop
   endfacet
   facet normal 2.305519e-001 9.730600e-001 0.000000e+000
      outer loop
         vertex 1.419053e-001 1.522071e-001 -2.540000e-002
         vertex 1.419053e-001 1.522071e-001 0.000000e+000
         vertex 1.440437e-001 1.516341e-001 0.000000e+000
      endloop
   endfacet
   facet normal 2.868663e-001 9.579706e-001 0.000000e+000
      outer loop
         vertex 1.419053e-001 1.522071e-001 -2.540000e-002
         vertex 1.440437e-001 1.516341e-001 0.000000e+000
         vertex 1.440437e-001 1.516341e-001 -2.540000e-002
      endloop
   endfacet
   facet normal 3.960194e-001 9.182422e-001 0.000000e+000
      outer loop
         vertex 1.440437e-001 1.516341e-001 -2.540000e-002
         vertex 1.440437e-001 1.516341e-001 0.000000e+000
         vertex 1.460500e-001 1.506985e-001 0.000000e+000
      endloop
   endfacet
   facet normal 4.488580e-001 8.936031e-001 0.000000e+000
      outer loop
         vertex 1.440437e-001 1.516341e-001 -2.540000e-002
         vertex 1.460500e-001 1.506985e-001 0.000000e+000
         vertex 1.460500e-001 1.506985e-001 -2.540000e-002
      endloop
   endfacet
   facet normal 5.494540e-001 8.355240e-001 0.000000e+000
      outer loop
         vertex 1.460500e-001 1.506985e-001 -2.540000e-002
         vertex 1.460500e-001 1.506985e-001 0.000000e+000
         vertex 1.478634e-001 1.494288e-001 0.000000e+000
      endloop
   endfacet
   facet normal 5.972114e-001 8.020839e-001 0.000000e+000
      outer loop
         vertex 1.460500e-001 1.506985e-001 -2.540000e-002
         vertex 1.478634e-001 1.494288e-001 0.000000e+000
         vertex 1.478634e-001 1.494288e-001 -2.540000e-002
      endloop
   endfacet
   facet normal 6.861938e-001 7.274188e-001 0.000000e+000
      outer loop
         vertex 1.478634e-001 1.494288e-001 -2.540000e-002
         vertex 1.478634e-001 1.494288e-001 0.000000e+000
         vertex 1.494288e-001 1.478634e-001 0.000000e+000
      endloop
   endfacet
   facet normal 7.274188e-001 6.861938e-001 0.000000e+000
      outer loop
         vertex 1.478634e-001 1.494288e-001 -2.540000e-002
         vertex 1.494288e-001 1.478634e-001 0.000000e+000
         vertex 1.494288e-001 1.478634e-001 -2.540000e-002
      endloop
   endfacet
   facet normal 8.020839e-001 5.972114e-001 0.000000e+000
      outer loop
         vertex 1.494288e-001 1.478634e-001 -2.540000e-002
         vertex 1.494288e-001 1.478634e-001 0.000000e+000
         vertex 1.506985e-001 1.460500e-001 0.000000e+000
      endloop
   endfacet
   facet normal 8.355240e-001 5.494540e-001 0.000000e+000
      outer loop
         vertex 1.494288e-001 1.478634e-001 -2.540000e-002
         vertex 1.506985e-001 1.460500e-001 0.000000e+000
         vertex 1.506985e-001 1.460500e-001 -2.540000e-002
      endloop
   endfacet
   facet normal 8.936031e-001 4.488580e-001 0.000000e+000
      outer loop
         vertex 1.506985e-001 1.460500e-001 -2.540000e-002
         vertex 1.506985e-001 1.460500e-001 0.000000e+000
         vertex 1.516341e-001 1.440437e-001 0.000000e+000
      endloop
   endfacet
   facet normal 9.182422e-001 3.960194e-001 0.000000e+000
      outer loop
         vertex 1.506985e-001 1.460500e-001 -2.540000e-002
         vertex 1.516341e-001 1.440437e-001 0.000000e+000
         vertex 1.516341e-001 1.440437e-001 -2.540000e-002
      endloop
   endfacet
   facet normal 9.579706e-001 2.868663e-001 0.000000e+000
      outer loop
         vertex 1.516341e-001 1.440437e-001 -2.540000e-002
         vertex 1.516341e-001 1.440437e-001 0.000000e+000
         vertex 1.522071e-001 1.419053e-001 0.000000e+000
      endloop
   endfacet
   facet normal 9.730600e-001 2.305519e-001 0.000000e+000
      outer loop
         vertex 1.516341e-001 1.440437e-001 -2.540000e-002
         vertex 1.522071e-001 1.419053e-001 0.000000e+000
         vertex 1.522071e-001 1.419053e-001 -2.540000e-002
      endloop
   endfacet
   facet normal 9.932307e-001 1.161583e-001 0.000000e+000
      outer loop
         vertex 1.522071e-001 1.419053e-001 -2.540000e-002
         vertex 1.522071e-001 1.419053e-001 0.000000e+000
         vertex 1.524000e-001 1.397000e-001 0.000000e+000
      endloop
   endfacet
   facet normal 9.983120e-001 5.807914e-002 0.000000e+000
      outer loop
         vertex 1.522071e-001 1.419053e-001 -2.540000e-002
         vertex 1.524000e-001 1.397000e-001 0.000000e+000
         vertex 1.524000e-001 1.397000e-001 -2.540000e-002
      endloop
   endfacet
   facet normal 9.983120e-001 -5.807914e-002 0.000000e+000
      outer loop
         vertex 1.524000e-001 1.397000e-001 -2.540000e-002
         vertex 1.524000e-001 1.397000e-001 0.000000e+000
         vertex 1.522071e-001 1.374947e-001 0.000000e+000
      endloop
   endfacet
   facet normal 9.932307e-001 -1.161583e-001 0.000000e+000
      outer loop
         vertex 1.524000e-001 1.397000e-001 -2.540000e-002
         vertex 1.522071e-001 1.374947e-001 0.000000e+000
         vertex 1.522071e-001 1.374947e-001 -2.540000e-002
      endloop
   endfacet
   facet normal 9.730600e-001 -2.305519e-001 0.000000e+000
      outer loop
         vertex 1.522071e-001 1.374947e-001 -2.540000e-002
         vertex 1.522071e-001 1.374947e-001 0.000000e+000
         vertex 1.516341e-001 1.353563e-001 0.000000e+000
      endloop
   endfacet
   facet normal 9.579706e-001 -2.868663e-001 0.000000e+000
      outer loop
         vertex 1.522071e-001 1.374947e-001 -2.540000e-002
         vertex 1.516341e-001 1.353563e-001 0.000000e+000
         vertex 1.516341e-001 1.353563e-001 -2.540000e-002
      endloop
   endfacet
   facet normal 9.182422e-001 -3.960194e-001 0.000000e+000
      outer loop
         vertex 1.516341e-001 1.353563e-001 -2.540000e-002
         vertex 1.516341e-001 1.353563e-001 0.000000e+000
         vertex 1.506985e-001 1.333500e-001 0.000000e+000
      endloop
   endfacet
   facet normal 8.936031e-001 -4.488580e-001 0.000000e+000
      outer loop
         vertex 1.516341e-001 1.353563e-001 -2.540000e-002
         vertex 1.506985e-001 1.333500e-001 0.000000e+000
         vertex 1.506985e-001 1.333500e-001 -2.540000e-002
      endloop
   endfacet
   facet normal 8.355240e-001 -5.494540e-001 0.000000e+000
      outer loop
         vertex 1.506985e-001 1.333500e-001 -2.540000e-002
         vertex 1.506985e-001 1.333500e-001 0.000000e+000
         vertex 1.494288e-001 1.315366e-001 0.000000e+000
      endloop
   endfacet
   facet normal 8.020839e-001 -5.972114e-001 0.000000e+000
      outer loop
         vertex 1.506985e-001 1.333500e-001 -2.540000e-002
         vertex 1.494288e-001 1.315366e-001 0.000000e+000
         vertex 1.494288e-001 1.315366e-001 -2.540000e-002
      endloop
   endfacet
   facet normal 7.274188e-001 -6.861938e-001 0.000000e+000
      outer loop
         vertex 1.494288e-001 1.315366e-001 -2.540000e-002
         vertex 1.494288e-001 1.315366e-001 0.000000e+000
         vertex 1.478634e-001 1.299712e-001 0.000000e+000
      endloop
   endfacet
   facet normal 6.861938e-001 -7.274188e-001 0.000000e+000
      outer loop
         vertex 1.494288e-001 1.315366e-001 -2.540000e-002
         vertex 1.478634e-001 1.299712e-001 0.000000e+000
         vertex 1.478634e-001 1.299712e-001 -2.540000e-002
      endloop
   endfacet
   facet normal 5.972114e-001 -8.020839e-001 0.000000e+000
      outer loop
         vertex 1.478634e-001 1.299712e-001 -2.540000e-002
         vertex 1.478634e-001 1.299712e-001 0.000000e+000
         vertex 1.460500e-001 1.287015e-001 0.000000e+000
      endloop
   endfacet
   facet normal 5.494540e-001 -8.355240e-001 0.000000e+000
      outer loop
         vertex 1.478634e-001 1.299712e-001 -2.540000e-002
         vertex 1.460500e-001 1.287015e-001 0.000000e+000
         vertex 1.460500e-001 1.287015e-001 -2.540000e-002
      endloop
   endfacet
   facet normal 4.488580e-001 -8.936031e-001 0.000000e+000
      outer loop
         vertex 1.460500e-001 1.287015e-001 -2.540000e-002
         vertex 1.460500e-001 1.287015e-001 0.000000e+000
         vertex 1.440437e-001 1.277659e-001 0.000000e+000
      endloop
   endfacet
   facet normal 3.960194e-001 -9.182422e-001 0.000000e+000
      outer loop
         vertex 1.460500e-001 1.287015e-001 -2.540000e-002
         vertex 1.440437e-001 1.277659e-001 0.000000e+000
         vertex 1.440437e-001 1.277659e-001 -2.540000e-002
      endloop
   endfacet
   facet normal 2.868663e-001 -9.579706e-001 0.000000e+000
      outer loop
         vertex 1.440437e-001 1.277659e-001 -2.540000e-002
         vertex 1.440437e-001 1.277659e-001 0.000000e+000
         vertex 1.419053e-001 1.271929e-001 0.000000e+000
      endloop
   endfacet
   facet normal 2.305519e-001 -9.730600e-001 0.000000e+000
      outer loop
         vertex 1.440437e-001 1.277659e-001 -2.540000e-002
         vertex 1.419053e-001 1.271929e-001 0.000000e+000
         vertex 1.419053e-001 1.271929e-001 -2.540000e-002
      endloop
   endfacet
   facet normal 1.161583e-001 -9.932307e-001 0.000000e+000
      outer loop
         vertex 1.419053e-001 1.271929e-001 -2.540000e-002
         vertex 1.419053e-001 1.271929e-001 0.000000e+000
         vertex 1.397000e-001 1.270000e-001 0.000000e+000
      endloop
   endfacet
   facet normal 0.000000e+000 9.983120e-001 5.807914e-002
      outer loop
         vertex -2.540000e-002 2.601570e-001 2.638253e-001
         vertex 0.000000e+000 2.603500e-001 2.616200e-001
         vertex -2.540000e-002 2.603500e-001 2.616200e-001
      endloop
   endfacet
   facet normal 0.000000e+000 9.983120e-001 -5.807914e-002
      outer loop
         vertex -2.540000e-002 2.603500e-001 2.616200e-001
         vertex 0.000000e+000 2.603500e-001 2.616200e-001
         vertex 0.000000e+000 2.601570e-001 2.594147e-001
      endloop
   endfacet
   facet normal 0.000000e+000 9.932307e-001 -1.161583e-001
      outer loop
         vertex -2.540000e-002 2.603500e-001 2.616200e-001
         vertex 0.000000e+000 2.601570e-001 2.594147e-001
         vertex -2.540000e-002 2.601570e-001 2.594147e-001
      endloop
   endfacet
   facet normal 0.000000e+000 9.730600e-001 -2.305519e-001
      outer loop
         vertex -2.540000e-002 2.601570e-001 2.594147e-001
         vertex 0.000000e+000 2.601570e-001 2.594147e-001
         vertex 0.000000e+000 2.595841e-001 2.572764e-001
      endloop
   endfacet
   facet normal 0.000000e+000 9.579706e-001 -2.868663e-001
      outer loop
         vertex -2.540000e-002 2.601570e-001 2.594147e-001
         vertex 0.000000e+000 2.595841e-001 2.572764e-001
         vertex -2.540000e-002 2.595841e-001 2.572764e-001
      endloop
   endfacet
   facet normal 0.000000e+000 9.182422e-001 -3.960194e-001
      outer loop
         vertex -2.540000e-002 2.595841e-001 2.572764e-001
         vertex 0.000000e+000 2.595841e-001 2.572764e-001
         vertex 0.000000e+000 2.586485e-001 2.552700e-001
      endloop
   endfacet
   facet normal 0.000000e+000 8.936031e-001 -4.488580e-001
      outer loop
         vertex -2.540000e-002 2.595841e-001 2.572764e-001
         vertex 0.000000e+000 2.586485e-001 2.552700e-001
         vertex -2.540000e-002 2.586485e-001 2.552700e-001
      endloop
   endfacet
   facet normal 0.000000e+000 8.355240e-001 -5.494540e-001
      outer loop
         vertex -2.540000e-002 2.586485e-001 2.552700e-001
         vertex 0.000000e+000 2.586485e-001 2.552700e-001
         vertex 0.000000e+000 2.573788e-001 2.534566e-001
      endloop
   endfacet
   facet normal 0.000000e+000 8.020839e-001 -5.972114e-001
      outer loop
         vertex -2.540000e-002 2.586485e-001 2.552700e-001
         vertex 0.000000e+000 2.573788e-001 2.534566e-001
         vertex -2.540000e-002 2.573788e-001 2.534566e-001
      endloop
   endfacet
   facet normal 0.000000e+000 7.274188e-001 -6.861938e-001
      outer loop
         vertex -2.540000e-002 2.573788e-001 2.534566e-001
         vertex 0.000000e+000 2.573788e-001 2.534566e-001
         vertex 0.000000e+000 2.558134e-001 2.518912e-001
      endloop
   endfacet
   facet normal 0.000000e+000 6.861938e-001 -7.274188e-001
      outer loop
         vertex -2.540000e-002 2.573788e-001 2.534566e-001
         vertex 0.000000e+000 2.558134e-001 2.518912e-001
         vertex -2.540000e-002 2.558134e-001 2.518912e-001
      endloop
   endfacet
   facet normal 0.000000e+000 5.972114e-001 -8.020839e-001
      outer loop
         vertex -2.540000e-002 2.558134e-001 2.518912e-001
         vertex 0.000000e+000 2.558134e-001 2.518912e-001
         vertex 0.000000e+000 2.540000e-001 2.506215e-001
      endloop
   endfacet
   facet normal 0.000000e+000 5.494540e-001 -8.355240e-001
      outer loop
         vertex -2.540000e-002 2.558134e-001 2.518912e-001
         vertex 0.000000e+000 2.540000e-001 2.506215e-001
         vertex -2.540000e-002 2.540000e-001 2.506215e-001
      endloop
   endfacet
   facet normal 0.000000e+000 4.488580e-001 -8.936031e-001
      outer loop
         vertex -2.540000e-002 2.540000e-001 2.506215e-001
         vertex 0.000000e+000 2.540000e-001 2.506215e-001
         vertex 0.000000e+000 2.519937e-001 2.496859e-001
      endloop
   endfacet
   facet normal 0.000000e+000 3.960194e-001 -9.182422e-001
      outer loop
         vertex -2.540000e-002 2.540000e-001 2.506215e-001
         vertex 0.000000e+000 2.519937e-001 2.496859e-001
         vertex -2.540000e-002 2.519937e-001 2.496859e-001
      endloop
   endfacet
   facet normal 0.000000e+000 2.868663e-001 -9.579706e-001
      outer loop
         vertex -2.540000e-002 2.519937e-001 2.496859e-001
         vertex 0.000000e+000 2.519937e-001 2.496859e-001
         vertex 0.000000e+000 2.498553e-001 2.491129e-001
      endloop
   endfacet
   facet normal 0.000000e+000 2.305519e-001 -9.730600e-001
      outer loop
         vertex -2.540000e-002 2.519937e-001 2.496859e-001
         vertex 0.000000e+000 2.498553e-001 2.491129e-001
         vertex -2.540000e-002 2.498553e-001 2.491129e-001
      endloop
   endfacet
   facet normal 0.000000e+000 1.161583e-001 -9.932307e-001
      outer loop
         vertex -2.540000e-002 2.498553e-001 2.491129e-001
         vertex 0.000000e+000 2.498553e-001 2.491129e-001
         vertex 0.000000e+000 2.476500e-001 2.489200e-001
      endloop
   endfacet
   facet normal 0.000000e+000 5.807914e-002 -9.983120e-001
      outer loop
         vertex -2.540000e-002 2.498553e-001 2.491129e-001
         vertex 0.000000e+000 2.476500e-001 2.489200e-001
         vertex -2.540000e-002 2.476500e-001 2.489200e-001
      endloop
   endfacet
   facet normal 0.000000e+000 -5.807914e-002 -9.983120e-001
      outer loop
         vertex -2.540000e-002 2.476500e-001 2.489200e-001
         vertex 0.000000e+000 2.476500e-001 2.489200e-001
         vertex 0.000000e+000 2.454447e-001 2.491129e-001
      endloop
   endfacet
   facet normal 0.000000e+000 -1.161583e-001 -9.932307e-001
      outer loop
         vertex -2.540000e-002 2.476500e-001 2.489200e-001
         vertex 0.000000e+000 2.454447e-001 2.491129e-001
         vertex -2.540000e-002 2.454447e-001 2.491129e-001
      endloop
   endfacet
   facet normal 0.000000e+000 -2.305519e-001 -9.730600e-001
      outer loop
         vertex -2.540000e-002 2.454447e-001 2.491129e-001
         vertex 0.000000e+000 2.454447e-001 2.491129e-001
         vertex 0.000000e+000 2.433063e-001 2.496859e-001
      endloop
   endfacet
   facet normal 0.000000e+000 -2.868663e-001 -9.579706e-001
      outer loop
         vertex -2.540000e-002 2.454447e-001 2.491129e-001
         vertex 0.000000e+000 2.433063e-001 2.496859e-001
         vertex -2.540000e-002 2.433063e-001 2.496859e-001
      endloop
   endfacet
   facet normal 0.000000e+000 -3.960194e-001 -9.182422e-001
      outer loop
         vertex -2.540000e-002 2.433063e-001 2.496859e-001
         vertex 0.000000e+000 2.433063e-001 2.496859e-001
         vertex 0.000000e+000 2.413000e-001 2.506215e-001
      endloop
   endfacet
   facet normal 0.000000e+000 -4.488580e-001 -8.936031e-001
      outer loop
         vertex -2.540000e-002 2.433063e-001 2.496859e-001
         vertex 0.000000e+000 2.413000e-001 2.506215e-001
         vertex -2.540000e-002 2.413000e-001 2.506215e-001
      endloop
   endfacet
   facet normal 0.000000e+000 -5.494540e-001 -8.355240e-001
      outer loop
         vertex -2.540000e-002 2.413000e-001 2.506215e-001
         vertex 0.000000e+000 2.413000e-001 2.506215e-001
         vertex 0.000000e+000 2.394866e-001 2.518912e-001
      endloop
   endfacet
   facet normal 0.000000e+000 -5.972114e-001 -8.020839e-001
      outer loop
         vertex -2.540000e-002 2.413000e-001 2.506215e-001
         vertex 0.000000e+000 2.394866e-001 2.518912e-001
         vertex -2.540000e-002 2.394866e-001 2.518912e-001
      endloop
   endfacet
   facet normal 0.000000e+000 -6.861938e-001 -7.274188e-001
      outer loop
         vertex -2.540000e-002 2.394866e-001 2.518912e-001
         vertex 0.000000e+000 2.394866e-001 2.518912e-001
         vertex 0.000000e+000 2.379212e-001 2.534566e-001
      endloop
   endfacet
   facet normal 0.000000e+000 -7.274188e-001 -6.861938e-001
      outer loop
         vertex -2.540000e-002 2.394866e-001 2.518912e-001
         vertex 0.000000e+000 2.379212e-001 2.534566e-001
         vertex -2.540000e-002 2.379212e-001 2.534566e-001
      endloop
   endfacet
   facet normal 0.000000e+000 -8.020839e-001 -5.972114e-001
      outer loop
         vertex -2.540000e-002 2.379212e-001 2.534566e-001
         vertex 0.000000e+000 2.379212e-001 2.534566e-001
         vertex 0.000000e+000 2.366515e-001 2.552700e-001
      endloop
   endfacet
   facet normal 0.000000e+000 -8.355240e-001 -5.494540e-001
      outer loop
         vertex -2.540000e-002 2.379212e-001 2.534566e-001
         vertex 0.000000e+000 2.366515e-001 2.552700e-001
         vertex -2.540000e-002 2.366515e-001 2.552700e-001
      endloop
   endfacet
   facet normal 0.000000e+000 -8.936031e-001 -4.488580e-001
      outer loop
         vertex -2.540000e-002 2.366515e-001 2.552700e-001
         vertex 0.000000e+000 2.366515e-001 2.552700e-001
         vertex 0.000000e+000 2.357159e-001 2.572764e-001
      endloop
   endfacet
   facet normal 0.000000e+000 -9.182422e-001 -3.960194e-001
      outer loop
         vertex -2.540000e-002 2.366515e-001 2.552700e-001
         vertex 0.000000e+000 2.357159e-001 2.572764e-001
         vertex -2.540000e-002 2.357159e-001 2.572764e-001
      endloop
   endfacet
   facet normal 0.000000e+000 -9.579706e-001 -2.868663e-001
      outer loop
         vertex -2.540000e-002 2.357159e-001 2.572764e-001
         vertex 0.000000e+000 2.357159e-001 2.572764e-001
         vertex 0.000000e+000 2.351429e-001 2.594147e-001
      endloop
   endfacet
   facet normal 0.000000e+000 -9.730600e-001 -2.305519e-001
      outer loop
         vertex -2.540000e-002 2.357159e-001 2.572764e-001
         vertex 0.000000e+000 2.351429e-001 2.594147e-001
         vertex -2.540000e-002 2.351429e-001 2.594147e-001
      endloop
   endfacet
   facet normal 0.000000e+000 -9.932307e-001 -1.161583e-001
      outer loop
         vertex -2.540000e-002 2.351429e-001 2.594147e-001
         vertex 0.000000e+000 2.351429e-001 2.594147e-001
         vertex 0.000000e+000 2.349500e-001 2.616200e-001
      endloop
   endfacet
   facet normal 0.000000e+000 -9.983120e-001 -5.807914e-002
      outer loop
         vertex -2.540000e-002 2.351429e-001 2.594147e-001
         vertex 0.000000e+000 2.349500e-001 2.616200e-001
         vertex -2.540000e-002 2.349500e-001 2.616200e-001
      endloop
   endfacet
   facet normal 0.000000e+000 -9.983120e-001 5.807914e-002
      outer loop
         vertex -2.540000e-002 2.349500e-001 2.616200e-001
         vertex 0.000000e+000 2.349500e-001 2.616200e-001
         vertex 0.000000e+000 2.351429e-001 2.638253e-001
      endloop
   endfacet
   facet normal 0.000000e+000 -9.932307e-001 1.161583e-001
      outer loop
         vertex -2.540000e-002 2.349500e-001 2.616200e-001
         vertex 0.000000e+000 2.351429e-001 2.638253e-001
         vertex -2.540000e-002 2.351429e-001 2.638253e-001
      endloop
   endfacet
   facet normal 0.000000e+000 -9.730600e-001 2.305519e-001
      outer loop
         vertex -2.540000e-002 2.351429e-001 2.638253e-001
         vertex 0.000000e+000 2.351429e-001 2.638253e-001
         vertex 0.000000e+000 2.357159e-001 2.659636e-001
      endloop
   endfacet
   facet normal 0.000000e+000 -9.579706e-001 2.868663e-001
      outer loop
         vertex -2.540000e-002 2.351429e-001 2.638253e-001
         vertex 0.000000e+000 2.357159e-001 2.659636e-001
         vertex -2.540000e-002 2.357159e-001 2.659636e-001
      endloop
   endfacet
   facet normal 0.000000e+000 -9.182422e-001 3.960194e-001
      outer loop
         vertex -2.540000e-002 2.357159e-001 2.659636e-001
         vertex 0.000000e+000 2.357159e-001 2.659636e-001
         vertex 0.000000e+000 2.366515e-001 2.679700e-001
      endloop
   endfacet
   facet normal 0.000000e+000 -8.936031e-001 4.488580e-001
      outer loop
         vertex -2.540000e-002 2.357159e-001 2.659636e-001
         vertex 0.000000e+000 2.366515e-001 2.679700e-001
         vertex -2.540000e-002 2.366515e-001 2.679700e-001
      endloop
   endfacet
   facet normal 0.000000e+000 -8.355240e-001 5.494540e-001
      outer loop
         vertex -2.540000e-002 2.366515e-001 2.679700e-001
         vertex 0.000000e+000 2.366515e-001 2.679700e-001
         vertex 0.000000e+000 2.379212e-001 2.697834e-001
      endloop
   endfacet
   facet normal 0.000000e+000 -8.020839e-001 5.972114e-001
      outer loop
         vertex -2.540000e-002 2.366515e-001 2.679700e-001
         vertex 0.000000e+000 2.379212e-001 2.697834e-001
         vertex -2.540000e-002 2.379212e-001 2.697834e-001
      endloop
   endfacet
   facet normal 0.000000e+000 -7.274188e-001 6.861938e-001
      outer loop
         vertex -2.540000e-002 2.379212e-001 2.697834e-001
         vertex 0.000000e+000 2.379212e-001 2.697834e-001
         vertex 0.000000e+000 2.394866e-001 2.713488e-001
      endloop
   endfacet
   facet normal 0.000000e+000 -6.861938e-001 7.274188e-001
      outer loop
         vertex -2.540000e-002 2.379212e-001 2.697834e-001
         vertex 0.000000e+000 2.394866e-001 2.713488e-001
         vertex -2.540000e-002 2.394866e-001 2.713488e-001
      endloop
   endfacet
   facet normal 0.000000e+000 -5.972114e-001 8.020839e-001
      outer loop
         vertex -2.540000e-002 2.394866e-001 2.713488e-001
         vertex 0.000000e+000 2.394866e-001 2.713488e-001
         vertex 0.000000e+000 2.413000e-001 2.726185e-001
      endloop
   endfacet
   facet normal 0.000000e+000 -5.494540e-001 8.355240e-001
      outer loop
         vertex -2.540000e-002 2.394866e-001 2.713488e-001
         vertex 0.000000e+000 2.413000e-001 2.726185e-001
         vertex -2.540000e-002 2.413000e-001 2.726185e-001
      endloop
   endfacet
   facet normal 0.000000e+000 -4.488580e-001 8.936031e-001
      outer loop
         vertex -2.540000e-002 2.413000e-001 2.726185e-001
         vertex 0.000000e+000 2.413000e-001 2.726185e-001
         vertex 0.000000e+000 2.433063e-001 2.735541e-001
      endloop
   endfacet
   facet normal 0.000000e+000 -3.960194e-001 9.182422e-001
      outer loop
         vertex -2.540000e-002 2.413000e-001 2.726185e-001
         vertex 0.000000e+000 2.433063e-001 2.735541e-001
         vertex -2.540000e-002 2.433063e-001 2.735541e-001
      endloop
   endfacet
   facet normal 0.000000e+000 -2.868663e-001 9.579706e-001
      outer loop
         vertex -2.540000e-002 2.433063e-001 2.735541e-001
         vertex 0.000000e+000 2.433063e-001 2.735541e-001
         vertex 0.000000e+000 2.454447e-001 2.741271e-001
      endloop
   endfacet
   facet normal 0.000000e+000 -2.305519e-001 9.730600e-001
      outer loop
         vertex -2.540000e-002 2.433063e-001 2.735541e-001
         vertex 0.000000e+000 2.454447e-001 2.741271e-001
         vertex -2.540000e-002 2.454447e-001 2.741271e-001
      endloop
   endfacet
   facet normal 0.000000e+000 -1.161583e-001 9.932307e-001
      outer loop
         vertex -2.540000e-002 2.454447e-001 2.741271e-001
         vertex 0.000000e+000 2.454447e-001 2.741271e-001
         vertex 0.000000e+000 2.476500e-001 2.743200e-001
      endloop
   endfacet
   facet normal 0.000000e+000 -5.807914e-002 9.983120e-001
      outer loop
         vertex -2.540000e-002 2.454447e-001 2.741271e-001
         vertex 0.000000e+000 2.476500e-001 2.743200e-001
         vertex -2.540000e-002 2.476500e-001 2.743200e-001
      endloop
   endfacet
   facet normal 0.000000e+000 5.807914e-002 9.983120e-001
      outer loop
         vertex -2.540000e-002 2.476500e-001 2.743200e-001
         vertex 0.000000e+000 2.476500e-001 2.743200e-001
         vertex 0.000000e+000 2.498553e-001 2.741271e-001
      endloop
   endfacet
   facet normal 0.000000e+000 1.161583e-001 9.932307e-001
      outer loop
         vertex -2.540000e-002 2.476500e-001 2.743200e-001
         vertex 0.000000e+000 2.498553e-001 2.741271e-001
         vertex -2.540000e-002 2.498553e-001 2.741271e-001
      endloop
   endfacet
   facet normal 0.000000e+000 2.305519e-001 9.730600e-001
      outer loop
         vertex -2.540000e-002 2.498553e-001 2.741271e-001
         vertex 0.000000e+000 2.498553e-001 2.741271e-001
         vertex 0.000000e+000 2.519937e-001 2.735541e-001
      endloop
   endfacet
   facet normal 0.000000e+000 2.868663e-001 9.579706e-001
      outer loop
         vertex -2.540000e-002 2.498553e-001 2.741271e-001
         vertex 0.000000e+000 2.519937e-001 2.735541e-001
         vertex -2.540000e-002 2.519937e-001 2.735541e-001
      endloop
   endfacet
   facet normal 0.000000e+000 3.960194e-001 9.182422e-001
      outer loop
         vertex -2.540000e-002 2.519937e-001 2.735541e-001
         vertex 0.000000e+000 2.519937e-001 2.735541e-001
         vertex 0.000000e+000 2.540000e-001 2.726185e-001
      endloop
   endfacet
   facet normal 0.000000e+000 4.488580e-001 8.936031e-001
      outer loop
         vertex -2.540000e-002 2.519937e-001 2.735541e-001
         vertex 0.000000e+000 2.540000e-001 2.726185e-001
         vertex -2.540000e-002 2.540000e-001 2.726185e-001
      endloop
   endfacet
   facet normal 0.000000e+000 5.494540e-001 8.355240e-001
      outer loop
         vertex -2.540000e-002 2.540000e-001 2.726185e-001
         vertex 0.000000e+000 2.540000e-001 2.726185e-001
         vertex 0.000000e+000 2.558134e-001 2.713488e-001
      endloop
   endfacet
   facet normal 0.000000e+000 5.972114e-001 8.020839e-001
      outer loop
         vertex -2.540000e-002 2.540000e-001 2.726185e-001
         vertex 0.000000e+000 2.558134e-001 2.713488e-001
         vertex -2.540000e-002 2.558134e-001 2.713488e-001
      endloop
   endfacet
   facet normal 0.000000e+000 6.861938e-001 7.274188e-001
      outer loop
         vertex -2.540000e-002 2.558134e-001 2.713488e-001
         vertex 0.000000e+000 2.558134e-001 2.713488e-001
         vertex 0.000000e+000 2.573788e-001 2.697834e-001
      endloop
   endfacet
   facet normal 0.000000e+000 7.274188e-001 6.861938e-001
      outer loop
         vertex -2.540000e-002 2.558134e-001 2.713488e-001
         vertex 0.000000e+000 2.573788e-001 2.697834e-001
         vertex -2.540000e-002 2.573788e-001 2.697834e-001
      endloop
   endfacet
   facet normal 0.000000e+000 8.020839e-001 5.972114e-001
      outer loop
         vertex -2.540000e-002 2.573788e-001 2.697834e-001
         vertex 0.000000e+000 2.573788e-001 2.697834e-001
         vertex 0.000000e+000 2.586485e-001 2.679700e-001
      endloop
   endfacet
   facet normal 0.000000e+000 8.355240e-001 5.494540e-001
      outer loop
         vertex -2.540000e-002 2.573788e-001 2.697834e-001
         vertex 0.000000e+000 2.586485e-001 2.679700e-001
         vertex -2.540000e-002 2.586485e-001 2.679700e-001
      endloop
   endfacet
   facet normal 0.000000e+000 8.936031e-001 4.488580e-001
      outer loop
         vertex -2.540000e-002 2.586485e-001 2.679700e-001
         vertex 0.000000e+000 2.586485e-001 2.679700e-001
         vertex 0.000000e+000 2.595841e-001 2.659636e-001
      endloop
   endfacet
   facet normal 0.000000e+000 9.182422e-001 3.960194e-001
      outer loop
         vertex -2.540000e-002 2.586485e-001 2.679700e-001
         vertex 0.000000e+000 2.595841e-001 2.659636e-001
         vertex -2.540000e-002 2.595841e-001 2.659636e-001
      endloop
   endfacet
   facet normal 0.000000e+000 9.579706e-001 2.868663e-001
      outer loop
         vertex -2.540000e-002 2.595841e-001 2.659636e-001
         vertex 0.000000e+000 2.595841e-001 2.659636e-001
         vertex 0.000000e+000 2.601570e-001 2.638253e-001
      endloop
   endfacet
   facet normal 0.000000e+000 9.730600e-001 2.305519e-001
      outer loop
         vertex -2.540000e-002 2.595841e-001 2.659636e-001
         vertex 0.000000e+000 2.601570e-001 2.638253e-001
         vertex -2.540000e-002 2.601570e-001 2.638253e-001
      endloop
   endfacet
   facet normal 0.000000e+000 9.932307e-001 1.161583e-001
      outer loop
         vertex -2.540000e-002 2.601570e-001 2.638253e-001
         vertex 0.000000e+000 2.601570e-001 2.638253e-001
         vertex 0.000000e+000 2.603500e-001 2.616200e-001
      endloop
   endfacet
endsolid

  solid patch1
   facet normal 0.000000e+000 0.000000e+000 -1.000000e+000
      outer loop
         vertex 1.353563e-001 1.277659e-001 -2.540000e-002
         vertex 1.440437e-001 1.516341e-001 -2.540000e-002
         vertex 1.460500e-001 1.506985e-001 -2.540000e-002
      endloop
   endfacet
   facet normal 0.000000e+000 0.000000e+000 -1.000000e+000
      outer loop
         vertex 1.460500e-001 1.506985e-001 -2.540000e-002
         vertex 1.478634e-001 1.494288e-001 -2.540000e-002
         vertex 1.353563e-001 1.277659e-001 -2.540000e-002
      endloop
   endfacet
   facet normal 0.000000e+000 0.000000e+000 -1.000000e+000
      outer loop
         vertex 1.353563e-001 1.277659e-001 -2.540000e-002
         vertex 1.478634e-001 1.494288e-001 -2.540000e-002
         vertex 1.494288e-001 1.478634e-001 -2.540000e-002
      endloop
   endfacet
   facet normal 0.000000e+000 0.000000e+000 -1.000000e+000
      outer loop
         vertex 1.353563e-001 1.277659e-001 -2.540000e-002
         vertex 1.494288e-001 1.478634e-001 -2.540000e-002
         vertex 1.506985e-001 1.460500e-001 -2.540000e-002
      endloop
   endfacet
   facet normal 0.000000e+000 0.000000e+000 -1.000000e+000
      outer loop
         vertex 1.506985e-001 1.460500e-001 -2.540000e-002
         vertex 1.516341e-001 1.440437e-001 -2.540000e-002
         vertex 1.353563e-001 1.277659e-001 -2.540000e-002
      endloop
   endfacet
   facet normal 0.000000e+000 0.000000e+000 -1.000000e+000
      outer loop
         vertex 1.353563e-001 1.277659e-001 -2.540000e-002
         vertex 1.516341e-001 1.440437e-001 -2.540000e-002
         vertex 1.522071e-001 1.419053e-001 -2.540000e-002
      endloop
   endfacet
   facet normal 0.000000e+000 0.000000e+000 -1.000000e+000
      outer loop
         vertex 1.353563e-001 1.277659e-001 -2.540000e-002
         vertex 1.522071e-001 1.419053e-001 -2.540000e-002
         vertex 1.524000e-001 1.397000e-001 -2.540000e-002
      endloop
   endfacet
   facet normal 0.000000e+000 0.000000e+000 -1.000000e+000
      outer loop
         vertex 1.299712e-001 1.478634e-001 -2.540000e-002
         vertex 1.374947e-001 1.522071e-001 -2.540000e-002
         vertex 1.397000e-001 1.524000e-001 -2.540000e-002
      endloop
   endfacet
   facet normal 0.000000e+000 0.000000e+000 -1.000000e+000
      outer loop
         vertex 1.397000e-001 1.270000e-001 -2.540000e-002
         vertex 1.516341e-001 1.353563e-001 -2.540000e-002
         vertex 1.419053e-001 1.271929e-001 -2.540000e-002
      endloop
   endfacet
   facet normal 0.000000e+000 0.000000e+000 -1.000000e+000
      outer loop
         vertex 1.419053e-001 1.271929e-001 -2.540000e-002
         vertex 1.516341e-001 1.353563e-001 -2.540000e-002
         vertex 1.506985e-001 1.333500e-001 -2.540000e-002
      endloop
   endfacet
   facet normal 0.000000e+000 0.000000e+000 -1.000000e+000
      outer loop
         vertex 1.419053e-001 1.271929e-001 -2.540000e-002
         vertex 1.506985e-001 1.333500e-001 -2.540000e-002
         vertex 1.494288e-001 1.315366e-001 -2.540000e-002
      endloop
   endfacet
   facet normal 0.000000e+000 0.000000e+000 -1.000000e+000
      outer loop
         vertex 1.524000e-001 1.397000e-001 -2.540000e-002
         vertex 1.522071e-001 1.374947e-001 -2.540000e-002
         vertex 1.353563e-001 1.277659e-001 -2.540000e-002
      endloop
   endfacet
   facet normal 0.000000e+000 0.000000e+000 -1.000000e+000
      outer loop
         vertex 1.353563e-001 1.277659e-001 -2.540000e-002
         vertex 1.522071e-001 1.374947e-001 -2.540000e-002
         vertex 1.516341e-001 1.353563e-001 -2.540000e-002
      endloop
   endfacet
   facet normal 0.000000e+000 0.000000e+000 -1.000000e+000
      outer loop
         vertex 1.353563e-001 1.277659e-001 -2.540000e-002
         vertex 1.516341e-001 1.353563e-001 -2.540000e-002
         vertex 1.374947e-001 1.271929e-001 -2.540000e-002
      endloop
   endfacet
   facet normal 0.000000e+000 0.000000e+000 -1.000000e+000
      outer loop
         vertex 1.374947e-001 1.271929e-001 -2.540000e-002
         vertex 1.516341e-001 1.353563e-001 -2.540000e-002
         vertex 1.397000e-001 1.270000e-001 -2.540000e-002
      endloop
   endfacet
   facet normal 0.000000e+000 0.000000e+000 -1.000000e+000
      outer loop
         vertex 1.353563e-001 1.277659e-001 -2.540000e-002
         vertex 1.333500e-001 1.287015e-001 -2.540000e-002
         vertex 1.440437e-001 1.516341e-001 -2.540000e-002
      endloop
   endfacet
   facet normal 0.000000e+000 0.000000e+000 -1.000000e+000
      outer loop
         vertex 1.440437e-001 1.516341e-001 -2.540000e-002
         vertex 1.333500e-001 1.287015e-001 -2.540000e-002
         vertex 1.315366e-001 1.299712e-001 -2.540000e-002
      endloop
   endfacet
   facet normal 0.000000e+000 0.000000e+000 -1.000000e+000
      outer loop
         vertex 1.440437e-001 1.516341e-001 -2.540000e-002
         vertex 1.315366e-001 1.299712e-001 -2.540000e-002
         vertex 1.299712e-001 1.315366e-001 -2.540000e-002
      endloop
   endfacet
   facet normal 0.000000e+000 0.000000e+000 -1.000000e+000
      outer loop
         vertex 1.299712e-001 1.315366e-001 -2.540000e-002
         vertex 1.287015e-001 1.333500e-001 -2.540000e-002
         vertex 1.440437e-001 1.516341e-001 -2.540000e-002
      endloop
   endfacet
   facet normal 0.000000e+000 0.000000e+000 -1.000000e+000
      outer loop
         vertex 1.440437e-001 1.516341e-001 -2.540000e-002
         vertex 1.287015e-001 1.333500e-001 -2.540000e-002
         vertex 1.277659e-001 1.353563e-001 -2.540000e-002
      endloop
   endfacet
   facet normal 0.000000e+000 0.000000e+000 -1.000000e+000
      outer loop
         vertex 1.440437e-001 1.516341e-001 -2.540000e-002
         vertex 1.277659e-001 1.353563e-001 -2.540000e-002
         vertex 1.271929e-001 1.374947e-001 -2.540000e-002
      endloop
   endfacet
   facet normal 0.000000e+000 0.000000e+000 -1.000000e+000
      outer loop
         vertex 1.271929e-001 1.374947e-001 -2.540000e-002
         vertex 1.270000e-001 1.397000e-001 -2.540000e-002
         vertex 1.440437e-001 1.516341e-001 -2.540000e-002
      endloop
   endfacet
   facet normal 0.000000e+000 0.000000e+000 -1.000000e+000
      outer loop
         vertex 1.440437e-001 1.516341e-001 -2.540000e-002
         vertex 1.270000e-001 1.397000e-001 -2.540000e-002
         vertex 1.271929e-001 1.419053e-001 -2.540000e-002
      endloop
   endfacet
   facet normal 0.000000e+000 0.000000e+000 -1.000000e+000
      outer loop
         vertex 1.440437e-001 1.516341e-001 -2.540000e-002
         vertex 1.271929e-001 1.419053e-001 -2.540000e-002
         vertex 1.277659e-001 1.440437e-001 -2.540000e-002
      endloop
   endfacet
   facet normal 0.000000e+000 0.000000e+000 -1.000000e+000
      outer loop
         vertex 1.299712e-001 1.478634e-001 -2.540000e-002
         vertex 1.315366e-001 1.494288e-001 -2.540000e-002
         vertex 1.374947e-001 1.522071e-001 -2.540000e-002
      endloop
   endfacet
   facet normal 0.000000e+000 0.000000e+000 -1.000000e+000
      outer loop
         vertex 1.374947e-001 1.522071e-001 -2.540000e-002
         vertex 1.315366e-001 1.494288e-001 -2.540000e-002
         vertex 1.333500e-001 1.506985e-001 -2.540000e-002
      endloop
   endfacet
   facet normal 0.000000e+000 0.000000e+000 -1.000000e+000
      outer loop
         vertex 1.374947e-001 1.522071e-001 -2.540000e-002
         vertex 1.333500e-001 1.506985e-001 -2.540000e-002
         vertex 1.353563e-001 1.516341e-001 -2.540000e-002
      endloop
   endfacet
   facet normal 0.000000e+000 0.000000e+000 -1.000000e+000
      outer loop
         vertex 1.277659e-001 1.440437e-001 -2.540000e-002
         vertex 1.287015e-001 1.460500e-001 -2.540000e-002
         vertex 1.440437e-001 1.516341e-001 -2.540000e-002
      endloop
   endfacet
   facet normal 0.000000e+000 0.000000e+000 -1.000000e+000
      outer loop
         vertex 1.440437e-001 1.516341e-001 -2.540000e-002
         vertex 1.287015e-001 1.460500e-001 -2.540000e-002
         vertex 1.299712e-001 1.478634e-001 -2.540000e-002
      endloop
   endfacet
   facet normal 0.000000e+000 0.000000e+000 -1.000000e+000
      outer loop
         vertex 1.440437e-001 1.516341e-001 -2.540000e-002
         vertex 1.299712e-001 1.478634e-001 -2.540000e-002
         vertex 1.419053e-001 1.522071e-001 -2.540000e-002
      endloop
   endfacet
   facet normal 0.000000e+000 0.000000e+000 -1.000000e+000
      outer loop
         vertex 1.419053e-001 1.522071e-001 -2.540000e-002
         vertex 1.299712e-001 1.478634e-001 -2.540000e-002
         vertex 1.397000e-001 1.524000e-001 -2.540000e-002
      endloop
   endfacet
   facet normal 0.000000e+000 0.000000e+000 -1.000000e+000
      outer loop
         vertex 1.494288e-001 1.315366e-001 -2.540000e-002
         vertex 1.478634e-001 1.299712e-001 -2.540000e-002
         vertex 1.419053e-001 1.271929e-001 -2.540000e-002
      endloop
   endfacet
   facet normal 0.000000e+000 0.000000e+000 -1.000000e+000
      outer loop
         vertex 1.419053e-001 1.271929e-001 -2.540000e-002
         vertex 1.478634e-001 1.299712e-001 -2.540000e-002
         vertex 1.460500e-001 1.287015e-001 -2.540000e-002
      endloop
   endfacet
   facet normal 0.000000e+000 0.000000e+000 -1.000000e+000
      outer loop
         vertex 1.419053e-001 1.271929e-001 -2.540000e-002
         vertex 1.460500e-001 1.287015e-001 -2.540000e-002
         vertex 1.440437e-001 1.277659e-001 -2.540000e-002
      endloop
   endfacet
endsolid

solid patch2
   facet normal -1.000000e+000 0.000000e+000 0.000000e+000
      outer loop
         vertex -2.540000e-002 2.519937e-001 2.735541e-001
         vertex -2.540000e-002 2.433063e-001 2.496859e-001
         vertex -2.540000e-002 2.498553e-001 2.741271e-001
      endloop
   endfacet
   facet normal -1.000000e+000 0.000000e+000 0.000000e+000
      outer loop
         vertex -2.540000e-002 2.498553e-001 2.741271e-001
         vertex -2.540000e-002 2.433063e-001 2.496859e-001
         vertex -2.540000e-002 2.476500e-001 2.743200e-001
      endloop
   endfacet
   facet normal -1.000000e+000 0.000000e+000 0.000000e+000
      outer loop
         vertex -2.540000e-002 2.433063e-001 2.496859e-001
         vertex -2.540000e-002 2.601570e-001 2.638253e-001
         vertex -2.540000e-002 2.603500e-001 2.616200e-001
      endloop
   endfacet
   facet normal -1.000000e+000 0.000000e+000 0.000000e+000
      outer loop
         vertex -2.540000e-002 2.476500e-001 2.743200e-001
         vertex -2.540000e-002 2.433063e-001 2.496859e-001
         vertex -2.540000e-002 2.454447e-001 2.741271e-001
      endloop
   endfacet
   facet normal -1.000000e+000 0.000000e+000 0.000000e+000
      outer loop
         vertex -2.540000e-002 2.454447e-001 2.741271e-001
         vertex -2.540000e-002 2.433063e-001 2.496859e-001
         vertex -2.540000e-002 2.413000e-001 2.506215e-001
      endloop
   endfacet
   facet normal -1.000000e+000 0.000000e+000 0.000000e+000
      outer loop
         vertex -2.540000e-002 2.454447e-001 2.741271e-001
         vertex -2.540000e-002 2.413000e-001 2.506215e-001
         vertex -2.540000e-002 2.394866e-001 2.518912e-001
      endloop
   endfacet
   facet normal -1.000000e+000 0.000000e+000 0.000000e+000
      outer loop
         vertex -2.540000e-002 2.394866e-001 2.518912e-001
         vertex -2.540000e-002 2.379212e-001 2.534566e-001
         vertex -2.540000e-002 2.454447e-001 2.741271e-001
      endloop
   endfacet
   facet normal -1.000000e+000 0.000000e+000 0.000000e+000
      outer loop
         vertex -2.540000e-002 2.454447e-001 2.741271e-001
         vertex -2.540000e-002 2.379212e-001 2.534566e-001
         vertex -2.540000e-002 2.366515e-001 2.552700e-001
      endloop
   endfacet
   facet normal -1.000000e+000 0.000000e+000 0.000000e+000
      outer loop
         vertex -2.540000e-002 2.454447e-001 2.741271e-001
         vertex -2.540000e-002 2.366515e-001 2.552700e-001
         vertex -2.540000e-002 2.433063e-001 2.735541e-001
      endloop
   endfacet
   facet normal -1.000000e+000 0.000000e+000 0.000000e+000
      outer loop
         vertex -2.540000e-002 2.519937e-001 2.735541e-001
         vertex -2.540000e-002 2.540000e-001 2.726185e-001
         vertex -2.540000e-002 2.433063e-001 2.496859e-001
      endloop
   endfacet
   facet normal -1.000000e+000 0.000000e+000 0.000000e+000
      outer loop
         vertex -2.540000e-002 2.433063e-001 2.496859e-001
         vertex -2.540000e-002 2.540000e-001 2.726185e-001
         vertex -2.540000e-002 2.558134e-001 2.713488e-001
      endloop
   endfacet
   facet normal -1.000000e+000 0.000000e+000 0.000000e+000
      outer loop
         vertex -2.540000e-002 2.433063e-001 2.496859e-001
         vertex -2.540000e-002 2.558134e-001 2.713488e-001
         vertex -2.540000e-002 2.573788e-001 2.697834e-001
      endloop
   endfacet
   facet normal -1.000000e+000 0.000000e+000 0.000000e+000
      outer loop
         vertex -2.540000e-002 2.573788e-001 2.697834e-001
         vertex -2.540000e-002 2.586485e-001 2.679700e-001
         vertex -2.540000e-002 2.433063e-001 2.496859e-001
      endloop
   endfacet
   facet normal -1.000000e+000 0.000000e+000 0.000000e+000
      outer loop
         vertex -2.540000e-002 2.433063e-001 2.496859e-001
         vertex -2.540000e-002 2.586485e-001 2.679700e-001
         vertex -2.540000e-002 2.595841e-001 2.659636e-001
      endloop
   endfacet
   facet normal -1.000000e+000 0.000000e+000 0.000000e+000
      outer loop
         vertex -2.540000e-002 2.433063e-001 2.496859e-001
         vertex -2.540000e-002 2.595841e-001 2.659636e-001
         vertex -2.540000e-002 2.601570e-001 2.638253e-001
      endloop
   endfacet
   facet normal -1.000000e+000 0.000000e+000 0.000000e+000
      outer loop
         vertex -2.540000e-002 2.603500e-001 2.616200e-001
         vertex -2.540000e-002 2.601570e-001 2.594147e-001
         vertex -2.540000e-002 2.433063e-001 2.496859e-001
      endloop
   endfacet
   facet normal -1.000000e+000 0.000000e+000 0.000000e+000
      outer loop
         vertex -2.540000e-002 2.433063e-001 2.496859e-001
         vertex -2.540000e-002 2.601570e-001 2.594147e-001
         vertex -2.540000e-002 2.595841e-001 2.572764e-001
      endloop
   endfacet
   facet normal -1.000000e+000 0.000000e+000 0.000000e+000
      outer loop
         vertex -2.540000e-002 2.433063e-001 2.496859e-001
         vertex -2.540000e-002 2.595841e-001 2.572764e-001
         vertex -2.540000e-002 2.586485e-001 2.552700e-001
      endloop
   endfacet
   facet normal -1.000000e+000 0.000000e+000 0.000000e+000
      outer loop
         vertex -2.540000e-002 2.357159e-001 2.572764e-001
         vertex -2.540000e-002 2.351429e-001 2.594147e-001
         vertex -2.540000e-002 2.357159e-001 2.659636e-001
      endloop
   endfacet
   facet normal -1.000000e+000 0.000000e+000 0.000000e+000
      outer loop
         vertex -2.540000e-002 2.357159e-001 2.659636e-001
         vertex -2.540000e-002 2.351429e-001 2.594147e-001
         vertex -2.540000e-002 2.349500e-001 2.616200e-001
      endloop
   endfacet
   facet normal -1.000000e+000 0.000000e+000 0.000000e+000
      outer loop
         vertex -2.540000e-002 2.357159e-001 2.659636e-001
         vertex -2.540000e-002 2.349500e-001 2.616200e-001
         vertex -2.540000e-002 2.351429e-001 2.638253e-001
      endloop
   endfacet
   facet normal -1.000000e+000 0.000000e+000 0.000000e+000
      outer loop
         vertex -2.540000e-002 2.357159e-001 2.572764e-001
         vertex -2.540000e-002 2.357159e-001 2.659636e-001
         vertex -2.540000e-002 2.366515e-001 2.552700e-001
      endloop
   endfacet
   facet normal -1.000000e+000 0.000000e+000 0.000000e+000
      outer loop
         vertex -2.540000e-002 2.366515e-001 2.552700e-001
         vertex -2.540000e-002 2.357159e-001 2.659636e-001
         vertex -2.540000e-002 2.366515e-001 2.679700e-001
      endloop
   endfacet
   facet normal -1.000000e+000 0.000000e+000 0.000000e+000
      outer loop
         vertex -2.540000e-002 2.366515e-001 2.552700e-001
         vertex -2.540000e-002 2.366515e-001 2.679700e-001
         vertex -2.540000e-002 2.379212e-001 2.697834e-001
      endloop
   endfacet
   facet normal -1.000000e+000 0.000000e+000 0.000000e+000
      outer loop
         vertex -2.540000e-002 2.540000e-001 2.506215e-001
         vertex -2.540000e-002 2.519937e-001 2.496859e-001
         vertex -2.540000e-002 2.558134e-001 2.518912e-001
      endloop
   endfacet
   facet normal -1.000000e+000 0.000000e+000 0.000000e+000
      outer loop
         vertex -2.540000e-002 2.558134e-001 2.518912e-001
         vertex -2.540000e-002 2.519937e-001 2.496859e-001
         vertex -2.540000e-002 2.498553e-001 2.491129e-001
      endloop
   endfacet
   facet normal -1.000000e+000 0.000000e+000 0.000000e+000
      outer loop
         vertex -2.540000e-002 2.558134e-001 2.518912e-001
         vertex -2.540000e-002 2.498553e-001 2.491129e-001
         vertex -2.540000e-002 2.476500e-001 2.489200e-001
      endloop
   endfacet
   facet normal -1.000000e+000 0.000000e+000 0.000000e+000
      outer loop
         vertex -2.540000e-002 2.379212e-001 2.697834e-001
         vertex -2.540000e-002 2.394866e-001 2.713488e-001
         vertex -2.540000e-002 2.366515e-001 2.552700e-001
      endloop
   endfacet
   facet normal -1.000000e+000 0.000000e+000 0.000000e+000
      outer loop
         vertex -2.540000e-002 2.366515e-001 2.552700e-001
         vertex -2.540000e-002 2.394866e-001 2.713488e-001
         vertex -2.540000e-002 2.413000e-001 2.726185e-001
      endloop
   endfacet
   facet normal -1.000000e+000 0.000000e+000 0.000000e+000
      outer loop
         vertex -2.540000e-002 2.366515e-001 2.552700e-001
         vertex -2.540000e-002 2.413000e-001 2.726185e-001
         vertex -2.540000e-002 2.433063e-001 2.735541e-001
      endloop
   endfacet
   facet normal -1.000000e+000 0.000000e+000 0.000000e+000
      outer loop
         vertex -2.540000e-002 2.586485e-001 2.552700e-001
         vertex -2.540000e-002 2.573788e-001 2.534566e-001
         vertex -2.540000e-002 2.433063e-001 2.496859e-001
      endloop
   endfacet
   facet normal -1.000000e+000 0.000000e+000 0.000000e+000
      outer loop
         vertex -2.540000e-002 2.433063e-001 2.496859e-001
         vertex -2.540000e-002 2.573788e-001 2.534566e-001
         vertex -2.540000e-002 2.558134e-001 2.518912e-001
      endloop
   endfacet
   facet normal -1.000000e+000 0.000000e+000 0.000000e+000
      outer loop
         vertex -2.540000e-002 2.433063e-001 2.496859e-001
         vertex -2.540000e-002 2.558134e-001 2.518912e-001
         vertex -2.540000e-002 2.454447e-001 2.491129e-001
      endloop
   endfacet
   facet normal -1.000000e+000 0.000000e+000 0.000000e+000
      outer loop
         vertex -2.540000e-002 2.454447e-001 2.491129e-001
         vertex -2.540000e-002 2.558134e-001 2.518912e-001
         vertex -2.540000e-002 2.476500e-001 2.489200e-001
      endloop
   endfacet
endsolid
