solid box
   facet normal 1.000000e+000 0.000000e+000 8.405687e-017
      outer loop
         vertex 3.302000e-001 1.330376e-008 3.302000e-001
         vertex 3.302000e-001 1.330376e-008 5.459820e-009
         vertex 3.302000e-001 3.302000e-001 3.302000e-001
      endloop
   endfacet
   facet normal 1.000000e+000 0.000000e+000 8.405687e-017
      outer loop
         vertex 3.302000e-001 3.302000e-001 3.302000e-001
         vertex 3.302000e-001 1.330376e-008 5.459820e-009
         vertex 3.302000e-001 3.302000e-001 5.459820e-009
      endloop
   endfacet
   facet normal 0.000000e+000 0.000000e+000 1.000000e+000
      outer loop
         vertex 2.540000e-002 2.540000e-002 3.302000e-001
         vertex 5.060769e-010 1.330376e-008 3.302000e-001
         vertex 3.302000e-001 1.330376e-008 3.302000e-001
      endloop
   endfacet
   facet normal 0.000000e+000 0.000000e+000 1.000000e+000
      outer loop
         vertex 5.060769e-010 1.330376e-008 3.302000e-001
         vertex 2.540000e-002 2.540000e-002 3.302000e-001
         vertex 5.060769e-010 3.302000e-001 3.302000e-001
      endloop
   endfacet
   facet normal 0.000000e+000 0.000000e+000 1.000000e+000
      outer loop
         vertex 5.060769e-010 3.302000e-001 3.302000e-001
         vertex 2.540000e-002 2.540000e-002 3.302000e-001
         vertex 2.540000e-002 3.048000e-001 3.302000e-001
      endloop
   endfacet
   facet normal 0.000000e+000 0.000000e+000 1.000000e+000
      outer loop
         vertex 5.060769e-010 3.302000e-001 3.302000e-001
         vertex 2.540000e-002 3.048000e-001 3.302000e-001
         vertex 3.302000e-001 3.302000e-001 3.302000e-001
      endloop
   endfacet
   facet normal 0.000000e+000 0.000000e+000 1.000000e+000
      outer loop
         vertex 3.302000e-001 3.302000e-001 3.302000e-001
         vertex 2.540000e-002 3.048000e-001 3.302000e-001
         vertex 3.048000e-001 3.048000e-001 3.302000e-001
      endloop
   endfacet
   facet normal 0.000000e+000 0.000000e+000 1.000000e+000
      outer loop
         vertex 3.302000e-001 3.302000e-001 3.302000e-001
         vertex 3.048000e-001 3.048000e-001 3.302000e-001
         vertex 3.302000e-001 1.330376e-008 3.302000e-001
      endloop
   endfacet
   facet normal 0.000000e+000 0.000000e+000 1.000000e+000
      outer loop
         vertex 3.302000e-001 1.330376e-008 3.302000e-001
         vertex 3.048000e-001 3.048000e-001 3.302000e-001
         vertex 3.048000e-001 2.540000e-002 3.302000e-001
      endloop
   endfacet
   facet normal 0.000000e+000 0.000000e+000 1.000000e+000
      outer loop
         vertex 3.302000e-001 1.330376e-008 3.302000e-001
         vertex 3.048000e-001 2.540000e-002 3.302000e-001
         vertex 2.540000e-002 2.540000e-002 3.302000e-001
      endloop
   endfacet
   facet normal -1.000000e+000 0.000000e+000 -1.681137e-016
      outer loop
         vertex 5.060769e-010 1.330376e-008 5.459820e-009
         vertex 5.060769e-010 1.651000e-001 2.413000e-001
         vertex 5.060769e-010 3.302000e-001 5.459820e-009
      endloop
   endfacet
   facet normal -1.000000e+000 0.000000e+000 -1.681137e-016
      outer loop
         vertex 5.060769e-010 3.302000e-001 5.459820e-009
         vertex 5.060769e-010 1.651000e-001 2.413000e-001
         vertex 5.060769e-010 1.673053e-001 2.414929e-001
      endloop
   endfacet
   facet normal -1.000000e+000 0.000000e+000 -1.681137e-016
      outer loop
         vertex 5.060769e-010 3.302000e-001 5.459820e-009
         vertex 5.060769e-010 1.673053e-001 2.414929e-001
         vertex 5.060769e-010 1.694437e-001 2.420659e-001
      endloop
   endfacet
   facet normal -1.000000e+000 0.000000e+000 -1.681137e-016
      outer loop
         vertex 5.060769e-010 1.694437e-001 2.420659e-001
         vertex 5.060769e-010 1.714500e-001 2.430015e-001
         vertex 5.060769e-010 3.302000e-001 5.459820e-009
      endloop
   endfacet
   facet normal -1.000000e+000 0.000000e+000 -1.681137e-016
      outer loop
         vertex 5.060769e-010 3.302000e-001 5.459820e-009
         vertex 5.060769e-010 1.714500e-001 2.430015e-001
         vertex 5.060769e-010 1.732634e-001 2.442712e-001
      endloop
   endfacet
   facet normal -1.000000e+000 0.000000e+000 -1.681137e-016
      outer loop
         vertex 5.060769e-010 3.302000e-001 5.459820e-009
         vertex 5.060769e-010 1.732634e-001 2.442712e-001
         vertex 5.060769e-010 1.748288e-001 2.458366e-001
      endloop
   endfacet
   facet normal -1.000000e+000 0.000000e+000 -1.681137e-016
      outer loop
         vertex 5.060769e-010 3.302000e-001 3.302000e-001
         vertex 5.060769e-010 1.778000e-001 2.540000e-001
         vertex 5.060769e-010 1.776071e-001 2.562053e-001
      endloop
   endfacet
   facet normal -1.000000e+000 0.000000e+000 -1.681137e-016
      outer loop
         vertex 5.060769e-010 1.748288e-001 2.458366e-001
         vertex 5.060769e-010 1.760985e-001 2.476500e-001
         vertex 5.060769e-010 3.302000e-001 5.459820e-009
      endloop
   endfacet
   facet normal -1.000000e+000 0.000000e+000 -1.681137e-016
      outer loop
         vertex 5.060769e-010 3.302000e-001 5.459820e-009
         vertex 5.060769e-010 1.760985e-001 2.476500e-001
         vertex 5.060769e-010 1.770341e-001 2.496563e-001
      endloop
   endfacet
   facet normal -1.000000e+000 0.000000e+000 -1.681137e-016
      outer loop
         vertex 5.060769e-010 3.302000e-001 5.459820e-009
         vertex 5.060769e-010 1.770341e-001 2.496563e-001
         vertex 5.060769e-010 3.302000e-001 3.302000e-001
      endloop
   endfacet
   facet normal -1.000000e+000 0.000000e+000 -1.681137e-016
      outer loop
         vertex 5.060769e-010 3.302000e-001 3.302000e-001
         vertex 5.060769e-010 1.770341e-001 2.496563e-001
         vertex 5.060769e-010 1.776071e-001 2.517947e-001
      endloop
   endfacet
   facet normal -1.000000e+000 0.000000e+000 -1.681137e-016
      outer loop
         vertex 5.060769e-010 3.302000e-001 3.302000e-001
         vertex 5.060769e-010 1.776071e-001 2.517947e-001
         vertex 5.060769e-010 1.778000e-001 2.540000e-001
      endloop
   endfacet
   facet normal -1.000000e+000 0.000000e+000 -1.681137e-016
      outer loop
         vertex 5.060769e-010 1.776071e-001 2.562053e-001
         vertex 5.060769e-010 1.770341e-001 2.583437e-001
         vertex 5.060769e-010 3.302000e-001 3.302000e-001
      endloop
   endfacet
   facet normal -1.000000e+000 0.000000e+000 -1.681137e-016
      outer loop
         vertex 5.060769e-010 3.302000e-001 3.302000e-001
         vertex 5.060769e-010 1.770341e-001 2.583437e-001
         vertex 5.060769e-010 1.760985e-001 2.603500e-001
      endloop
   endfacet
   facet normal -1.000000e+000 0.000000e+000 -1.681137e-016
      outer loop
         vertex 5.060769e-010 3.302000e-001 3.302000e-001
         vertex 5.060769e-010 1.760985e-001 2.603500e-001
         vertex 5.060769e-010 1.748288e-001 2.621634e-001
      endloop
   endfacet
   facet normal -1.000000e+000 0.000000e+000 -1.681137e-016
      outer loop
         vertex 5.060769e-010 1.748288e-001 2.621634e-001
         vertex 5.060769e-010 1.732634e-001 2.637288e-001
         vertex 5.060769e-010 3.302000e-001 3.302000e-001
      endloop
   endfacet
   facet normal -1.000000e+000 0.000000e+000 -1.681137e-016
      outer loop
         vertex 5.060769e-010 3.302000e-001 3.302000e-001
         vertex 5.060769e-010 1.732634e-001 2.637288e-001
         vertex 5.060769e-010 1.714500e-001 2.649985e-001
      endloop
   endfacet
   facet normal -1.000000e+000 0.000000e+000 -1.681137e-016
      outer loop
         vertex 5.060769e-010 3.302000e-001 3.302000e-001
         vertex 5.060769e-010 1.714500e-001 2.649985e-001
         vertex 5.060769e-010 1.694437e-001 2.659341e-001
      endloop
   endfacet
   facet normal -1.000000e+000 0.000000e+000 -1.681137e-016
      outer loop
         vertex 5.060769e-010 1.525929e-001 2.562053e-001
         vertex 5.060769e-010 1.524000e-001 2.540000e-001
         vertex 5.060769e-010 1.330376e-008 3.302000e-001
      endloop
   endfacet
   facet normal -1.000000e+000 0.000000e+000 -1.681137e-016
      outer loop
         vertex 5.060769e-010 1.330376e-008 3.302000e-001
         vertex 5.060769e-010 1.524000e-001 2.540000e-001
         vertex 5.060769e-010 1.525929e-001 2.517947e-001
      endloop
   endfacet
   facet normal -1.000000e+000 0.000000e+000 -1.681137e-016
      outer loop
         vertex 5.060769e-010 1.330376e-008 3.302000e-001
         vertex 5.060769e-010 1.525929e-001 2.517947e-001
         vertex 5.060769e-010 1.330376e-008 5.459820e-009
      endloop
   endfacet
   facet normal -1.000000e+000 0.000000e+000 -1.681137e-016
      outer loop
         vertex 5.060769e-010 1.330376e-008 5.459820e-009
         vertex 5.060769e-010 1.525929e-001 2.517947e-001
         vertex 5.060769e-010 1.531659e-001 2.496563e-001
      endloop
   endfacet
   facet normal -1.000000e+000 0.000000e+000 -1.681137e-016
      outer loop
         vertex 5.060769e-010 1.330376e-008 5.459820e-009
         vertex 5.060769e-010 1.531659e-001 2.496563e-001
         vertex 5.060769e-010 1.541015e-001 2.476500e-001
      endloop
   endfacet
   facet normal -1.000000e+000 0.000000e+000 -1.681137e-016
      outer loop
         vertex 5.060769e-010 1.541015e-001 2.476500e-001
         vertex 5.060769e-010 1.553712e-001 2.458366e-001
         vertex 5.060769e-010 1.330376e-008 5.459820e-009
      endloop
   endfacet
   facet normal -1.000000e+000 0.000000e+000 -1.681137e-016
      outer loop
         vertex 5.060769e-010 1.330376e-008 5.459820e-009
         vertex 5.060769e-010 1.553712e-001 2.458366e-001
         vertex 5.060769e-010 1.569366e-001 2.442712e-001
      endloop
   endfacet
   facet normal -1.000000e+000 0.000000e+000 -1.681137e-016
      outer loop
         vertex 5.060769e-010 1.330376e-008 5.459820e-009
         vertex 5.060769e-010 1.569366e-001 2.442712e-001
         vertex 5.060769e-010 1.587500e-001 2.430015e-001
      endloop
   endfacet
   facet normal -1.000000e+000 0.000000e+000 -1.681137e-016
      outer loop
         vertex 5.060769e-010 1.628947e-001 2.665071e-001
         vertex 5.060769e-010 1.330376e-008 3.302000e-001
         vertex 5.060769e-010 1.651000e-001 2.667000e-001
      endloop
   endfacet
   facet normal -1.000000e+000 0.000000e+000 -1.681137e-016
      outer loop
         vertex 5.060769e-010 1.651000e-001 2.667000e-001
         vertex 5.060769e-010 1.330376e-008 3.302000e-001
         vertex 5.060769e-010 3.302000e-001 3.302000e-001
      endloop
   endfacet
   facet normal -1.000000e+000 0.000000e+000 -1.681137e-016
      outer loop
         vertex 5.060769e-010 1.651000e-001 2.667000e-001
         vertex 5.060769e-010 3.302000e-001 3.302000e-001
         vertex 5.060769e-010 1.673053e-001 2.665071e-001
      endloop
   endfacet
   facet normal -1.000000e+000 0.000000e+000 -1.681137e-016
      outer loop
         vertex 5.060769e-010 1.673053e-001 2.665071e-001
         vertex 5.060769e-010 3.302000e-001 3.302000e-001
         vertex 5.060769e-010 1.694437e-001 2.659341e-001
      endloop
   endfacet
   facet normal -1.000000e+000 0.000000e+000 -1.681137e-016
      outer loop
         vertex 5.060769e-010 1.330376e-008 3.302000e-001
         vertex 5.060769e-010 1.569366e-001 2.637288e-001
         vertex 5.060769e-010 1.553712e-001 2.621634e-001
      endloop
   endfacet
   facet normal -1.000000e+000 0.000000e+000 -1.681137e-016
      outer loop
         vertex 5.060769e-010 1.587500e-001 2.430015e-001
         vertex 5.060769e-010 1.607563e-001 2.420659e-001
         vertex 5.060769e-010 1.330376e-008 5.459820e-009
      endloop
   endfacet
   facet normal -1.000000e+000 0.000000e+000 -1.681137e-016
      outer loop
         vertex 5.060769e-010 1.330376e-008 5.459820e-009
         vertex 5.060769e-010 1.607563e-001 2.420659e-001
         vertex 5.060769e-010 1.628947e-001 2.414929e-001
      endloop
   endfacet
   facet normal -1.000000e+000 0.000000e+000 -1.681137e-016
      outer loop
         vertex 5.060769e-010 1.330376e-008 5.459820e-009
         vertex 5.060769e-010 1.628947e-001 2.414929e-001
         vertex 5.060769e-010 1.651000e-001 2.413000e-001
      endloop
   endfacet
   facet normal -1.000000e+000 0.000000e+000 -1.681137e-016
      outer loop
         vertex 5.060769e-010 1.628947e-001 2.665071e-001
         vertex 5.060769e-010 1.607563e-001 2.659341e-001
         vertex 5.060769e-010 1.330376e-008 3.302000e-001
      endloop
   endfacet
   facet normal -1.000000e+000 0.000000e+000 -1.681137e-016
      outer loop
         vertex 5.060769e-010 1.330376e-008 3.302000e-001
         vertex 5.060769e-010 1.607563e-001 2.659341e-001
         vertex 5.060769e-010 1.587500e-001 2.649985e-001
      endloop
   endfacet
   facet normal -1.000000e+000 0.000000e+000 -1.681137e-016
      outer loop
         vertex 5.060769e-010 1.330376e-008 3.302000e-001
         vertex 5.060769e-010 1.587500e-001 2.649985e-001
         vertex 5.060769e-010 1.569366e-001 2.637288e-001
      endloop
   endfacet
   facet normal -1.000000e+000 0.000000e+000 -1.681137e-016
      outer loop
         vertex 5.060769e-010 1.553712e-001 2.621634e-001
         vertex 5.060769e-010 1.541015e-001 2.603500e-001
         vertex 5.060769e-010 1.330376e-008 3.302000e-001
      endloop
   endfacet
   facet normal -1.000000e+000 0.000000e+000 -1.681137e-016
      outer loop
         vertex 5.060769e-010 1.330376e-008 3.302000e-001
         vertex 5.060769e-010 1.541015e-001 2.603500e-001
         vertex 5.060769e-010 1.531659e-001 2.583437e-001
      endloop
   endfacet
   facet normal -1.000000e+000 0.000000e+000 -1.681137e-016
      outer loop
         vertex 5.060769e-010 1.330376e-008 3.302000e-001
         vertex 5.060769e-010 1.531659e-001 2.583437e-001
         vertex 5.060769e-010 1.525929e-001 2.562053e-001
      endloop
   endfacet
   facet normal 0.000000e+000 0.000000e+000 -1.000000e+000
      outer loop
         vertex 1.587500e-001 1.541015e-001 5.459820e-009
         vertex 1.607563e-001 1.531659e-001 5.459820e-009
         vertex 5.060769e-010 1.330376e-008 5.459820e-009
      endloop
   endfacet
   facet normal 0.000000e+000 0.000000e+000 -1.000000e+000
      outer loop
         vertex 1.714500e-001 1.760985e-001 5.459820e-009
         vertex 1.694437e-001 1.770341e-001 5.459820e-009
         vertex 3.302000e-001 3.302000e-001 5.459820e-009
      endloop
   endfacet
   facet normal 0.000000e+000 0.000000e+000 -1.000000e+000
      outer loop
         vertex 1.694437e-001 1.770341e-001 5.459820e-009
         vertex 1.673053e-001 1.776071e-001 5.459820e-009
         vertex 3.302000e-001 3.302000e-001 5.459820e-009
      endloop
   endfacet
   facet normal 0.000000e+000 0.000000e+000 -1.000000e+000
      outer loop
         vertex 3.302000e-001 3.302000e-001 5.459820e-009
         vertex 1.673053e-001 1.776071e-001 5.459820e-009
         vertex 1.651000e-001 1.778000e-001 5.459820e-009
      endloop
   endfacet
   facet normal 0.000000e+000 0.000000e+000 -1.000000e+000
      outer loop
         vertex 3.302000e-001 3.302000e-001 5.459820e-009
         vertex 1.651000e-001 1.778000e-001 5.459820e-009
         vertex 5.060769e-010 3.302000e-001 5.459820e-009
      endloop
   endfacet
   facet normal 0.000000e+000 0.000000e+000 -1.000000e+000
      outer loop
         vertex 5.060769e-010 3.302000e-001 5.459820e-009
         vertex 1.651000e-001 1.778000e-001 5.459820e-009
         vertex 1.628947e-001 1.776071e-001 5.459820e-009
      endloop
   endfacet
   facet normal 0.000000e+000 0.000000e+000 -1.000000e+000
      outer loop
         vertex 1.628947e-001 1.776071e-001 5.459820e-009
         vertex 1.607563e-001 1.770341e-001 5.459820e-009
         vertex 5.060769e-010 3.302000e-001 5.459820e-009
      endloop
   endfacet
   facet normal 0.000000e+000 0.000000e+000 -1.000000e+000
      outer loop
         vertex 5.060769e-010 3.302000e-001 5.459820e-009
         vertex 1.607563e-001 1.770341e-001 5.459820e-009
         vertex 1.587500e-001 1.760985e-001 5.459820e-009
      endloop
   endfacet
   facet normal 0.000000e+000 0.000000e+000 -1.000000e+000
      outer loop
         vertex 5.060769e-010 3.302000e-001 5.459820e-009
         vertex 1.587500e-001 1.760985e-001 5.459820e-009
         vertex 1.569366e-001 1.748288e-001 5.459820e-009
      endloop
   endfacet
   facet normal 0.000000e+000 0.000000e+000 -1.000000e+000
      outer loop
         vertex 5.060769e-010 1.330376e-008 5.459820e-009
         vertex 1.531659e-001 1.607563e-001 5.459820e-009
         vertex 1.541015e-001 1.587500e-001 5.459820e-009
      endloop
   endfacet
   facet normal 0.000000e+000 0.000000e+000 -1.000000e+000
      outer loop
         vertex 1.569366e-001 1.748288e-001 5.459820e-009
         vertex 1.553712e-001 1.732634e-001 5.459820e-009
         vertex 5.060769e-010 3.302000e-001 5.459820e-009
      endloop
   endfacet
   facet normal 0.000000e+000 0.000000e+000 -1.000000e+000
      outer loop
         vertex 5.060769e-010 3.302000e-001 5.459820e-009
         vertex 1.553712e-001 1.732634e-001 5.459820e-009
         vertex 1.541015e-001 1.714500e-001 5.459820e-009
      endloop
   endfacet
   facet normal 0.000000e+000 0.000000e+000 -1.000000e+000
      outer loop
         vertex 5.060769e-010 3.302000e-001 5.459820e-009
         vertex 1.541015e-001 1.714500e-001 5.459820e-009
         vertex 1.531659e-001 1.694437e-001 5.459820e-009
      endloop
   endfacet
   facet normal 0.000000e+000 0.000000e+000 -1.000000e+000
      outer loop
         vertex 1.541015e-001 1.587500e-001 5.459820e-009
         vertex 1.553712e-001 1.569366e-001 5.459820e-009
         vertex 5.060769e-010 1.330376e-008 5.459820e-009
      endloop
   endfacet
   facet normal 0.000000e+000 0.000000e+000 -1.000000e+000
      outer loop
         vertex 5.060769e-010 1.330376e-008 5.459820e-009
         vertex 1.553712e-001 1.569366e-001 5.459820e-009
         vertex 1.569366e-001 1.553712e-001 5.459820e-009
      endloop
   endfacet
   facet normal 0.000000e+000 0.000000e+000 -1.000000e+000
      outer loop
         vertex 5.060769e-010 1.330376e-008 5.459820e-009
         vertex 1.569366e-001 1.553712e-001 5.459820e-009
         vertex 1.587500e-001 1.541015e-001 5.459820e-009
      endloop
   endfacet
   facet normal 0.000000e+000 0.000000e+000 -1.000000e+000
      outer loop
         vertex 1.607563e-001 1.531659e-001 5.459820e-009
         vertex 1.628947e-001 1.525929e-001 5.459820e-009
         vertex 5.060769e-010 1.330376e-008 5.459820e-009
      endloop
   endfacet
   facet normal 0.000000e+000 0.000000e+000 -1.000000e+000
      outer loop
         vertex 5.060769e-010 1.330376e-008 5.459820e-009
         vertex 1.628947e-001 1.525929e-001 5.459820e-009
         vertex 1.651000e-001 1.524000e-001 5.459820e-009
      endloop
   endfacet
   facet normal 0.000000e+000 0.000000e+000 -1.000000e+000
      outer loop
         vertex 5.060769e-010 1.330376e-008 5.459820e-009
         vertex 1.651000e-001 1.524000e-001 5.459820e-009
         vertex 3.302000e-001 1.330376e-008 5.459820e-009
      endloop
   endfacet
   facet normal 0.000000e+000 0.000000e+000 -1.000000e+000
      outer loop
         vertex 3.302000e-001 1.330376e-008 5.459820e-009
         vertex 1.651000e-001 1.524000e-001 5.459820e-009
         vertex 1.673053e-001 1.525929e-001 5.459820e-009
      endloop
   endfacet
   facet normal 0.000000e+000 0.000000e+000 -1.000000e+000
      outer loop
         vertex 1.673053e-001 1.525929e-001 5.459820e-009
         vertex 1.694437e-001 1.531659e-001 5.459820e-009
         vertex 3.302000e-001 1.330376e-008 5.459820e-009
      endloop
   endfacet
   facet normal 0.000000e+000 0.000000e+000 -1.000000e+000
      outer loop
         vertex 3.302000e-001 1.330376e-008 5.459820e-009
         vertex 1.694437e-001 1.531659e-001 5.459820e-009
         vertex 1.714500e-001 1.541015e-001 5.459820e-009
      endloop
   endfacet
   facet normal 0.000000e+000 0.000000e+000 -1.000000e+000
      outer loop
         vertex 3.302000e-001 1.330376e-008 5.459820e-009
         vertex 1.714500e-001 1.541015e-001 5.459820e-009
         vertex 1.732634e-001 1.553712e-001 5.459820e-009
      endloop
   endfacet
   facet normal 0.000000e+000 0.000000e+000 -1.000000e+000
      outer loop
         vertex 3.302000e-001 3.302000e-001 5.459820e-009
         vertex 1.770341e-001 1.694437e-001 5.459820e-009
         vertex 1.760985e-001 1.714500e-001 5.459820e-009
      endloop
   endfacet
   facet normal 0.000000e+000 0.000000e+000 -1.000000e+000
      outer loop
         vertex 1.531659e-001 1.694437e-001 5.459820e-009
         vertex 1.525929e-001 1.673053e-001 5.459820e-009
         vertex 5.060769e-010 3.302000e-001 5.459820e-009
      endloop
   endfacet
   facet normal 0.000000e+000 0.000000e+000 -1.000000e+000
      outer loop
         vertex 5.060769e-010 3.302000e-001 5.459820e-009
         vertex 1.525929e-001 1.673053e-001 5.459820e-009
         vertex 1.524000e-001 1.651000e-001 5.459820e-009
      endloop
   endfacet
   facet normal 0.000000e+000 0.000000e+000 -1.000000e+000
      outer loop
         vertex 5.060769e-010 3.302000e-001 5.459820e-009
         vertex 1.524000e-001 1.651000e-001 5.459820e-009
         vertex 5.060769e-010 1.330376e-008 5.459820e-009
      endloop
   endfacet
   facet normal 0.000000e+000 0.000000e+000 -1.000000e+000
      outer loop
         vertex 5.060769e-010 1.330376e-008 5.459820e-009
         vertex 1.524000e-001 1.651000e-001 5.459820e-009
         vertex 1.525929e-001 1.628947e-001 5.459820e-009
      endloop
   endfacet
   facet normal 0.000000e+000 0.000000e+000 -1.000000e+000
      outer loop
         vertex 5.060769e-010 1.330376e-008 5.459820e-009
         vertex 1.525929e-001 1.628947e-001 5.459820e-009
         vertex 1.531659e-001 1.607563e-001 5.459820e-009
      endloop
   endfacet
   facet normal 0.000000e+000 0.000000e+000 -1.000000e+000
      outer loop
         vertex 1.732634e-001 1.553712e-001 5.459820e-009
         vertex 1.748288e-001 1.569366e-001 5.459820e-009
         vertex 3.302000e-001 1.330376e-008 5.459820e-009
      endloop
   endfacet
   facet normal 0.000000e+000 0.000000e+000 -1.000000e+000
      outer loop
         vertex 3.302000e-001 1.330376e-008 5.459820e-009
         vertex 1.748288e-001 1.569366e-001 5.459820e-009
         vertex 1.760985e-001 1.587500e-001 5.459820e-009
      endloop
   endfacet
   facet normal 0.000000e+000 0.000000e+000 -1.000000e+000
      outer loop
         vertex 3.302000e-001 1.330376e-008 5.459820e-009
         vertex 1.760985e-001 1.587500e-001 5.459820e-009
         vertex 1.770341e-001 1.607563e-001 5.459820e-009
      endloop
   endfacet
   facet normal 0.000000e+000 0.000000e+000 -1.000000e+000
      outer loop
         vertex 1.760985e-001 1.714500e-001 5.459820e-009
         vertex 1.748288e-001 1.732634e-001 5.459820e-009
         vertex 3.302000e-001 3.302000e-001 5.459820e-009
      endloop
   endfacet
   facet normal 0.000000e+000 0.000000e+000 -1.000000e+000
      outer loop
         vertex 3.302000e-001 3.302000e-001 5.459820e-009
         vertex 1.748288e-001 1.732634e-001 5.459820e-009
         vertex 1.732634e-001 1.748288e-001 5.459820e-009
      endloop
   endfacet
   facet normal 0.000000e+000 0.000000e+000 -1.000000e+000
      outer loop
         vertex 3.302000e-001 3.302000e-001 5.459820e-009
         vertex 1.732634e-001 1.748288e-001 5.459820e-009
         vertex 1.714500e-001 1.760985e-001 5.459820e-009
      endloop
   endfacet
   facet normal 0.000000e+000 0.000000e+000 -1.000000e+000
      outer loop
         vertex 1.770341e-001 1.607563e-001 5.459820e-009
         vertex 1.776071e-001 1.628947e-001 5.459820e-009
         vertex 3.302000e-001 1.330376e-008 5.459820e-009
      endloop
   endfacet
   facet normal 0.000000e+000 0.000000e+000 -1.000000e+000
      outer loop
         vertex 3.302000e-001 1.330376e-008 5.459820e-009
         vertex 1.776071e-001 1.628947e-001 5.459820e-009
         vertex 1.778000e-001 1.651000e-001 5.459820e-009
      endloop
   endfacet
   facet normal 0.000000e+000 0.000000e+000 -1.000000e+000
      outer loop
         vertex 3.302000e-001 1.330376e-008 5.459820e-009
         vertex 1.778000e-001 1.651000e-001 5.459820e-009
         vertex 3.302000e-001 3.302000e-001 5.459820e-009
      endloop
   endfacet
   facet normal 0.000000e+000 0.000000e+000 -1.000000e+000
      outer loop
         vertex 3.302000e-001 3.302000e-001 5.459820e-009
         vertex 1.778000e-001 1.651000e-001 5.459820e-009
         vertex 1.776071e-001 1.673053e-001 5.459820e-009
      endloop
   endfacet
   facet normal 0.000000e+000 0.000000e+000 -1.000000e+000
      outer loop
         vertex 3.302000e-001 3.302000e-001 5.459820e-009
         vertex 1.776071e-001 1.673053e-001 5.459820e-009
         vertex 1.770341e-001 1.694437e-001 5.459820e-009
      endloop
   endfacet
   facet normal 0.000000e+000 -1.000000e+000 0.000000e+000
      outer loop
         vertex 5.060769e-010 1.330376e-008 3.302000e-001
         vertex 5.060769e-010 1.330376e-008 5.459820e-009
         vertex 3.302000e-001 1.330376e-008 3.302000e-001
      endloop
   endfacet
   facet normal 0.000000e+000 -1.000000e+000 0.000000e+000
      outer loop
         vertex 3.302000e-001 1.330376e-008 3.302000e-001
         vertex 5.060769e-010 1.330376e-008 5.459820e-009
         vertex 3.302000e-001 1.330376e-008 5.459820e-009
      endloop
   endfacet
   facet normal 0.000000e+000 1.000000e+000 0.000000e+000
      outer loop
         vertex 5.060769e-010 3.302000e-001 5.459820e-009
         vertex 5.060769e-010 3.302000e-001 3.302000e-001
         vertex 3.302000e-001 3.302000e-001 5.459820e-009
      endloop
   endfacet
   facet normal 0.000000e+000 1.000000e+000 0.000000e+000
      outer loop
         vertex 3.302000e-001 3.302000e-001 5.459820e-009
         vertex 5.060769e-010 3.302000e-001 3.302000e-001
         vertex 3.302000e-001 3.302000e-001 3.302000e-001
      endloop
   endfacet
   facet normal 1.000000e+000 9.933992e-017 0.000000e+000
      outer loop
         vertex 2.540000e-002 3.048000e-001 2.540000e-002
         vertex 2.540000e-002 3.048000e-001 3.302000e-001
         vertex 2.540000e-002 1.776071e-001 2.517947e-001
      endloop
   endfacet
   facet normal 1.000000e+000 9.933992e-017 0.000000e+000
      outer loop
         vertex 2.540000e-002 1.776071e-001 2.517947e-001
         vertex 2.540000e-002 1.770341e-001 2.496563e-001
         vertex 2.540000e-002 3.048000e-001 2.540000e-002
      endloop
   endfacet
   facet normal 1.000000e+000 9.933992e-017 0.000000e+000
      outer loop
         vertex 2.540000e-002 3.048000e-001 2.540000e-002
         vertex 2.540000e-002 1.770341e-001 2.496563e-001
         vertex 2.540000e-002 1.760985e-001 2.476500e-001
      endloop
   endfacet
   facet normal 1.000000e+000 9.933992e-017 0.000000e+000
      outer loop
         vertex 2.540000e-002 3.048000e-001 2.540000e-002
         vertex 2.540000e-002 1.760985e-001 2.476500e-001
         vertex 2.540000e-002 1.748288e-001 2.458366e-001
      endloop
   endfacet
   facet normal 1.000000e+000 9.933992e-017 0.000000e+000
      outer loop
         vertex 2.540000e-002 1.607563e-001 2.420659e-001
         vertex 2.540000e-002 1.587500e-001 2.430015e-001
         vertex 2.540000e-002 2.540000e-002 2.540000e-002
      endloop
   endfacet
   facet normal 1.000000e+000 9.933992e-017 0.000000e+000
      outer loop
         vertex 2.540000e-002 2.540000e-002 2.540000e-002
         vertex 2.540000e-002 1.587500e-001 2.430015e-001
         vertex 2.540000e-002 1.569366e-001 2.442712e-001
      endloop
   endfacet
   facet normal 1.000000e+000 9.933992e-017 0.000000e+000
      outer loop
         vertex 2.540000e-002 2.540000e-002 2.540000e-002
         vertex 2.540000e-002 1.569366e-001 2.442712e-001
         vertex 2.540000e-002 1.553712e-001 2.458366e-001
      endloop
   endfacet
   facet normal 1.000000e+000 9.933992e-017 0.000000e+000
      outer loop
         vertex 2.540000e-002 2.540000e-002 3.302000e-001
         vertex 2.540000e-002 1.541015e-001 2.603500e-001
         vertex 2.540000e-002 1.553712e-001 2.621634e-001
      endloop
   endfacet
   facet normal 1.000000e+000 9.933992e-017 0.000000e+000
      outer loop
         vertex 2.540000e-002 1.553712e-001 2.621634e-001
         vertex 2.540000e-002 1.569366e-001 2.637288e-001
         vertex 2.540000e-002 2.540000e-002 3.302000e-001
      endloop
   endfacet
   facet normal 1.000000e+000 9.933992e-017 0.000000e+000
      outer loop
         vertex 2.540000e-002 2.540000e-002 3.302000e-001
         vertex 2.540000e-002 1.569366e-001 2.637288e-001
         vertex 2.540000e-002 1.587500e-001 2.649985e-001
      endloop
   endfacet
   facet normal 1.000000e+000 9.933992e-017 0.000000e+000
      outer loop
         vertex 2.540000e-002 2.540000e-002 3.302000e-001
         vertex 2.540000e-002 1.587500e-001 2.649985e-001
         vertex 2.540000e-002 1.607563e-001 2.659341e-001
      endloop
   endfacet
   facet normal 1.000000e+000 9.933992e-017 0.000000e+000
      outer loop
         vertex 2.540000e-002 1.770341e-001 2.583437e-001
         vertex 2.540000e-002 1.776071e-001 2.562053e-001
         vertex 2.540000e-002 3.048000e-001 3.302000e-001
      endloop
   endfacet
   facet normal 1.000000e+000 9.933992e-017 0.000000e+000
      outer loop
         vertex 2.540000e-002 3.048000e-001 3.302000e-001
         vertex 2.540000e-002 1.776071e-001 2.562053e-001
         vertex 2.540000e-002 1.778000e-001 2.540000e-001
      endloop
   endfacet
   facet normal 1.000000e+000 9.933992e-017 0.000000e+000
      outer loop
         vertex 2.540000e-002 3.048000e-001 3.302000e-001
         vertex 2.540000e-002 1.778000e-001 2.540000e-001
         vertex 2.540000e-002 1.776071e-001 2.517947e-001
      endloop
   endfacet
   facet normal 1.000000e+000 9.933992e-017 0.000000e+000
      outer loop
         vertex 2.540000e-002 1.553712e-001 2.458366e-001
         vertex 2.540000e-002 1.541015e-001 2.476500e-001
         vertex 2.540000e-002 2.540000e-002 2.540000e-002
      endloop
   endfacet
   facet normal 1.000000e+000 9.933992e-017 0.000000e+000
      outer loop
         vertex 2.540000e-002 2.540000e-002 2.540000e-002
         vertex 2.540000e-002 1.541015e-001 2.476500e-001
         vertex 2.540000e-002 1.531659e-001 2.496563e-001
      endloop
   endfacet
   facet normal 1.000000e+000 9.933992e-017 0.000000e+000
      outer loop
         vertex 2.540000e-002 2.540000e-002 2.540000e-002
         vertex 2.540000e-002 1.531659e-001 2.496563e-001
         vertex 2.540000e-002 2.540000e-002 3.302000e-001
      endloop
   endfacet
   facet normal 1.000000e+000 9.933992e-017 0.000000e+000
      outer loop
         vertex 2.540000e-002 2.540000e-002 3.302000e-001
         vertex 2.540000e-002 1.531659e-001 2.496563e-001
         vertex 2.540000e-002 1.525929e-001 2.517947e-001
      endloop
   endfacet
   facet normal 1.000000e+000 9.933992e-017 0.000000e+000
      outer loop
         vertex 2.540000e-002 2.540000e-002 3.302000e-001
         vertex 2.540000e-002 1.525929e-001 2.517947e-001
         vertex 2.540000e-002 1.524000e-001 2.540000e-001
      endloop
   endfacet
   facet normal 1.000000e+000 9.933992e-017 0.000000e+000
      outer loop
         vertex 2.540000e-002 1.732634e-001 2.637288e-001
         vertex 2.540000e-002 3.048000e-001 3.302000e-001
         vertex 2.540000e-002 1.714500e-001 2.649985e-001
      endloop
   endfacet
   facet normal 1.000000e+000 9.933992e-017 0.000000e+000
      outer loop
         vertex 2.540000e-002 1.714500e-001 2.649985e-001
         vertex 2.540000e-002 3.048000e-001 3.302000e-001
         vertex 2.540000e-002 1.694437e-001 2.659341e-001
      endloop
   endfacet
   facet normal 1.000000e+000 9.933992e-017 0.000000e+000
      outer loop
         vertex 2.540000e-002 1.732634e-001 2.637288e-001
         vertex 2.540000e-002 1.748288e-001 2.621634e-001
         vertex 2.540000e-002 3.048000e-001 3.302000e-001
      endloop
   endfacet
   facet normal 1.000000e+000 9.933992e-017 0.000000e+000
      outer loop
         vertex 2.540000e-002 3.048000e-001 3.302000e-001
         vertex 2.540000e-002 1.748288e-001 2.621634e-001
         vertex 2.540000e-002 1.760985e-001 2.603500e-001
      endloop
   endfacet
   facet normal 1.000000e+000 9.933992e-017 0.000000e+000
      outer loop
         vertex 2.540000e-002 3.048000e-001 3.302000e-001
         vertex 2.540000e-002 1.760985e-001 2.603500e-001
         vertex 2.540000e-002 1.770341e-001 2.583437e-001
      endloop
   endfacet
   facet normal 1.000000e+000 9.933992e-017 0.000000e+000
      outer loop
         vertex 2.540000e-002 1.748288e-001 2.458366e-001
         vertex 2.540000e-002 1.732634e-001 2.442712e-001
         vertex 2.540000e-002 3.048000e-001 2.540000e-002
      endloop
   endfacet
   facet normal 1.000000e+000 9.933992e-017 0.000000e+000
      outer loop
         vertex 2.540000e-002 3.048000e-001 2.540000e-002
         vertex 2.540000e-002 1.732634e-001 2.442712e-001
         vertex 2.540000e-002 1.714500e-001 2.430015e-001
      endloop
   endfacet
   facet normal 1.000000e+000 9.933992e-017 0.000000e+000
      outer loop
         vertex 2.540000e-002 3.048000e-001 2.540000e-002
         vertex 2.540000e-002 1.714500e-001 2.430015e-001
         vertex 2.540000e-002 1.694437e-001 2.420659e-001
      endloop
   endfacet
   facet normal 1.000000e+000 9.933992e-017 0.000000e+000
      outer loop
         vertex 2.540000e-002 1.524000e-001 2.540000e-001
         vertex 2.540000e-002 1.525929e-001 2.562053e-001
         vertex 2.540000e-002 2.540000e-002 3.302000e-001
      endloop
   endfacet
   facet normal 1.000000e+000 9.933992e-017 0.000000e+000
      outer loop
         vertex 2.540000e-002 2.540000e-002 3.302000e-001
         vertex 2.540000e-002 1.525929e-001 2.562053e-001
         vertex 2.540000e-002 1.531659e-001 2.583437e-001
      endloop
   endfacet
   facet normal 1.000000e+000 9.933992e-017 0.000000e+000
      outer loop
         vertex 2.540000e-002 2.540000e-002 3.302000e-001
         vertex 2.540000e-002 1.531659e-001 2.583437e-001
         vertex 2.540000e-002 1.541015e-001 2.603500e-001
      endloop
   endfacet
   facet normal 1.000000e+000 9.933992e-017 0.000000e+000
      outer loop
         vertex 2.540000e-002 1.694437e-001 2.420659e-001
         vertex 2.540000e-002 1.673053e-001 2.414929e-001
         vertex 2.540000e-002 3.048000e-001 2.540000e-002
      endloop
   endfacet
   facet normal 1.000000e+000 9.933992e-017 0.000000e+000
      outer loop
         vertex 2.540000e-002 3.048000e-001 2.540000e-002
         vertex 2.540000e-002 1.673053e-001 2.414929e-001
         vertex 2.540000e-002 1.651000e-001 2.413000e-001
      endloop
   endfacet
   facet normal 1.000000e+000 9.933992e-017 0.000000e+000
      outer loop
         vertex 2.540000e-002 3.048000e-001 2.540000e-002
         vertex 2.540000e-002 1.651000e-001 2.413000e-001
         vertex 2.540000e-002 2.540000e-002 2.540000e-002
      endloop
   endfacet
   facet normal 1.000000e+000 9.933992e-017 0.000000e+000
      outer loop
         vertex 2.540000e-002 2.540000e-002 2.540000e-002
         vertex 2.540000e-002 1.651000e-001 2.413000e-001
         vertex 2.540000e-002 1.628947e-001 2.414929e-001
      endloop
   endfacet
   facet normal 1.000000e+000 9.933992e-017 0.000000e+000
      outer loop
         vertex 2.540000e-002 2.540000e-002 2.540000e-002
         vertex 2.540000e-002 1.628947e-001 2.414929e-001
         vertex 2.540000e-002 1.607563e-001 2.420659e-001
      endloop
   endfacet
   facet normal 1.000000e+000 9.933992e-017 0.000000e+000
      outer loop
         vertex 2.540000e-002 1.607563e-001 2.659341e-001
         vertex 2.540000e-002 1.628947e-001 2.665071e-001
         vertex 2.540000e-002 2.540000e-002 3.302000e-001
      endloop
   endfacet
   facet normal 1.000000e+000 9.933992e-017 0.000000e+000
      outer loop
         vertex 2.540000e-002 2.540000e-002 3.302000e-001
         vertex 2.540000e-002 1.628947e-001 2.665071e-001
         vertex 2.540000e-002 1.651000e-001 2.667000e-001
      endloop
   endfacet
   facet normal 1.000000e+000 9.933992e-017 0.000000e+000
      outer loop
         vertex 2.540000e-002 2.540000e-002 3.302000e-001
         vertex 2.540000e-002 1.651000e-001 2.667000e-001
         vertex 2.540000e-002 3.048000e-001 3.302000e-001
      endloop
   endfacet
   facet normal 1.000000e+000 9.933992e-017 0.000000e+000
      outer loop
         vertex 2.540000e-002 3.048000e-001 3.302000e-001
         vertex 2.540000e-002 1.651000e-001 2.667000e-001
         vertex 2.540000e-002 1.673053e-001 2.665071e-001
      endloop
   endfacet
   facet normal 1.000000e+000 9.933992e-017 0.000000e+000
      outer loop
         vertex 2.540000e-002 3.048000e-001 3.302000e-001
         vertex 2.540000e-002 1.673053e-001 2.665071e-001
         vertex 2.540000e-002 1.694437e-001 2.659341e-001
      endloop
   endfacet
   facet normal 0.000000e+000 -1.000000e+000 0.000000e+000
      outer loop
         vertex 2.540000e-002 3.048000e-001 2.540000e-002
         vertex 3.048000e-001 3.048000e-001 2.540000e-002
         vertex 2.540000e-002 3.048000e-001 3.302000e-001
      endloop
   endfacet
   facet normal 0.000000e+000 -1.000000e+000 0.000000e+000
      outer loop
         vertex 2.540000e-002 3.048000e-001 3.302000e-001
         vertex 3.048000e-001 3.048000e-001 2.540000e-002
         vertex 3.048000e-001 3.048000e-001 3.302000e-001
      endloop
   endfacet
   facet normal -1.000000e+000 -9.933992e-017 0.000000e+000
      outer loop
         vertex 3.048000e-001 3.048000e-001 2.540000e-002
         vertex 3.048000e-001 2.540000e-002 2.540000e-002
         vertex 3.048000e-001 3.048000e-001 3.302000e-001
      endloop
   endfacet
   facet normal -1.000000e+000 -9.933992e-017 0.000000e+000
      outer loop
         vertex 3.048000e-001 3.048000e-001 3.302000e-001
         vertex 3.048000e-001 2.540000e-002 2.540000e-002
         vertex 3.048000e-001 2.540000e-002 3.302000e-001
      endloop
   endfacet
   facet normal 0.000000e+000 1.000000e+000 0.000000e+000
      outer loop
         vertex 3.048000e-001 2.540000e-002 2.540000e-002
         vertex 2.540000e-002 2.540000e-002 2.540000e-002
         vertex 3.048000e-001 2.540000e-002 3.302000e-001
      endloop
   endfacet
   facet normal 0.000000e+000 1.000000e+000 0.000000e+000
      outer loop
         vertex 3.048000e-001 2.540000e-002 3.302000e-001
         vertex 2.540000e-002 2.540000e-002 2.540000e-002
         vertex 2.540000e-002 2.540000e-002 3.302000e-001
      endloop
   endfacet
   facet normal 0.000000e+000 0.000000e+000 1.000000e+000
      outer loop
         vertex 1.760985e-001 1.714500e-001 2.540000e-002
         vertex 1.770341e-001 1.694437e-001 2.540000e-002
         vertex 3.048000e-001 3.048000e-001 2.540000e-002
      endloop
   endfacet
   facet normal 0.000000e+000 0.000000e+000 1.000000e+000
      outer loop
         vertex 1.628947e-001 1.525929e-001 2.540000e-002
         vertex 2.540000e-002 2.540000e-002 2.540000e-002
         vertex 1.651000e-001 1.524000e-001 2.540000e-002
      endloop
   endfacet
   facet normal 0.000000e+000 0.000000e+000 1.000000e+000
      outer loop
         vertex 1.651000e-001 1.524000e-001 2.540000e-002
         vertex 2.540000e-002 2.540000e-002 2.540000e-002
         vertex 3.048000e-001 2.540000e-002 2.540000e-002
      endloop
   endfacet
   facet normal 0.000000e+000 0.000000e+000 1.000000e+000
      outer loop
         vertex 1.651000e-001 1.524000e-001 2.540000e-002
         vertex 3.048000e-001 2.540000e-002 2.540000e-002
         vertex 1.673053e-001 1.525929e-001 2.540000e-002
      endloop
   endfacet
   facet normal 0.000000e+000 0.000000e+000 1.000000e+000
      outer loop
         vertex 1.673053e-001 1.776071e-001 2.540000e-002
         vertex 1.694437e-001 1.770341e-001 2.540000e-002
         vertex 3.048000e-001 3.048000e-001 2.540000e-002
      endloop
   endfacet
   facet normal 0.000000e+000 0.000000e+000 1.000000e+000
      outer loop
         vertex 1.760985e-001 1.714500e-001 2.540000e-002
         vertex 3.048000e-001 3.048000e-001 2.540000e-002
         vertex 1.748288e-001 1.732634e-001 2.540000e-002
      endloop
   endfacet
   facet normal 0.000000e+000 0.000000e+000 1.000000e+000
      outer loop
         vertex 1.628947e-001 1.525929e-001 2.540000e-002
         vertex 1.607563e-001 1.531659e-001 2.540000e-002
         vertex 2.540000e-002 2.540000e-002 2.540000e-002
      endloop
   endfacet
   facet normal 0.000000e+000 0.000000e+000 1.000000e+000
      outer loop
         vertex 2.540000e-002 2.540000e-002 2.540000e-002
         vertex 1.607563e-001 1.531659e-001 2.540000e-002
         vertex 1.587500e-001 1.541015e-001 2.540000e-002
      endloop
   endfacet
   facet normal 0.000000e+000 0.000000e+000 1.000000e+000
      outer loop
         vertex 2.540000e-002 2.540000e-002 2.540000e-002
         vertex 1.587500e-001 1.541015e-001 2.540000e-002
         vertex 1.569366e-001 1.553712e-001 2.540000e-002
      endloop
   endfacet
   facet normal 0.000000e+000 0.000000e+000 1.000000e+000
      outer loop
         vertex 1.694437e-001 1.770341e-001 2.540000e-002
         vertex 1.714500e-001 1.760985e-001 2.540000e-002
         vertex 3.048000e-001 3.048000e-001 2.540000e-002
      endloop
   endfacet
   facet normal 0.000000e+000 0.000000e+000 1.000000e+000
      outer loop
         vertex 3.048000e-001 3.048000e-001 2.540000e-002
         vertex 1.714500e-001 1.760985e-001 2.540000e-002
         vertex 1.732634e-001 1.748288e-001 2.540000e-002
      endloop
   endfacet
   facet normal 0.000000e+000 0.000000e+000 1.000000e+000
      outer loop
         vertex 3.048000e-001 3.048000e-001 2.540000e-002
         vertex 1.732634e-001 1.748288e-001 2.540000e-002
         vertex 1.748288e-001 1.732634e-001 2.540000e-002
      endloop
   endfacet
   facet normal 0.000000e+000 0.000000e+000 1.000000e+000
      outer loop
         vertex 2.540000e-002 3.048000e-001 2.540000e-002
         vertex 1.607563e-001 1.770341e-001 2.540000e-002
         vertex 1.628947e-001 1.776071e-001 2.540000e-002
      endloop
   endfacet
   facet normal 0.000000e+000 0.000000e+000 1.000000e+000
      outer loop
         vertex 1.770341e-001 1.694437e-001 2.540000e-002
         vertex 1.776071e-001 1.673053e-001 2.540000e-002
         vertex 3.048000e-001 3.048000e-001 2.540000e-002
      endloop
   endfacet
   facet normal 0.000000e+000 0.000000e+000 1.000000e+000
      outer loop
         vertex 3.048000e-001 3.048000e-001 2.540000e-002
         vertex 1.776071e-001 1.673053e-001 2.540000e-002
         vertex 1.778000e-001 1.651000e-001 2.540000e-002
      endloop
   endfacet
   facet normal 0.000000e+000 0.000000e+000 1.000000e+000
      outer loop
         vertex 3.048000e-001 3.048000e-001 2.540000e-002
         vertex 1.778000e-001 1.651000e-001 2.540000e-002
         vertex 3.048000e-001 2.540000e-002 2.540000e-002
      endloop
   endfacet
   facet normal 0.000000e+000 0.000000e+000 1.000000e+000
      outer loop
         vertex 3.048000e-001 2.540000e-002 2.540000e-002
         vertex 1.778000e-001 1.651000e-001 2.540000e-002
         vertex 1.776071e-001 1.628947e-001 2.540000e-002
      endloop
   endfacet
   facet normal 0.000000e+000 0.000000e+000 1.000000e+000
      outer loop
         vertex 3.048000e-001 2.540000e-002 2.540000e-002
         vertex 1.776071e-001 1.628947e-001 2.540000e-002
         vertex 1.770341e-001 1.607563e-001 2.540000e-002
      endloop
   endfacet
   facet normal 0.000000e+000 0.000000e+000 1.000000e+000
      outer loop
         vertex 1.770341e-001 1.607563e-001 2.540000e-002
         vertex 1.760985e-001 1.587500e-001 2.540000e-002
         vertex 3.048000e-001 2.540000e-002 2.540000e-002
      endloop
   endfacet
   facet normal 0.000000e+000 0.000000e+000 1.000000e+000
      outer loop
         vertex 3.048000e-001 2.540000e-002 2.540000e-002
         vertex 1.760985e-001 1.587500e-001 2.540000e-002
         vertex 1.748288e-001 1.569366e-001 2.540000e-002
      endloop
   endfacet
   facet normal 0.000000e+000 0.000000e+000 1.000000e+000
      outer loop
         vertex 3.048000e-001 2.540000e-002 2.540000e-002
         vertex 1.748288e-001 1.569366e-001 2.540000e-002
         vertex 1.732634e-001 1.553712e-001 2.540000e-002
      endloop
   endfacet
   facet normal 0.000000e+000 0.000000e+000 1.000000e+000
      outer loop
         vertex 1.569366e-001 1.553712e-001 2.540000e-002
         vertex 1.553712e-001 1.569366e-001 2.540000e-002
         vertex 2.540000e-002 2.540000e-002 2.540000e-002
      endloop
   endfacet
   facet normal 0.000000e+000 0.000000e+000 1.000000e+000
      outer loop
         vertex 2.540000e-002 2.540000e-002 2.540000e-002
         vertex 1.553712e-001 1.569366e-001 2.540000e-002
         vertex 1.541015e-001 1.587500e-001 2.540000e-002
      endloop
   endfacet
   facet normal 0.000000e+000 0.000000e+000 1.000000e+000
      outer loop
         vertex 2.540000e-002 2.540000e-002 2.540000e-002
         vertex 1.541015e-001 1.587500e-001 2.540000e-002
         vertex 1.531659e-001 1.607563e-001 2.540000e-002
      endloop
   endfacet
   facet normal 0.000000e+000 0.000000e+000 1.000000e+000
      outer loop
         vertex 1.732634e-001 1.553712e-001 2.540000e-002
         vertex 1.714500e-001 1.541015e-001 2.540000e-002
         vertex 3.048000e-001 2.540000e-002 2.540000e-002
      endloop
   endfacet
   facet normal 0.000000e+000 0.000000e+000 1.000000e+000
      outer loop
         vertex 3.048000e-001 2.540000e-002 2.540000e-002
         vertex 1.714500e-001 1.541015e-001 2.540000e-002
         vertex 1.694437e-001 1.531659e-001 2.540000e-002
      endloop
   endfacet
   facet normal 0.000000e+000 0.000000e+000 1.000000e+000
      outer loop
         vertex 3.048000e-001 2.540000e-002 2.540000e-002
         vertex 1.694437e-001 1.531659e-001 2.540000e-002
         vertex 1.673053e-001 1.525929e-001 2.540000e-002
      endloop
   endfacet
   facet normal 0.000000e+000 0.000000e+000 1.000000e+000
      outer loop
         vertex 1.531659e-001 1.607563e-001 2.540000e-002
         vertex 1.525929e-001 1.628947e-001 2.540000e-002
         vertex 2.540000e-002 2.540000e-002 2.540000e-002
      endloop
   endfacet
   facet normal 0.000000e+000 0.000000e+000 1.000000e+000
      outer loop
         vertex 2.540000e-002 2.540000e-002 2.540000e-002
         vertex 1.525929e-001 1.628947e-001 2.540000e-002
         vertex 1.524000e-001 1.651000e-001 2.540000e-002
      endloop
   endfacet
   facet normal 0.000000e+000 0.000000e+000 1.000000e+000
      outer loop
         vertex 2.540000e-002 2.540000e-002 2.540000e-002
         vertex 1.524000e-001 1.651000e-001 2.540000e-002
         vertex 2.540000e-002 3.048000e-001 2.540000e-002
      endloop
   endfacet
   facet normal 0.000000e+000 0.000000e+000 1.000000e+000
      outer loop
         vertex 2.540000e-002 3.048000e-001 2.540000e-002
         vertex 1.524000e-001 1.651000e-001 2.540000e-002
         vertex 1.525929e-001 1.673053e-001 2.540000e-002
      endloop
   endfacet
   facet normal 0.000000e+000 0.000000e+000 1.000000e+000
      outer loop
         vertex 1.525929e-001 1.673053e-001 2.540000e-002
         vertex 1.531659e-001 1.694437e-001 2.540000e-002
         vertex 2.540000e-002 3.048000e-001 2.540000e-002
      endloop
   endfacet
   facet normal 0.000000e+000 0.000000e+000 1.000000e+000
      outer loop
         vertex 2.540000e-002 3.048000e-001 2.540000e-002
         vertex 1.531659e-001 1.694437e-001 2.540000e-002
         vertex 1.541015e-001 1.714500e-001 2.540000e-002
      endloop
   endfacet
   facet normal 0.000000e+000 0.000000e+000 1.000000e+000
      outer loop
         vertex 2.540000e-002 3.048000e-001 2.540000e-002
         vertex 1.541015e-001 1.714500e-001 2.540000e-002
         vertex 1.553712e-001 1.732634e-001 2.540000e-002
      endloop
   endfacet
   facet normal 0.000000e+000 0.000000e+000 1.000000e+000
      outer loop
         vertex 2.540000e-002 3.048000e-001 2.540000e-002
         vertex 1.628947e-001 1.776071e-001 2.540000e-002
         vertex 3.048000e-001 3.048000e-001 2.540000e-002
      endloop
   endfacet
   facet normal 0.000000e+000 0.000000e+000 1.000000e+000
      outer loop
         vertex 3.048000e-001 3.048000e-001 2.540000e-002
         vertex 1.628947e-001 1.776071e-001 2.540000e-002
         vertex 1.651000e-001 1.778000e-001 2.540000e-002
      endloop
   endfacet
   facet normal 0.000000e+000 0.000000e+000 1.000000e+000
      outer loop
         vertex 3.048000e-001 3.048000e-001 2.540000e-002
         vertex 1.651000e-001 1.778000e-001 2.540000e-002
         vertex 1.673053e-001 1.776071e-001 2.540000e-002
      endloop
   endfacet
   facet normal 0.000000e+000 0.000000e+000 1.000000e+000
      outer loop
         vertex 1.553712e-001 1.732634e-001 2.540000e-002
         vertex 1.569366e-001 1.748288e-001 2.540000e-002
         vertex 2.540000e-002 3.048000e-001 2.540000e-002
      endloop
   endfacet
   facet normal 0.000000e+000 0.000000e+000 1.000000e+000
      outer loop
         vertex 2.540000e-002 3.048000e-001 2.540000e-002
         vertex 1.569366e-001 1.748288e-001 2.540000e-002
         vertex 1.587500e-001 1.760985e-001 2.540000e-002
      endloop
   endfacet
   facet normal 0.000000e+000 0.000000e+000 1.000000e+000
      outer loop
         vertex 2.540000e-002 3.048000e-001 2.540000e-002
         vertex 1.587500e-001 1.760985e-001 2.540000e-002
         vertex 1.607563e-001 1.770341e-001 2.540000e-002
      endloop
   endfacet
   facet normal -1.818158e-016 -5.807914e-002 9.983120e-001
      outer loop
         vertex 2.540000e-002 1.673053e-001 2.414929e-001
         vertex 5.060769e-010 1.651000e-001 2.413000e-001
         vertex 2.540000e-002 1.651000e-001 2.413000e-001
      endloop
   endfacet
   facet normal -1.818158e-016 5.807914e-002 9.983120e-001
      outer loop
         vertex 2.540000e-002 1.651000e-001 2.413000e-001
         vertex 5.060769e-010 1.651000e-001 2.413000e-001
         vertex 5.060769e-010 1.628947e-001 2.414929e-001
      endloop
   endfacet
   facet normal -1.808904e-016 1.161583e-001 9.932307e-001
      outer loop
         vertex 2.540000e-002 1.651000e-001 2.413000e-001
         vertex 5.060769e-010 1.628947e-001 2.414929e-001
         vertex 2.540000e-002 1.628947e-001 2.414929e-001
      endloop
   endfacet
   facet normal -1.772168e-016 2.305519e-001 9.730600e-001
      outer loop
         vertex 2.540000e-002 1.628947e-001 2.414929e-001
         vertex 5.060769e-010 1.628947e-001 2.414929e-001
         vertex 5.060769e-010 1.607563e-001 2.420659e-001
      endloop
   endfacet
   facet normal -1.744687e-016 2.868663e-001 9.579706e-001
      outer loop
         vertex 2.540000e-002 1.628947e-001 2.414929e-001
         vertex 5.060769e-010 1.607563e-001 2.420659e-001
         vertex 2.540000e-002 1.607563e-001 2.420659e-001
      endloop
   endfacet
   facet normal -1.672332e-016 3.960194e-001 9.182422e-001
      outer loop
         vertex 2.540000e-002 1.607563e-001 2.420659e-001
         vertex 5.060769e-010 1.607563e-001 2.420659e-001
         vertex 5.060769e-010 1.587500e-001 2.430015e-001
      endloop
   endfacet
   facet normal -1.627459e-016 4.488580e-001 8.936031e-001
      outer loop
         vertex 2.540000e-002 1.607563e-001 2.420659e-001
         vertex 5.060769e-010 1.587500e-001 2.430015e-001
         vertex 2.540000e-002 1.587500e-001 2.430015e-001
      endloop
   endfacet
   facet normal -1.521683e-016 5.494540e-001 8.355240e-001
      outer loop
         vertex 2.540000e-002 1.587500e-001 2.430015e-001
         vertex 5.060769e-010 1.587500e-001 2.430015e-001
         vertex 5.060769e-010 1.569366e-001 2.442712e-001
      endloop
   endfacet
   facet normal -1.460781e-016 5.972114e-001 8.020839e-001
      outer loop
         vertex 2.540000e-002 1.587500e-001 2.430015e-001
         vertex 5.060769e-010 1.569366e-001 2.442712e-001
         vertex 2.540000e-002 1.569366e-001 2.442712e-001
      endloop
   endfacet
   facet normal -1.324798e-016 6.861938e-001 7.274188e-001
      outer loop
         vertex 2.540000e-002 1.569366e-001 2.442712e-001
         vertex 5.060769e-010 1.569366e-001 2.442712e-001
         vertex 5.060769e-010 1.553712e-001 2.458366e-001
      endloop
   endfacet
   facet normal -1.249718e-016 7.274188e-001 6.861938e-001
      outer loop
         vertex 2.540000e-002 1.569366e-001 2.442712e-001
         vertex 5.060769e-010 1.553712e-001 2.458366e-001
         vertex 2.540000e-002 1.553712e-001 2.458366e-001
      endloop
   endfacet
   facet normal -1.087660e-016 8.020839e-001 5.972114e-001
      outer loop
         vertex 2.540000e-002 1.553712e-001 2.458366e-001
         vertex 5.060769e-010 1.553712e-001 2.458366e-001
         vertex 5.060769e-010 1.541015e-001 2.476500e-001
      endloop
   endfacet
   facet normal -1.000683e-016 8.355240e-001 5.494540e-001
      outer loop
         vertex 2.540000e-002 1.553712e-001 2.458366e-001
         vertex 5.060769e-010 1.541015e-001 2.476500e-001
         vertex 2.540000e-002 1.541015e-001 2.476500e-001
      endloop
   endfacet
   facet normal -8.174745e-017 8.936031e-001 4.488580e-001
      outer loop
         vertex 2.540000e-002 1.541015e-001 2.476500e-001
         vertex 5.060769e-010 1.541015e-001 2.476500e-001
         vertex 5.060769e-010 1.531659e-001 2.496563e-001
      endloop
   endfacet
   facet normal -7.212431e-017 9.182422e-001 3.960194e-001
      outer loop
         vertex 2.540000e-002 1.541015e-001 2.476500e-001
         vertex 5.060769e-010 1.531659e-001 2.496563e-001
         vertex 2.540000e-002 1.531659e-001 2.496563e-001
      endloop
   endfacet
   facet normal -5.224501e-017 9.579706e-001 2.868663e-001
      outer loop
         vertex 2.540000e-002 1.531659e-001 2.496563e-001
         vertex 5.060769e-010 1.531659e-001 2.496563e-001
         vertex 5.060769e-010 1.525929e-001 2.517947e-001
      endloop
   endfacet
   facet normal -4.198884e-017 9.730600e-001 2.305519e-001
      outer loop
         vertex 2.540000e-002 1.531659e-001 2.496563e-001
         vertex 5.060769e-010 1.525929e-001 2.517947e-001
         vertex 2.540000e-002 1.525929e-001 2.517947e-001
      endloop
   endfacet
   facet normal -2.115512e-017 9.932307e-001 1.161583e-001
      outer loop
         vertex 2.540000e-002 1.525929e-001 2.517947e-001
         vertex 5.060769e-010 1.525929e-001 2.517947e-001
         vertex 5.060769e-010 1.524000e-001 2.540000e-001
      endloop
   endfacet
   facet normal -1.057756e-017 9.983120e-001 5.807914e-002
      outer loop
         vertex 2.540000e-002 1.525929e-001 2.517947e-001
         vertex 5.060769e-010 1.524000e-001 2.540000e-001
         vertex 2.540000e-002 1.524000e-001 2.540000e-001
      endloop
   endfacet
   facet normal 1.057756e-017 9.983120e-001 -5.807914e-002
      outer loop
         vertex 2.540000e-002 1.524000e-001 2.540000e-001
         vertex 5.060769e-010 1.524000e-001 2.540000e-001
         vertex 5.060769e-010 1.525929e-001 2.562053e-001
      endloop
   endfacet
   facet normal 2.115512e-017 9.932307e-001 -1.161583e-001
      outer loop
         vertex 2.540000e-002 1.524000e-001 2.540000e-001
         vertex 5.060769e-010 1.525929e-001 2.562053e-001
         vertex 2.540000e-002 1.525929e-001 2.562053e-001
      endloop
   endfacet
   facet normal 4.198884e-017 9.730600e-001 -2.305519e-001
      outer loop
         vertex 2.540000e-002 1.525929e-001 2.562053e-001
         vertex 5.060769e-010 1.525929e-001 2.562053e-001
         vertex 5.060769e-010 1.531659e-001 2.583437e-001
      endloop
   endfacet
   facet normal 5.224501e-017 9.579706e-001 -2.868663e-001
      outer loop
         vertex 2.540000e-002 1.525929e-001 2.562053e-001
         vertex 5.060769e-010 1.531659e-001 2.583437e-001
         vertex 2.540000e-002 1.531659e-001 2.583437e-001
      endloop
   endfacet
   facet normal 7.212431e-017 9.182422e-001 -3.960194e-001
      outer loop
         vertex 2.540000e-002 1.531659e-001 2.583437e-001
         vertex 5.060769e-010 1.531659e-001 2.583437e-001
         vertex 5.060769e-010 1.541015e-001 2.603500e-001
      endloop
   endfacet
   facet normal 8.174745e-017 8.936031e-001 -4.488580e-001
      outer loop
         vertex 2.540000e-002 1.531659e-001 2.583437e-001
         vertex 5.060769e-010 1.541015e-001 2.603500e-001
         vertex 2.540000e-002 1.541015e-001 2.603500e-001
      endloop
   endfacet
   facet normal 1.000683e-016 8.355240e-001 -5.494540e-001
      outer loop
         vertex 2.540000e-002 1.541015e-001 2.603500e-001
         vertex 5.060769e-010 1.541015e-001 2.603500e-001
         vertex 5.060769e-010 1.553712e-001 2.621634e-001
      endloop
   endfacet
   facet normal 1.087660e-016 8.020839e-001 -5.972114e-001
      outer loop
         vertex 2.540000e-002 1.541015e-001 2.603500e-001
         vertex 5.060769e-010 1.553712e-001 2.621634e-001
         vertex 2.540000e-002 1.553712e-001 2.621634e-001
      endloop
   endfacet
   facet normal 1.249718e-016 7.274188e-001 -6.861938e-001
      outer loop
         vertex 2.540000e-002 1.553712e-001 2.621634e-001
         vertex 5.060769e-010 1.553712e-001 2.621634e-001
         vertex 5.060769e-010 1.569366e-001 2.637288e-001
      endloop
   endfacet
   facet normal 1.324798e-016 6.861938e-001 -7.274188e-001
      outer loop
         vertex 2.540000e-002 1.553712e-001 2.621634e-001
         vertex 5.060769e-010 1.569366e-001 2.637288e-001
         vertex 2.540000e-002 1.569366e-001 2.637288e-001
      endloop
   endfacet
   facet normal 1.460781e-016 5.972114e-001 -8.020839e-001
      outer loop
         vertex 2.540000e-002 1.569366e-001 2.637288e-001
         vertex 5.060769e-010 1.569366e-001 2.637288e-001
         vertex 5.060769e-010 1.587500e-001 2.649985e-001
      endloop
   endfacet
   facet normal 1.521683e-016 5.494540e-001 -8.355240e-001
      outer loop
         vertex 2.540000e-002 1.569366e-001 2.637288e-001
         vertex 5.060769e-010 1.587500e-001 2.649985e-001
         vertex 2.540000e-002 1.587500e-001 2.649985e-001
      endloop
   endfacet
   facet normal 1.627459e-016 4.488580e-001 -8.936031e-001
      outer loop
         vertex 2.540000e-002 1.587500e-001 2.649985e-001
         vertex 5.060769e-010 1.587500e-001 2.649985e-001
         vertex 5.060769e-010 1.607563e-001 2.659341e-001
      endloop
   endfacet
   facet normal 1.672332e-016 3.960194e-001 -9.182422e-001
      outer loop
         vertex 2.540000e-002 1.587500e-001 2.649985e-001
         vertex 5.060769e-010 1.607563e-001 2.659341e-001
         vertex 2.540000e-002 1.607563e-001 2.659341e-001
      endloop
   endfacet
   facet normal 1.744687e-016 2.868663e-001 -9.579706e-001
      outer loop
         vertex 2.540000e-002 1.607563e-001 2.659341e-001
         vertex 5.060769e-010 1.607563e-001 2.659341e-001
         vertex 5.060769e-010 1.628947e-001 2.665071e-001
      endloop
   endfacet
   facet normal 1.772168e-016 2.305519e-001 -9.730600e-001
      outer loop
         vertex 2.540000e-002 1.607563e-001 2.659341e-001
         vertex 5.060769e-010 1.628947e-001 2.665071e-001
         vertex 2.540000e-002 1.628947e-001 2.665071e-001
      endloop
   endfacet
   facet normal 1.808904e-016 1.161583e-001 -9.932307e-001
      outer loop
         vertex 2.540000e-002 1.628947e-001 2.665071e-001
         vertex 5.060769e-010 1.628947e-001 2.665071e-001
         vertex 5.060769e-010 1.651000e-001 2.667000e-001
      endloop
   endfacet
   facet normal 1.818158e-016 5.807914e-002 -9.983120e-001
      outer loop
         vertex 2.540000e-002 1.628947e-001 2.665071e-001
         vertex 5.060769e-010 1.651000e-001 2.667000e-001
         vertex 2.540000e-002 1.651000e-001 2.667000e-001
      endloop
   endfacet
   facet normal 1.818158e-016 -5.807914e-002 -9.983120e-001
      outer loop
         vertex 2.540000e-002 1.651000e-001 2.667000e-001
         vertex 5.060769e-010 1.651000e-001 2.667000e-001
         vertex 5.060769e-010 1.673053e-001 2.665071e-001
      endloop
   endfacet
   facet normal 1.808904e-016 -1.161583e-001 -9.932307e-001
      outer loop
         vertex 2.540000e-002 1.651000e-001 2.667000e-001
         vertex 5.060769e-010 1.673053e-001 2.665071e-001
         vertex 2.540000e-002 1.673053e-001 2.665071e-001
      endloop
   endfacet
   facet normal 1.772168e-016 -2.305519e-001 -9.730600e-001
      outer loop
         vertex 2.540000e-002 1.673053e-001 2.665071e-001
         vertex 5.060769e-010 1.673053e-001 2.665071e-001
         vertex 5.060769e-010 1.694437e-001 2.659341e-001
      endloop
   endfacet
   facet normal 1.744687e-016 -2.868663e-001 -9.579706e-001
      outer loop
         vertex 2.540000e-002 1.673053e-001 2.665071e-001
         vertex 5.060769e-010 1.694437e-001 2.659341e-001
         vertex 2.540000e-002 1.694437e-001 2.659341e-001
      endloop
   endfacet
   facet normal 1.672332e-016 -3.960194e-001 -9.182422e-001
      outer loop
         vertex 2.540000e-002 1.694437e-001 2.659341e-001
         vertex 5.060769e-010 1.694437e-001 2.659341e-001
         vertex 5.060769e-010 1.714500e-001 2.649985e-001
      endloop
   endfacet
   facet normal 1.627459e-016 -4.488580e-001 -8.936031e-001
      outer loop
         vertex 2.540000e-002 1.694437e-001 2.659341e-001
         vertex 5.060769e-010 1.714500e-001 2.649985e-001
         vertex 2.540000e-002 1.714500e-001 2.649985e-001
      endloop
   endfacet
   facet normal 1.521683e-016 -5.494540e-001 -8.355240e-001
      outer loop
         vertex 2.540000e-002 1.714500e-001 2.649985e-001
         vertex 5.060769e-010 1.714500e-001 2.649985e-001
         vertex 5.060769e-010 1.732634e-001 2.637288e-001
      endloop
   endfacet
   facet normal 1.460781e-016 -5.972114e-001 -8.020839e-001
      outer loop
         vertex 2.540000e-002 1.714500e-001 2.649985e-001
         vertex 5.060769e-010 1.732634e-001 2.637288e-001
         vertex 2.540000e-002 1.732634e-001 2.637288e-001
      endloop
   endfacet
   facet normal 1.324798e-016 -6.861938e-001 -7.274188e-001
      outer loop
         vertex 2.540000e-002 1.732634e-001 2.637288e-001
         vertex 5.060769e-010 1.732634e-001 2.637288e-001
         vertex 5.060769e-010 1.748288e-001 2.621634e-001
      endloop
   endfacet
   facet normal 1.249718e-016 -7.274188e-001 -6.861938e-001
      outer loop
         vertex 2.540000e-002 1.732634e-001 2.637288e-001
         vertex 5.060769e-010 1.748288e-001 2.621634e-001
         vertex 2.540000e-002 1.748288e-001 2.621634e-001
      endloop
   endfacet
   facet normal 1.087660e-016 -8.020839e-001 -5.972114e-001
      outer loop
         vertex 2.540000e-002 1.748288e-001 2.621634e-001
         vertex 5.060769e-010 1.748288e-001 2.621634e-001
         vertex 5.060769e-010 1.760985e-001 2.603500e-001
      endloop
   endfacet
   facet normal 1.000683e-016 -8.355240e-001 -5.494540e-001
      outer loop
         vertex 2.540000e-002 1.748288e-001 2.621634e-001
         vertex 5.060769e-010 1.760985e-001 2.603500e-001
         vertex 2.540000e-002 1.760985e-001 2.603500e-001
      endloop
   endfacet
   facet normal 8.174745e-017 -8.936031e-001 -4.488580e-001
      outer loop
         vertex 2.540000e-002 1.760985e-001 2.603500e-001
         vertex 5.060769e-010 1.760985e-001 2.603500e-001
         vertex 5.060769e-010 1.770341e-001 2.583437e-001
      endloop
   endfacet
   facet normal 7.212431e-017 -9.182422e-001 -3.960194e-001
      outer loop
         vertex 2.540000e-002 1.760985e-001 2.603500e-001
         vertex 5.060769e-010 1.770341e-001 2.583437e-001
         vertex 2.540000e-002 1.770341e-001 2.583437e-001
      endloop
   endfacet
   facet normal 5.224501e-017 -9.579706e-001 -2.868663e-001
      outer loop
         vertex 2.540000e-002 1.770341e-001 2.583437e-001
         vertex 5.060769e-010 1.770341e-001 2.583437e-001
         vertex 5.060769e-010 1.776071e-001 2.562053e-001
      endloop
   endfacet
   facet normal 4.198884e-017 -9.730600e-001 -2.305519e-001
      outer loop
         vertex 2.540000e-002 1.770341e-001 2.583437e-001
         vertex 5.060769e-010 1.776071e-001 2.562053e-001
         vertex 2.540000e-002 1.776071e-001 2.562053e-001
      endloop
   endfacet
   facet normal 2.115512e-017 -9.932307e-001 -1.161583e-001
      outer loop
         vertex 2.540000e-002 1.776071e-001 2.562053e-001
         vertex 5.060769e-010 1.776071e-001 2.562053e-001
         vertex 5.060769e-010 1.778000e-001 2.540000e-001
      endloop
   endfacet
   facet normal 1.057756e-017 -9.983120e-001 -5.807914e-002
      outer loop
         vertex 2.540000e-002 1.776071e-001 2.562053e-001
         vertex 5.060769e-010 1.778000e-001 2.540000e-001
         vertex 2.540000e-002 1.778000e-001 2.540000e-001
      endloop
   endfacet
   facet normal -1.057756e-017 -9.983120e-001 5.807914e-002
      outer loop
         vertex 2.540000e-002 1.778000e-001 2.540000e-001
         vertex 5.060769e-010 1.778000e-001 2.540000e-001
         vertex 5.060769e-010 1.776071e-001 2.517947e-001
      endloop
   endfacet
   facet normal -2.115512e-017 -9.932307e-001 1.161583e-001
      outer loop
         vertex 2.540000e-002 1.778000e-001 2.540000e-001
         vertex 5.060769e-010 1.776071e-001 2.517947e-001
         vertex 2.540000e-002 1.776071e-001 2.517947e-001
      endloop
   endfacet
   facet normal -4.198884e-017 -9.730600e-001 2.305519e-001
      outer loop
         vertex 2.540000e-002 1.776071e-001 2.517947e-001
         vertex 5.060769e-010 1.776071e-001 2.517947e-001
         vertex 5.060769e-010 1.770341e-001 2.496563e-001
      endloop
   endfacet
   facet normal -5.224501e-017 -9.579706e-001 2.868663e-001
      outer loop
         vertex 2.540000e-002 1.776071e-001 2.517947e-001
         vertex 5.060769e-010 1.770341e-001 2.496563e-001
         vertex 2.540000e-002 1.770341e-001 2.496563e-001
      endloop
   endfacet
   facet normal -7.212431e-017 -9.182422e-001 3.960194e-001
      outer loop
         vertex 2.540000e-002 1.770341e-001 2.496563e-001
         vertex 5.060769e-010 1.770341e-001 2.496563e-001
         vertex 5.060769e-010 1.760985e-001 2.476500e-001
      endloop
   endfacet
   facet normal -8.174745e-017 -8.936031e-001 4.488580e-001
      outer loop
         vertex 2.540000e-002 1.770341e-001 2.496563e-001
         vertex 5.060769e-010 1.760985e-001 2.476500e-001
         vertex 2.540000e-002 1.760985e-001 2.476500e-001
      endloop
   endfacet
   facet normal -1.000683e-016 -8.355240e-001 5.494540e-001
      outer loop
         vertex 2.540000e-002 1.760985e-001 2.476500e-001
         vertex 5.060769e-010 1.760985e-001 2.476500e-001
         vertex 5.060769e-010 1.748288e-001 2.458366e-001
      endloop
   endfacet
   facet normal -1.087660e-016 -8.020839e-001 5.972114e-001
      outer loop
         vertex 2.540000e-002 1.760985e-001 2.476500e-001
         vertex 5.060769e-010 1.748288e-001 2.458366e-001
         vertex 2.540000e-002 1.748288e-001 2.458366e-001
      endloop
   endfacet
   facet normal -1.249718e-016 -7.274188e-001 6.861938e-001
      outer loop
         vertex 2.540000e-002 1.748288e-001 2.458366e-001
         vertex 5.060769e-010 1.748288e-001 2.458366e-001
         vertex 5.060769e-010 1.732634e-001 2.442712e-001
      endloop
   endfacet
   facet normal -1.324798e-016 -6.861938e-001 7.274188e-001
      outer loop
         vertex 2.540000e-002 1.748288e-001 2.458366e-001
         vertex 5.060769e-010 1.732634e-001 2.442712e-001
         vertex 2.540000e-002 1.732634e-001 2.442712e-001
      endloop
   endfacet
   facet normal -1.460781e-016 -5.972114e-001 8.020839e-001
      outer loop
         vertex 2.540000e-002 1.732634e-001 2.442712e-001
         vertex 5.060769e-010 1.732634e-001 2.442712e-001
         vertex 5.060769e-010 1.714500e-001 2.430015e-001
      endloop
   endfacet
   facet normal -1.521683e-016 -5.494540e-001 8.355240e-001
      outer loop
         vertex 2.540000e-002 1.732634e-001 2.442712e-001
         vertex 5.060769e-010 1.714500e-001 2.430015e-001
         vertex 2.540000e-002 1.714500e-001 2.430015e-001
      endloop
   endfacet
   facet normal -1.627459e-016 -4.488580e-001 8.936031e-001
      outer loop
         vertex 2.540000e-002 1.714500e-001 2.430015e-001
         vertex 5.060769e-010 1.714500e-001 2.430015e-001
         vertex 5.060769e-010 1.694437e-001 2.420659e-001
      endloop
   endfacet
   facet normal -1.672332e-016 -3.960194e-001 9.182422e-001
      outer loop
         vertex 2.540000e-002 1.714500e-001 2.430015e-001
         vertex 5.060769e-010 1.694437e-001 2.420659e-001
         vertex 2.540000e-002 1.694437e-001 2.420659e-001
      endloop
   endfacet
   facet normal -1.744687e-016 -2.868663e-001 9.579706e-001
      outer loop
         vertex 2.540000e-002 1.694437e-001 2.420659e-001
         vertex 5.060769e-010 1.694437e-001 2.420659e-001
         vertex 5.060769e-010 1.673053e-001 2.414929e-001
      endloop
   endfacet
   facet normal -1.772168e-016 -2.305519e-001 9.730600e-001
      outer loop
         vertex 2.540000e-002 1.694437e-001 2.420659e-001
         vertex 5.060769e-010 1.673053e-001 2.414929e-001
         vertex 2.540000e-002 1.673053e-001 2.414929e-001
      endloop
   endfacet
   facet normal -1.808904e-016 -1.161583e-001 9.932307e-001
      outer loop
         vertex 2.540000e-002 1.673053e-001 2.414929e-001
         vertex 5.060769e-010 1.673053e-001 2.414929e-001
         vertex 5.060769e-010 1.651000e-001 2.413000e-001
      endloop
   endfacet
   facet normal 5.807914e-002 -9.983120e-001 0.000000e+000
      outer loop
         vertex 1.628947e-001 1.776071e-001 2.540000e-002
         vertex 1.651000e-001 1.778000e-001 5.459820e-009
         vertex 1.651000e-001 1.778000e-001 2.540000e-002
      endloop
   endfacet
   facet normal -5.807914e-002 -9.983120e-001 0.000000e+000
      outer loop
         vertex 1.651000e-001 1.778000e-001 2.540000e-002
         vertex 1.651000e-001 1.778000e-001 5.459820e-009
         vertex 1.673053e-001 1.776071e-001 5.459820e-009
      endloop
   endfacet
   facet normal -1.161583e-001 -9.932307e-001 0.000000e+000
      outer loop
         vertex 1.651000e-001 1.778000e-001 2.540000e-002
         vertex 1.673053e-001 1.776071e-001 5.459820e-009
         vertex 1.673053e-001 1.776071e-001 2.540000e-002
      endloop
   endfacet
   facet normal -2.305519e-001 -9.730600e-001 0.000000e+000
      outer loop
         vertex 1.673053e-001 1.776071e-001 2.540000e-002
         vertex 1.673053e-001 1.776071e-001 5.459820e-009
         vertex 1.694437e-001 1.770341e-001 5.459820e-009
      endloop
   endfacet
   facet normal -2.868663e-001 -9.579706e-001 0.000000e+000
      outer loop
         vertex 1.673053e-001 1.776071e-001 2.540000e-002
         vertex 1.694437e-001 1.770341e-001 5.459820e-009
         vertex 1.694437e-001 1.770341e-001 2.540000e-002
      endloop
   endfacet
   facet normal -3.960194e-001 -9.182422e-001 0.000000e+000
      outer loop
         vertex 1.694437e-001 1.770341e-001 2.540000e-002
         vertex 1.694437e-001 1.770341e-001 5.459820e-009
         vertex 1.714500e-001 1.760985e-001 5.459820e-009
      endloop
   endfacet
   facet normal -4.488580e-001 -8.936031e-001 0.000000e+000
      outer loop
         vertex 1.694437e-001 1.770341e-001 2.540000e-002
         vertex 1.714500e-001 1.760985e-001 5.459820e-009
         vertex 1.714500e-001 1.760985e-001 2.540000e-002
      endloop
   endfacet
   facet normal -5.494540e-001 -8.355240e-001 0.000000e+000
      outer loop
         vertex 1.714500e-001 1.760985e-001 2.540000e-002
         vertex 1.714500e-001 1.760985e-001 5.459820e-009
         vertex 1.732634e-001 1.748288e-001 5.459820e-009
      endloop
   endfacet
   facet normal -5.972114e-001 -8.020839e-001 0.000000e+000
      outer loop
         vertex 1.714500e-001 1.760985e-001 2.540000e-002
         vertex 1.732634e-001 1.748288e-001 5.459820e-009
         vertex 1.732634e-001 1.748288e-001 2.540000e-002
      endloop
   endfacet
   facet normal -6.861938e-001 -7.274188e-001 0.000000e+000
      outer loop
         vertex 1.732634e-001 1.748288e-001 2.540000e-002
         vertex 1.732634e-001 1.748288e-001 5.459820e-009
         vertex 1.748288e-001 1.732634e-001 5.459820e-009
      endloop
   endfacet
   facet normal -7.274188e-001 -6.861938e-001 0.000000e+000
      outer loop
         vertex 1.732634e-001 1.748288e-001 2.540000e-002
         vertex 1.748288e-001 1.732634e-001 5.459820e-009
         vertex 1.748288e-001 1.732634e-001 2.540000e-002
      endloop
   endfacet
   facet normal -8.020839e-001 -5.972114e-001 0.000000e+000
      outer loop
         vertex 1.748288e-001 1.732634e-001 2.540000e-002
         vertex 1.748288e-001 1.732634e-001 5.459820e-009
         vertex 1.760985e-001 1.714500e-001 5.459820e-009
      endloop
   endfacet
   facet normal -8.355240e-001 -5.494540e-001 0.000000e+000
      outer loop
         vertex 1.748288e-001 1.732634e-001 2.540000e-002
         vertex 1.760985e-001 1.714500e-001 5.459820e-009
         vertex 1.760985e-001 1.714500e-001 2.540000e-002
      endloop
   endfacet
   facet normal -8.936031e-001 -4.488580e-001 0.000000e+000
      outer loop
         vertex 1.760985e-001 1.714500e-001 2.540000e-002
         vertex 1.760985e-001 1.714500e-001 5.459820e-009
         vertex 1.770341e-001 1.694437e-001 5.459820e-009
      endloop
   endfacet
   facet normal -9.182422e-001 -3.960194e-001 0.000000e+000
      outer loop
         vertex 1.760985e-001 1.714500e-001 2.540000e-002
         vertex 1.770341e-001 1.694437e-001 5.459820e-009
         vertex 1.770341e-001 1.694437e-001 2.540000e-002
      endloop
   endfacet
   facet normal -9.579706e-001 -2.868663e-001 0.000000e+000
      outer loop
         vertex 1.770341e-001 1.694437e-001 2.540000e-002
         vertex 1.770341e-001 1.694437e-001 5.459820e-009
         vertex 1.776071e-001 1.673053e-001 5.459820e-009
      endloop
   endfacet
   facet normal -9.730600e-001 -2.305519e-001 0.000000e+000
      outer loop
         vertex 1.770341e-001 1.694437e-001 2.540000e-002
         vertex 1.776071e-001 1.673053e-001 5.459820e-009
         vertex 1.776071e-001 1.673053e-001 2.540000e-002
      endloop
   endfacet
   facet normal -9.932307e-001 -1.161583e-001 0.000000e+000
      outer loop
         vertex 1.776071e-001 1.673053e-001 2.540000e-002
         vertex 1.776071e-001 1.673053e-001 5.459820e-009
         vertex 1.778000e-001 1.651000e-001 5.459820e-009
      endloop
   endfacet
   facet normal -9.983120e-001 -5.807914e-002 0.000000e+000
      outer loop
         vertex 1.776071e-001 1.673053e-001 2.540000e-002
         vertex 1.778000e-001 1.651000e-001 5.459820e-009
         vertex 1.778000e-001 1.651000e-001 2.540000e-002
      endloop
   endfacet
   facet normal -9.983120e-001 5.807914e-002 0.000000e+000
      outer loop
         vertex 1.778000e-001 1.651000e-001 2.540000e-002
         vertex 1.778000e-001 1.651000e-001 5.459820e-009
         vertex 1.776071e-001 1.628947e-001 5.459820e-009
      endloop
   endfacet
   facet normal -9.932307e-001 1.161583e-001 0.000000e+000
      outer loop
         vertex 1.778000e-001 1.651000e-001 2.540000e-002
         vertex 1.776071e-001 1.628947e-001 5.459820e-009
         vertex 1.776071e-001 1.628947e-001 2.540000e-002
      endloop
   endfacet
   facet normal -9.730600e-001 2.305519e-001 0.000000e+000
      outer loop
         vertex 1.776071e-001 1.628947e-001 2.540000e-002
         vertex 1.776071e-001 1.628947e-001 5.459820e-009
         vertex 1.770341e-001 1.607563e-001 5.459820e-009
      endloop
   endfacet
   facet normal -9.579706e-001 2.868663e-001 0.000000e+000
      outer loop
         vertex 1.776071e-001 1.628947e-001 2.540000e-002
         vertex 1.770341e-001 1.607563e-001 5.459820e-009
         vertex 1.770341e-001 1.607563e-001 2.540000e-002
      endloop
   endfacet
   facet normal -9.182422e-001 3.960194e-001 0.000000e+000
      outer loop
         vertex 1.770341e-001 1.607563e-001 2.540000e-002
         vertex 1.770341e-001 1.607563e-001 5.459820e-009
         vertex 1.760985e-001 1.587500e-001 5.459820e-009
      endloop
   endfacet
   facet normal -8.936031e-001 4.488580e-001 0.000000e+000
      outer loop
         vertex 1.770341e-001 1.607563e-001 2.540000e-002
         vertex 1.760985e-001 1.587500e-001 5.459820e-009
         vertex 1.760985e-001 1.587500e-001 2.540000e-002
      endloop
   endfacet
   facet normal -8.355240e-001 5.494540e-001 0.000000e+000
      outer loop
         vertex 1.760985e-001 1.587500e-001 2.540000e-002
         vertex 1.760985e-001 1.587500e-001 5.459820e-009
         vertex 1.748288e-001 1.569366e-001 5.459820e-009
      endloop
   endfacet
   facet normal -8.020839e-001 5.972114e-001 0.000000e+000
      outer loop
         vertex 1.760985e-001 1.587500e-001 2.540000e-002
         vertex 1.748288e-001 1.569366e-001 5.459820e-009
         vertex 1.748288e-001 1.569366e-001 2.540000e-002
      endloop
   endfacet
   facet normal -7.274188e-001 6.861938e-001 0.000000e+000
      outer loop
         vertex 1.748288e-001 1.569366e-001 2.540000e-002
         vertex 1.748288e-001 1.569366e-001 5.459820e-009
         vertex 1.732634e-001 1.553712e-001 5.459820e-009
      endloop
   endfacet
   facet normal -6.861938e-001 7.274188e-001 0.000000e+000
      outer loop
         vertex 1.748288e-001 1.569366e-001 2.540000e-002
         vertex 1.732634e-001 1.553712e-001 5.459820e-009
         vertex 1.732634e-001 1.553712e-001 2.540000e-002
      endloop
   endfacet
   facet normal -5.972114e-001 8.020839e-001 0.000000e+000
      outer loop
         vertex 1.732634e-001 1.553712e-001 2.540000e-002
         vertex 1.732634e-001 1.553712e-001 5.459820e-009
         vertex 1.714500e-001 1.541015e-001 5.459820e-009
      endloop
   endfacet
   facet normal -5.494540e-001 8.355240e-001 0.000000e+000
      outer loop
         vertex 1.732634e-001 1.553712e-001 2.540000e-002
         vertex 1.714500e-001 1.541015e-001 5.459820e-009
         vertex 1.714500e-001 1.541015e-001 2.540000e-002
      endloop
   endfacet
   facet normal -4.488580e-001 8.936031e-001 0.000000e+000
      outer loop
         vertex 1.714500e-001 1.541015e-001 2.540000e-002
         vertex 1.714500e-001 1.541015e-001 5.459820e-009
         vertex 1.694437e-001 1.531659e-001 5.459820e-009
      endloop
   endfacet
   facet normal -3.960194e-001 9.182422e-001 0.000000e+000
      outer loop
         vertex 1.714500e-001 1.541015e-001 2.540000e-002
         vertex 1.694437e-001 1.531659e-001 5.459820e-009
         vertex 1.694437e-001 1.531659e-001 2.540000e-002
      endloop
   endfacet
   facet normal -2.868663e-001 9.579706e-001 0.000000e+000
      outer loop
         vertex 1.694437e-001 1.531659e-001 2.540000e-002
         vertex 1.694437e-001 1.531659e-001 5.459820e-009
         vertex 1.673053e-001 1.525929e-001 5.459820e-009
      endloop
   endfacet
   facet normal -2.305519e-001 9.730600e-001 0.000000e+000
      outer loop
         vertex 1.694437e-001 1.531659e-001 2.540000e-002
         vertex 1.673053e-001 1.525929e-001 5.459820e-009
         vertex 1.673053e-001 1.525929e-001 2.540000e-002
      endloop
   endfacet
   facet normal -1.161583e-001 9.932307e-001 0.000000e+000
      outer loop
         vertex 1.673053e-001 1.525929e-001 2.540000e-002
         vertex 1.673053e-001 1.525929e-001 5.459820e-009
         vertex 1.651000e-001 1.524000e-001 5.459820e-009
      endloop
   endfacet
   facet normal -5.807914e-002 9.983120e-001 0.000000e+000
      outer loop
         vertex 1.673053e-001 1.525929e-001 2.540000e-002
         vertex 1.651000e-001 1.524000e-001 5.459820e-009
         vertex 1.651000e-001 1.524000e-001 2.540000e-002
      endloop
   endfacet
   facet normal 5.807914e-002 9.983120e-001 0.000000e+000
      outer loop
         vertex 1.651000e-001 1.524000e-001 2.540000e-002
         vertex 1.651000e-001 1.524000e-001 5.459820e-009
         vertex 1.628947e-001 1.525929e-001 5.459820e-009
      endloop
   endfacet
   facet normal 1.161583e-001 9.932307e-001 0.000000e+000
      outer loop
         vertex 1.651000e-001 1.524000e-001 2.540000e-002
         vertex 1.628947e-001 1.525929e-001 5.459820e-009
         vertex 1.628947e-001 1.525929e-001 2.540000e-002
      endloop
   endfacet
   facet normal 2.305519e-001 9.730600e-001 0.000000e+000
      outer loop
         vertex 1.628947e-001 1.525929e-001 2.540000e-002
         vertex 1.628947e-001 1.525929e-001 5.459820e-009
         vertex 1.607563e-001 1.531659e-001 5.459820e-009
      endloop
   endfacet
   facet normal 2.868663e-001 9.579706e-001 0.000000e+000
      outer loop
         vertex 1.628947e-001 1.525929e-001 2.540000e-002
         vertex 1.607563e-001 1.531659e-001 5.459820e-009
         vertex 1.607563e-001 1.531659e-001 2.540000e-002
      endloop
   endfacet
   facet normal 3.960194e-001 9.182422e-001 0.000000e+000
      outer loop
         vertex 1.607563e-001 1.531659e-001 2.540000e-002
         vertex 1.607563e-001 1.531659e-001 5.459820e-009
         vertex 1.587500e-001 1.541015e-001 5.459820e-009
      endloop
   endfacet
   facet normal 4.488580e-001 8.936031e-001 0.000000e+000
      outer loop
         vertex 1.607563e-001 1.531659e-001 2.540000e-002
         vertex 1.587500e-001 1.541015e-001 5.459820e-009
         vertex 1.587500e-001 1.541015e-001 2.540000e-002
      endloop
   endfacet
   facet normal 5.494540e-001 8.355240e-001 0.000000e+000
      outer loop
         vertex 1.587500e-001 1.541015e-001 2.540000e-002
         vertex 1.587500e-001 1.541015e-001 5.459820e-009
         vertex 1.569366e-001 1.553712e-001 5.459820e-009
      endloop
   endfacet
   facet normal 5.972114e-001 8.020839e-001 0.000000e+000
      outer loop
         vertex 1.587500e-001 1.541015e-001 2.540000e-002
         vertex 1.569366e-001 1.553712e-001 5.459820e-009
         vertex 1.569366e-001 1.553712e-001 2.540000e-002
      endloop
   endfacet
   facet normal 6.861938e-001 7.274188e-001 0.000000e+000
      outer loop
         vertex 1.569366e-001 1.553712e-001 2.540000e-002
         vertex 1.569366e-001 1.553712e-001 5.459820e-009
         vertex 1.553712e-001 1.569366e-001 5.459820e-009
      endloop
   endfacet
   facet normal 7.274188e-001 6.861938e-001 0.000000e+000
      outer loop
         vertex 1.569366e-001 1.553712e-001 2.540000e-002
         vertex 1.553712e-001 1.569366e-001 5.459820e-009
         vertex 1.553712e-001 1.569366e-001 2.540000e-002
      endloop
   endfacet
   facet normal 8.020839e-001 5.972114e-001 0.000000e+000
      outer loop
         vertex 1.553712e-001 1.569366e-001 2.540000e-002
         vertex 1.553712e-001 1.569366e-001 5.459820e-009
         vertex 1.541015e-001 1.587500e-001 5.459820e-009
      endloop
   endfacet
   facet normal 8.355240e-001 5.494540e-001 0.000000e+000
      outer loop
         vertex 1.553712e-001 1.569366e-001 2.540000e-002
         vertex 1.541015e-001 1.587500e-001 5.459820e-009
         vertex 1.541015e-001 1.587500e-001 2.540000e-002
      endloop
   endfacet
   facet normal 8.936031e-001 4.488580e-001 0.000000e+000
      outer loop
         vertex 1.541015e-001 1.587500e-001 2.540000e-002
         vertex 1.541015e-001 1.587500e-001 5.459820e-009
         vertex 1.531659e-001 1.607563e-001 5.459820e-009
      endloop
   endfacet
   facet normal 9.182422e-001 3.960194e-001 0.000000e+000
      outer loop
         vertex 1.541015e-001 1.587500e-001 2.540000e-002
         vertex 1.531659e-001 1.607563e-001 5.459820e-009
         vertex 1.531659e-001 1.607563e-001 2.540000e-002
      endloop
   endfacet
   facet normal 9.579706e-001 2.868663e-001 0.000000e+000
      outer loop
         vertex 1.531659e-001 1.607563e-001 2.540000e-002
         vertex 1.531659e-001 1.607563e-001 5.459820e-009
         vertex 1.525929e-001 1.628947e-001 5.459820e-009
      endloop
   endfacet
   facet normal 9.730600e-001 2.305519e-001 0.000000e+000
      outer loop
         vertex 1.531659e-001 1.607563e-001 2.540000e-002
         vertex 1.525929e-001 1.628947e-001 5.459820e-009
         vertex 1.525929e-001 1.628947e-001 2.540000e-002
      endloop
   endfacet
   facet normal 9.932307e-001 1.161583e-001 0.000000e+000
      outer loop
         vertex 1.525929e-001 1.628947e-001 2.540000e-002
         vertex 1.525929e-001 1.628947e-001 5.459820e-009
         vertex 1.524000e-001 1.651000e-001 5.459820e-009
      endloop
   endfacet
   facet normal 9.983120e-001 5.807914e-002 0.000000e+000
      outer loop
         vertex 1.525929e-001 1.628947e-001 2.540000e-002
         vertex 1.524000e-001 1.651000e-001 5.459820e-009
         vertex 1.524000e-001 1.651000e-001 2.540000e-002
      endloop
   endfacet
   facet normal 9.983120e-001 -5.807914e-002 0.000000e+000
      outer loop
         vertex 1.524000e-001 1.651000e-001 2.540000e-002
         vertex 1.524000e-001 1.651000e-001 5.459820e-009
         vertex 1.525929e-001 1.673053e-001 5.459820e-009
      endloop
   endfacet
   facet normal 9.932307e-001 -1.161583e-001 0.000000e+000
      outer loop
         vertex 1.524000e-001 1.651000e-001 2.540000e-002
         vertex 1.525929e-001 1.673053e-001 5.459820e-009
         vertex 1.525929e-001 1.673053e-001 2.540000e-002
      endloop
   endfacet
   facet normal 9.730600e-001 -2.305519e-001 0.000000e+000
      outer loop
         vertex 1.525929e-001 1.673053e-001 2.540000e-002
         vertex 1.525929e-001 1.673053e-001 5.459820e-009
         vertex 1.531659e-001 1.694437e-001 5.459820e-009
      endloop
   endfacet
   facet normal 9.579706e-001 -2.868663e-001 0.000000e+000
      outer loop
         vertex 1.525929e-001 1.673053e-001 2.540000e-002
         vertex 1.531659e-001 1.694437e-001 5.459820e-009
         vertex 1.531659e-001 1.694437e-001 2.540000e-002
      endloop
   endfacet
   facet normal 9.182422e-001 -3.960194e-001 0.000000e+000
      outer loop
         vertex 1.531659e-001 1.694437e-001 2.540000e-002
         vertex 1.531659e-001 1.694437e-001 5.459820e-009
         vertex 1.541015e-001 1.714500e-001 5.459820e-009
      endloop
   endfacet
   facet normal 8.936031e-001 -4.488580e-001 0.000000e+000
      outer loop
         vertex 1.531659e-001 1.694437e-001 2.540000e-002
         vertex 1.541015e-001 1.714500e-001 5.459820e-009
         vertex 1.541015e-001 1.714500e-001 2.540000e-002
      endloop
   endfacet
   facet normal 8.355240e-001 -5.494540e-001 0.000000e+000
      outer loop
         vertex 1.541015e-001 1.714500e-001 2.540000e-002
         vertex 1.541015e-001 1.714500e-001 5.459820e-009
         vertex 1.553712e-001 1.732634e-001 5.459820e-009
      endloop
   endfacet
   facet normal 8.020839e-001 -5.972114e-001 0.000000e+000
      outer loop
         vertex 1.541015e-001 1.714500e-001 2.540000e-002
         vertex 1.553712e-001 1.732634e-001 5.459820e-009
         vertex 1.553712e-001 1.732634e-001 2.540000e-002
      endloop
   endfacet
   facet normal 7.274188e-001 -6.861938e-001 0.000000e+000
      outer loop
         vertex 1.553712e-001 1.732634e-001 2.540000e-002
         vertex 1.553712e-001 1.732634e-001 5.459820e-009
         vertex 1.569366e-001 1.748288e-001 5.459820e-009
      endloop
   endfacet
   facet normal 6.861938e-001 -7.274188e-001 0.000000e+000
      outer loop
         vertex 1.553712e-001 1.732634e-001 2.540000e-002
         vertex 1.569366e-001 1.748288e-001 5.459820e-009
         vertex 1.569366e-001 1.748288e-001 2.540000e-002
      endloop
   endfacet
   facet normal 5.972114e-001 -8.020839e-001 0.000000e+000
      outer loop
         vertex 1.569366e-001 1.748288e-001 2.540000e-002
         vertex 1.569366e-001 1.748288e-001 5.459820e-009
         vertex 1.587500e-001 1.760985e-001 5.459820e-009
      endloop
   endfacet
   facet normal 5.494540e-001 -8.355240e-001 0.000000e+000
      outer loop
         vertex 1.569366e-001 1.748288e-001 2.540000e-002
         vertex 1.587500e-001 1.760985e-001 5.459820e-009
         vertex 1.587500e-001 1.760985e-001 2.540000e-002
      endloop
   endfacet
   facet normal 4.488580e-001 -8.936031e-001 0.000000e+000
      outer loop
         vertex 1.587500e-001 1.760985e-001 2.540000e-002
         vertex 1.587500e-001 1.760985e-001 5.459820e-009
         vertex 1.607563e-001 1.770341e-001 5.459820e-009
      endloop
   endfacet
   facet normal 3.960194e-001 -9.182422e-001 0.000000e+000
      outer loop
         vertex 1.587500e-001 1.760985e-001 2.540000e-002
         vertex 1.607563e-001 1.770341e-001 5.459820e-009
         vertex 1.607563e-001 1.770341e-001 2.540000e-002
      endloop
   endfacet
   facet normal 2.868663e-001 -9.579706e-001 0.000000e+000
      outer loop
         vertex 1.607563e-001 1.770341e-001 2.540000e-002
         vertex 1.607563e-001 1.770341e-001 5.459820e-009
         vertex 1.628947e-001 1.776071e-001 5.459820e-009
      endloop
   endfacet
   facet normal 2.305519e-001 -9.730600e-001 0.000000e+000
      outer loop
         vertex 1.607563e-001 1.770341e-001 2.540000e-002
         vertex 1.628947e-001 1.776071e-001 5.459820e-009
         vertex 1.628947e-001 1.776071e-001 2.540000e-002
      endloop
   endfacet
   facet normal 1.161583e-001 -9.932307e-001 0.000000e+000
      outer loop
         vertex 1.628947e-001 1.776071e-001 2.540000e-002
         vertex 1.628947e-001 1.776071e-001 5.459820e-009
         vertex 1.651000e-001 1.778000e-001 5.459820e-009
      endloop
   endfacet
endsolid